<?xml version="1.0" encoding="utf-8" standalone="no"?>
<!DOCTYPE svg PUBLIC "-//W3C//DTD SVG 1.1//EN"
  "http://www.w3.org/Graphics/SVG/1.1/DTD/svg11.dtd">
<!-- Created with matplotlib (https://matplotlib.org/) -->
<svg height="288pt" version="1.1" viewBox="0 0 432 288" width="432pt" xmlns="http://www.w3.org/2000/svg" xmlns:xlink="http://www.w3.org/1999/xlink">
 <metadata>
  <rdf:RDF xmlns:cc="http://creativecommons.org/ns#" xmlns:dc="http://purl.org/dc/elements/1.1/" xmlns:rdf="http://www.w3.org/1999/02/22-rdf-syntax-ns#">
   <cc:Work>
    <dc:type rdf:resource="http://purl.org/dc/dcmitype/StillImage"/>
    <dc:date>2021-04-15T19:50:33.915838</dc:date>
    <dc:format>image/svg+xml</dc:format>
    <dc:creator>
     <cc:Agent>
      <dc:title>Matplotlib v3.3.2, https://matplotlib.org/</dc:title>
     </cc:Agent>
    </dc:creator>
   </cc:Work>
  </rdf:RDF>
 </metadata>
 <defs>
  <style type="text/css">*{stroke-linecap:butt;stroke-linejoin:round;}</style>
 </defs>
 <g id="figure_1">
  <g id="patch_1">
   <path d="M 0 288 
L 432 288 
L 432 0 
L 0 0 
z
" style="fill:none;"/>
  </g>
  <g id="axes_1">
   <g id="patch_2">
    <path d="M 54 252 
L 388.8 252 
L 388.8 34.56 
L 54 34.56 
z
" style="fill:#ffffff;"/>
   </g>
   <g id="PathCollection_1">
    <defs>
     <path d="M 0 3 
C 0.795609 3 1.55874 2.683901 2.12132 2.12132 
C 2.683901 1.55874 3 0.795609 3 0 
C 3 -0.795609 2.683901 -1.55874 2.12132 -2.12132 
C 1.55874 -2.683901 0.795609 -3 0 -3 
C -0.795609 -3 -1.55874 -2.683901 -2.12132 -2.12132 
C -2.683901 -1.55874 -3 -0.795609 -3 0 
C -3 0.795609 -2.683901 1.55874 -2.12132 2.12132 
C -1.55874 2.683901 -0.795609 3 0 3 
z
" id="mbbb90dd19a" style="stroke:#2686a4;stroke-opacity:0.8;"/>
    </defs>
    <g clip-path="url(#p49877ba830)">
     <use style="fill:#2686a4;fill-opacity:0.8;stroke:#2686a4;stroke-opacity:0.8;" x="283.919311" xlink:href="#mbbb90dd19a" y="211.730678"/>
     <use style="fill:#2686a4;fill-opacity:0.8;stroke:#2686a4;stroke-opacity:0.8;" x="354.071231" xlink:href="#mbbb90dd19a" y="214.749275"/>
     <use style="fill:#2686a4;fill-opacity:0.8;stroke:#2686a4;stroke-opacity:0.8;" x="138.873792" xlink:href="#mbbb90dd19a" y="94.949696"/>
     <use style="fill:#2686a4;fill-opacity:0.8;stroke:#2686a4;stroke-opacity:0.8;" x="176.979147" xlink:href="#mbbb90dd19a" y="94.949696"/>
     <use style="fill:#2686a4;fill-opacity:0.8;stroke:#2686a4;stroke-opacity:0.8;" x="388.8" xlink:href="#mbbb90dd19a" y="94.949696"/>
     <use style="fill:#2686a4;fill-opacity:0.8;stroke:#2686a4;stroke-opacity:0.8;" x="54" xlink:href="#mbbb90dd19a" y="240.133314"/>
     <use style="fill:#2686a4;fill-opacity:0.8;stroke:#2686a4;stroke-opacity:0.8;" x="121.104966" xlink:href="#mbbb90dd19a" y="94.949696"/>
     <use style="fill:#2686a4;fill-opacity:0.8;stroke:#2686a4;stroke-opacity:0.8;" x="338.28601" xlink:href="#mbbb90dd19a" y="94.949696"/>
     <use style="fill:#2686a4;fill-opacity:0.8;stroke:#2686a4;stroke-opacity:0.8;" x="240.031803" xlink:href="#mbbb90dd19a" y="189.338001"/>
     <use style="fill:#2686a4;fill-opacity:0.8;stroke:#2686a4;stroke-opacity:0.8;" x="234.99635" xlink:href="#mbbb90dd19a" y="172.030124"/>
     <use style="fill:#2686a4;fill-opacity:0.8;stroke:#2686a4;stroke-opacity:0.8;" x="228.703158" xlink:href="#mbbb90dd19a" y="94.949696"/>
     <use style="fill:#2686a4;fill-opacity:0.8;stroke:#2686a4;stroke-opacity:0.8;" x="143.644492" xlink:href="#mbbb90dd19a" y="94.949696"/>
    </g>
   </g>
   <g id="PolyCollection_1">
    <path clip-path="url(#p49877ba830)" d="M 54 44.443636 
L 54 203.542391 
L 57.381818 202.537806 
L 60.763636 201.855768 
L 64.145455 201.276617 
L 67.527273 200.30309 
L 70.909091 199.457195 
L 74.290909 198.651976 
L 77.672727 197.497438 
L 81.054545 196.896934 
L 84.436364 195.930982 
L 87.818182 195.3995 
L 91.2 195.072788 
L 94.581818 194.630263 
L 97.963636 194.007355 
L 101.345455 193.074992 
L 104.727273 192.14263 
L 108.109091 191.29335 
L 111.490909 190.629175 
L 114.872727 190.025109 
L 118.254545 189.338503 
L 121.636364 188.998551 
L 125.018182 188.052548 
L 128.4 187.106654 
L 131.781818 186.27314 
L 135.163636 185.216669 
L 138.545455 184.580065 
L 141.927273 184.713343 
L 145.309091 184.095282 
L 148.690909 183.447659 
L 152.072727 183.014507 
L 155.454545 182.816926 
L 158.836364 182.562137 
L 162.218182 182.206657 
L 165.6 181.574813 
L 168.981818 180.932606 
L 172.363636 180.138923 
L 175.745455 179.175805 
L 179.127273 178.210234 
L 182.509091 177.244491 
L 185.890909 177.429135 
L 189.272727 177.099396 
L 192.654545 176.184982 
L 196.036364 175.68292 
L 199.418182 175.11352 
L 202.8 174.554963 
L 206.181818 174.160265 
L 209.563636 173.30118 
L 212.945455 173.670484 
L 216.327273 174.091364 
L 219.709091 173.659446 
L 223.090909 173.108582 
L 226.472727 173.471523 
L 229.854545 173.300581 
L 233.236364 173.520356 
L 236.618182 173.858742 
L 240 173.084812 
L 243.381818 173.250328 
L 246.763636 174.109141 
L 250.145455 174.365413 
L 253.527273 174.057384 
L 256.909091 174.725145 
L 260.290909 176.062787 
L 263.672727 177.623403 
L 267.054545 178.556844 
L 270.436364 180.065678 
L 273.818182 181.00022 
L 277.2 181.747552 
L 280.581818 182.449952 
L 283.963636 183.765984 
L 287.345455 185.888629 
L 290.727273 187.991108 
L 294.109091 190.115659 
L 297.490909 191.774811 
L 300.872727 192.96729 
L 304.254545 194.20776 
L 307.636364 195.728002 
L 311.018182 196.647271 
L 314.4 198.188211 
L 317.781818 200.292152 
L 321.163636 202.396093 
L 324.545455 204.500034 
L 327.927273 206.588349 
L 331.309091 208.656944 
L 334.690909 210.102344 
L 338.072727 212.10322 
L 341.454545 214.104096 
L 344.836364 216.104973 
L 348.218182 218.105849 
L 351.6 220.106725 
L 354.981818 222.107601 
L 358.363636 224.108477 
L 361.745455 226.109354 
L 365.127273 228.11023 
L 368.509091 230.111106 
L 371.890909 232.111982 
L 375.272727 234.112859 
L 378.654545 236.113735 
L 382.036364 238.114611 
L 385.418182 240.115487 
L 388.8 242.116364 
L 388.8 81.532843 
L 388.8 81.532843 
L 385.418182 82.42738 
L 382.036364 83.407941 
L 378.654545 84.327622 
L 375.272727 85.247304 
L 371.890909 86.166985 
L 368.509091 87.086666 
L 365.127273 87.727276 
L 361.745455 88.408761 
L 358.363636 89.166005 
L 354.981818 90.195143 
L 351.6 91.061122 
L 348.218182 91.895733 
L 344.836364 92.443897 
L 341.454545 93.321493 
L 338.072727 93.78347 
L 334.690909 94.245446 
L 331.309091 94.88708 
L 327.927273 95.041673 
L 324.545455 95.656309 
L 321.163636 96.450131 
L 317.781818 97.321242 
L 314.4 98.241137 
L 311.018182 99.102341 
L 307.636364 99.962758 
L 304.254545 100.823175 
L 300.872727 101.230616 
L 297.490909 101.876634 
L 294.109091 102.017598 
L 290.727273 102.153398 
L 287.345455 102.871115 
L 283.963636 103.236483 
L 280.581818 103.918551 
L 277.2 104.156461 
L 273.818182 104.870616 
L 270.436364 105.254004 
L 267.054545 106.111962 
L 263.672727 106.130721 
L 260.290909 106.849243 
L 256.909091 107.579401 
L 253.527273 108.217349 
L 250.145455 108.649408 
L 246.763636 109.074116 
L 243.381818 109.67973 
L 240 109.761166 
L 236.618182 110.162542 
L 233.236364 110.140292 
L 229.854545 110.071528 
L 226.472727 110.058743 
L 223.090909 110.226383 
L 219.709091 110.033997 
L 216.327273 109.840405 
L 212.945455 109.431693 
L 209.563636 108.946853 
L 206.181818 108.873416 
L 202.8 108.817045 
L 199.418182 108.616623 
L 196.036364 108.286816 
L 192.654545 108.183423 
L 189.272727 107.592914 
L 185.890909 106.744145 
L 182.509091 106.403335 
L 179.127273 105.490607 
L 175.745455 104.981157 
L 172.363636 103.528206 
L 168.981818 102.26251 
L 165.6 101.751339 
L 162.218182 101.526623 
L 158.836364 100.510208 
L 155.454545 99.291308 
L 152.072727 97.78374 
L 148.690909 96.349543 
L 145.309091 95.019828 
L 141.927273 94.674873 
L 138.545455 92.593517 
L 135.163636 90.873414 
L 131.781818 89.728657 
L 128.4 88.182199 
L 125.018182 85.958631 
L 121.636364 83.940988 
L 118.254545 81.99559 
L 114.872727 80.053217 
L 111.490909 78.134597 
L 108.109091 76.156202 
L 104.727273 74.165366 
L 101.345455 72.17453 
L 97.963636 70.183694 
L 94.581818 68.192858 
L 91.2 66.202022 
L 87.818182 64.211186 
L 84.436364 62.447179 
L 81.054545 60.738501 
L 77.672727 58.93568 
L 74.290909 56.976391 
L 70.909091 54.793133 
L 67.527273 52.636004 
L 64.145455 50.485309 
L 60.763636 48.334615 
L 57.381818 46.513742 
L 54 44.443636 
z
" style="fill:#2686a4;fill-opacity:0.15;"/>
   </g>
   <g id="matplotlib.axis_1">
    <g id="xtick_1">
     <g id="line2d_1">
      <defs>
       <path d="M 0 0 
L 0 3.5 
" id="mcb4e57669c" style="stroke:#000000;stroke-width:0.8;"/>
      </defs>
      <g>
       <use style="stroke:#000000;stroke-width:0.8;" x="88.047969" xlink:href="#mcb4e57669c" y="252"/>
      </g>
     </g>
     <g id="text_1">
      <!-- 58 -->
      <g transform="translate(81.685469 266.598437)scale(0.1 -0.1)">
       <defs>
        <path d="M 10.796875 72.90625 
L 49.515625 72.90625 
L 49.515625 64.59375 
L 19.828125 64.59375 
L 19.828125 46.734375 
Q 21.96875 47.46875 24.109375 47.828125 
Q 26.265625 48.1875 28.421875 48.1875 
Q 40.625 48.1875 47.75 41.5 
Q 54.890625 34.8125 54.890625 23.390625 
Q 54.890625 11.625 47.5625 5.09375 
Q 40.234375 -1.421875 26.90625 -1.421875 
Q 22.3125 -1.421875 17.546875 -0.640625 
Q 12.796875 0.140625 7.71875 1.703125 
L 7.71875 11.625 
Q 12.109375 9.234375 16.796875 8.0625 
Q 21.484375 6.890625 26.703125 6.890625 
Q 35.15625 6.890625 40.078125 11.328125 
Q 45.015625 15.765625 45.015625 23.390625 
Q 45.015625 31 40.078125 35.4375 
Q 35.15625 39.890625 26.703125 39.890625 
Q 22.75 39.890625 18.8125 39.015625 
Q 14.890625 38.140625 10.796875 36.28125 
z
" id="DejaVuSans-53"/>
        <path d="M 31.78125 34.625 
Q 24.75 34.625 20.71875 30.859375 
Q 16.703125 27.09375 16.703125 20.515625 
Q 16.703125 13.921875 20.71875 10.15625 
Q 24.75 6.390625 31.78125 6.390625 
Q 38.8125 6.390625 42.859375 10.171875 
Q 46.921875 13.96875 46.921875 20.515625 
Q 46.921875 27.09375 42.890625 30.859375 
Q 38.875 34.625 31.78125 34.625 
z
M 21.921875 38.8125 
Q 15.578125 40.375 12.03125 44.71875 
Q 8.5 49.078125 8.5 55.328125 
Q 8.5 64.0625 14.71875 69.140625 
Q 20.953125 74.21875 31.78125 74.21875 
Q 42.671875 74.21875 48.875 69.140625 
Q 55.078125 64.0625 55.078125 55.328125 
Q 55.078125 49.078125 51.53125 44.71875 
Q 48 40.375 41.703125 38.8125 
Q 48.828125 37.15625 52.796875 32.3125 
Q 56.78125 27.484375 56.78125 20.515625 
Q 56.78125 9.90625 50.3125 4.234375 
Q 43.84375 -1.421875 31.78125 -1.421875 
Q 19.734375 -1.421875 13.25 4.234375 
Q 6.78125 9.90625 6.78125 20.515625 
Q 6.78125 27.484375 10.78125 32.3125 
Q 14.796875 37.15625 21.921875 38.8125 
z
M 18.3125 54.390625 
Q 18.3125 48.734375 21.84375 45.5625 
Q 25.390625 42.390625 31.78125 42.390625 
Q 38.140625 42.390625 41.71875 45.5625 
Q 45.3125 48.734375 45.3125 54.390625 
Q 45.3125 60.0625 41.71875 63.234375 
Q 38.140625 66.40625 31.78125 66.40625 
Q 25.390625 66.40625 21.84375 63.234375 
Q 18.3125 60.0625 18.3125 54.390625 
z
" id="DejaVuSans-56"/>
       </defs>
       <use xlink:href="#DejaVuSans-53"/>
       <use x="63.623047" xlink:href="#DejaVuSans-56"/>
      </g>
     </g>
    </g>
    <g id="xtick_2">
     <g id="line2d_2">
      <g>
       <use style="stroke:#000000;stroke-width:0.8;" x="128.612295" xlink:href="#mcb4e57669c" y="252"/>
      </g>
     </g>
     <g id="text_2">
      <!-- 60 -->
      <g transform="translate(122.249795 266.598437)scale(0.1 -0.1)">
       <defs>
        <path d="M 33.015625 40.375 
Q 26.375 40.375 22.484375 35.828125 
Q 18.609375 31.296875 18.609375 23.390625 
Q 18.609375 15.53125 22.484375 10.953125 
Q 26.375 6.390625 33.015625 6.390625 
Q 39.65625 6.390625 43.53125 10.953125 
Q 47.40625 15.53125 47.40625 23.390625 
Q 47.40625 31.296875 43.53125 35.828125 
Q 39.65625 40.375 33.015625 40.375 
z
M 52.59375 71.296875 
L 52.59375 62.3125 
Q 48.875 64.0625 45.09375 64.984375 
Q 41.3125 65.921875 37.59375 65.921875 
Q 27.828125 65.921875 22.671875 59.328125 
Q 17.53125 52.734375 16.796875 39.40625 
Q 19.671875 43.65625 24.015625 45.921875 
Q 28.375 48.1875 33.59375 48.1875 
Q 44.578125 48.1875 50.953125 41.515625 
Q 57.328125 34.859375 57.328125 23.390625 
Q 57.328125 12.15625 50.6875 5.359375 
Q 44.046875 -1.421875 33.015625 -1.421875 
Q 20.359375 -1.421875 13.671875 8.265625 
Q 6.984375 17.96875 6.984375 36.375 
Q 6.984375 53.65625 15.1875 63.9375 
Q 23.390625 74.21875 37.203125 74.21875 
Q 40.921875 74.21875 44.703125 73.484375 
Q 48.484375 72.75 52.59375 71.296875 
z
" id="DejaVuSans-54"/>
        <path d="M 31.78125 66.40625 
Q 24.171875 66.40625 20.328125 58.90625 
Q 16.5 51.421875 16.5 36.375 
Q 16.5 21.390625 20.328125 13.890625 
Q 24.171875 6.390625 31.78125 6.390625 
Q 39.453125 6.390625 43.28125 13.890625 
Q 47.125 21.390625 47.125 36.375 
Q 47.125 51.421875 43.28125 58.90625 
Q 39.453125 66.40625 31.78125 66.40625 
z
M 31.78125 74.21875 
Q 44.046875 74.21875 50.515625 64.515625 
Q 56.984375 54.828125 56.984375 36.375 
Q 56.984375 17.96875 50.515625 8.265625 
Q 44.046875 -1.421875 31.78125 -1.421875 
Q 19.53125 -1.421875 13.0625 8.265625 
Q 6.59375 17.96875 6.59375 36.375 
Q 6.59375 54.828125 13.0625 64.515625 
Q 19.53125 74.21875 31.78125 74.21875 
z
" id="DejaVuSans-48"/>
       </defs>
       <use xlink:href="#DejaVuSans-54"/>
       <use x="63.623047" xlink:href="#DejaVuSans-48"/>
      </g>
     </g>
    </g>
    <g id="xtick_3">
     <g id="line2d_3">
      <g>
       <use style="stroke:#000000;stroke-width:0.8;" x="169.176622" xlink:href="#mcb4e57669c" y="252"/>
      </g>
     </g>
     <g id="text_3">
      <!-- 62 -->
      <g transform="translate(162.814122 266.598437)scale(0.1 -0.1)">
       <defs>
        <path d="M 19.1875 8.296875 
L 53.609375 8.296875 
L 53.609375 0 
L 7.328125 0 
L 7.328125 8.296875 
Q 12.9375 14.109375 22.625 23.890625 
Q 32.328125 33.6875 34.8125 36.53125 
Q 39.546875 41.84375 41.421875 45.53125 
Q 43.3125 49.21875 43.3125 52.78125 
Q 43.3125 58.59375 39.234375 62.25 
Q 35.15625 65.921875 28.609375 65.921875 
Q 23.96875 65.921875 18.8125 64.3125 
Q 13.671875 62.703125 7.8125 59.421875 
L 7.8125 69.390625 
Q 13.765625 71.78125 18.9375 73 
Q 24.125 74.21875 28.421875 74.21875 
Q 39.75 74.21875 46.484375 68.546875 
Q 53.21875 62.890625 53.21875 53.421875 
Q 53.21875 48.921875 51.53125 44.890625 
Q 49.859375 40.875 45.40625 35.40625 
Q 44.1875 33.984375 37.640625 27.21875 
Q 31.109375 20.453125 19.1875 8.296875 
z
" id="DejaVuSans-50"/>
       </defs>
       <use xlink:href="#DejaVuSans-54"/>
       <use x="63.623047" xlink:href="#DejaVuSans-50"/>
      </g>
     </g>
    </g>
    <g id="xtick_4">
     <g id="line2d_4">
      <g>
       <use style="stroke:#000000;stroke-width:0.8;" x="209.740948" xlink:href="#mcb4e57669c" y="252"/>
      </g>
     </g>
     <g id="text_4">
      <!-- 64 -->
      <g transform="translate(203.378448 266.598437)scale(0.1 -0.1)">
       <defs>
        <path d="M 37.796875 64.3125 
L 12.890625 25.390625 
L 37.796875 25.390625 
z
M 35.203125 72.90625 
L 47.609375 72.90625 
L 47.609375 25.390625 
L 58.015625 25.390625 
L 58.015625 17.1875 
L 47.609375 17.1875 
L 47.609375 0 
L 37.796875 0 
L 37.796875 17.1875 
L 4.890625 17.1875 
L 4.890625 26.703125 
z
" id="DejaVuSans-52"/>
       </defs>
       <use xlink:href="#DejaVuSans-54"/>
       <use x="63.623047" xlink:href="#DejaVuSans-52"/>
      </g>
     </g>
    </g>
    <g id="xtick_5">
     <g id="line2d_5">
      <g>
       <use style="stroke:#000000;stroke-width:0.8;" x="250.305275" xlink:href="#mcb4e57669c" y="252"/>
      </g>
     </g>
     <g id="text_5">
      <!-- 66 -->
      <g transform="translate(243.942775 266.598437)scale(0.1 -0.1)">
       <use xlink:href="#DejaVuSans-54"/>
       <use x="63.623047" xlink:href="#DejaVuSans-54"/>
      </g>
     </g>
    </g>
    <g id="xtick_6">
     <g id="line2d_6">
      <g>
       <use style="stroke:#000000;stroke-width:0.8;" x="290.869601" xlink:href="#mcb4e57669c" y="252"/>
      </g>
     </g>
     <g id="text_6">
      <!-- 68 -->
      <g transform="translate(284.507101 266.598437)scale(0.1 -0.1)">
       <use xlink:href="#DejaVuSans-54"/>
       <use x="63.623047" xlink:href="#DejaVuSans-56"/>
      </g>
     </g>
    </g>
    <g id="xtick_7">
     <g id="line2d_7">
      <g>
       <use style="stroke:#000000;stroke-width:0.8;" x="331.433928" xlink:href="#mcb4e57669c" y="252"/>
      </g>
     </g>
     <g id="text_7">
      <!-- 70 -->
      <g transform="translate(325.071428 266.598437)scale(0.1 -0.1)">
       <defs>
        <path d="M 8.203125 72.90625 
L 55.078125 72.90625 
L 55.078125 68.703125 
L 28.609375 0 
L 18.3125 0 
L 43.21875 64.59375 
L 8.203125 64.59375 
z
" id="DejaVuSans-55"/>
       </defs>
       <use xlink:href="#DejaVuSans-55"/>
       <use x="63.623047" xlink:href="#DejaVuSans-48"/>
      </g>
     </g>
    </g>
    <g id="xtick_8">
     <g id="line2d_8">
      <g>
       <use style="stroke:#000000;stroke-width:0.8;" x="371.998254" xlink:href="#mcb4e57669c" y="252"/>
      </g>
     </g>
     <g id="text_8">
      <!-- 72 -->
      <g transform="translate(365.635754 266.598437)scale(0.1 -0.1)">
       <use xlink:href="#DejaVuSans-55"/>
       <use x="63.623047" xlink:href="#DejaVuSans-50"/>
      </g>
     </g>
    </g>
    <g id="text_9">
     <!-- GC -->
     <g transform="translate(214.034375 280.276563)scale(0.1 -0.1)">
      <defs>
       <path d="M 59.515625 10.40625 
L 59.515625 29.984375 
L 43.40625 29.984375 
L 43.40625 38.09375 
L 69.28125 38.09375 
L 69.28125 6.78125 
Q 63.578125 2.734375 56.6875 0.65625 
Q 49.8125 -1.421875 42 -1.421875 
Q 24.90625 -1.421875 15.25 8.5625 
Q 5.609375 18.5625 5.609375 36.375 
Q 5.609375 54.25 15.25 64.234375 
Q 24.90625 74.21875 42 74.21875 
Q 49.125 74.21875 55.546875 72.453125 
Q 61.96875 70.703125 67.390625 67.28125 
L 67.390625 56.78125 
Q 61.921875 61.421875 55.765625 63.765625 
Q 49.609375 66.109375 42.828125 66.109375 
Q 29.4375 66.109375 22.71875 58.640625 
Q 16.015625 51.171875 16.015625 36.375 
Q 16.015625 21.625 22.71875 14.15625 
Q 29.4375 6.6875 42.828125 6.6875 
Q 48.046875 6.6875 52.140625 7.59375 
Q 56.25 8.5 59.515625 10.40625 
z
" id="DejaVuSans-71"/>
       <path d="M 64.40625 67.28125 
L 64.40625 56.890625 
Q 59.421875 61.53125 53.78125 63.8125 
Q 48.140625 66.109375 41.796875 66.109375 
Q 29.296875 66.109375 22.65625 58.46875 
Q 16.015625 50.828125 16.015625 36.375 
Q 16.015625 21.96875 22.65625 14.328125 
Q 29.296875 6.6875 41.796875 6.6875 
Q 48.140625 6.6875 53.78125 8.984375 
Q 59.421875 11.28125 64.40625 15.921875 
L 64.40625 5.609375 
Q 59.234375 2.09375 53.4375 0.328125 
Q 47.65625 -1.421875 41.21875 -1.421875 
Q 24.65625 -1.421875 15.125 8.703125 
Q 5.609375 18.84375 5.609375 36.375 
Q 5.609375 53.953125 15.125 64.078125 
Q 24.65625 74.21875 41.21875 74.21875 
Q 47.75 74.21875 53.53125 72.484375 
Q 59.328125 70.75 64.40625 67.28125 
z
" id="DejaVuSans-67"/>
      </defs>
      <use xlink:href="#DejaVuSans-71"/>
      <use x="77.490234" xlink:href="#DejaVuSans-67"/>
     </g>
    </g>
   </g>
   <g id="matplotlib.axis_2">
    <g id="ytick_1">
     <g id="line2d_9">
      <defs>
       <path d="M 0 0 
L -3.5 0 
" id="m00a9d79254" style="stroke:#000000;stroke-width:0.8;"/>
      </defs>
      <g>
       <use style="stroke:#000000;stroke-width:0.8;" x="54" xlink:href="#m00a9d79254" y="230.514899"/>
      </g>
     </g>
     <g id="text_10">
      <!-- −0.15 -->
      <g transform="translate(16.354687 234.314118)scale(0.1 -0.1)">
       <defs>
        <path d="M 10.59375 35.5 
L 73.1875 35.5 
L 73.1875 27.203125 
L 10.59375 27.203125 
z
" id="DejaVuSans-8722"/>
        <path d="M 10.6875 12.40625 
L 21 12.40625 
L 21 0 
L 10.6875 0 
z
" id="DejaVuSans-46"/>
        <path d="M 12.40625 8.296875 
L 28.515625 8.296875 
L 28.515625 63.921875 
L 10.984375 60.40625 
L 10.984375 69.390625 
L 28.421875 72.90625 
L 38.28125 72.90625 
L 38.28125 8.296875 
L 54.390625 8.296875 
L 54.390625 0 
L 12.40625 0 
z
" id="DejaVuSans-49"/>
       </defs>
       <use xlink:href="#DejaVuSans-8722"/>
       <use x="83.789062" xlink:href="#DejaVuSans-48"/>
       <use x="147.412109" xlink:href="#DejaVuSans-46"/>
       <use x="179.199219" xlink:href="#DejaVuSans-49"/>
       <use x="242.822266" xlink:href="#DejaVuSans-53"/>
      </g>
     </g>
    </g>
    <g id="ytick_2">
     <g id="line2d_10">
      <g>
       <use style="stroke:#000000;stroke-width:0.8;" x="54" xlink:href="#m00a9d79254" y="185.326498"/>
      </g>
     </g>
     <g id="text_11">
      <!-- −0.10 -->
      <g transform="translate(16.354687 189.125717)scale(0.1 -0.1)">
       <use xlink:href="#DejaVuSans-8722"/>
       <use x="83.789062" xlink:href="#DejaVuSans-48"/>
       <use x="147.412109" xlink:href="#DejaVuSans-46"/>
       <use x="179.199219" xlink:href="#DejaVuSans-49"/>
       <use x="242.822266" xlink:href="#DejaVuSans-48"/>
      </g>
     </g>
    </g>
    <g id="ytick_3">
     <g id="line2d_11">
      <g>
       <use style="stroke:#000000;stroke-width:0.8;" x="54" xlink:href="#m00a9d79254" y="140.138097"/>
      </g>
     </g>
     <g id="text_12">
      <!-- −0.05 -->
      <g transform="translate(16.354687 143.937316)scale(0.1 -0.1)">
       <use xlink:href="#DejaVuSans-8722"/>
       <use x="83.789062" xlink:href="#DejaVuSans-48"/>
       <use x="147.412109" xlink:href="#DejaVuSans-46"/>
       <use x="179.199219" xlink:href="#DejaVuSans-48"/>
       <use x="242.822266" xlink:href="#DejaVuSans-53"/>
      </g>
     </g>
    </g>
    <g id="ytick_4">
     <g id="line2d_12">
      <g>
       <use style="stroke:#000000;stroke-width:0.8;" x="54" xlink:href="#m00a9d79254" y="94.949696"/>
      </g>
     </g>
     <g id="text_13">
      <!-- 0.00 -->
      <g transform="translate(24.734375 98.748914)scale(0.1 -0.1)">
       <use xlink:href="#DejaVuSans-48"/>
       <use x="63.623047" xlink:href="#DejaVuSans-46"/>
       <use x="95.410156" xlink:href="#DejaVuSans-48"/>
       <use x="159.033203" xlink:href="#DejaVuSans-48"/>
      </g>
     </g>
    </g>
    <g id="ytick_5">
     <g id="line2d_13">
      <g>
       <use style="stroke:#000000;stroke-width:0.8;" x="54" xlink:href="#m00a9d79254" y="49.761294"/>
      </g>
     </g>
     <g id="text_14">
      <!-- 0.05 -->
      <g transform="translate(24.734375 53.560513)scale(0.1 -0.1)">
       <use xlink:href="#DejaVuSans-48"/>
       <use x="63.623047" xlink:href="#DejaVuSans-46"/>
       <use x="95.410156" xlink:href="#DejaVuSans-48"/>
       <use x="159.033203" xlink:href="#DejaVuSans-53"/>
      </g>
     </g>
    </g>
    <g id="text_15">
     <!-- DiffDens -->
     <g transform="translate(10.275 164.739375)rotate(-90)scale(0.1 -0.1)">
      <defs>
       <path d="M 19.671875 64.796875 
L 19.671875 8.109375 
L 31.59375 8.109375 
Q 46.6875 8.109375 53.6875 14.9375 
Q 60.6875 21.78125 60.6875 36.53125 
Q 60.6875 51.171875 53.6875 57.984375 
Q 46.6875 64.796875 31.59375 64.796875 
z
M 9.8125 72.90625 
L 30.078125 72.90625 
Q 51.265625 72.90625 61.171875 64.09375 
Q 71.09375 55.28125 71.09375 36.53125 
Q 71.09375 17.671875 61.125 8.828125 
Q 51.171875 0 30.078125 0 
L 9.8125 0 
z
" id="DejaVuSans-68"/>
       <path d="M 9.421875 54.6875 
L 18.40625 54.6875 
L 18.40625 0 
L 9.421875 0 
z
M 9.421875 75.984375 
L 18.40625 75.984375 
L 18.40625 64.59375 
L 9.421875 64.59375 
z
" id="DejaVuSans-105"/>
       <path d="M 37.109375 75.984375 
L 37.109375 68.5 
L 28.515625 68.5 
Q 23.6875 68.5 21.796875 66.546875 
Q 19.921875 64.59375 19.921875 59.515625 
L 19.921875 54.6875 
L 34.71875 54.6875 
L 34.71875 47.703125 
L 19.921875 47.703125 
L 19.921875 0 
L 10.890625 0 
L 10.890625 47.703125 
L 2.296875 47.703125 
L 2.296875 54.6875 
L 10.890625 54.6875 
L 10.890625 58.5 
Q 10.890625 67.625 15.140625 71.796875 
Q 19.390625 75.984375 28.609375 75.984375 
z
" id="DejaVuSans-102"/>
       <path d="M 56.203125 29.59375 
L 56.203125 25.203125 
L 14.890625 25.203125 
Q 15.484375 15.921875 20.484375 11.0625 
Q 25.484375 6.203125 34.421875 6.203125 
Q 39.59375 6.203125 44.453125 7.46875 
Q 49.3125 8.734375 54.109375 11.28125 
L 54.109375 2.78125 
Q 49.265625 0.734375 44.1875 -0.34375 
Q 39.109375 -1.421875 33.890625 -1.421875 
Q 20.796875 -1.421875 13.15625 6.1875 
Q 5.515625 13.8125 5.515625 26.8125 
Q 5.515625 40.234375 12.765625 48.109375 
Q 20.015625 56 32.328125 56 
Q 43.359375 56 49.78125 48.890625 
Q 56.203125 41.796875 56.203125 29.59375 
z
M 47.21875 32.234375 
Q 47.125 39.59375 43.09375 43.984375 
Q 39.0625 48.390625 32.421875 48.390625 
Q 24.90625 48.390625 20.390625 44.140625 
Q 15.875 39.890625 15.1875 32.171875 
z
" id="DejaVuSans-101"/>
       <path d="M 54.890625 33.015625 
L 54.890625 0 
L 45.90625 0 
L 45.90625 32.71875 
Q 45.90625 40.484375 42.875 44.328125 
Q 39.84375 48.1875 33.796875 48.1875 
Q 26.515625 48.1875 22.3125 43.546875 
Q 18.109375 38.921875 18.109375 30.90625 
L 18.109375 0 
L 9.078125 0 
L 9.078125 54.6875 
L 18.109375 54.6875 
L 18.109375 46.1875 
Q 21.34375 51.125 25.703125 53.5625 
Q 30.078125 56 35.796875 56 
Q 45.21875 56 50.046875 50.171875 
Q 54.890625 44.34375 54.890625 33.015625 
z
" id="DejaVuSans-110"/>
       <path d="M 44.28125 53.078125 
L 44.28125 44.578125 
Q 40.484375 46.53125 36.375 47.5 
Q 32.28125 48.484375 27.875 48.484375 
Q 21.1875 48.484375 17.84375 46.4375 
Q 14.5 44.390625 14.5 40.28125 
Q 14.5 37.15625 16.890625 35.375 
Q 19.28125 33.59375 26.515625 31.984375 
L 29.59375 31.296875 
Q 39.15625 29.25 43.1875 25.515625 
Q 47.21875 21.78125 47.21875 15.09375 
Q 47.21875 7.46875 41.1875 3.015625 
Q 35.15625 -1.421875 24.609375 -1.421875 
Q 20.21875 -1.421875 15.453125 -0.5625 
Q 10.6875 0.296875 5.421875 2 
L 5.421875 11.28125 
Q 10.40625 8.6875 15.234375 7.390625 
Q 20.0625 6.109375 24.8125 6.109375 
Q 31.15625 6.109375 34.5625 8.28125 
Q 37.984375 10.453125 37.984375 14.40625 
Q 37.984375 18.0625 35.515625 20.015625 
Q 33.0625 21.96875 24.703125 23.78125 
L 21.578125 24.515625 
Q 13.234375 26.265625 9.515625 29.90625 
Q 5.8125 33.546875 5.8125 39.890625 
Q 5.8125 47.609375 11.28125 51.796875 
Q 16.75 56 26.8125 56 
Q 31.78125 56 36.171875 55.265625 
Q 40.578125 54.546875 44.28125 53.078125 
z
" id="DejaVuSans-115"/>
      </defs>
      <use xlink:href="#DejaVuSans-68"/>
      <use x="77.001953" xlink:href="#DejaVuSans-105"/>
      <use x="104.785156" xlink:href="#DejaVuSans-102"/>
      <use x="139.990234" xlink:href="#DejaVuSans-102"/>
      <use x="175.195312" xlink:href="#DejaVuSans-68"/>
      <use x="252.197266" xlink:href="#DejaVuSans-101"/>
      <use x="313.720703" xlink:href="#DejaVuSans-110"/>
      <use x="377.099609" xlink:href="#DejaVuSans-115"/>
     </g>
    </g>
   </g>
   <g id="line2d_14">
    <path clip-path="url(#p49877ba830)" d="M 54 141.715365 
L 57.381818 141.702277 
L 60.763636 141.689188 
L 64.145455 141.676099 
L 67.527273 141.66301 
L 70.909091 141.649922 
L 74.290909 141.636833 
L 77.672727 141.623744 
L 81.054545 141.610655 
L 84.436364 141.597567 
L 87.818182 141.584478 
L 91.2 141.571389 
L 94.581818 141.5583 
L 97.963636 141.545211 
L 101.345455 141.532123 
L 104.727273 141.519034 
L 108.109091 141.505945 
L 111.490909 141.492856 
L 114.872727 141.479768 
L 118.254545 141.466679 
L 121.636364 141.45359 
L 125.018182 141.440501 
L 128.4 141.427413 
L 131.781818 141.414324 
L 135.163636 141.401235 
L 138.545455 141.388146 
L 141.927273 141.375058 
L 145.309091 141.361969 
L 148.690909 141.34888 
L 152.072727 141.335791 
L 155.454545 141.322702 
L 158.836364 141.309614 
L 162.218182 141.296525 
L 165.6 141.283436 
L 168.981818 141.270347 
L 172.363636 141.257259 
L 175.745455 141.24417 
L 179.127273 141.231081 
L 182.509091 141.217992 
L 185.890909 141.204904 
L 189.272727 141.191815 
L 192.654545 141.178726 
L 196.036364 141.165637 
L 199.418182 141.152548 
L 202.8 141.13946 
L 206.181818 141.126371 
L 209.563636 141.113282 
L 212.945455 141.100193 
L 216.327273 141.087105 
L 219.709091 141.074016 
L 223.090909 141.060927 
L 226.472727 141.047838 
L 229.854545 141.03475 
L 233.236364 141.021661 
L 236.618182 141.008572 
L 240 140.995483 
L 243.381818 140.982395 
L 246.763636 140.969306 
L 250.145455 140.956217 
L 253.527273 140.943128 
L 256.909091 140.930039 
L 260.290909 140.916951 
L 263.672727 140.903862 
L 267.054545 140.890773 
L 270.436364 140.877684 
L 273.818182 140.864596 
L 277.2 140.851507 
L 280.581818 140.838418 
L 283.963636 140.825329 
L 287.345455 140.812241 
L 290.727273 140.799152 
L 294.109091 140.786063 
L 297.490909 140.772974 
L 300.872727 140.759885 
L 304.254545 140.746797 
L 307.636364 140.733708 
L 311.018182 140.720619 
L 314.4 140.70753 
L 317.781818 140.694442 
L 321.163636 140.681353 
L 324.545455 140.668264 
L 327.927273 140.655175 
L 331.309091 140.642087 
L 334.690909 140.628998 
L 338.072727 140.615909 
L 341.454545 140.60282 
L 344.836364 140.589732 
L 348.218182 140.576643 
L 351.6 140.563554 
L 354.981818 140.550465 
L 358.363636 140.537376 
L 361.745455 140.524288 
L 365.127273 140.511199 
L 368.509091 140.49811 
L 371.890909 140.485021 
L 375.272727 140.471933 
L 378.654545 140.458844 
L 382.036364 140.445755 
L 385.418182 140.432666 
L 388.8 140.419578 
" style="fill:none;stroke:#2686a4;stroke-linecap:square;stroke-width:2.25;"/>
   </g>
   <g id="patch_3">
    <path d="M 54 252 
L 54 34.56 
" style="fill:none;stroke:#000000;stroke-linecap:square;stroke-linejoin:miter;stroke-width:0.8;"/>
   </g>
   <g id="patch_4">
    <path d="M 388.8 252 
L 388.8 34.56 
" style="fill:none;stroke:#000000;stroke-linecap:square;stroke-linejoin:miter;stroke-width:0.8;"/>
   </g>
   <g id="patch_5">
    <path d="M 54 252 
L 388.8 252 
" style="fill:none;stroke:#000000;stroke-linecap:square;stroke-linejoin:miter;stroke-width:0.8;"/>
   </g>
   <g id="patch_6">
    <path d="M 54 34.56 
L 388.8 34.56 
" style="fill:none;stroke:#000000;stroke-linecap:square;stroke-linejoin:miter;stroke-width:0.8;"/>
   </g>
  </g>
 </g>
 <defs>
  <clipPath id="p49877ba830">
   <rect height="217.44" width="334.8" x="54" y="34.56"/>
  </clipPath>
 </defs>
</svg>
