<?xml version="1.0" encoding="utf-8" standalone="no"?>
<!DOCTYPE svg PUBLIC "-//W3C//DTD SVG 1.1//EN"
  "http://www.w3.org/Graphics/SVG/1.1/DTD/svg11.dtd">
<!-- Created with matplotlib (https://matplotlib.org/) -->
<svg height="288pt" version="1.1" viewBox="0 0 432 288" width="432pt" xmlns="http://www.w3.org/2000/svg" xmlns:xlink="http://www.w3.org/1999/xlink">
 <metadata>
  <rdf:RDF xmlns:cc="http://creativecommons.org/ns#" xmlns:dc="http://purl.org/dc/elements/1.1/" xmlns:rdf="http://www.w3.org/1999/02/22-rdf-syntax-ns#">
   <cc:Work>
    <dc:type rdf:resource="http://purl.org/dc/dcmitype/StillImage"/>
    <dc:date>2021-04-15T19:49:11.800648</dc:date>
    <dc:format>image/svg+xml</dc:format>
    <dc:creator>
     <cc:Agent>
      <dc:title>Matplotlib v3.3.2, https://matplotlib.org/</dc:title>
     </cc:Agent>
    </dc:creator>
   </cc:Work>
  </rdf:RDF>
 </metadata>
 <defs>
  <style type="text/css">*{stroke-linecap:butt;stroke-linejoin:round;}</style>
 </defs>
 <g id="figure_1">
  <g id="patch_1">
   <path d="M 0 288 
L 432 288 
L 432 0 
L 0 0 
z
" style="fill:none;"/>
  </g>
  <g id="axes_1">
   <g id="patch_2">
    <path d="M 54 252 
L 388.8 252 
L 388.8 34.56 
L 54 34.56 
z
" style="fill:#ffffff;"/>
   </g>
   <g id="PathCollection_1">
    <defs>
     <path d="M 0 3 
C 0.795609 3 1.55874 2.683901 2.12132 2.12132 
C 2.683901 1.55874 3 0.795609 3 0 
C 3 -0.795609 2.683901 -1.55874 2.12132 -2.12132 
C 1.55874 -2.683901 0.795609 -3 0 -3 
C -0.795609 -3 -1.55874 -2.683901 -2.12132 -2.12132 
C -2.683901 -1.55874 -3 -0.795609 -3 0 
C -3 0.795609 -2.683901 1.55874 -2.12132 2.12132 
C -1.55874 2.683901 -0.795609 3 0 3 
z
" id="md3c79aed31" style="stroke:#2686a4;stroke-opacity:0.8;"/>
    </defs>
    <g clip-path="url(#p3bc60edcba)">
     <use style="fill:#2686a4;fill-opacity:0.8;stroke:#2686a4;stroke-opacity:0.8;" x="293.142857" xlink:href="#md3c79aed31" y="135.620822"/>
     <use style="fill:#2686a4;fill-opacity:0.8;stroke:#2686a4;stroke-opacity:0.8;" x="278.196429" xlink:href="#md3c79aed31" y="44.443636"/>
     <use style="fill:#2686a4;fill-opacity:0.8;stroke:#2686a4;stroke-opacity:0.8;" x="54" xlink:href="#md3c79aed31" y="175.204015"/>
     <use style="fill:#2686a4;fill-opacity:0.8;stroke:#2686a4;stroke-opacity:0.8;" x="179.55" xlink:href="#md3c79aed31" y="230.221068"/>
     <use style="fill:#2686a4;fill-opacity:0.8;stroke:#2686a4;stroke-opacity:0.8;" x="388.8" xlink:href="#md3c79aed31" y="174.950868"/>
     <use style="fill:#2686a4;fill-opacity:0.8;stroke:#2686a4;stroke-opacity:0.8;" x="179.55" xlink:href="#md3c79aed31" y="108.273857"/>
     <use style="fill:#2686a4;fill-opacity:0.8;stroke:#2686a4;stroke-opacity:0.8;" x="173.571429" xlink:href="#md3c79aed31" y="108.755339"/>
     <use style="fill:#2686a4;fill-opacity:0.8;stroke:#2686a4;stroke-opacity:0.8;" x="308.089286" xlink:href="#md3c79aed31" y="105.029682"/>
     <use style="fill:#2686a4;fill-opacity:0.8;stroke:#2686a4;stroke-opacity:0.8;" x="248.303571" xlink:href="#md3c79aed31" y="99.525337"/>
     <use style="fill:#2686a4;fill-opacity:0.8;stroke:#2686a4;stroke-opacity:0.8;" x="361.896429" xlink:href="#md3c79aed31" y="104.289056"/>
     <use style="fill:#2686a4;fill-opacity:0.8;stroke:#2686a4;stroke-opacity:0.8;" x="308.089286" xlink:href="#md3c79aed31" y="100.057825"/>
     <use style="fill:#2686a4;fill-opacity:0.8;stroke:#2686a4;stroke-opacity:0.8;" x="245.314286" xlink:href="#md3c79aed31" y="135.609536"/>
    </g>
   </g>
   <g id="PolyCollection_1">
    <path clip-path="url(#p3bc60edcba)" d="M 54 60.206197 
L 54 242.116364 
L 57.381818 240.372154 
L 60.763636 238.536121 
L 64.145455 236.697049 
L 67.527273 234.650223 
L 70.909091 232.510058 
L 74.290909 230.369893 
L 77.672727 228.229728 
L 81.054545 226.089563 
L 84.436364 224.196233 
L 87.818182 222.705233 
L 91.2 221.208443 
L 94.581818 219.516526 
L 97.963636 217.405092 
L 101.345455 215.2865 
L 104.727273 213.166115 
L 108.109091 211.04573 
L 111.490909 208.925344 
L 114.872727 207.756533 
L 118.254545 206.697394 
L 121.636364 205.203717 
L 125.018182 202.946842 
L 128.4 200.689966 
L 131.781818 199.553312 
L 135.163636 198.094023 
L 138.545455 196.276288 
L 141.927273 194.934323 
L 145.309091 193.719047 
L 148.690909 192.184306 
L 152.072727 190.227104 
L 155.454545 188.797212 
L 158.836364 187.061895 
L 162.218182 185.11101 
L 165.6 183.407481 
L 168.981818 181.88889 
L 172.363636 180.369976 
L 175.745455 178.839368 
L 179.127273 177.421458 
L 182.509091 176.012147 
L 185.890909 174.247546 
L 189.272727 172.716939 
L 192.654545 171.197319 
L 196.036364 170.243546 
L 199.418182 168.168889 
L 202.8 167.252795 
L 206.181818 165.593503 
L 209.563636 163.601893 
L 212.945455 162.588434 
L 216.327273 161.685577 
L 219.709091 159.95547 
L 223.090909 159.125998 
L 226.472727 158.24226 
L 229.854545 156.816614 
L 233.236364 156.010948 
L 236.618182 155.547863 
L 240 154.984115 
L 243.381818 154.41947 
L 246.763636 153.779195 
L 250.145455 152.793452 
L 253.527273 152.176067 
L 256.909091 151.931307 
L 260.290909 151.339924 
L 263.672727 150.836664 
L 267.054545 150.411795 
L 270.436364 149.89888 
L 273.818182 149.487511 
L 277.2 148.865858 
L 280.581818 148.207316 
L 283.963636 147.626345 
L 287.345455 147.078997 
L 290.727273 146.514837 
L 294.109091 146.270408 
L 297.490909 145.73387 
L 300.872727 145.560501 
L 304.254545 145.557395 
L 307.636364 145.138237 
L 311.018182 144.734631 
L 314.4 144.30722 
L 317.781818 144.043047 
L 321.163636 143.75076 
L 324.545455 143.330975 
L 327.927273 143.729159 
L 331.309091 143.681489 
L 334.690909 143.63382 
L 338.072727 143.588245 
L 341.454545 143.694277 
L 344.836364 144.131333 
L 348.218182 144.744367 
L 351.6 145.014551 
L 354.981818 145.190415 
L 358.363636 145.1309 
L 361.745455 145.747357 
L 365.127273 146.238799 
L 368.509091 146.568617 
L 371.890909 147.507026 
L 375.272727 147.702461 
L 378.654545 148.568007 
L 382.036364 149.528837 
L 385.418182 150.463343 
L 388.8 150.865946 
L 388.8 44.664294 
L 388.8 44.664294 
L 385.418182 46.925865 
L 382.036364 49.149185 
L 378.654545 50.384701 
L 375.272727 51.620218 
L 371.890909 52.861846 
L 368.509091 54.127328 
L 365.127273 55.424147 
L 361.745455 56.613346 
L 358.363636 57.84451 
L 354.981818 59.77174 
L 351.6 62.343983 
L 348.218182 63.561475 
L 344.836364 65.310238 
L 341.454545 66.483284 
L 338.072727 67.656331 
L 334.690909 68.834702 
L 331.309091 70.573537 
L 327.927273 72.551885 
L 324.545455 73.9571 
L 321.163636 75.309165 
L 317.781818 77.003242 
L 314.4 78.493877 
L 311.018182 79.765519 
L 307.636364 81.190463 
L 304.254545 83.248457 
L 300.872727 84.943537 
L 297.490909 86.199576 
L 294.109091 87.464794 
L 290.727273 88.71643 
L 287.345455 90.621726 
L 283.963636 92.015173 
L 280.581818 93.285143 
L 277.2 94.169161 
L 273.818182 95.013424 
L 270.436364 95.50521 
L 267.054545 96.117687 
L 263.672727 96.998174 
L 260.290909 97.175796 
L 256.909091 97.318334 
L 253.527273 97.721838 
L 250.145455 98.473687 
L 246.763636 98.665663 
L 243.381818 99.724798 
L 240 99.191762 
L 236.618182 98.754408 
L 233.236364 98.17178 
L 229.854545 97.973901 
L 226.472727 97.68814 
L 223.090909 97.429743 
L 219.709091 96.740115 
L 216.327273 95.858598 
L 212.945455 95.152368 
L 209.563636 94.536568 
L 206.181818 93.944161 
L 202.8 93.344991 
L 199.418182 92.661598 
L 196.036364 91.980628 
L 192.654545 91.52743 
L 189.272727 90.984273 
L 185.890909 90.043685 
L 182.509091 89.246025 
L 179.127273 88.561236 
L 175.745455 87.877843 
L 172.363636 87.194449 
L 168.981818 86.511055 
L 165.6 85.827662 
L 162.218182 85.144268 
L 158.836364 84.460875 
L 155.454545 83.777481 
L 152.072727 83.094088 
L 148.690909 82.410694 
L 145.309091 81.729575 
L 141.927273 81.031128 
L 138.545455 80.273992 
L 135.163636 79.67712 
L 131.781818 78.993726 
L 128.4 78.264026 
L 125.018182 77.320548 
L 121.636364 76.43579 
L 118.254545 75.729211 
L 114.872727 75.022633 
L 111.490909 74.316054 
L 108.109091 73.609475 
L 104.727273 72.902896 
L 101.345455 72.196318 
L 97.963636 71.489739 
L 94.581818 70.78316 
L 91.2 70.076582 
L 87.818182 69.370694 
L 84.436364 68.669358 
L 81.054545 67.876391 
L 77.672727 66.917617 
L 74.290909 65.958842 
L 70.909091 65.000068 
L 67.527273 64.041294 
L 64.145455 63.08252 
L 60.763636 62.123745 
L 57.381818 61.164971 
L 54 60.206197 
z
" style="fill:#2686a4;fill-opacity:0.15;"/>
   </g>
   <g id="matplotlib.axis_1">
    <g id="xtick_1">
     <g id="line2d_1">
      <defs>
       <path d="M 0 0 
L 0 3.5 
" id="m59cdc180ee" style="stroke:#000000;stroke-width:0.8;"/>
      </defs>
      <g>
       <use style="stroke:#000000;stroke-width:0.8;" x="68.946429" xlink:href="#m59cdc180ee" y="252"/>
      </g>
     </g>
     <g id="text_1">
      <!-- 0 -->
      <g transform="translate(65.765179 266.598437)scale(0.1 -0.1)">
       <defs>
        <path d="M 31.78125 66.40625 
Q 24.171875 66.40625 20.328125 58.90625 
Q 16.5 51.421875 16.5 36.375 
Q 16.5 21.390625 20.328125 13.890625 
Q 24.171875 6.390625 31.78125 6.390625 
Q 39.453125 6.390625 43.28125 13.890625 
Q 47.125 21.390625 47.125 36.375 
Q 47.125 51.421875 43.28125 58.90625 
Q 39.453125 66.40625 31.78125 66.40625 
z
M 31.78125 74.21875 
Q 44.046875 74.21875 50.515625 64.515625 
Q 56.984375 54.828125 56.984375 36.375 
Q 56.984375 17.96875 50.515625 8.265625 
Q 44.046875 -1.421875 31.78125 -1.421875 
Q 19.53125 -1.421875 13.0625 8.265625 
Q 6.59375 17.96875 6.59375 36.375 
Q 6.59375 54.828125 13.0625 64.515625 
Q 19.53125 74.21875 31.78125 74.21875 
z
" id="DejaVuSans-48"/>
       </defs>
       <use xlink:href="#DejaVuSans-48"/>
      </g>
     </g>
    </g>
    <g id="xtick_2">
     <g id="line2d_2">
      <g>
       <use style="stroke:#000000;stroke-width:0.8;" x="128.732143" xlink:href="#m59cdc180ee" y="252"/>
      </g>
     </g>
     <g id="text_2">
      <!-- 20 -->
      <g transform="translate(122.369643 266.598437)scale(0.1 -0.1)">
       <defs>
        <path d="M 19.1875 8.296875 
L 53.609375 8.296875 
L 53.609375 0 
L 7.328125 0 
L 7.328125 8.296875 
Q 12.9375 14.109375 22.625 23.890625 
Q 32.328125 33.6875 34.8125 36.53125 
Q 39.546875 41.84375 41.421875 45.53125 
Q 43.3125 49.21875 43.3125 52.78125 
Q 43.3125 58.59375 39.234375 62.25 
Q 35.15625 65.921875 28.609375 65.921875 
Q 23.96875 65.921875 18.8125 64.3125 
Q 13.671875 62.703125 7.8125 59.421875 
L 7.8125 69.390625 
Q 13.765625 71.78125 18.9375 73 
Q 24.125 74.21875 28.421875 74.21875 
Q 39.75 74.21875 46.484375 68.546875 
Q 53.21875 62.890625 53.21875 53.421875 
Q 53.21875 48.921875 51.53125 44.890625 
Q 49.859375 40.875 45.40625 35.40625 
Q 44.1875 33.984375 37.640625 27.21875 
Q 31.109375 20.453125 19.1875 8.296875 
z
" id="DejaVuSans-50"/>
       </defs>
       <use xlink:href="#DejaVuSans-50"/>
       <use x="63.623047" xlink:href="#DejaVuSans-48"/>
      </g>
     </g>
    </g>
    <g id="xtick_3">
     <g id="line2d_3">
      <g>
       <use style="stroke:#000000;stroke-width:0.8;" x="188.517857" xlink:href="#m59cdc180ee" y="252"/>
      </g>
     </g>
     <g id="text_3">
      <!-- 40 -->
      <g transform="translate(182.155357 266.598437)scale(0.1 -0.1)">
       <defs>
        <path d="M 37.796875 64.3125 
L 12.890625 25.390625 
L 37.796875 25.390625 
z
M 35.203125 72.90625 
L 47.609375 72.90625 
L 47.609375 25.390625 
L 58.015625 25.390625 
L 58.015625 17.1875 
L 47.609375 17.1875 
L 47.609375 0 
L 37.796875 0 
L 37.796875 17.1875 
L 4.890625 17.1875 
L 4.890625 26.703125 
z
" id="DejaVuSans-52"/>
       </defs>
       <use xlink:href="#DejaVuSans-52"/>
       <use x="63.623047" xlink:href="#DejaVuSans-48"/>
      </g>
     </g>
    </g>
    <g id="xtick_4">
     <g id="line2d_4">
      <g>
       <use style="stroke:#000000;stroke-width:0.8;" x="248.303571" xlink:href="#m59cdc180ee" y="252"/>
      </g>
     </g>
     <g id="text_4">
      <!-- 60 -->
      <g transform="translate(241.941071 266.598437)scale(0.1 -0.1)">
       <defs>
        <path d="M 33.015625 40.375 
Q 26.375 40.375 22.484375 35.828125 
Q 18.609375 31.296875 18.609375 23.390625 
Q 18.609375 15.53125 22.484375 10.953125 
Q 26.375 6.390625 33.015625 6.390625 
Q 39.65625 6.390625 43.53125 10.953125 
Q 47.40625 15.53125 47.40625 23.390625 
Q 47.40625 31.296875 43.53125 35.828125 
Q 39.65625 40.375 33.015625 40.375 
z
M 52.59375 71.296875 
L 52.59375 62.3125 
Q 48.875 64.0625 45.09375 64.984375 
Q 41.3125 65.921875 37.59375 65.921875 
Q 27.828125 65.921875 22.671875 59.328125 
Q 17.53125 52.734375 16.796875 39.40625 
Q 19.671875 43.65625 24.015625 45.921875 
Q 28.375 48.1875 33.59375 48.1875 
Q 44.578125 48.1875 50.953125 41.515625 
Q 57.328125 34.859375 57.328125 23.390625 
Q 57.328125 12.15625 50.6875 5.359375 
Q 44.046875 -1.421875 33.015625 -1.421875 
Q 20.359375 -1.421875 13.671875 8.265625 
Q 6.984375 17.96875 6.984375 36.375 
Q 6.984375 53.65625 15.1875 63.9375 
Q 23.390625 74.21875 37.203125 74.21875 
Q 40.921875 74.21875 44.703125 73.484375 
Q 48.484375 72.75 52.59375 71.296875 
z
" id="DejaVuSans-54"/>
       </defs>
       <use xlink:href="#DejaVuSans-54"/>
       <use x="63.623047" xlink:href="#DejaVuSans-48"/>
      </g>
     </g>
    </g>
    <g id="xtick_5">
     <g id="line2d_5">
      <g>
       <use style="stroke:#000000;stroke-width:0.8;" x="308.089286" xlink:href="#m59cdc180ee" y="252"/>
      </g>
     </g>
     <g id="text_5">
      <!-- 80 -->
      <g transform="translate(301.726786 266.598437)scale(0.1 -0.1)">
       <defs>
        <path d="M 31.78125 34.625 
Q 24.75 34.625 20.71875 30.859375 
Q 16.703125 27.09375 16.703125 20.515625 
Q 16.703125 13.921875 20.71875 10.15625 
Q 24.75 6.390625 31.78125 6.390625 
Q 38.8125 6.390625 42.859375 10.171875 
Q 46.921875 13.96875 46.921875 20.515625 
Q 46.921875 27.09375 42.890625 30.859375 
Q 38.875 34.625 31.78125 34.625 
z
M 21.921875 38.8125 
Q 15.578125 40.375 12.03125 44.71875 
Q 8.5 49.078125 8.5 55.328125 
Q 8.5 64.0625 14.71875 69.140625 
Q 20.953125 74.21875 31.78125 74.21875 
Q 42.671875 74.21875 48.875 69.140625 
Q 55.078125 64.0625 55.078125 55.328125 
Q 55.078125 49.078125 51.53125 44.71875 
Q 48 40.375 41.703125 38.8125 
Q 48.828125 37.15625 52.796875 32.3125 
Q 56.78125 27.484375 56.78125 20.515625 
Q 56.78125 9.90625 50.3125 4.234375 
Q 43.84375 -1.421875 31.78125 -1.421875 
Q 19.734375 -1.421875 13.25 4.234375 
Q 6.78125 9.90625 6.78125 20.515625 
Q 6.78125 27.484375 10.78125 32.3125 
Q 14.796875 37.15625 21.921875 38.8125 
z
M 18.3125 54.390625 
Q 18.3125 48.734375 21.84375 45.5625 
Q 25.390625 42.390625 31.78125 42.390625 
Q 38.140625 42.390625 41.71875 45.5625 
Q 45.3125 48.734375 45.3125 54.390625 
Q 45.3125 60.0625 41.71875 63.234375 
Q 38.140625 66.40625 31.78125 66.40625 
Q 25.390625 66.40625 21.84375 63.234375 
Q 18.3125 60.0625 18.3125 54.390625 
z
" id="DejaVuSans-56"/>
       </defs>
       <use xlink:href="#DejaVuSans-56"/>
       <use x="63.623047" xlink:href="#DejaVuSans-48"/>
      </g>
     </g>
    </g>
    <g id="xtick_6">
     <g id="line2d_6">
      <g>
       <use style="stroke:#000000;stroke-width:0.8;" x="367.875" xlink:href="#m59cdc180ee" y="252"/>
      </g>
     </g>
     <g id="text_6">
      <!-- 100 -->
      <g transform="translate(358.33125 266.598437)scale(0.1 -0.1)">
       <defs>
        <path d="M 12.40625 8.296875 
L 28.515625 8.296875 
L 28.515625 63.921875 
L 10.984375 60.40625 
L 10.984375 69.390625 
L 28.421875 72.90625 
L 38.28125 72.90625 
L 38.28125 8.296875 
L 54.390625 8.296875 
L 54.390625 0 
L 12.40625 0 
z
" id="DejaVuSans-49"/>
       </defs>
       <use xlink:href="#DejaVuSans-49"/>
       <use x="63.623047" xlink:href="#DejaVuSans-48"/>
       <use x="127.246094" xlink:href="#DejaVuSans-48"/>
      </g>
     </g>
    </g>
    <g id="text_7">
     <!-- Temp -->
     <g transform="translate(208.075 280.276563)scale(0.1 -0.1)">
      <defs>
       <path d="M -0.296875 72.90625 
L 61.375 72.90625 
L 61.375 64.59375 
L 35.5 64.59375 
L 35.5 0 
L 25.59375 0 
L 25.59375 64.59375 
L -0.296875 64.59375 
z
" id="DejaVuSans-84"/>
       <path d="M 56.203125 29.59375 
L 56.203125 25.203125 
L 14.890625 25.203125 
Q 15.484375 15.921875 20.484375 11.0625 
Q 25.484375 6.203125 34.421875 6.203125 
Q 39.59375 6.203125 44.453125 7.46875 
Q 49.3125 8.734375 54.109375 11.28125 
L 54.109375 2.78125 
Q 49.265625 0.734375 44.1875 -0.34375 
Q 39.109375 -1.421875 33.890625 -1.421875 
Q 20.796875 -1.421875 13.15625 6.1875 
Q 5.515625 13.8125 5.515625 26.8125 
Q 5.515625 40.234375 12.765625 48.109375 
Q 20.015625 56 32.328125 56 
Q 43.359375 56 49.78125 48.890625 
Q 56.203125 41.796875 56.203125 29.59375 
z
M 47.21875 32.234375 
Q 47.125 39.59375 43.09375 43.984375 
Q 39.0625 48.390625 32.421875 48.390625 
Q 24.90625 48.390625 20.390625 44.140625 
Q 15.875 39.890625 15.1875 32.171875 
z
" id="DejaVuSans-101"/>
       <path d="M 52 44.1875 
Q 55.375 50.25 60.0625 53.125 
Q 64.75 56 71.09375 56 
Q 79.640625 56 84.28125 50.015625 
Q 88.921875 44.046875 88.921875 33.015625 
L 88.921875 0 
L 79.890625 0 
L 79.890625 32.71875 
Q 79.890625 40.578125 77.09375 44.375 
Q 74.3125 48.1875 68.609375 48.1875 
Q 61.625 48.1875 57.5625 43.546875 
Q 53.515625 38.921875 53.515625 30.90625 
L 53.515625 0 
L 44.484375 0 
L 44.484375 32.71875 
Q 44.484375 40.625 41.703125 44.40625 
Q 38.921875 48.1875 33.109375 48.1875 
Q 26.21875 48.1875 22.15625 43.53125 
Q 18.109375 38.875 18.109375 30.90625 
L 18.109375 0 
L 9.078125 0 
L 9.078125 54.6875 
L 18.109375 54.6875 
L 18.109375 46.1875 
Q 21.1875 51.21875 25.484375 53.609375 
Q 29.78125 56 35.6875 56 
Q 41.65625 56 45.828125 52.96875 
Q 50 49.953125 52 44.1875 
z
" id="DejaVuSans-109"/>
       <path d="M 18.109375 8.203125 
L 18.109375 -20.796875 
L 9.078125 -20.796875 
L 9.078125 54.6875 
L 18.109375 54.6875 
L 18.109375 46.390625 
Q 20.953125 51.265625 25.265625 53.625 
Q 29.59375 56 35.59375 56 
Q 45.5625 56 51.78125 48.09375 
Q 58.015625 40.1875 58.015625 27.296875 
Q 58.015625 14.40625 51.78125 6.484375 
Q 45.5625 -1.421875 35.59375 -1.421875 
Q 29.59375 -1.421875 25.265625 0.953125 
Q 20.953125 3.328125 18.109375 8.203125 
z
M 48.6875 27.296875 
Q 48.6875 37.203125 44.609375 42.84375 
Q 40.53125 48.484375 33.40625 48.484375 
Q 26.265625 48.484375 22.1875 42.84375 
Q 18.109375 37.203125 18.109375 27.296875 
Q 18.109375 17.390625 22.1875 11.75 
Q 26.265625 6.109375 33.40625 6.109375 
Q 40.53125 6.109375 44.609375 11.75 
Q 48.6875 17.390625 48.6875 27.296875 
z
" id="DejaVuSans-112"/>
      </defs>
      <use xlink:href="#DejaVuSans-84"/>
      <use x="44.083984" xlink:href="#DejaVuSans-101"/>
      <use x="105.607422" xlink:href="#DejaVuSans-109"/>
      <use x="203.019531" xlink:href="#DejaVuSans-112"/>
     </g>
    </g>
   </g>
   <g id="matplotlib.axis_2">
    <g id="ytick_1">
     <g id="line2d_7">
      <defs>
       <path d="M 0 0 
L -3.5 0 
" id="m44b551a791" style="stroke:#000000;stroke-width:0.8;"/>
      </defs>
      <g>
       <use style="stroke:#000000;stroke-width:0.8;" x="54" xlink:href="#m44b551a791" y="234.865218"/>
      </g>
     </g>
     <g id="text_8">
      <!-- −0.3 -->
      <g transform="translate(22.717187 238.664436)scale(0.1 -0.1)">
       <defs>
        <path d="M 10.59375 35.5 
L 73.1875 35.5 
L 73.1875 27.203125 
L 10.59375 27.203125 
z
" id="DejaVuSans-8722"/>
        <path d="M 10.6875 12.40625 
L 21 12.40625 
L 21 0 
L 10.6875 0 
z
" id="DejaVuSans-46"/>
        <path d="M 40.578125 39.3125 
Q 47.65625 37.796875 51.625 33 
Q 55.609375 28.21875 55.609375 21.1875 
Q 55.609375 10.40625 48.1875 4.484375 
Q 40.765625 -1.421875 27.09375 -1.421875 
Q 22.515625 -1.421875 17.65625 -0.515625 
Q 12.796875 0.390625 7.625 2.203125 
L 7.625 11.71875 
Q 11.71875 9.328125 16.59375 8.109375 
Q 21.484375 6.890625 26.8125 6.890625 
Q 36.078125 6.890625 40.9375 10.546875 
Q 45.796875 14.203125 45.796875 21.1875 
Q 45.796875 27.640625 41.28125 31.265625 
Q 36.765625 34.90625 28.71875 34.90625 
L 20.21875 34.90625 
L 20.21875 43.015625 
L 29.109375 43.015625 
Q 36.375 43.015625 40.234375 45.921875 
Q 44.09375 48.828125 44.09375 54.296875 
Q 44.09375 59.90625 40.109375 62.90625 
Q 36.140625 65.921875 28.71875 65.921875 
Q 24.65625 65.921875 20.015625 65.03125 
Q 15.375 64.15625 9.8125 62.3125 
L 9.8125 71.09375 
Q 15.4375 72.65625 20.34375 73.4375 
Q 25.25 74.21875 29.59375 74.21875 
Q 40.828125 74.21875 47.359375 69.109375 
Q 53.90625 64.015625 53.90625 55.328125 
Q 53.90625 49.265625 50.4375 45.09375 
Q 46.96875 40.921875 40.578125 39.3125 
z
" id="DejaVuSans-51"/>
       </defs>
       <use xlink:href="#DejaVuSans-8722"/>
       <use x="83.789062" xlink:href="#DejaVuSans-48"/>
       <use x="147.412109" xlink:href="#DejaVuSans-46"/>
       <use x="179.199219" xlink:href="#DejaVuSans-51"/>
      </g>
     </g>
    </g>
    <g id="ytick_2">
     <g id="line2d_8">
      <g>
       <use style="stroke:#000000;stroke-width:0.8;" x="54" xlink:href="#m44b551a791" y="192.073216"/>
      </g>
     </g>
     <g id="text_9">
      <!-- −0.2 -->
      <g transform="translate(22.717187 195.872435)scale(0.1 -0.1)">
       <use xlink:href="#DejaVuSans-8722"/>
       <use x="83.789062" xlink:href="#DejaVuSans-48"/>
       <use x="147.412109" xlink:href="#DejaVuSans-46"/>
       <use x="179.199219" xlink:href="#DejaVuSans-50"/>
      </g>
     </g>
    </g>
    <g id="ytick_3">
     <g id="line2d_9">
      <g>
       <use style="stroke:#000000;stroke-width:0.8;" x="54" xlink:href="#m44b551a791" y="149.281215"/>
      </g>
     </g>
     <g id="text_10">
      <!-- −0.1 -->
      <g transform="translate(22.717187 153.080434)scale(0.1 -0.1)">
       <use xlink:href="#DejaVuSans-8722"/>
       <use x="83.789062" xlink:href="#DejaVuSans-48"/>
       <use x="147.412109" xlink:href="#DejaVuSans-46"/>
       <use x="179.199219" xlink:href="#DejaVuSans-49"/>
      </g>
     </g>
    </g>
    <g id="ytick_4">
     <g id="line2d_10">
      <g>
       <use style="stroke:#000000;stroke-width:0.8;" x="54" xlink:href="#m44b551a791" y="106.489214"/>
      </g>
     </g>
     <g id="text_11">
      <!-- 0.0 -->
      <g transform="translate(31.096875 110.288433)scale(0.1 -0.1)">
       <use xlink:href="#DejaVuSans-48"/>
       <use x="63.623047" xlink:href="#DejaVuSans-46"/>
       <use x="95.410156" xlink:href="#DejaVuSans-48"/>
      </g>
     </g>
    </g>
    <g id="ytick_5">
     <g id="line2d_11">
      <g>
       <use style="stroke:#000000;stroke-width:0.8;" x="54" xlink:href="#m44b551a791" y="63.697213"/>
      </g>
     </g>
     <g id="text_12">
      <!-- 0.1 -->
      <g transform="translate(31.096875 67.496432)scale(0.1 -0.1)">
       <use xlink:href="#DejaVuSans-48"/>
       <use x="63.623047" xlink:href="#DejaVuSans-46"/>
       <use x="95.410156" xlink:href="#DejaVuSans-49"/>
      </g>
     </g>
    </g>
    <g id="text_13">
     <!-- Density -->
     <g transform="translate(16.6375 162.288594)rotate(-90)scale(0.1 -0.1)">
      <defs>
       <path d="M 19.671875 64.796875 
L 19.671875 8.109375 
L 31.59375 8.109375 
Q 46.6875 8.109375 53.6875 14.9375 
Q 60.6875 21.78125 60.6875 36.53125 
Q 60.6875 51.171875 53.6875 57.984375 
Q 46.6875 64.796875 31.59375 64.796875 
z
M 9.8125 72.90625 
L 30.078125 72.90625 
Q 51.265625 72.90625 61.171875 64.09375 
Q 71.09375 55.28125 71.09375 36.53125 
Q 71.09375 17.671875 61.125 8.828125 
Q 51.171875 0 30.078125 0 
L 9.8125 0 
z
" id="DejaVuSans-68"/>
       <path d="M 54.890625 33.015625 
L 54.890625 0 
L 45.90625 0 
L 45.90625 32.71875 
Q 45.90625 40.484375 42.875 44.328125 
Q 39.84375 48.1875 33.796875 48.1875 
Q 26.515625 48.1875 22.3125 43.546875 
Q 18.109375 38.921875 18.109375 30.90625 
L 18.109375 0 
L 9.078125 0 
L 9.078125 54.6875 
L 18.109375 54.6875 
L 18.109375 46.1875 
Q 21.34375 51.125 25.703125 53.5625 
Q 30.078125 56 35.796875 56 
Q 45.21875 56 50.046875 50.171875 
Q 54.890625 44.34375 54.890625 33.015625 
z
" id="DejaVuSans-110"/>
       <path d="M 44.28125 53.078125 
L 44.28125 44.578125 
Q 40.484375 46.53125 36.375 47.5 
Q 32.28125 48.484375 27.875 48.484375 
Q 21.1875 48.484375 17.84375 46.4375 
Q 14.5 44.390625 14.5 40.28125 
Q 14.5 37.15625 16.890625 35.375 
Q 19.28125 33.59375 26.515625 31.984375 
L 29.59375 31.296875 
Q 39.15625 29.25 43.1875 25.515625 
Q 47.21875 21.78125 47.21875 15.09375 
Q 47.21875 7.46875 41.1875 3.015625 
Q 35.15625 -1.421875 24.609375 -1.421875 
Q 20.21875 -1.421875 15.453125 -0.5625 
Q 10.6875 0.296875 5.421875 2 
L 5.421875 11.28125 
Q 10.40625 8.6875 15.234375 7.390625 
Q 20.0625 6.109375 24.8125 6.109375 
Q 31.15625 6.109375 34.5625 8.28125 
Q 37.984375 10.453125 37.984375 14.40625 
Q 37.984375 18.0625 35.515625 20.015625 
Q 33.0625 21.96875 24.703125 23.78125 
L 21.578125 24.515625 
Q 13.234375 26.265625 9.515625 29.90625 
Q 5.8125 33.546875 5.8125 39.890625 
Q 5.8125 47.609375 11.28125 51.796875 
Q 16.75 56 26.8125 56 
Q 31.78125 56 36.171875 55.265625 
Q 40.578125 54.546875 44.28125 53.078125 
z
" id="DejaVuSans-115"/>
       <path d="M 9.421875 54.6875 
L 18.40625 54.6875 
L 18.40625 0 
L 9.421875 0 
z
M 9.421875 75.984375 
L 18.40625 75.984375 
L 18.40625 64.59375 
L 9.421875 64.59375 
z
" id="DejaVuSans-105"/>
       <path d="M 18.3125 70.21875 
L 18.3125 54.6875 
L 36.8125 54.6875 
L 36.8125 47.703125 
L 18.3125 47.703125 
L 18.3125 18.015625 
Q 18.3125 11.328125 20.140625 9.421875 
Q 21.96875 7.515625 27.59375 7.515625 
L 36.8125 7.515625 
L 36.8125 0 
L 27.59375 0 
Q 17.1875 0 13.234375 3.875 
Q 9.28125 7.765625 9.28125 18.015625 
L 9.28125 47.703125 
L 2.6875 47.703125 
L 2.6875 54.6875 
L 9.28125 54.6875 
L 9.28125 70.21875 
z
" id="DejaVuSans-116"/>
       <path d="M 32.171875 -5.078125 
Q 28.375 -14.84375 24.75 -17.8125 
Q 21.140625 -20.796875 15.09375 -20.796875 
L 7.90625 -20.796875 
L 7.90625 -13.28125 
L 13.1875 -13.28125 
Q 16.890625 -13.28125 18.9375 -11.515625 
Q 21 -9.765625 23.484375 -3.21875 
L 25.09375 0.875 
L 2.984375 54.6875 
L 12.5 54.6875 
L 29.59375 11.921875 
L 46.6875 54.6875 
L 56.203125 54.6875 
z
" id="DejaVuSans-121"/>
      </defs>
      <use xlink:href="#DejaVuSans-68"/>
      <use x="77.001953" xlink:href="#DejaVuSans-101"/>
      <use x="138.525391" xlink:href="#DejaVuSans-110"/>
      <use x="201.904297" xlink:href="#DejaVuSans-115"/>
      <use x="254.003906" xlink:href="#DejaVuSans-105"/>
      <use x="281.787109" xlink:href="#DejaVuSans-116"/>
      <use x="320.996094" xlink:href="#DejaVuSans-121"/>
     </g>
    </g>
   </g>
   <g id="line2d_12">
    <path clip-path="url(#p3bc60edcba)" d="M 54 157.237732 
L 57.381818 156.717197 
L 60.763636 156.196662 
L 64.145455 155.676127 
L 67.527273 155.155592 
L 70.909091 154.635057 
L 74.290909 154.114522 
L 77.672727 153.593987 
L 81.054545 153.073452 
L 84.436364 152.552917 
L 87.818182 152.032382 
L 91.2 151.511847 
L 94.581818 150.991313 
L 97.963636 150.470778 
L 101.345455 149.950243 
L 104.727273 149.429708 
L 108.109091 148.909173 
L 111.490909 148.388638 
L 114.872727 147.868103 
L 118.254545 147.347568 
L 121.636364 146.827033 
L 125.018182 146.306498 
L 128.4 145.785963 
L 131.781818 145.265428 
L 135.163636 144.744894 
L 138.545455 144.224359 
L 141.927273 143.703824 
L 145.309091 143.183289 
L 148.690909 142.662754 
L 152.072727 142.142219 
L 155.454545 141.621684 
L 158.836364 141.101149 
L 162.218182 140.580614 
L 165.6 140.060079 
L 168.981818 139.539544 
L 172.363636 139.019009 
L 175.745455 138.498475 
L 179.127273 137.97794 
L 182.509091 137.457405 
L 185.890909 136.93687 
L 189.272727 136.416335 
L 192.654545 135.8958 
L 196.036364 135.375265 
L 199.418182 134.85473 
L 202.8 134.334195 
L 206.181818 133.81366 
L 209.563636 133.293125 
L 212.945455 132.77259 
L 216.327273 132.252056 
L 219.709091 131.731521 
L 223.090909 131.210986 
L 226.472727 130.690451 
L 229.854545 130.169916 
L 233.236364 129.649381 
L 236.618182 129.128846 
L 240 128.608311 
L 243.381818 128.087776 
L 246.763636 127.567241 
L 250.145455 127.046706 
L 253.527273 126.526172 
L 256.909091 126.005637 
L 260.290909 125.485102 
L 263.672727 124.964567 
L 267.054545 124.444032 
L 270.436364 123.923497 
L 273.818182 123.402962 
L 277.2 122.882427 
L 280.581818 122.361892 
L 283.963636 121.841357 
L 287.345455 121.320822 
L 290.727273 120.800287 
L 294.109091 120.279753 
L 297.490909 119.759218 
L 300.872727 119.238683 
L 304.254545 118.718148 
L 307.636364 118.197613 
L 311.018182 117.677078 
L 314.4 117.156543 
L 317.781818 116.636008 
L 321.163636 116.115473 
L 324.545455 115.594938 
L 327.927273 115.074403 
L 331.309091 114.553868 
L 334.690909 114.033334 
L 338.072727 113.512799 
L 341.454545 112.992264 
L 344.836364 112.471729 
L 348.218182 111.951194 
L 351.6 111.430659 
L 354.981818 110.910124 
L 358.363636 110.389589 
L 361.745455 109.869054 
L 365.127273 109.348519 
L 368.509091 108.827984 
L 371.890909 108.307449 
L 375.272727 107.786915 
L 378.654545 107.26638 
L 382.036364 106.745845 
L 385.418182 106.22531 
L 388.8 105.704775 
" style="fill:none;stroke:#2686a4;stroke-linecap:square;stroke-width:2.25;"/>
   </g>
   <g id="patch_3">
    <path d="M 54 252 
L 54 34.56 
" style="fill:none;stroke:#000000;stroke-linecap:square;stroke-linejoin:miter;stroke-width:0.8;"/>
   </g>
   <g id="patch_4">
    <path d="M 388.8 252 
L 388.8 34.56 
" style="fill:none;stroke:#000000;stroke-linecap:square;stroke-linejoin:miter;stroke-width:0.8;"/>
   </g>
   <g id="patch_5">
    <path d="M 54 252 
L 388.8 252 
" style="fill:none;stroke:#000000;stroke-linecap:square;stroke-linejoin:miter;stroke-width:0.8;"/>
   </g>
   <g id="patch_6">
    <path d="M 54 34.56 
L 388.8 34.56 
" style="fill:none;stroke:#000000;stroke-linecap:square;stroke-linejoin:miter;stroke-width:0.8;"/>
   </g>
  </g>
 </g>
 <defs>
  <clipPath id="p3bc60edcba">
   <rect height="217.44" width="334.8" x="54" y="34.56"/>
  </clipPath>
 </defs>
</svg>
