<?xml version="1.0" encoding="utf-8" standalone="no"?>
<!DOCTYPE svg PUBLIC "-//W3C//DTD SVG 1.1//EN"
  "http://www.w3.org/Graphics/SVG/1.1/DTD/svg11.dtd">
<!-- Created with matplotlib (https://matplotlib.org/) -->
<svg height="288pt" version="1.1" viewBox="0 0 432 288" width="432pt" xmlns="http://www.w3.org/2000/svg" xmlns:xlink="http://www.w3.org/1999/xlink">
 <metadata>
  <rdf:RDF xmlns:cc="http://creativecommons.org/ns#" xmlns:dc="http://purl.org/dc/elements/1.1/" xmlns:rdf="http://www.w3.org/1999/02/22-rdf-syntax-ns#">
   <cc:Work>
    <dc:type rdf:resource="http://purl.org/dc/dcmitype/StillImage"/>
    <dc:date>2021-04-15T19:49:09.879300</dc:date>
    <dc:format>image/svg+xml</dc:format>
    <dc:creator>
     <cc:Agent>
      <dc:title>Matplotlib v3.3.2, https://matplotlib.org/</dc:title>
     </cc:Agent>
    </dc:creator>
   </cc:Work>
  </rdf:RDF>
 </metadata>
 <defs>
  <style type="text/css">*{stroke-linecap:butt;stroke-linejoin:round;}</style>
 </defs>
 <g id="figure_1">
  <g id="patch_1">
   <path d="M 0 288 
L 432 288 
L 432 0 
L 0 0 
z
" style="fill:none;"/>
  </g>
  <g id="axes_1">
   <g id="patch_2">
    <path d="M 54 252 
L 388.8 252 
L 388.8 34.56 
L 54 34.56 
z
" style="fill:#ffffff;"/>
   </g>
   <g id="PathCollection_1">
    <defs>
     <path d="M 0 3 
C 0.795609 3 1.55874 2.683901 2.12132 2.12132 
C 2.683901 1.55874 3 0.795609 3 0 
C 3 -0.795609 2.683901 -1.55874 2.12132 -2.12132 
C 1.55874 -2.683901 0.795609 -3 0 -3 
C -0.795609 -3 -1.55874 -2.683901 -2.12132 -2.12132 
C -2.683901 -1.55874 -3 -0.795609 -3 0 
C -3 0.795609 -2.683901 1.55874 -2.12132 2.12132 
C -1.55874 2.683901 -0.795609 3 0 3 
z
" id="mf717b68665" style="stroke:#2686a4;stroke-opacity:0.8;"/>
    </defs>
    <g clip-path="url(#p64c87d7b7f)">
     <use style="fill:#2686a4;fill-opacity:0.8;stroke:#2686a4;stroke-opacity:0.8;" x="223.374446" xlink:href="#mf717b68665" y="145.526689"/>
     <use style="fill:#2686a4;fill-opacity:0.8;stroke:#2686a4;stroke-opacity:0.8;" x="226.148443" xlink:href="#mf717b68665" y="58.743516"/>
     <use style="fill:#2686a4;fill-opacity:0.8;stroke:#2686a4;stroke-opacity:0.8;" x="303.858381" xlink:href="#mf717b68665" y="186.963093"/>
     <use style="fill:#2686a4;fill-opacity:0.8;stroke:#2686a4;stroke-opacity:0.8;" x="388.8" xlink:href="#mf717b68665" y="242.116364"/>
     <use style="fill:#2686a4;fill-opacity:0.8;stroke:#2686a4;stroke-opacity:0.8;" x="270.005835" xlink:href="#mf717b68665" y="190.367306"/>
     <use style="fill:#2686a4;fill-opacity:0.8;stroke:#2686a4;stroke-opacity:0.8;" x="55.566316" xlink:href="#mf717b68665" y="120.976732"/>
     <use style="fill:#2686a4;fill-opacity:0.8;stroke:#2686a4;stroke-opacity:0.8;" x="181.770101" xlink:href="#mf717b68665" y="122.535395"/>
     <use style="fill:#2686a4;fill-opacity:0.8;stroke:#2686a4;stroke-opacity:0.8;" x="54" xlink:href="#mf717b68665" y="116.778563"/>
     <use style="fill:#2686a4;fill-opacity:0.8;stroke:#2686a4;stroke-opacity:0.8;" x="247.890908" xlink:href="#mf717b68665" y="103.404273"/>
     <use style="fill:#2686a4;fill-opacity:0.8;stroke:#2686a4;stroke-opacity:0.8;" x="155.728884" xlink:href="#mf717b68665" y="118.754665"/>
     <use style="fill:#2686a4;fill-opacity:0.8;stroke:#2686a4;stroke-opacity:0.8;" x="97.752065" xlink:href="#mf717b68665" y="113.193425"/>
     <use style="fill:#2686a4;fill-opacity:0.8;stroke:#2686a4;stroke-opacity:0.8;" x="202.032071" xlink:href="#mf717b68665" y="149.153781"/>
    </g>
   </g>
   <g id="PolyCollection_1">
    <path clip-path="url(#p64c87d7b7f)" d="M 54 44.443636 
L 54 118.688847 
L 57.381818 118.679636 
L 60.763636 118.749676 
L 64.145455 118.882584 
L 67.527273 118.63186 
L 70.909091 119.00077 
L 74.290909 119.216502 
L 77.672727 119.578663 
L 81.054545 120.12025 
L 84.436364 120.545153 
L 87.818182 121.313639 
L 91.2 121.896524 
L 94.581818 122.540953 
L 97.963636 123.280196 
L 101.345455 124.289206 
L 104.727273 125.182576 
L 108.109091 126.285923 
L 111.490909 127.422795 
L 114.872727 128.475024 
L 118.254545 129.513225 
L 121.636364 130.547736 
L 125.018182 131.55847 
L 128.4 132.67788 
L 131.781818 133.776471 
L 135.163636 134.897177 
L 138.545455 135.909915 
L 141.927273 136.939492 
L 145.309091 138.11325 
L 148.690909 139.281293 
L 152.072727 140.277545 
L 155.454545 141.2657 
L 158.836364 142.328548 
L 162.218182 143.46026 
L 165.6 144.622913 
L 168.981818 145.873512 
L 172.363636 147.120901 
L 175.745455 148.267149 
L 179.127273 149.453883 
L 182.509091 150.574264 
L 185.890909 151.726293 
L 189.272727 152.933976 
L 192.654545 153.975131 
L 196.036364 155.005897 
L 199.418182 156.398693 
L 202.8 157.707283 
L 206.181818 158.811937 
L 209.563636 159.915189 
L 212.945455 161.018441 
L 216.327273 162.196741 
L 219.709091 163.382422 
L 223.090909 164.595862 
L 226.472727 165.946082 
L 229.854545 167.228175 
L 233.236364 168.373688 
L 236.618182 169.51362 
L 240 170.652366 
L 243.381818 171.791111 
L 246.763636 173.00686 
L 250.145455 174.389337 
L 253.527273 175.577284 
L 256.909091 176.829435 
L 260.290909 178.096913 
L 263.672727 179.473487 
L 267.054545 180.765469 
L 270.436364 182.228778 
L 273.818182 183.606654 
L 277.2 184.884972 
L 280.581818 186.359917 
L 283.963636 187.622509 
L 287.345455 189.031449 
L 290.727273 190.316251 
L 294.109091 191.601053 
L 297.490909 192.921825 
L 300.872727 194.278686 
L 304.254545 195.503044 
L 307.636364 196.985351 
L 311.018182 198.466349 
L 314.4 199.724423 
L 317.781818 200.97771 
L 321.163636 202.245268 
L 324.545455 203.705176 
L 327.927273 204.959656 
L 331.309091 206.512964 
L 334.690909 208.321893 
L 338.072727 209.844157 
L 341.454545 211.353853 
L 344.836364 213.041839 
L 348.218182 214.422807 
L 351.6 215.808776 
L 354.981818 217.157286 
L 358.363636 218.7034 
L 361.745455 220.102508 
L 365.127273 222.005501 
L 368.509091 223.612563 
L 371.890909 225.046521 
L 375.272727 226.565853 
L 378.654545 228.093831 
L 382.036364 229.81351 
L 385.418182 231.696709 
L 388.8 233.579908 
L 388.8 111.920366 
L 388.8 111.920366 
L 385.418182 112.007301 
L 382.036364 112.094237 
L 378.654545 112.154008 
L 375.272727 112.188155 
L 371.890909 112.222303 
L 368.509091 112.25645 
L 365.127273 112.290598 
L 361.745455 112.324745 
L 358.363636 112.358893 
L 354.981818 112.393041 
L 351.6 112.427188 
L 348.218182 112.461336 
L 344.836364 112.495483 
L 341.454545 112.529631 
L 338.072727 112.563778 
L 334.690909 112.597926 
L 331.309091 112.632548 
L 327.927273 112.668067 
L 324.545455 112.681494 
L 321.163636 112.671219 
L 317.781818 112.660944 
L 314.4 112.650669 
L 311.018182 112.640394 
L 307.636364 112.758815 
L 304.254545 112.893333 
L 300.872727 112.949199 
L 297.490909 113.065701 
L 294.109091 113.219433 
L 290.727273 113.373164 
L 287.345455 113.526896 
L 283.963636 113.598107 
L 280.581818 113.582735 
L 277.2 113.567363 
L 273.818182 113.551991 
L 270.436364 113.536618 
L 267.054545 113.316739 
L 263.672727 113.395429 
L 260.290909 113.474119 
L 256.909091 113.47513 
L 253.527273 113.459758 
L 250.145455 113.444799 
L 246.763636 113.476534 
L 243.381818 113.508827 
L 240 113.555377 
L 236.618182 113.675374 
L 233.236364 113.795372 
L 229.854545 113.915369 
L 226.472727 113.836166 
L 223.090909 113.34484 
L 219.709091 113.199605 
L 216.327273 112.862997 
L 212.945455 112.663661 
L 209.563636 112.343325 
L 206.181818 112.025228 
L 202.8 111.151328 
L 199.418182 111.013453 
L 196.036364 109.911856 
L 192.654545 109.674051 
L 189.272727 108.564653 
L 185.890909 107.765551 
L 182.509091 106.583062 
L 179.127273 105.071812 
L 175.745455 104.170946 
L 172.363636 103.174587 
L 168.981818 101.503543 
L 165.6 99.675204 
L 162.218182 97.84197 
L 158.836364 96.492891 
L 155.454545 94.830065 
L 152.072727 93.168748 
L 148.690909 91.777057 
L 145.309091 90.78438 
L 141.927273 89.298723 
L 138.545455 87.813066 
L 135.163636 86.121766 
L 131.781818 84.329008 
L 128.4 82.648875 
L 125.018182 81.210273 
L 121.636364 79.60756 
L 118.254545 77.674498 
L 114.872727 76.348463 
L 111.490909 74.896545 
L 108.109091 73.254582 
L 104.727273 71.838594 
L 101.345455 70.422605 
L 97.963636 69.006616 
L 94.581818 67.271387 
L 91.2 65.219722 
L 87.818182 63.168057 
L 84.436364 61.247049 
L 81.054545 59.531698 
L 77.672727 57.79628 
L 74.290909 55.882238 
L 70.909091 53.975215 
L 67.527273 52.070999 
L 64.145455 50.166783 
L 60.763636 48.262567 
L 57.381818 46.357292 
L 54 44.443636 
z
" style="fill:#2686a4;fill-opacity:0.15;"/>
   </g>
   <g id="matplotlib.axis_1">
    <g id="xtick_1">
     <g id="line2d_1">
      <defs>
       <path d="M 0 0 
L 0 3.5 
" id="m1b4f3294c1" style="stroke:#000000;stroke-width:0.8;"/>
      </defs>
      <g>
       <use style="stroke:#000000;stroke-width:0.8;" x="80.813559" xlink:href="#m1b4f3294c1" y="252"/>
      </g>
     </g>
     <g id="text_1">
      <!-- 35 -->
      <g transform="translate(74.451059 266.598437)scale(0.1 -0.1)">
       <defs>
        <path d="M 40.578125 39.3125 
Q 47.65625 37.796875 51.625 33 
Q 55.609375 28.21875 55.609375 21.1875 
Q 55.609375 10.40625 48.1875 4.484375 
Q 40.765625 -1.421875 27.09375 -1.421875 
Q 22.515625 -1.421875 17.65625 -0.515625 
Q 12.796875 0.390625 7.625 2.203125 
L 7.625 11.71875 
Q 11.71875 9.328125 16.59375 8.109375 
Q 21.484375 6.890625 26.8125 6.890625 
Q 36.078125 6.890625 40.9375 10.546875 
Q 45.796875 14.203125 45.796875 21.1875 
Q 45.796875 27.640625 41.28125 31.265625 
Q 36.765625 34.90625 28.71875 34.90625 
L 20.21875 34.90625 
L 20.21875 43.015625 
L 29.109375 43.015625 
Q 36.375 43.015625 40.234375 45.921875 
Q 44.09375 48.828125 44.09375 54.296875 
Q 44.09375 59.90625 40.109375 62.90625 
Q 36.140625 65.921875 28.71875 65.921875 
Q 24.65625 65.921875 20.015625 65.03125 
Q 15.375 64.15625 9.8125 62.3125 
L 9.8125 71.09375 
Q 15.4375 72.65625 20.34375 73.4375 
Q 25.25 74.21875 29.59375 74.21875 
Q 40.828125 74.21875 47.359375 69.109375 
Q 53.90625 64.015625 53.90625 55.328125 
Q 53.90625 49.265625 50.4375 45.09375 
Q 46.96875 40.921875 40.578125 39.3125 
z
" id="DejaVuSans-51"/>
        <path d="M 10.796875 72.90625 
L 49.515625 72.90625 
L 49.515625 64.59375 
L 19.828125 64.59375 
L 19.828125 46.734375 
Q 21.96875 47.46875 24.109375 47.828125 
Q 26.265625 48.1875 28.421875 48.1875 
Q 40.625 48.1875 47.75 41.5 
Q 54.890625 34.8125 54.890625 23.390625 
Q 54.890625 11.625 47.5625 5.09375 
Q 40.234375 -1.421875 26.90625 -1.421875 
Q 22.3125 -1.421875 17.546875 -0.640625 
Q 12.796875 0.140625 7.71875 1.703125 
L 7.71875 11.625 
Q 12.109375 9.234375 16.796875 8.0625 
Q 21.484375 6.890625 26.703125 6.890625 
Q 35.15625 6.890625 40.078125 11.328125 
Q 45.015625 15.765625 45.015625 23.390625 
Q 45.015625 31 40.078125 35.4375 
Q 35.15625 39.890625 26.703125 39.890625 
Q 22.75 39.890625 18.8125 39.015625 
Q 14.890625 38.140625 10.796875 36.28125 
z
" id="DejaVuSans-53"/>
       </defs>
       <use xlink:href="#DejaVuSans-51"/>
       <use x="63.623047" xlink:href="#DejaVuSans-53"/>
      </g>
     </g>
    </g>
    <g id="xtick_2">
     <g id="line2d_2">
      <g>
       <use style="stroke:#000000;stroke-width:0.8;" x="129.820092" xlink:href="#m1b4f3294c1" y="252"/>
      </g>
     </g>
     <g id="text_2">
      <!-- 40 -->
      <g transform="translate(123.457592 266.598437)scale(0.1 -0.1)">
       <defs>
        <path d="M 37.796875 64.3125 
L 12.890625 25.390625 
L 37.796875 25.390625 
z
M 35.203125 72.90625 
L 47.609375 72.90625 
L 47.609375 25.390625 
L 58.015625 25.390625 
L 58.015625 17.1875 
L 47.609375 17.1875 
L 47.609375 0 
L 37.796875 0 
L 37.796875 17.1875 
L 4.890625 17.1875 
L 4.890625 26.703125 
z
" id="DejaVuSans-52"/>
        <path d="M 31.78125 66.40625 
Q 24.171875 66.40625 20.328125 58.90625 
Q 16.5 51.421875 16.5 36.375 
Q 16.5 21.390625 20.328125 13.890625 
Q 24.171875 6.390625 31.78125 6.390625 
Q 39.453125 6.390625 43.28125 13.890625 
Q 47.125 21.390625 47.125 36.375 
Q 47.125 51.421875 43.28125 58.90625 
Q 39.453125 66.40625 31.78125 66.40625 
z
M 31.78125 74.21875 
Q 44.046875 74.21875 50.515625 64.515625 
Q 56.984375 54.828125 56.984375 36.375 
Q 56.984375 17.96875 50.515625 8.265625 
Q 44.046875 -1.421875 31.78125 -1.421875 
Q 19.53125 -1.421875 13.0625 8.265625 
Q 6.59375 17.96875 6.59375 36.375 
Q 6.59375 54.828125 13.0625 64.515625 
Q 19.53125 74.21875 31.78125 74.21875 
z
" id="DejaVuSans-48"/>
       </defs>
       <use xlink:href="#DejaVuSans-52"/>
       <use x="63.623047" xlink:href="#DejaVuSans-48"/>
      </g>
     </g>
    </g>
    <g id="xtick_3">
     <g id="line2d_3">
      <g>
       <use style="stroke:#000000;stroke-width:0.8;" x="178.826625" xlink:href="#m1b4f3294c1" y="252"/>
      </g>
     </g>
     <g id="text_3">
      <!-- 45 -->
      <g transform="translate(172.464125 266.598437)scale(0.1 -0.1)">
       <use xlink:href="#DejaVuSans-52"/>
       <use x="63.623047" xlink:href="#DejaVuSans-53"/>
      </g>
     </g>
    </g>
    <g id="xtick_4">
     <g id="line2d_4">
      <g>
       <use style="stroke:#000000;stroke-width:0.8;" x="227.833158" xlink:href="#m1b4f3294c1" y="252"/>
      </g>
     </g>
     <g id="text_4">
      <!-- 50 -->
      <g transform="translate(221.470658 266.598437)scale(0.1 -0.1)">
       <use xlink:href="#DejaVuSans-53"/>
       <use x="63.623047" xlink:href="#DejaVuSans-48"/>
      </g>
     </g>
    </g>
    <g id="xtick_5">
     <g id="line2d_5">
      <g>
       <use style="stroke:#000000;stroke-width:0.8;" x="276.839691" xlink:href="#m1b4f3294c1" y="252"/>
      </g>
     </g>
     <g id="text_5">
      <!-- 55 -->
      <g transform="translate(270.477191 266.598437)scale(0.1 -0.1)">
       <use xlink:href="#DejaVuSans-53"/>
       <use x="63.623047" xlink:href="#DejaVuSans-53"/>
      </g>
     </g>
    </g>
    <g id="xtick_6">
     <g id="line2d_6">
      <g>
       <use style="stroke:#000000;stroke-width:0.8;" x="325.846224" xlink:href="#m1b4f3294c1" y="252"/>
      </g>
     </g>
     <g id="text_6">
      <!-- 60 -->
      <g transform="translate(319.483724 266.598437)scale(0.1 -0.1)">
       <defs>
        <path d="M 33.015625 40.375 
Q 26.375 40.375 22.484375 35.828125 
Q 18.609375 31.296875 18.609375 23.390625 
Q 18.609375 15.53125 22.484375 10.953125 
Q 26.375 6.390625 33.015625 6.390625 
Q 39.65625 6.390625 43.53125 10.953125 
Q 47.40625 15.53125 47.40625 23.390625 
Q 47.40625 31.296875 43.53125 35.828125 
Q 39.65625 40.375 33.015625 40.375 
z
M 52.59375 71.296875 
L 52.59375 62.3125 
Q 48.875 64.0625 45.09375 64.984375 
Q 41.3125 65.921875 37.59375 65.921875 
Q 27.828125 65.921875 22.671875 59.328125 
Q 17.53125 52.734375 16.796875 39.40625 
Q 19.671875 43.65625 24.015625 45.921875 
Q 28.375 48.1875 33.59375 48.1875 
Q 44.578125 48.1875 50.953125 41.515625 
Q 57.328125 34.859375 57.328125 23.390625 
Q 57.328125 12.15625 50.6875 5.359375 
Q 44.046875 -1.421875 33.015625 -1.421875 
Q 20.359375 -1.421875 13.671875 8.265625 
Q 6.984375 17.96875 6.984375 36.375 
Q 6.984375 53.65625 15.1875 63.9375 
Q 23.390625 74.21875 37.203125 74.21875 
Q 40.921875 74.21875 44.703125 73.484375 
Q 48.484375 72.75 52.59375 71.296875 
z
" id="DejaVuSans-54"/>
       </defs>
       <use xlink:href="#DejaVuSans-54"/>
       <use x="63.623047" xlink:href="#DejaVuSans-48"/>
      </g>
     </g>
    </g>
    <g id="xtick_7">
     <g id="line2d_7">
      <g>
       <use style="stroke:#000000;stroke-width:0.8;" x="374.852757" xlink:href="#m1b4f3294c1" y="252"/>
      </g>
     </g>
     <g id="text_7">
      <!-- 65 -->
      <g transform="translate(368.490257 266.598437)scale(0.1 -0.1)">
       <use xlink:href="#DejaVuSans-54"/>
       <use x="63.623047" xlink:href="#DejaVuSans-53"/>
      </g>
     </g>
    </g>
    <g id="text_8">
     <!-- GC -->
     <g transform="translate(214.034375 280.276563)scale(0.1 -0.1)">
      <defs>
       <path d="M 59.515625 10.40625 
L 59.515625 29.984375 
L 43.40625 29.984375 
L 43.40625 38.09375 
L 69.28125 38.09375 
L 69.28125 6.78125 
Q 63.578125 2.734375 56.6875 0.65625 
Q 49.8125 -1.421875 42 -1.421875 
Q 24.90625 -1.421875 15.25 8.5625 
Q 5.609375 18.5625 5.609375 36.375 
Q 5.609375 54.25 15.25 64.234375 
Q 24.90625 74.21875 42 74.21875 
Q 49.125 74.21875 55.546875 72.453125 
Q 61.96875 70.703125 67.390625 67.28125 
L 67.390625 56.78125 
Q 61.921875 61.421875 55.765625 63.765625 
Q 49.609375 66.109375 42.828125 66.109375 
Q 29.4375 66.109375 22.71875 58.640625 
Q 16.015625 51.171875 16.015625 36.375 
Q 16.015625 21.625 22.71875 14.15625 
Q 29.4375 6.6875 42.828125 6.6875 
Q 48.046875 6.6875 52.140625 7.59375 
Q 56.25 8.5 59.515625 10.40625 
z
" id="DejaVuSans-71"/>
       <path d="M 64.40625 67.28125 
L 64.40625 56.890625 
Q 59.421875 61.53125 53.78125 63.8125 
Q 48.140625 66.109375 41.796875 66.109375 
Q 29.296875 66.109375 22.65625 58.46875 
Q 16.015625 50.828125 16.015625 36.375 
Q 16.015625 21.96875 22.65625 14.328125 
Q 29.296875 6.6875 41.796875 6.6875 
Q 48.140625 6.6875 53.78125 8.984375 
Q 59.421875 11.28125 64.40625 15.921875 
L 64.40625 5.609375 
Q 59.234375 2.09375 53.4375 0.328125 
Q 47.65625 -1.421875 41.21875 -1.421875 
Q 24.65625 -1.421875 15.125 8.703125 
Q 5.609375 18.84375 5.609375 36.375 
Q 5.609375 53.953125 15.125 64.078125 
Q 24.65625 74.21875 41.21875 74.21875 
Q 47.75 74.21875 53.53125 72.484375 
Q 59.328125 70.75 64.40625 67.28125 
z
" id="DejaVuSans-67"/>
      </defs>
      <use xlink:href="#DejaVuSans-71"/>
      <use x="77.490234" xlink:href="#DejaVuSans-67"/>
     </g>
    </g>
   </g>
   <g id="matplotlib.axis_2">
    <g id="ytick_1">
     <g id="line2d_8">
      <defs>
       <path d="M 0 0 
L -3.5 0 
" id="m59562784c3" style="stroke:#000000;stroke-width:0.8;"/>
      </defs>
      <g>
       <use style="stroke:#000000;stroke-width:0.8;" x="54" xlink:href="#m59562784c3" y="246.44672"/>
      </g>
     </g>
     <g id="text_9">
      <!-- −0.3 -->
      <g transform="translate(22.717187 250.245939)scale(0.1 -0.1)">
       <defs>
        <path d="M 10.59375 35.5 
L 73.1875 35.5 
L 73.1875 27.203125 
L 10.59375 27.203125 
z
" id="DejaVuSans-8722"/>
        <path d="M 10.6875 12.40625 
L 21 12.40625 
L 21 0 
L 10.6875 0 
z
" id="DejaVuSans-46"/>
       </defs>
       <use xlink:href="#DejaVuSans-8722"/>
       <use x="83.789062" xlink:href="#DejaVuSans-48"/>
       <use x="147.412109" xlink:href="#DejaVuSans-46"/>
       <use x="179.199219" xlink:href="#DejaVuSans-51"/>
      </g>
     </g>
    </g>
    <g id="ytick_2">
     <g id="line2d_9">
      <g>
       <use style="stroke:#000000;stroke-width:0.8;" x="54" xlink:href="#m59562784c3" y="204.126089"/>
      </g>
     </g>
     <g id="text_10">
      <!-- −0.2 -->
      <g transform="translate(22.717187 207.925308)scale(0.1 -0.1)">
       <defs>
        <path d="M 19.1875 8.296875 
L 53.609375 8.296875 
L 53.609375 0 
L 7.328125 0 
L 7.328125 8.296875 
Q 12.9375 14.109375 22.625 23.890625 
Q 32.328125 33.6875 34.8125 36.53125 
Q 39.546875 41.84375 41.421875 45.53125 
Q 43.3125 49.21875 43.3125 52.78125 
Q 43.3125 58.59375 39.234375 62.25 
Q 35.15625 65.921875 28.609375 65.921875 
Q 23.96875 65.921875 18.8125 64.3125 
Q 13.671875 62.703125 7.8125 59.421875 
L 7.8125 69.390625 
Q 13.765625 71.78125 18.9375 73 
Q 24.125 74.21875 28.421875 74.21875 
Q 39.75 74.21875 46.484375 68.546875 
Q 53.21875 62.890625 53.21875 53.421875 
Q 53.21875 48.921875 51.53125 44.890625 
Q 49.859375 40.875 45.40625 35.40625 
Q 44.1875 33.984375 37.640625 27.21875 
Q 31.109375 20.453125 19.1875 8.296875 
z
" id="DejaVuSans-50"/>
       </defs>
       <use xlink:href="#DejaVuSans-8722"/>
       <use x="83.789062" xlink:href="#DejaVuSans-48"/>
       <use x="147.412109" xlink:href="#DejaVuSans-46"/>
       <use x="179.199219" xlink:href="#DejaVuSans-50"/>
      </g>
     </g>
    </g>
    <g id="ytick_3">
     <g id="line2d_10">
      <g>
       <use style="stroke:#000000;stroke-width:0.8;" x="54" xlink:href="#m59562784c3" y="161.805457"/>
      </g>
     </g>
     <g id="text_11">
      <!-- −0.1 -->
      <g transform="translate(22.717187 165.604676)scale(0.1 -0.1)">
       <defs>
        <path d="M 12.40625 8.296875 
L 28.515625 8.296875 
L 28.515625 63.921875 
L 10.984375 60.40625 
L 10.984375 69.390625 
L 28.421875 72.90625 
L 38.28125 72.90625 
L 38.28125 8.296875 
L 54.390625 8.296875 
L 54.390625 0 
L 12.40625 0 
z
" id="DejaVuSans-49"/>
       </defs>
       <use xlink:href="#DejaVuSans-8722"/>
       <use x="83.789062" xlink:href="#DejaVuSans-48"/>
       <use x="147.412109" xlink:href="#DejaVuSans-46"/>
       <use x="179.199219" xlink:href="#DejaVuSans-49"/>
      </g>
     </g>
    </g>
    <g id="ytick_4">
     <g id="line2d_11">
      <g>
       <use style="stroke:#000000;stroke-width:0.8;" x="54" xlink:href="#m59562784c3" y="119.484826"/>
      </g>
     </g>
     <g id="text_12">
      <!-- 0.0 -->
      <g transform="translate(31.096875 123.284045)scale(0.1 -0.1)">
       <use xlink:href="#DejaVuSans-48"/>
       <use x="63.623047" xlink:href="#DejaVuSans-46"/>
       <use x="95.410156" xlink:href="#DejaVuSans-48"/>
      </g>
     </g>
    </g>
    <g id="ytick_5">
     <g id="line2d_12">
      <g>
       <use style="stroke:#000000;stroke-width:0.8;" x="54" xlink:href="#m59562784c3" y="77.164195"/>
      </g>
     </g>
     <g id="text_13">
      <!-- 0.1 -->
      <g transform="translate(31.096875 80.963413)scale(0.1 -0.1)">
       <use xlink:href="#DejaVuSans-48"/>
       <use x="63.623047" xlink:href="#DejaVuSans-46"/>
       <use x="95.410156" xlink:href="#DejaVuSans-49"/>
      </g>
     </g>
    </g>
    <g id="ytick_6">
     <g id="line2d_13">
      <g>
       <use style="stroke:#000000;stroke-width:0.8;" x="54" xlink:href="#m59562784c3" y="34.843563"/>
      </g>
     </g>
     <g id="text_14">
      <!-- 0.2 -->
      <g transform="translate(31.096875 38.642782)scale(0.1 -0.1)">
       <use xlink:href="#DejaVuSans-48"/>
       <use x="63.623047" xlink:href="#DejaVuSans-46"/>
       <use x="95.410156" xlink:href="#DejaVuSans-50"/>
      </g>
     </g>
    </g>
    <g id="text_15">
     <!-- DiffDens -->
     <g transform="translate(16.6375 164.739375)rotate(-90)scale(0.1 -0.1)">
      <defs>
       <path d="M 19.671875 64.796875 
L 19.671875 8.109375 
L 31.59375 8.109375 
Q 46.6875 8.109375 53.6875 14.9375 
Q 60.6875 21.78125 60.6875 36.53125 
Q 60.6875 51.171875 53.6875 57.984375 
Q 46.6875 64.796875 31.59375 64.796875 
z
M 9.8125 72.90625 
L 30.078125 72.90625 
Q 51.265625 72.90625 61.171875 64.09375 
Q 71.09375 55.28125 71.09375 36.53125 
Q 71.09375 17.671875 61.125 8.828125 
Q 51.171875 0 30.078125 0 
L 9.8125 0 
z
" id="DejaVuSans-68"/>
       <path d="M 9.421875 54.6875 
L 18.40625 54.6875 
L 18.40625 0 
L 9.421875 0 
z
M 9.421875 75.984375 
L 18.40625 75.984375 
L 18.40625 64.59375 
L 9.421875 64.59375 
z
" id="DejaVuSans-105"/>
       <path d="M 37.109375 75.984375 
L 37.109375 68.5 
L 28.515625 68.5 
Q 23.6875 68.5 21.796875 66.546875 
Q 19.921875 64.59375 19.921875 59.515625 
L 19.921875 54.6875 
L 34.71875 54.6875 
L 34.71875 47.703125 
L 19.921875 47.703125 
L 19.921875 0 
L 10.890625 0 
L 10.890625 47.703125 
L 2.296875 47.703125 
L 2.296875 54.6875 
L 10.890625 54.6875 
L 10.890625 58.5 
Q 10.890625 67.625 15.140625 71.796875 
Q 19.390625 75.984375 28.609375 75.984375 
z
" id="DejaVuSans-102"/>
       <path d="M 56.203125 29.59375 
L 56.203125 25.203125 
L 14.890625 25.203125 
Q 15.484375 15.921875 20.484375 11.0625 
Q 25.484375 6.203125 34.421875 6.203125 
Q 39.59375 6.203125 44.453125 7.46875 
Q 49.3125 8.734375 54.109375 11.28125 
L 54.109375 2.78125 
Q 49.265625 0.734375 44.1875 -0.34375 
Q 39.109375 -1.421875 33.890625 -1.421875 
Q 20.796875 -1.421875 13.15625 6.1875 
Q 5.515625 13.8125 5.515625 26.8125 
Q 5.515625 40.234375 12.765625 48.109375 
Q 20.015625 56 32.328125 56 
Q 43.359375 56 49.78125 48.890625 
Q 56.203125 41.796875 56.203125 29.59375 
z
M 47.21875 32.234375 
Q 47.125 39.59375 43.09375 43.984375 
Q 39.0625 48.390625 32.421875 48.390625 
Q 24.90625 48.390625 20.390625 44.140625 
Q 15.875 39.890625 15.1875 32.171875 
z
" id="DejaVuSans-101"/>
       <path d="M 54.890625 33.015625 
L 54.890625 0 
L 45.90625 0 
L 45.90625 32.71875 
Q 45.90625 40.484375 42.875 44.328125 
Q 39.84375 48.1875 33.796875 48.1875 
Q 26.515625 48.1875 22.3125 43.546875 
Q 18.109375 38.921875 18.109375 30.90625 
L 18.109375 0 
L 9.078125 0 
L 9.078125 54.6875 
L 18.109375 54.6875 
L 18.109375 46.1875 
Q 21.34375 51.125 25.703125 53.5625 
Q 30.078125 56 35.796875 56 
Q 45.21875 56 50.046875 50.171875 
Q 54.890625 44.34375 54.890625 33.015625 
z
" id="DejaVuSans-110"/>
       <path d="M 44.28125 53.078125 
L 44.28125 44.578125 
Q 40.484375 46.53125 36.375 47.5 
Q 32.28125 48.484375 27.875 48.484375 
Q 21.1875 48.484375 17.84375 46.4375 
Q 14.5 44.390625 14.5 40.28125 
Q 14.5 37.15625 16.890625 35.375 
Q 19.28125 33.59375 26.515625 31.984375 
L 29.59375 31.296875 
Q 39.15625 29.25 43.1875 25.515625 
Q 47.21875 21.78125 47.21875 15.09375 
Q 47.21875 7.46875 41.1875 3.015625 
Q 35.15625 -1.421875 24.609375 -1.421875 
Q 20.21875 -1.421875 15.453125 -0.5625 
Q 10.6875 0.296875 5.421875 2 
L 5.421875 11.28125 
Q 10.40625 8.6875 15.234375 7.390625 
Q 20.0625 6.109375 24.8125 6.109375 
Q 31.15625 6.109375 34.5625 8.28125 
Q 37.984375 10.453125 37.984375 14.40625 
Q 37.984375 18.0625 35.515625 20.015625 
Q 33.0625 21.96875 24.703125 23.78125 
L 21.578125 24.515625 
Q 13.234375 26.265625 9.515625 29.90625 
Q 5.8125 33.546875 5.8125 39.890625 
Q 5.8125 47.609375 11.28125 51.796875 
Q 16.75 56 26.8125 56 
Q 31.78125 56 36.171875 55.265625 
Q 40.578125 54.546875 44.28125 53.078125 
z
" id="DejaVuSans-115"/>
      </defs>
      <use xlink:href="#DejaVuSans-68"/>
      <use x="77.001953" xlink:href="#DejaVuSans-105"/>
      <use x="104.785156" xlink:href="#DejaVuSans-102"/>
      <use x="139.990234" xlink:href="#DejaVuSans-102"/>
      <use x="175.195312" xlink:href="#DejaVuSans-68"/>
      <use x="252.197266" xlink:href="#DejaVuSans-101"/>
      <use x="313.720703" xlink:href="#DejaVuSans-110"/>
      <use x="377.099609" xlink:href="#DejaVuSans-115"/>
     </g>
    </g>
   </g>
   <g id="line2d_14">
    <path clip-path="url(#p64c87d7b7f)" d="M 54 93.515781 
L 57.381818 94.566176 
L 60.763636 95.616572 
L 64.145455 96.666968 
L 67.527273 97.717363 
L 70.909091 98.767759 
L 74.290909 99.818155 
L 77.672727 100.868551 
L 81.054545 101.918946 
L 84.436364 102.969342 
L 87.818182 104.019738 
L 91.2 105.070134 
L 94.581818 106.120529 
L 97.963636 107.170925 
L 101.345455 108.221321 
L 104.727273 109.271717 
L 108.109091 110.322112 
L 111.490909 111.372508 
L 114.872727 112.422904 
L 118.254545 113.4733 
L 121.636364 114.523695 
L 125.018182 115.574091 
L 128.4 116.624487 
L 131.781818 117.674883 
L 135.163636 118.725278 
L 138.545455 119.775674 
L 141.927273 120.82607 
L 145.309091 121.876466 
L 148.690909 122.926861 
L 152.072727 123.977257 
L 155.454545 125.027653 
L 158.836364 126.078049 
L 162.218182 127.128444 
L 165.6 128.17884 
L 168.981818 129.229236 
L 172.363636 130.279632 
L 175.745455 131.330027 
L 179.127273 132.380423 
L 182.509091 133.430819 
L 185.890909 134.481215 
L 189.272727 135.53161 
L 192.654545 136.582006 
L 196.036364 137.632402 
L 199.418182 138.682798 
L 202.8 139.733193 
L 206.181818 140.783589 
L 209.563636 141.833985 
L 212.945455 142.88438 
L 216.327273 143.934776 
L 219.709091 144.985172 
L 223.090909 146.035568 
L 226.472727 147.085963 
L 229.854545 148.136359 
L 233.236364 149.186755 
L 236.618182 150.237151 
L 240 151.287546 
L 243.381818 152.337942 
L 246.763636 153.388338 
L 250.145455 154.438734 
L 253.527273 155.489129 
L 256.909091 156.539525 
L 260.290909 157.589921 
L 263.672727 158.640317 
L 267.054545 159.690712 
L 270.436364 160.741108 
L 273.818182 161.791504 
L 277.2 162.8419 
L 280.581818 163.892295 
L 283.963636 164.942691 
L 287.345455 165.993087 
L 290.727273 167.043483 
L 294.109091 168.093878 
L 297.490909 169.144274 
L 300.872727 170.19467 
L 304.254545 171.245066 
L 307.636364 172.295461 
L 311.018182 173.345857 
L 314.4 174.396253 
L 317.781818 175.446649 
L 321.163636 176.497044 
L 324.545455 177.54744 
L 327.927273 178.597836 
L 331.309091 179.648232 
L 334.690909 180.698627 
L 338.072727 181.749023 
L 341.454545 182.799419 
L 344.836364 183.849814 
L 348.218182 184.90021 
L 351.6 185.950606 
L 354.981818 187.001002 
L 358.363636 188.051397 
L 361.745455 189.101793 
L 365.127273 190.152189 
L 368.509091 191.202585 
L 371.890909 192.25298 
L 375.272727 193.303376 
L 378.654545 194.353772 
L 382.036364 195.404168 
L 385.418182 196.454563 
L 388.8 197.504959 
" style="fill:none;stroke:#2686a4;stroke-linecap:square;stroke-width:2.25;"/>
   </g>
   <g id="patch_3">
    <path d="M 54 252 
L 54 34.56 
" style="fill:none;stroke:#000000;stroke-linecap:square;stroke-linejoin:miter;stroke-width:0.8;"/>
   </g>
   <g id="patch_4">
    <path d="M 388.8 252 
L 388.8 34.56 
" style="fill:none;stroke:#000000;stroke-linecap:square;stroke-linejoin:miter;stroke-width:0.8;"/>
   </g>
   <g id="patch_5">
    <path d="M 54 252 
L 388.8 252 
" style="fill:none;stroke:#000000;stroke-linecap:square;stroke-linejoin:miter;stroke-width:0.8;"/>
   </g>
   <g id="patch_6">
    <path d="M 54 34.56 
L 388.8 34.56 
" style="fill:none;stroke:#000000;stroke-linecap:square;stroke-linejoin:miter;stroke-width:0.8;"/>
   </g>
  </g>
 </g>
 <defs>
  <clipPath id="p64c87d7b7f">
   <rect height="217.44" width="334.8" x="54" y="34.56"/>
  </clipPath>
 </defs>
</svg>
