<?xml version="1.0" encoding="utf-8" standalone="no"?>
<!DOCTYPE svg PUBLIC "-//W3C//DTD SVG 1.1//EN"
  "http://www.w3.org/Graphics/SVG/1.1/DTD/svg11.dtd">
<!-- Created with matplotlib (https://matplotlib.org/) -->
<svg height="288pt" version="1.1" viewBox="0 0 432 288" width="432pt" xmlns="http://www.w3.org/2000/svg" xmlns:xlink="http://www.w3.org/1999/xlink">
 <metadata>
  <rdf:RDF xmlns:cc="http://creativecommons.org/ns#" xmlns:dc="http://purl.org/dc/elements/1.1/" xmlns:rdf="http://www.w3.org/1999/02/22-rdf-syntax-ns#">
   <cc:Work>
    <dc:type rdf:resource="http://purl.org/dc/dcmitype/StillImage"/>
    <dc:date>2021-04-15T19:50:33.553849</dc:date>
    <dc:format>image/svg+xml</dc:format>
    <dc:creator>
     <cc:Agent>
      <dc:title>Matplotlib v3.3.2, https://matplotlib.org/</dc:title>
     </cc:Agent>
    </dc:creator>
   </cc:Work>
  </rdf:RDF>
 </metadata>
 <defs>
  <style type="text/css">*{stroke-linecap:butt;stroke-linejoin:round;}</style>
 </defs>
 <g id="figure_1">
  <g id="patch_1">
   <path d="M 0 288 
L 432 288 
L 432 0 
L 0 0 
z
" style="fill:none;"/>
  </g>
  <g id="axes_1">
   <g id="patch_2">
    <path d="M 54 252 
L 388.8 252 
L 388.8 34.56 
L 54 34.56 
z
" style="fill:#ffffff;"/>
   </g>
   <g id="PathCollection_1">
    <defs>
     <path d="M 0 3 
C 0.795609 3 1.55874 2.683901 2.12132 2.12132 
C 2.683901 1.55874 3 0.795609 3 0 
C 3 -0.795609 2.683901 -1.55874 2.12132 -2.12132 
C 1.55874 -2.683901 0.795609 -3 0 -3 
C -0.795609 -3 -1.55874 -2.683901 -2.12132 -2.12132 
C -2.683901 -1.55874 -3 -0.795609 -3 0 
C -3 0.795609 -2.683901 1.55874 -2.12132 2.12132 
C -1.55874 2.683901 -0.795609 3 0 3 
z
" id="m68433971f8" style="stroke:#2686a4;stroke-opacity:0.8;"/>
    </defs>
    <g clip-path="url(#p68f7a0bd0b)">
     <use style="fill:#2686a4;fill-opacity:0.8;stroke:#2686a4;stroke-opacity:0.8;" x="278.957753" xlink:href="#m68433971f8" y="162.078073"/>
     <use style="fill:#2686a4;fill-opacity:0.8;stroke:#2686a4;stroke-opacity:0.8;" x="290.422529" xlink:href="#m68433971f8" y="119.094897"/>
     <use style="fill:#2686a4;fill-opacity:0.8;stroke:#2686a4;stroke-opacity:0.8;" x="107.574069" xlink:href="#m68433971f8" y="100.025199"/>
     <use style="fill:#2686a4;fill-opacity:0.8;stroke:#2686a4;stroke-opacity:0.8;" x="179.818109" xlink:href="#m68433971f8" y="164.163537"/>
     <use style="fill:#2686a4;fill-opacity:0.8;stroke:#2686a4;stroke-opacity:0.8;" x="388.8" xlink:href="#m68433971f8" y="242.116364"/>
     <use style="fill:#2686a4;fill-opacity:0.8;stroke:#2686a4;stroke-opacity:0.8;" x="54" xlink:href="#m68433971f8" y="132.059725"/>
     <use style="fill:#2686a4;fill-opacity:0.8;stroke:#2686a4;stroke-opacity:0.8;" x="132.731342" xlink:href="#m68433971f8" y="128.84358"/>
     <use style="fill:#2686a4;fill-opacity:0.8;stroke:#2686a4;stroke-opacity:0.8;" x="339.182167" xlink:href="#m68433971f8" y="100.025199"/>
     <use style="fill:#2686a4;fill-opacity:0.8;stroke:#2686a4;stroke-opacity:0.8;" x="284.688758" xlink:href="#m68433971f8" y="48.321407"/>
     <use style="fill:#2686a4;fill-opacity:0.8;stroke:#2686a4;stroke-opacity:0.8;" x="306.903818" xlink:href="#m68433971f8" y="176.292673"/>
     <use style="fill:#2686a4;fill-opacity:0.8;stroke:#2686a4;stroke-opacity:0.8;" x="263.654968" xlink:href="#m68433971f8" y="59.733231"/>
     <use style="fill:#2686a4;fill-opacity:0.8;stroke:#2686a4;stroke-opacity:0.8;" x="96.209717" xlink:href="#m68433971f8" y="100.025199"/>
    </g>
   </g>
   <g id="PolyCollection_1">
    <path clip-path="url(#p68f7a0bd0b)" d="M 54 44.443636 
L 54 137.648624 
L 57.381818 137.284851 
L 60.763636 136.459051 
L 64.145455 136.034921 
L 67.527273 136.027669 
L 70.909091 136.071868 
L 74.290909 135.817178 
L 77.672727 135.453008 
L 81.054545 135.294055 
L 84.436364 135.456493 
L 87.818182 135.559908 
L 91.2 135.383763 
L 94.581818 134.875286 
L 97.963636 134.761181 
L 101.345455 134.07597 
L 104.727273 134.175371 
L 108.109091 134.255368 
L 111.490909 134.275364 
L 114.872727 133.732791 
L 118.254545 133.314688 
L 121.636364 133.104822 
L 125.018182 133.154653 
L 128.4 133.570031 
L 131.781818 133.675305 
L 135.163636 133.596169 
L 138.545455 134.080495 
L 141.927273 134.165173 
L 145.309091 134.443745 
L 148.690909 134.890093 
L 152.072727 135.44577 
L 155.454545 136.115403 
L 158.836364 136.960937 
L 162.218182 137.848056 
L 165.6 138.535627 
L 168.981818 138.718176 
L 172.363636 139.255486 
L 175.745455 140.06627 
L 179.127273 141.147042 
L 182.509091 141.687838 
L 185.890909 142.481794 
L 189.272727 143.294785 
L 192.654545 144.097892 
L 196.036364 144.717118 
L 199.418182 145.497917 
L 202.8 146.733904 
L 206.181818 147.895015 
L 209.563636 148.641588 
L 212.945455 149.52241 
L 216.327273 150.673875 
L 219.709091 151.827758 
L 223.090909 152.79997 
L 226.472727 153.535148 
L 229.854545 154.645117 
L 233.236364 155.763169 
L 236.618182 156.877431 
L 240 157.83782 
L 243.381818 158.9602 
L 246.763636 160.080198 
L 250.145455 161.044189 
L 253.527273 162.000315 
L 256.909091 162.941915 
L 260.290909 163.883515 
L 263.672727 164.969691 
L 267.054545 166.053 
L 270.436364 167.165918 
L 273.818182 168.529107 
L 277.2 169.655601 
L 280.581818 170.4855 
L 283.963636 171.303698 
L 287.345455 172.121896 
L 290.727273 173.344097 
L 294.109091 174.66408 
L 297.490909 175.984063 
L 300.872727 177.227029 
L 304.254545 178.310868 
L 307.636364 179.373302 
L 311.018182 180.429276 
L 314.4 181.550899 
L 317.781818 182.59184 
L 321.163636 183.619527 
L 324.545455 184.647213 
L 327.927273 185.67387 
L 331.309091 186.699169 
L 334.690909 187.723833 
L 338.072727 188.749768 
L 341.454545 189.787962 
L 344.836364 190.813332 
L 348.218182 191.841018 
L 351.6 192.868705 
L 354.981818 194.540812 
L 358.363636 195.620019 
L 361.745455 196.699226 
L 365.127273 197.933522 
L 368.509091 199.05014 
L 371.890909 200.073315 
L 375.272727 201.571616 
L 378.654545 203.465199 
L 382.036364 204.567189 
L 385.418182 205.656012 
L 388.8 206.744835 
L 388.8 71.073237 
L 388.8 71.073237 
L 385.418182 72.053459 
L 382.036364 73.042424 
L 378.654545 74.031389 
L 375.272727 74.656796 
L 371.890909 74.989068 
L 368.509091 75.32134 
L 365.127273 75.653613 
L 361.745455 75.985885 
L 358.363636 76.560579 
L 354.981818 77.208403 
L 351.6 77.856226 
L 348.218182 78.50405 
L 344.836364 79.15621 
L 341.454545 79.809458 
L 338.072727 80.462706 
L 334.690909 80.889179 
L 331.309091 81.238299 
L 327.927273 81.533439 
L 324.545455 81.828579 
L 321.163636 82.123719 
L 317.781818 82.751662 
L 314.4 83.164859 
L 311.018182 83.543108 
L 307.636364 83.922518 
L 304.254545 84.301929 
L 300.872727 84.809916 
L 297.490909 85.346714 
L 294.109091 85.885333 
L 290.727273 86.378639 
L 287.345455 86.975621 
L 283.963636 87.749262 
L 280.581818 88.577439 
L 277.2 89.366387 
L 273.818182 89.128416 
L 270.436364 89.670446 
L 267.054545 89.79988 
L 263.672727 90.394666 
L 260.290909 91.226949 
L 256.909091 91.748886 
L 253.527273 92.380596 
L 250.145455 92.729283 
L 246.763636 93.172612 
L 243.381818 93.694403 
L 240 92.504776 
L 236.618182 92.084597 
L 233.236364 92.159466 
L 229.854545 92.536638 
L 226.472727 92.91663 
L 223.090909 92.784537 
L 219.709091 92.509683 
L 216.327273 91.656194 
L 212.945455 92.358862 
L 209.563636 92.526295 
L 206.181818 92.900697 
L 202.8 92.708581 
L 199.418182 93.167109 
L 196.036364 93.442708 
L 192.654545 93.313895 
L 189.272727 93.298563 
L 185.890909 93.219061 
L 182.509091 93.280027 
L 179.127273 93.050824 
L 175.745455 92.012337 
L 172.363636 91.633053 
L 168.981818 90.873946 
L 165.6 89.665036 
L 162.218182 88.971716 
L 158.836364 88.022568 
L 155.454545 87.059815 
L 152.072727 85.621514 
L 148.690909 84.156708 
L 145.309091 82.688125 
L 141.927273 81.219543 
L 138.545455 79.75096 
L 135.163636 78.282377 
L 131.781818 76.82609 
L 128.4 75.690644 
L 125.018182 74.523516 
L 121.636364 73.005129 
L 118.254545 71.486742 
L 114.872727 69.968356 
L 111.490909 68.449969 
L 108.109091 66.935434 
L 104.727273 65.448233 
L 101.345455 63.895577 
L 97.963636 62.441059 
L 94.581818 60.976498 
L 91.2 59.340821 
L 87.818182 57.821262 
L 84.436364 56.352292 
L 81.054545 55.027488 
L 77.672727 53.703548 
L 74.290909 52.380704 
L 70.909091 51.057859 
L 67.527273 49.735015 
L 64.145455 48.41217 
L 60.763636 47.089325 
L 57.381818 45.766481 
L 54 44.443636 
z
" style="fill:#2686a4;fill-opacity:0.15;"/>
   </g>
   <g id="matplotlib.axis_1">
    <g id="xtick_1">
     <g id="line2d_1">
      <defs>
       <path d="M 0 0 
L 0 3.5 
" id="mfa4c356975" style="stroke:#000000;stroke-width:0.8;"/>
      </defs>
      <g>
       <use style="stroke:#000000;stroke-width:0.8;" x="90.690697" xlink:href="#mfa4c356975" y="252"/>
      </g>
     </g>
     <g id="text_1">
      <!-- 52.5 -->
      <g transform="translate(79.557885 266.598437)scale(0.1 -0.1)">
       <defs>
        <path d="M 10.796875 72.90625 
L 49.515625 72.90625 
L 49.515625 64.59375 
L 19.828125 64.59375 
L 19.828125 46.734375 
Q 21.96875 47.46875 24.109375 47.828125 
Q 26.265625 48.1875 28.421875 48.1875 
Q 40.625 48.1875 47.75 41.5 
Q 54.890625 34.8125 54.890625 23.390625 
Q 54.890625 11.625 47.5625 5.09375 
Q 40.234375 -1.421875 26.90625 -1.421875 
Q 22.3125 -1.421875 17.546875 -0.640625 
Q 12.796875 0.140625 7.71875 1.703125 
L 7.71875 11.625 
Q 12.109375 9.234375 16.796875 8.0625 
Q 21.484375 6.890625 26.703125 6.890625 
Q 35.15625 6.890625 40.078125 11.328125 
Q 45.015625 15.765625 45.015625 23.390625 
Q 45.015625 31 40.078125 35.4375 
Q 35.15625 39.890625 26.703125 39.890625 
Q 22.75 39.890625 18.8125 39.015625 
Q 14.890625 38.140625 10.796875 36.28125 
z
" id="DejaVuSans-53"/>
        <path d="M 19.1875 8.296875 
L 53.609375 8.296875 
L 53.609375 0 
L 7.328125 0 
L 7.328125 8.296875 
Q 12.9375 14.109375 22.625 23.890625 
Q 32.328125 33.6875 34.8125 36.53125 
Q 39.546875 41.84375 41.421875 45.53125 
Q 43.3125 49.21875 43.3125 52.78125 
Q 43.3125 58.59375 39.234375 62.25 
Q 35.15625 65.921875 28.609375 65.921875 
Q 23.96875 65.921875 18.8125 64.3125 
Q 13.671875 62.703125 7.8125 59.421875 
L 7.8125 69.390625 
Q 13.765625 71.78125 18.9375 73 
Q 24.125 74.21875 28.421875 74.21875 
Q 39.75 74.21875 46.484375 68.546875 
Q 53.21875 62.890625 53.21875 53.421875 
Q 53.21875 48.921875 51.53125 44.890625 
Q 49.859375 40.875 45.40625 35.40625 
Q 44.1875 33.984375 37.640625 27.21875 
Q 31.109375 20.453125 19.1875 8.296875 
z
" id="DejaVuSans-50"/>
        <path d="M 10.6875 12.40625 
L 21 12.40625 
L 21 0 
L 10.6875 0 
z
" id="DejaVuSans-46"/>
       </defs>
       <use xlink:href="#DejaVuSans-53"/>
       <use x="63.623047" xlink:href="#DejaVuSans-50"/>
       <use x="127.246094" xlink:href="#DejaVuSans-46"/>
       <use x="159.033203" xlink:href="#DejaVuSans-53"/>
      </g>
     </g>
    </g>
    <g id="xtick_2">
     <g id="line2d_2">
      <g>
       <use style="stroke:#000000;stroke-width:0.8;" x="134.17463" xlink:href="#mfa4c356975" y="252"/>
      </g>
     </g>
     <g id="text_2">
      <!-- 55.0 -->
      <g transform="translate(123.041818 266.598437)scale(0.1 -0.1)">
       <defs>
        <path d="M 31.78125 66.40625 
Q 24.171875 66.40625 20.328125 58.90625 
Q 16.5 51.421875 16.5 36.375 
Q 16.5 21.390625 20.328125 13.890625 
Q 24.171875 6.390625 31.78125 6.390625 
Q 39.453125 6.390625 43.28125 13.890625 
Q 47.125 21.390625 47.125 36.375 
Q 47.125 51.421875 43.28125 58.90625 
Q 39.453125 66.40625 31.78125 66.40625 
z
M 31.78125 74.21875 
Q 44.046875 74.21875 50.515625 64.515625 
Q 56.984375 54.828125 56.984375 36.375 
Q 56.984375 17.96875 50.515625 8.265625 
Q 44.046875 -1.421875 31.78125 -1.421875 
Q 19.53125 -1.421875 13.0625 8.265625 
Q 6.59375 17.96875 6.59375 36.375 
Q 6.59375 54.828125 13.0625 64.515625 
Q 19.53125 74.21875 31.78125 74.21875 
z
" id="DejaVuSans-48"/>
       </defs>
       <use xlink:href="#DejaVuSans-53"/>
       <use x="63.623047" xlink:href="#DejaVuSans-53"/>
       <use x="127.246094" xlink:href="#DejaVuSans-46"/>
       <use x="159.033203" xlink:href="#DejaVuSans-48"/>
      </g>
     </g>
    </g>
    <g id="xtick_3">
     <g id="line2d_3">
      <g>
       <use style="stroke:#000000;stroke-width:0.8;" x="177.658563" xlink:href="#mfa4c356975" y="252"/>
      </g>
     </g>
     <g id="text_3">
      <!-- 57.5 -->
      <g transform="translate(166.52575 266.598437)scale(0.1 -0.1)">
       <defs>
        <path d="M 8.203125 72.90625 
L 55.078125 72.90625 
L 55.078125 68.703125 
L 28.609375 0 
L 18.3125 0 
L 43.21875 64.59375 
L 8.203125 64.59375 
z
" id="DejaVuSans-55"/>
       </defs>
       <use xlink:href="#DejaVuSans-53"/>
       <use x="63.623047" xlink:href="#DejaVuSans-55"/>
       <use x="127.246094" xlink:href="#DejaVuSans-46"/>
       <use x="159.033203" xlink:href="#DejaVuSans-53"/>
      </g>
     </g>
    </g>
    <g id="xtick_4">
     <g id="line2d_4">
      <g>
       <use style="stroke:#000000;stroke-width:0.8;" x="221.142496" xlink:href="#mfa4c356975" y="252"/>
      </g>
     </g>
     <g id="text_4">
      <!-- 60.0 -->
      <g transform="translate(210.009683 266.598437)scale(0.1 -0.1)">
       <defs>
        <path d="M 33.015625 40.375 
Q 26.375 40.375 22.484375 35.828125 
Q 18.609375 31.296875 18.609375 23.390625 
Q 18.609375 15.53125 22.484375 10.953125 
Q 26.375 6.390625 33.015625 6.390625 
Q 39.65625 6.390625 43.53125 10.953125 
Q 47.40625 15.53125 47.40625 23.390625 
Q 47.40625 31.296875 43.53125 35.828125 
Q 39.65625 40.375 33.015625 40.375 
z
M 52.59375 71.296875 
L 52.59375 62.3125 
Q 48.875 64.0625 45.09375 64.984375 
Q 41.3125 65.921875 37.59375 65.921875 
Q 27.828125 65.921875 22.671875 59.328125 
Q 17.53125 52.734375 16.796875 39.40625 
Q 19.671875 43.65625 24.015625 45.921875 
Q 28.375 48.1875 33.59375 48.1875 
Q 44.578125 48.1875 50.953125 41.515625 
Q 57.328125 34.859375 57.328125 23.390625 
Q 57.328125 12.15625 50.6875 5.359375 
Q 44.046875 -1.421875 33.015625 -1.421875 
Q 20.359375 -1.421875 13.671875 8.265625 
Q 6.984375 17.96875 6.984375 36.375 
Q 6.984375 53.65625 15.1875 63.9375 
Q 23.390625 74.21875 37.203125 74.21875 
Q 40.921875 74.21875 44.703125 73.484375 
Q 48.484375 72.75 52.59375 71.296875 
z
" id="DejaVuSans-54"/>
       </defs>
       <use xlink:href="#DejaVuSans-54"/>
       <use x="63.623047" xlink:href="#DejaVuSans-48"/>
       <use x="127.246094" xlink:href="#DejaVuSans-46"/>
       <use x="159.033203" xlink:href="#DejaVuSans-48"/>
      </g>
     </g>
    </g>
    <g id="xtick_5">
     <g id="line2d_5">
      <g>
       <use style="stroke:#000000;stroke-width:0.8;" x="264.626428" xlink:href="#mfa4c356975" y="252"/>
      </g>
     </g>
     <g id="text_5">
      <!-- 62.5 -->
      <g transform="translate(253.493616 266.598437)scale(0.1 -0.1)">
       <use xlink:href="#DejaVuSans-54"/>
       <use x="63.623047" xlink:href="#DejaVuSans-50"/>
       <use x="127.246094" xlink:href="#DejaVuSans-46"/>
       <use x="159.033203" xlink:href="#DejaVuSans-53"/>
      </g>
     </g>
    </g>
    <g id="xtick_6">
     <g id="line2d_6">
      <g>
       <use style="stroke:#000000;stroke-width:0.8;" x="308.110361" xlink:href="#mfa4c356975" y="252"/>
      </g>
     </g>
     <g id="text_6">
      <!-- 65.0 -->
      <g transform="translate(296.977549 266.598437)scale(0.1 -0.1)">
       <use xlink:href="#DejaVuSans-54"/>
       <use x="63.623047" xlink:href="#DejaVuSans-53"/>
       <use x="127.246094" xlink:href="#DejaVuSans-46"/>
       <use x="159.033203" xlink:href="#DejaVuSans-48"/>
      </g>
     </g>
    </g>
    <g id="xtick_7">
     <g id="line2d_7">
      <g>
       <use style="stroke:#000000;stroke-width:0.8;" x="351.594294" xlink:href="#mfa4c356975" y="252"/>
      </g>
     </g>
     <g id="text_7">
      <!-- 67.5 -->
      <g transform="translate(340.461482 266.598437)scale(0.1 -0.1)">
       <use xlink:href="#DejaVuSans-54"/>
       <use x="63.623047" xlink:href="#DejaVuSans-55"/>
       <use x="127.246094" xlink:href="#DejaVuSans-46"/>
       <use x="159.033203" xlink:href="#DejaVuSans-53"/>
      </g>
     </g>
    </g>
    <g id="text_8">
     <!-- GC -->
     <g transform="translate(214.034375 280.276563)scale(0.1 -0.1)">
      <defs>
       <path d="M 59.515625 10.40625 
L 59.515625 29.984375 
L 43.40625 29.984375 
L 43.40625 38.09375 
L 69.28125 38.09375 
L 69.28125 6.78125 
Q 63.578125 2.734375 56.6875 0.65625 
Q 49.8125 -1.421875 42 -1.421875 
Q 24.90625 -1.421875 15.25 8.5625 
Q 5.609375 18.5625 5.609375 36.375 
Q 5.609375 54.25 15.25 64.234375 
Q 24.90625 74.21875 42 74.21875 
Q 49.125 74.21875 55.546875 72.453125 
Q 61.96875 70.703125 67.390625 67.28125 
L 67.390625 56.78125 
Q 61.921875 61.421875 55.765625 63.765625 
Q 49.609375 66.109375 42.828125 66.109375 
Q 29.4375 66.109375 22.71875 58.640625 
Q 16.015625 51.171875 16.015625 36.375 
Q 16.015625 21.625 22.71875 14.15625 
Q 29.4375 6.6875 42.828125 6.6875 
Q 48.046875 6.6875 52.140625 7.59375 
Q 56.25 8.5 59.515625 10.40625 
z
" id="DejaVuSans-71"/>
       <path d="M 64.40625 67.28125 
L 64.40625 56.890625 
Q 59.421875 61.53125 53.78125 63.8125 
Q 48.140625 66.109375 41.796875 66.109375 
Q 29.296875 66.109375 22.65625 58.46875 
Q 16.015625 50.828125 16.015625 36.375 
Q 16.015625 21.96875 22.65625 14.328125 
Q 29.296875 6.6875 41.796875 6.6875 
Q 48.140625 6.6875 53.78125 8.984375 
Q 59.421875 11.28125 64.40625 15.921875 
L 64.40625 5.609375 
Q 59.234375 2.09375 53.4375 0.328125 
Q 47.65625 -1.421875 41.21875 -1.421875 
Q 24.65625 -1.421875 15.125 8.703125 
Q 5.609375 18.84375 5.609375 36.375 
Q 5.609375 53.953125 15.125 64.078125 
Q 24.65625 74.21875 41.21875 74.21875 
Q 47.75 74.21875 53.53125 72.484375 
Q 59.328125 70.75 64.40625 67.28125 
z
" id="DejaVuSans-67"/>
      </defs>
      <use xlink:href="#DejaVuSans-71"/>
      <use x="77.490234" xlink:href="#DejaVuSans-67"/>
     </g>
    </g>
   </g>
   <g id="matplotlib.axis_2">
    <g id="ytick_1">
     <g id="line2d_8">
      <defs>
       <path d="M 0 0 
L -3.5 0 
" id="mb58c8c4200" style="stroke:#000000;stroke-width:0.8;"/>
      </defs>
      <g>
       <use style="stroke:#000000;stroke-width:0.8;" x="54" xlink:href="#mb58c8c4200" y="228.526359"/>
      </g>
     </g>
     <g id="text_9">
      <!-- −0.5 -->
      <g transform="translate(22.717187 232.325577)scale(0.1 -0.1)">
       <defs>
        <path d="M 10.59375 35.5 
L 73.1875 35.5 
L 73.1875 27.203125 
L 10.59375 27.203125 
z
" id="DejaVuSans-8722"/>
       </defs>
       <use xlink:href="#DejaVuSans-8722"/>
       <use x="83.789062" xlink:href="#DejaVuSans-48"/>
       <use x="147.412109" xlink:href="#DejaVuSans-46"/>
       <use x="179.199219" xlink:href="#DejaVuSans-53"/>
      </g>
     </g>
    </g>
    <g id="ytick_2">
     <g id="line2d_9">
      <g>
       <use style="stroke:#000000;stroke-width:0.8;" x="54" xlink:href="#mb58c8c4200" y="202.826127"/>
      </g>
     </g>
     <g id="text_10">
      <!-- −0.4 -->
      <g transform="translate(22.717187 206.625346)scale(0.1 -0.1)">
       <defs>
        <path d="M 37.796875 64.3125 
L 12.890625 25.390625 
L 37.796875 25.390625 
z
M 35.203125 72.90625 
L 47.609375 72.90625 
L 47.609375 25.390625 
L 58.015625 25.390625 
L 58.015625 17.1875 
L 47.609375 17.1875 
L 47.609375 0 
L 37.796875 0 
L 37.796875 17.1875 
L 4.890625 17.1875 
L 4.890625 26.703125 
z
" id="DejaVuSans-52"/>
       </defs>
       <use xlink:href="#DejaVuSans-8722"/>
       <use x="83.789062" xlink:href="#DejaVuSans-48"/>
       <use x="147.412109" xlink:href="#DejaVuSans-46"/>
       <use x="179.199219" xlink:href="#DejaVuSans-52"/>
      </g>
     </g>
    </g>
    <g id="ytick_3">
     <g id="line2d_10">
      <g>
       <use style="stroke:#000000;stroke-width:0.8;" x="54" xlink:href="#mb58c8c4200" y="177.125895"/>
      </g>
     </g>
     <g id="text_11">
      <!-- −0.3 -->
      <g transform="translate(22.717187 180.925114)scale(0.1 -0.1)">
       <defs>
        <path d="M 40.578125 39.3125 
Q 47.65625 37.796875 51.625 33 
Q 55.609375 28.21875 55.609375 21.1875 
Q 55.609375 10.40625 48.1875 4.484375 
Q 40.765625 -1.421875 27.09375 -1.421875 
Q 22.515625 -1.421875 17.65625 -0.515625 
Q 12.796875 0.390625 7.625 2.203125 
L 7.625 11.71875 
Q 11.71875 9.328125 16.59375 8.109375 
Q 21.484375 6.890625 26.8125 6.890625 
Q 36.078125 6.890625 40.9375 10.546875 
Q 45.796875 14.203125 45.796875 21.1875 
Q 45.796875 27.640625 41.28125 31.265625 
Q 36.765625 34.90625 28.71875 34.90625 
L 20.21875 34.90625 
L 20.21875 43.015625 
L 29.109375 43.015625 
Q 36.375 43.015625 40.234375 45.921875 
Q 44.09375 48.828125 44.09375 54.296875 
Q 44.09375 59.90625 40.109375 62.90625 
Q 36.140625 65.921875 28.71875 65.921875 
Q 24.65625 65.921875 20.015625 65.03125 
Q 15.375 64.15625 9.8125 62.3125 
L 9.8125 71.09375 
Q 15.4375 72.65625 20.34375 73.4375 
Q 25.25 74.21875 29.59375 74.21875 
Q 40.828125 74.21875 47.359375 69.109375 
Q 53.90625 64.015625 53.90625 55.328125 
Q 53.90625 49.265625 50.4375 45.09375 
Q 46.96875 40.921875 40.578125 39.3125 
z
" id="DejaVuSans-51"/>
       </defs>
       <use xlink:href="#DejaVuSans-8722"/>
       <use x="83.789062" xlink:href="#DejaVuSans-48"/>
       <use x="147.412109" xlink:href="#DejaVuSans-46"/>
       <use x="179.199219" xlink:href="#DejaVuSans-51"/>
      </g>
     </g>
    </g>
    <g id="ytick_4">
     <g id="line2d_11">
      <g>
       <use style="stroke:#000000;stroke-width:0.8;" x="54" xlink:href="#mb58c8c4200" y="151.425663"/>
      </g>
     </g>
     <g id="text_12">
      <!-- −0.2 -->
      <g transform="translate(22.717187 155.224882)scale(0.1 -0.1)">
       <use xlink:href="#DejaVuSans-8722"/>
       <use x="83.789062" xlink:href="#DejaVuSans-48"/>
       <use x="147.412109" xlink:href="#DejaVuSans-46"/>
       <use x="179.199219" xlink:href="#DejaVuSans-50"/>
      </g>
     </g>
    </g>
    <g id="ytick_5">
     <g id="line2d_12">
      <g>
       <use style="stroke:#000000;stroke-width:0.8;" x="54" xlink:href="#mb58c8c4200" y="125.725431"/>
      </g>
     </g>
     <g id="text_13">
      <!-- −0.1 -->
      <g transform="translate(22.717187 129.52465)scale(0.1 -0.1)">
       <defs>
        <path d="M 12.40625 8.296875 
L 28.515625 8.296875 
L 28.515625 63.921875 
L 10.984375 60.40625 
L 10.984375 69.390625 
L 28.421875 72.90625 
L 38.28125 72.90625 
L 38.28125 8.296875 
L 54.390625 8.296875 
L 54.390625 0 
L 12.40625 0 
z
" id="DejaVuSans-49"/>
       </defs>
       <use xlink:href="#DejaVuSans-8722"/>
       <use x="83.789062" xlink:href="#DejaVuSans-48"/>
       <use x="147.412109" xlink:href="#DejaVuSans-46"/>
       <use x="179.199219" xlink:href="#DejaVuSans-49"/>
      </g>
     </g>
    </g>
    <g id="ytick_6">
     <g id="line2d_13">
      <g>
       <use style="stroke:#000000;stroke-width:0.8;" x="54" xlink:href="#mb58c8c4200" y="100.025199"/>
      </g>
     </g>
     <g id="text_14">
      <!-- 0.0 -->
      <g transform="translate(31.096875 103.824418)scale(0.1 -0.1)">
       <use xlink:href="#DejaVuSans-48"/>
       <use x="63.623047" xlink:href="#DejaVuSans-46"/>
       <use x="95.410156" xlink:href="#DejaVuSans-48"/>
      </g>
     </g>
    </g>
    <g id="ytick_7">
     <g id="line2d_14">
      <g>
       <use style="stroke:#000000;stroke-width:0.8;" x="54" xlink:href="#mb58c8c4200" y="74.324968"/>
      </g>
     </g>
     <g id="text_15">
      <!-- 0.1 -->
      <g transform="translate(31.096875 78.124186)scale(0.1 -0.1)">
       <use xlink:href="#DejaVuSans-48"/>
       <use x="63.623047" xlink:href="#DejaVuSans-46"/>
       <use x="95.410156" xlink:href="#DejaVuSans-49"/>
      </g>
     </g>
    </g>
    <g id="ytick_8">
     <g id="line2d_15">
      <g>
       <use style="stroke:#000000;stroke-width:0.8;" x="54" xlink:href="#mb58c8c4200" y="48.624736"/>
      </g>
     </g>
     <g id="text_16">
      <!-- 0.2 -->
      <g transform="translate(31.096875 52.423955)scale(0.1 -0.1)">
       <use xlink:href="#DejaVuSans-48"/>
       <use x="63.623047" xlink:href="#DejaVuSans-46"/>
       <use x="95.410156" xlink:href="#DejaVuSans-50"/>
      </g>
     </g>
    </g>
    <g id="text_17">
     <!-- DiffDens -->
     <g transform="translate(16.6375 164.739375)rotate(-90)scale(0.1 -0.1)">
      <defs>
       <path d="M 19.671875 64.796875 
L 19.671875 8.109375 
L 31.59375 8.109375 
Q 46.6875 8.109375 53.6875 14.9375 
Q 60.6875 21.78125 60.6875 36.53125 
Q 60.6875 51.171875 53.6875 57.984375 
Q 46.6875 64.796875 31.59375 64.796875 
z
M 9.8125 72.90625 
L 30.078125 72.90625 
Q 51.265625 72.90625 61.171875 64.09375 
Q 71.09375 55.28125 71.09375 36.53125 
Q 71.09375 17.671875 61.125 8.828125 
Q 51.171875 0 30.078125 0 
L 9.8125 0 
z
" id="DejaVuSans-68"/>
       <path d="M 9.421875 54.6875 
L 18.40625 54.6875 
L 18.40625 0 
L 9.421875 0 
z
M 9.421875 75.984375 
L 18.40625 75.984375 
L 18.40625 64.59375 
L 9.421875 64.59375 
z
" id="DejaVuSans-105"/>
       <path d="M 37.109375 75.984375 
L 37.109375 68.5 
L 28.515625 68.5 
Q 23.6875 68.5 21.796875 66.546875 
Q 19.921875 64.59375 19.921875 59.515625 
L 19.921875 54.6875 
L 34.71875 54.6875 
L 34.71875 47.703125 
L 19.921875 47.703125 
L 19.921875 0 
L 10.890625 0 
L 10.890625 47.703125 
L 2.296875 47.703125 
L 2.296875 54.6875 
L 10.890625 54.6875 
L 10.890625 58.5 
Q 10.890625 67.625 15.140625 71.796875 
Q 19.390625 75.984375 28.609375 75.984375 
z
" id="DejaVuSans-102"/>
       <path d="M 56.203125 29.59375 
L 56.203125 25.203125 
L 14.890625 25.203125 
Q 15.484375 15.921875 20.484375 11.0625 
Q 25.484375 6.203125 34.421875 6.203125 
Q 39.59375 6.203125 44.453125 7.46875 
Q 49.3125 8.734375 54.109375 11.28125 
L 54.109375 2.78125 
Q 49.265625 0.734375 44.1875 -0.34375 
Q 39.109375 -1.421875 33.890625 -1.421875 
Q 20.796875 -1.421875 13.15625 6.1875 
Q 5.515625 13.8125 5.515625 26.8125 
Q 5.515625 40.234375 12.765625 48.109375 
Q 20.015625 56 32.328125 56 
Q 43.359375 56 49.78125 48.890625 
Q 56.203125 41.796875 56.203125 29.59375 
z
M 47.21875 32.234375 
Q 47.125 39.59375 43.09375 43.984375 
Q 39.0625 48.390625 32.421875 48.390625 
Q 24.90625 48.390625 20.390625 44.140625 
Q 15.875 39.890625 15.1875 32.171875 
z
" id="DejaVuSans-101"/>
       <path d="M 54.890625 33.015625 
L 54.890625 0 
L 45.90625 0 
L 45.90625 32.71875 
Q 45.90625 40.484375 42.875 44.328125 
Q 39.84375 48.1875 33.796875 48.1875 
Q 26.515625 48.1875 22.3125 43.546875 
Q 18.109375 38.921875 18.109375 30.90625 
L 18.109375 0 
L 9.078125 0 
L 9.078125 54.6875 
L 18.109375 54.6875 
L 18.109375 46.1875 
Q 21.34375 51.125 25.703125 53.5625 
Q 30.078125 56 35.796875 56 
Q 45.21875 56 50.046875 50.171875 
Q 54.890625 44.34375 54.890625 33.015625 
z
" id="DejaVuSans-110"/>
       <path d="M 44.28125 53.078125 
L 44.28125 44.578125 
Q 40.484375 46.53125 36.375 47.5 
Q 32.28125 48.484375 27.875 48.484375 
Q 21.1875 48.484375 17.84375 46.4375 
Q 14.5 44.390625 14.5 40.28125 
Q 14.5 37.15625 16.890625 35.375 
Q 19.28125 33.59375 26.515625 31.984375 
L 29.59375 31.296875 
Q 39.15625 29.25 43.1875 25.515625 
Q 47.21875 21.78125 47.21875 15.09375 
Q 47.21875 7.46875 41.1875 3.015625 
Q 35.15625 -1.421875 24.609375 -1.421875 
Q 20.21875 -1.421875 15.453125 -0.5625 
Q 10.6875 0.296875 5.421875 2 
L 5.421875 11.28125 
Q 10.40625 8.6875 15.234375 7.390625 
Q 20.0625 6.109375 24.8125 6.109375 
Q 31.15625 6.109375 34.5625 8.28125 
Q 37.984375 10.453125 37.984375 14.40625 
Q 37.984375 18.0625 35.515625 20.015625 
Q 33.0625 21.96875 24.703125 23.78125 
L 21.578125 24.515625 
Q 13.234375 26.265625 9.515625 29.90625 
Q 5.8125 33.546875 5.8125 39.890625 
Q 5.8125 47.609375 11.28125 51.796875 
Q 16.75 56 26.8125 56 
Q 31.78125 56 36.171875 55.265625 
Q 40.578125 54.546875 44.28125 53.078125 
z
" id="DejaVuSans-115"/>
      </defs>
      <use xlink:href="#DejaVuSans-68"/>
      <use x="77.001953" xlink:href="#DejaVuSans-105"/>
      <use x="104.785156" xlink:href="#DejaVuSans-102"/>
      <use x="139.990234" xlink:href="#DejaVuSans-102"/>
      <use x="175.195312" xlink:href="#DejaVuSans-68"/>
      <use x="252.197266" xlink:href="#DejaVuSans-101"/>
      <use x="313.720703" xlink:href="#DejaVuSans-110"/>
      <use x="377.099609" xlink:href="#DejaVuSans-115"/>
     </g>
    </g>
   </g>
   <g id="line2d_16">
    <path clip-path="url(#p68f7a0bd0b)" d="M 54 103.859856 
L 57.381818 104.32674 
L 60.763636 104.793624 
L 64.145455 105.260508 
L 67.527273 105.727393 
L 70.909091 106.194277 
L 74.290909 106.661161 
L 77.672727 107.128046 
L 81.054545 107.59493 
L 84.436364 108.061814 
L 87.818182 108.528699 
L 91.2 108.995583 
L 94.581818 109.462467 
L 97.963636 109.929351 
L 101.345455 110.396236 
L 104.727273 110.86312 
L 108.109091 111.330004 
L 111.490909 111.796889 
L 114.872727 112.263773 
L 118.254545 112.730657 
L 121.636364 113.197541 
L 125.018182 113.664426 
L 128.4 114.13131 
L 131.781818 114.598194 
L 135.163636 115.065079 
L 138.545455 115.531963 
L 141.927273 115.998847 
L 145.309091 116.465732 
L 148.690909 116.932616 
L 152.072727 117.3995 
L 155.454545 117.866384 
L 158.836364 118.333269 
L 162.218182 118.800153 
L 165.6 119.267037 
L 168.981818 119.733922 
L 172.363636 120.200806 
L 175.745455 120.66769 
L 179.127273 121.134574 
L 182.509091 121.601459 
L 185.890909 122.068343 
L 189.272727 122.535227 
L 192.654545 123.002112 
L 196.036364 123.468996 
L 199.418182 123.93588 
L 202.8 124.402765 
L 206.181818 124.869649 
L 209.563636 125.336533 
L 212.945455 125.803417 
L 216.327273 126.270302 
L 219.709091 126.737186 
L 223.090909 127.20407 
L 226.472727 127.670955 
L 229.854545 128.137839 
L 233.236364 128.604723 
L 236.618182 129.071607 
L 240 129.538492 
L 243.381818 130.005376 
L 246.763636 130.47226 
L 250.145455 130.939145 
L 253.527273 131.406029 
L 256.909091 131.872913 
L 260.290909 132.339798 
L 263.672727 132.806682 
L 267.054545 133.273566 
L 270.436364 133.74045 
L 273.818182 134.207335 
L 277.2 134.674219 
L 280.581818 135.141103 
L 283.963636 135.607988 
L 287.345455 136.074872 
L 290.727273 136.541756 
L 294.109091 137.00864 
L 297.490909 137.475525 
L 300.872727 137.942409 
L 304.254545 138.409293 
L 307.636364 138.876178 
L 311.018182 139.343062 
L 314.4 139.809946 
L 317.781818 140.276831 
L 321.163636 140.743715 
L 324.545455 141.210599 
L 327.927273 141.677483 
L 331.309091 142.144368 
L 334.690909 142.611252 
L 338.072727 143.078136 
L 341.454545 143.545021 
L 344.836364 144.011905 
L 348.218182 144.478789 
L 351.6 144.945673 
L 354.981818 145.412558 
L 358.363636 145.879442 
L 361.745455 146.346326 
L 365.127273 146.813211 
L 368.509091 147.280095 
L 371.890909 147.746979 
L 375.272727 148.213864 
L 378.654545 148.680748 
L 382.036364 149.147632 
L 385.418182 149.614516 
L 388.8 150.081401 
" style="fill:none;stroke:#2686a4;stroke-linecap:square;stroke-width:2.25;"/>
   </g>
   <g id="patch_3">
    <path d="M 54 252 
L 54 34.56 
" style="fill:none;stroke:#000000;stroke-linecap:square;stroke-linejoin:miter;stroke-width:0.8;"/>
   </g>
   <g id="patch_4">
    <path d="M 388.8 252 
L 388.8 34.56 
" style="fill:none;stroke:#000000;stroke-linecap:square;stroke-linejoin:miter;stroke-width:0.8;"/>
   </g>
   <g id="patch_5">
    <path d="M 54 252 
L 388.8 252 
" style="fill:none;stroke:#000000;stroke-linecap:square;stroke-linejoin:miter;stroke-width:0.8;"/>
   </g>
   <g id="patch_6">
    <path d="M 54 34.56 
L 388.8 34.56 
" style="fill:none;stroke:#000000;stroke-linecap:square;stroke-linejoin:miter;stroke-width:0.8;"/>
   </g>
  </g>
 </g>
 <defs>
  <clipPath id="p68f7a0bd0b">
   <rect height="217.44" width="334.8" x="54" y="34.56"/>
  </clipPath>
 </defs>
</svg>
