<?xml version="1.0" encoding="utf-8" standalone="no"?>
<!DOCTYPE svg PUBLIC "-//W3C//DTD SVG 1.1//EN"
  "http://www.w3.org/Graphics/SVG/1.1/DTD/svg11.dtd">
<!-- Created with matplotlib (https://matplotlib.org/) -->
<svg height="288pt" version="1.1" viewBox="0 0 432 288" width="432pt" xmlns="http://www.w3.org/2000/svg" xmlns:xlink="http://www.w3.org/1999/xlink">
 <metadata>
  <rdf:RDF xmlns:cc="http://creativecommons.org/ns#" xmlns:dc="http://purl.org/dc/elements/1.1/" xmlns:rdf="http://www.w3.org/1999/02/22-rdf-syntax-ns#">
   <cc:Work>
    <dc:type rdf:resource="http://purl.org/dc/dcmitype/StillImage"/>
    <dc:date>2021-04-15T19:48:59.266113</dc:date>
    <dc:format>image/svg+xml</dc:format>
    <dc:creator>
     <cc:Agent>
      <dc:title>Matplotlib v3.3.2, https://matplotlib.org/</dc:title>
     </cc:Agent>
    </dc:creator>
   </cc:Work>
  </rdf:RDF>
 </metadata>
 <defs>
  <style type="text/css">*{stroke-linecap:butt;stroke-linejoin:round;}</style>
 </defs>
 <g id="figure_1">
  <g id="patch_1">
   <path d="M 0 288 
L 432 288 
L 432 0 
L 0 0 
z
" style="fill:none;"/>
  </g>
  <g id="axes_1">
   <g id="patch_2">
    <path d="M 54 252 
L 388.8 252 
L 388.8 34.56 
L 54 34.56 
z
" style="fill:#ffffff;"/>
   </g>
   <g id="PathCollection_1">
    <defs>
     <path d="M 0 3 
C 0.795609 3 1.55874 2.683901 2.12132 2.12132 
C 2.683901 1.55874 3 0.795609 3 0 
C 3 -0.795609 2.683901 -1.55874 2.12132 -2.12132 
C 1.55874 -2.683901 0.795609 -3 0 -3 
C -0.795609 -3 -1.55874 -2.683901 -2.12132 -2.12132 
C -2.683901 -1.55874 -3 -0.795609 -3 0 
C -3 0.795609 -2.683901 1.55874 -2.12132 2.12132 
C -1.55874 2.683901 -0.795609 3 0 3 
z
" id="m23dd2189e0" style="stroke:#2686a4;stroke-opacity:0.8;"/>
    </defs>
    <g clip-path="url(#p4d4b2858b9)">
     <use style="fill:#2686a4;fill-opacity:0.8;stroke:#2686a4;stroke-opacity:0.8;" x="181.760708" xlink:href="#m23dd2189e0" y="121.998023"/>
     <use style="fill:#2686a4;fill-opacity:0.8;stroke:#2686a4;stroke-opacity:0.8;" x="388.8" xlink:href="#m23dd2189e0" y="242.116364"/>
     <use style="fill:#2686a4;fill-opacity:0.8;stroke:#2686a4;stroke-opacity:0.8;" x="270.075839" xlink:href="#m23dd2189e0" y="184.852472"/>
     <use style="fill:#2686a4;fill-opacity:0.8;stroke:#2686a4;stroke-opacity:0.8;" x="223.392091" xlink:href="#m23dd2189e0" y="150.098789"/>
     <use style="fill:#2686a4;fill-opacity:0.8;stroke:#2686a4;stroke-opacity:0.8;" x="55.586826" xlink:href="#m23dd2189e0" y="120.683543"/>
     <use style="fill:#2686a4;fill-opacity:0.8;stroke:#2686a4;stroke-opacity:0.8;" x="155.74852" xlink:href="#m23dd2189e0" y="116.566323"/>
     <use style="fill:#2686a4;fill-opacity:0.8;stroke:#2686a4;stroke-opacity:0.8;" x="202.012787" xlink:href="#m23dd2189e0" y="138.651107"/>
     <use style="fill:#2686a4;fill-opacity:0.8;stroke:#2686a4;stroke-opacity:0.8;" x="97.748353" xlink:href="#m23dd2189e0" y="111.978323"/>
     <use style="fill:#2686a4;fill-opacity:0.8;stroke:#2686a4;stroke-opacity:0.8;" x="247.897361" xlink:href="#m23dd2189e0" y="107.291926"/>
     <use style="fill:#2686a4;fill-opacity:0.8;stroke:#2686a4;stroke-opacity:0.8;" x="54" xlink:href="#m23dd2189e0" y="119.658939"/>
     <use style="fill:#2686a4;fill-opacity:0.8;stroke:#2686a4;stroke-opacity:0.8;" x="226.18052" xlink:href="#m23dd2189e0" y="61.590496"/>
     <use style="fill:#2686a4;fill-opacity:0.8;stroke:#2686a4;stroke-opacity:0.8;" x="303.856143" xlink:href="#m23dd2189e0" y="183.513644"/>
    </g>
   </g>
   <g id="PolyCollection_1">
    <path clip-path="url(#p4d4b2858b9)" d="M 54 44.443636 
L 54 119.339188 
L 57.381818 119.404426 
L 60.763636 119.46936 
L 64.145455 119.642252 
L 67.527273 119.622109 
L 70.909091 119.662895 
L 74.290909 119.729098 
L 77.672727 119.792539 
L 81.054545 119.997787 
L 84.436364 120.467778 
L 87.818182 120.969458 
L 91.2 121.717506 
L 94.581818 122.275819 
L 97.963636 122.833909 
L 101.345455 123.425007 
L 104.727273 124.218157 
L 108.109091 125.449169 
L 111.490909 126.515278 
L 114.872727 127.585682 
L 118.254545 128.656413 
L 121.636364 129.719618 
L 125.018182 130.714877 
L 128.4 131.580995 
L 131.781818 132.510587 
L 135.163636 133.45497 
L 138.545455 134.53002 
L 141.927273 135.551573 
L 145.309091 136.662913 
L 148.690909 137.882774 
L 152.072727 139.102634 
L 155.454545 140.32088 
L 158.836364 141.39485 
L 162.218182 142.25155 
L 165.6 143.50469 
L 168.981818 144.671641 
L 172.363636 145.878107 
L 175.745455 147.082122 
L 179.127273 148.32266 
L 182.509091 149.544101 
L 185.890909 150.768494 
L 189.272727 151.991664 
L 192.654545 153.213215 
L 196.036364 154.393434 
L 199.418182 155.55993 
L 202.8 156.726427 
L 206.181818 157.97314 
L 209.563636 159.166236 
L 212.945455 160.333857 
L 216.327273 161.439142 
L 219.709091 162.54983 
L 223.090909 163.818106 
L 226.472727 165.120707 
L 229.854545 166.33736 
L 233.236364 167.526322 
L 236.618182 168.840426 
L 240 170.166323 
L 243.381818 171.294511 
L 246.763636 172.557912 
L 250.145455 173.89877 
L 253.527273 175.227183 
L 256.909091 176.453205 
L 260.290909 177.679227 
L 263.672727 178.905249 
L 267.054545 180.310174 
L 270.436364 181.787689 
L 273.818182 183.013927 
L 277.2 184.232204 
L 280.581818 185.446311 
L 283.963636 186.671561 
L 287.345455 188.328863 
L 290.727273 189.597178 
L 294.109091 190.827111 
L 297.490909 192.060737 
L 300.872727 193.451897 
L 304.254545 194.61891 
L 307.636364 196.253488 
L 311.018182 197.461845 
L 314.4 198.695562 
L 317.781818 200.040767 
L 321.163636 201.244503 
L 324.545455 202.66858 
L 327.927273 204.124708 
L 331.309091 205.475908 
L 334.690909 207.097169 
L 338.072727 208.313145 
L 341.454545 209.839425 
L 344.836364 211.288393 
L 348.218182 212.51746 
L 351.6 213.966698 
L 354.981818 215.560566 
L 358.363636 217.146364 
L 361.745455 218.566692 
L 365.127273 220.10626 
L 368.509091 221.600552 
L 371.890909 223.052887 
L 375.272727 224.510282 
L 378.654545 226.19773 
L 382.036364 228.097827 
L 385.418182 229.867398 
L 388.8 231.262467 
L 388.8 112.89205 
L 388.8 112.89205 
L 385.418182 112.975798 
L 382.036364 113.059547 
L 378.654545 113.143295 
L 375.272727 113.227044 
L 371.890909 113.310793 
L 368.509091 113.394541 
L 365.127273 113.47829 
L 361.745455 113.562038 
L 358.363636 113.645787 
L 354.981818 113.729535 
L 351.6 113.813284 
L 348.218182 113.897033 
L 344.836364 113.980781 
L 341.454545 114.06453 
L 338.072727 114.148278 
L 334.690909 114.232027 
L 331.309091 114.315775 
L 327.927273 114.399524 
L 324.545455 114.483273 
L 321.163636 114.567021 
L 317.781818 114.65077 
L 314.4 114.734518 
L 311.018182 114.818267 
L 307.636364 114.902016 
L 304.254545 114.985764 
L 300.872727 115.035286 
L 297.490909 115.02784 
L 294.109091 115.020393 
L 290.727273 115.012947 
L 287.345455 115.0055 
L 283.963636 114.998054 
L 280.581818 114.990607 
L 277.2 114.98316 
L 273.818182 114.975714 
L 270.436364 114.968267 
L 267.054545 114.960821 
L 263.672727 114.953374 
L 260.290909 114.945928 
L 256.909091 114.938481 
L 253.527273 114.931034 
L 250.145455 114.923588 
L 246.763636 114.875809 
L 243.381818 114.762878 
L 240 114.649947 
L 236.618182 114.537016 
L 233.236364 114.424085 
L 229.854545 114.311323 
L 226.472727 114.19913 
L 223.090909 114.209063 
L 219.709091 113.969526 
L 216.327273 114.113049 
L 212.945455 113.725664 
L 209.563636 113.101522 
L 206.181818 112.275476 
L 202.8 111.654804 
L 199.418182 110.66552 
L 196.036364 109.869639 
L 192.654545 109.860692 
L 189.272727 109.665383 
L 185.890909 108.581012 
L 182.509091 108.088263 
L 179.127273 107.47442 
L 175.745455 106.224509 
L 172.363636 104.876475 
L 168.981818 103.011974 
L 165.6 101.228346 
L 162.218182 100.236708 
L 158.836364 98.251486 
L 155.454545 96.765941 
L 152.072727 94.78865 
L 148.690909 92.77735 
L 145.309091 91.132739 
L 141.927273 89.494597 
L 138.545455 87.856455 
L 135.163636 86.220832 
L 131.781818 84.638846 
L 128.4 83.515737 
L 125.018182 82.001824 
L 121.636364 80.212638 
L 118.254545 78.345239 
L 114.872727 76.415459 
L 111.490909 74.538493 
L 108.109091 72.630713 
L 104.727273 70.722933 
L 101.345455 68.819155 
L 97.963636 66.918874 
L 94.581818 65.046676 
L 91.2 63.325161 
L 87.818182 61.605442 
L 84.436364 59.951558 
L 81.054545 58.615011 
L 77.672727 56.904333 
L 74.290909 55.11313 
L 70.909091 53.321927 
L 67.527273 51.530724 
L 64.145455 49.73952 
L 60.763636 47.948317 
L 57.381818 46.162355 
L 54 44.443636 
z
" style="fill:#2686a4;fill-opacity:0.15;"/>
   </g>
   <g id="matplotlib.axis_1">
    <g id="xtick_1">
     <g id="line2d_1">
      <defs>
       <path d="M 0 0 
L 0 3.5 
" id="m99bd5b1519" style="stroke:#000000;stroke-width:0.8;"/>
      </defs>
      <g>
       <use style="stroke:#000000;stroke-width:0.8;" x="80.786238" xlink:href="#m99bd5b1519" y="252"/>
      </g>
     </g>
     <g id="text_1">
      <!-- 35 -->
      <g transform="translate(74.423738 266.598437)scale(0.1 -0.1)">
       <defs>
        <path d="M 40.578125 39.3125 
Q 47.65625 37.796875 51.625 33 
Q 55.609375 28.21875 55.609375 21.1875 
Q 55.609375 10.40625 48.1875 4.484375 
Q 40.765625 -1.421875 27.09375 -1.421875 
Q 22.515625 -1.421875 17.65625 -0.515625 
Q 12.796875 0.390625 7.625 2.203125 
L 7.625 11.71875 
Q 11.71875 9.328125 16.59375 8.109375 
Q 21.484375 6.890625 26.8125 6.890625 
Q 36.078125 6.890625 40.9375 10.546875 
Q 45.796875 14.203125 45.796875 21.1875 
Q 45.796875 27.640625 41.28125 31.265625 
Q 36.765625 34.90625 28.71875 34.90625 
L 20.21875 34.90625 
L 20.21875 43.015625 
L 29.109375 43.015625 
Q 36.375 43.015625 40.234375 45.921875 
Q 44.09375 48.828125 44.09375 54.296875 
Q 44.09375 59.90625 40.109375 62.90625 
Q 36.140625 65.921875 28.71875 65.921875 
Q 24.65625 65.921875 20.015625 65.03125 
Q 15.375 64.15625 9.8125 62.3125 
L 9.8125 71.09375 
Q 15.4375 72.65625 20.34375 73.4375 
Q 25.25 74.21875 29.59375 74.21875 
Q 40.828125 74.21875 47.359375 69.109375 
Q 53.90625 64.015625 53.90625 55.328125 
Q 53.90625 49.265625 50.4375 45.09375 
Q 46.96875 40.921875 40.578125 39.3125 
z
" id="DejaVuSans-51"/>
        <path d="M 10.796875 72.90625 
L 49.515625 72.90625 
L 49.515625 64.59375 
L 19.828125 64.59375 
L 19.828125 46.734375 
Q 21.96875 47.46875 24.109375 47.828125 
Q 26.265625 48.1875 28.421875 48.1875 
Q 40.625 48.1875 47.75 41.5 
Q 54.890625 34.8125 54.890625 23.390625 
Q 54.890625 11.625 47.5625 5.09375 
Q 40.234375 -1.421875 26.90625 -1.421875 
Q 22.3125 -1.421875 17.546875 -0.640625 
Q 12.796875 0.140625 7.71875 1.703125 
L 7.71875 11.625 
Q 12.109375 9.234375 16.796875 8.0625 
Q 21.484375 6.890625 26.703125 6.890625 
Q 35.15625 6.890625 40.078125 11.328125 
Q 45.015625 15.765625 45.015625 23.390625 
Q 45.015625 31 40.078125 35.4375 
Q 35.15625 39.890625 26.703125 39.890625 
Q 22.75 39.890625 18.8125 39.015625 
Q 14.890625 38.140625 10.796875 36.28125 
z
" id="DejaVuSans-53"/>
       </defs>
       <use xlink:href="#DejaVuSans-51"/>
       <use x="63.623047" xlink:href="#DejaVuSans-53"/>
      </g>
     </g>
    </g>
    <g id="xtick_2">
     <g id="line2d_2">
      <g>
       <use style="stroke:#000000;stroke-width:0.8;" x="129.797804" xlink:href="#m99bd5b1519" y="252"/>
      </g>
     </g>
     <g id="text_2">
      <!-- 40 -->
      <g transform="translate(123.435304 266.598437)scale(0.1 -0.1)">
       <defs>
        <path d="M 37.796875 64.3125 
L 12.890625 25.390625 
L 37.796875 25.390625 
z
M 35.203125 72.90625 
L 47.609375 72.90625 
L 47.609375 25.390625 
L 58.015625 25.390625 
L 58.015625 17.1875 
L 47.609375 17.1875 
L 47.609375 0 
L 37.796875 0 
L 37.796875 17.1875 
L 4.890625 17.1875 
L 4.890625 26.703125 
z
" id="DejaVuSans-52"/>
        <path d="M 31.78125 66.40625 
Q 24.171875 66.40625 20.328125 58.90625 
Q 16.5 51.421875 16.5 36.375 
Q 16.5 21.390625 20.328125 13.890625 
Q 24.171875 6.390625 31.78125 6.390625 
Q 39.453125 6.390625 43.28125 13.890625 
Q 47.125 21.390625 47.125 36.375 
Q 47.125 51.421875 43.28125 58.90625 
Q 39.453125 66.40625 31.78125 66.40625 
z
M 31.78125 74.21875 
Q 44.046875 74.21875 50.515625 64.515625 
Q 56.984375 54.828125 56.984375 36.375 
Q 56.984375 17.96875 50.515625 8.265625 
Q 44.046875 -1.421875 31.78125 -1.421875 
Q 19.53125 -1.421875 13.0625 8.265625 
Q 6.59375 17.96875 6.59375 36.375 
Q 6.59375 54.828125 13.0625 64.515625 
Q 19.53125 74.21875 31.78125 74.21875 
z
" id="DejaVuSans-48"/>
       </defs>
       <use xlink:href="#DejaVuSans-52"/>
       <use x="63.623047" xlink:href="#DejaVuSans-48"/>
      </g>
     </g>
    </g>
    <g id="xtick_3">
     <g id="line2d_3">
      <g>
       <use style="stroke:#000000;stroke-width:0.8;" x="178.809371" xlink:href="#m99bd5b1519" y="252"/>
      </g>
     </g>
     <g id="text_3">
      <!-- 45 -->
      <g transform="translate(172.446871 266.598437)scale(0.1 -0.1)">
       <use xlink:href="#DejaVuSans-52"/>
       <use x="63.623047" xlink:href="#DejaVuSans-53"/>
      </g>
     </g>
    </g>
    <g id="xtick_4">
     <g id="line2d_4">
      <g>
       <use style="stroke:#000000;stroke-width:0.8;" x="227.820937" xlink:href="#m99bd5b1519" y="252"/>
      </g>
     </g>
     <g id="text_4">
      <!-- 50 -->
      <g transform="translate(221.458437 266.598437)scale(0.1 -0.1)">
       <use xlink:href="#DejaVuSans-53"/>
       <use x="63.623047" xlink:href="#DejaVuSans-48"/>
      </g>
     </g>
    </g>
    <g id="xtick_5">
     <g id="line2d_5">
      <g>
       <use style="stroke:#000000;stroke-width:0.8;" x="276.832503" xlink:href="#m99bd5b1519" y="252"/>
      </g>
     </g>
     <g id="text_5">
      <!-- 55 -->
      <g transform="translate(270.470003 266.598437)scale(0.1 -0.1)">
       <use xlink:href="#DejaVuSans-53"/>
       <use x="63.623047" xlink:href="#DejaVuSans-53"/>
      </g>
     </g>
    </g>
    <g id="xtick_6">
     <g id="line2d_6">
      <g>
       <use style="stroke:#000000;stroke-width:0.8;" x="325.844069" xlink:href="#m99bd5b1519" y="252"/>
      </g>
     </g>
     <g id="text_6">
      <!-- 60 -->
      <g transform="translate(319.481569 266.598437)scale(0.1 -0.1)">
       <defs>
        <path d="M 33.015625 40.375 
Q 26.375 40.375 22.484375 35.828125 
Q 18.609375 31.296875 18.609375 23.390625 
Q 18.609375 15.53125 22.484375 10.953125 
Q 26.375 6.390625 33.015625 6.390625 
Q 39.65625 6.390625 43.53125 10.953125 
Q 47.40625 15.53125 47.40625 23.390625 
Q 47.40625 31.296875 43.53125 35.828125 
Q 39.65625 40.375 33.015625 40.375 
z
M 52.59375 71.296875 
L 52.59375 62.3125 
Q 48.875 64.0625 45.09375 64.984375 
Q 41.3125 65.921875 37.59375 65.921875 
Q 27.828125 65.921875 22.671875 59.328125 
Q 17.53125 52.734375 16.796875 39.40625 
Q 19.671875 43.65625 24.015625 45.921875 
Q 28.375 48.1875 33.59375 48.1875 
Q 44.578125 48.1875 50.953125 41.515625 
Q 57.328125 34.859375 57.328125 23.390625 
Q 57.328125 12.15625 50.6875 5.359375 
Q 44.046875 -1.421875 33.015625 -1.421875 
Q 20.359375 -1.421875 13.671875 8.265625 
Q 6.984375 17.96875 6.984375 36.375 
Q 6.984375 53.65625 15.1875 63.9375 
Q 23.390625 74.21875 37.203125 74.21875 
Q 40.921875 74.21875 44.703125 73.484375 
Q 48.484375 72.75 52.59375 71.296875 
z
" id="DejaVuSans-54"/>
       </defs>
       <use xlink:href="#DejaVuSans-54"/>
       <use x="63.623047" xlink:href="#DejaVuSans-48"/>
      </g>
     </g>
    </g>
    <g id="xtick_7">
     <g id="line2d_7">
      <g>
       <use style="stroke:#000000;stroke-width:0.8;" x="374.855635" xlink:href="#m99bd5b1519" y="252"/>
      </g>
     </g>
     <g id="text_7">
      <!-- 65 -->
      <g transform="translate(368.493135 266.598437)scale(0.1 -0.1)">
       <use xlink:href="#DejaVuSans-54"/>
       <use x="63.623047" xlink:href="#DejaVuSans-53"/>
      </g>
     </g>
    </g>
    <g id="text_8">
     <!-- GC -->
     <g transform="translate(214.034375 280.276563)scale(0.1 -0.1)">
      <defs>
       <path d="M 59.515625 10.40625 
L 59.515625 29.984375 
L 43.40625 29.984375 
L 43.40625 38.09375 
L 69.28125 38.09375 
L 69.28125 6.78125 
Q 63.578125 2.734375 56.6875 0.65625 
Q 49.8125 -1.421875 42 -1.421875 
Q 24.90625 -1.421875 15.25 8.5625 
Q 5.609375 18.5625 5.609375 36.375 
Q 5.609375 54.25 15.25 64.234375 
Q 24.90625 74.21875 42 74.21875 
Q 49.125 74.21875 55.546875 72.453125 
Q 61.96875 70.703125 67.390625 67.28125 
L 67.390625 56.78125 
Q 61.921875 61.421875 55.765625 63.765625 
Q 49.609375 66.109375 42.828125 66.109375 
Q 29.4375 66.109375 22.71875 58.640625 
Q 16.015625 51.171875 16.015625 36.375 
Q 16.015625 21.625 22.71875 14.15625 
Q 29.4375 6.6875 42.828125 6.6875 
Q 48.046875 6.6875 52.140625 7.59375 
Q 56.25 8.5 59.515625 10.40625 
z
" id="DejaVuSans-71"/>
       <path d="M 64.40625 67.28125 
L 64.40625 56.890625 
Q 59.421875 61.53125 53.78125 63.8125 
Q 48.140625 66.109375 41.796875 66.109375 
Q 29.296875 66.109375 22.65625 58.46875 
Q 16.015625 50.828125 16.015625 36.375 
Q 16.015625 21.96875 22.65625 14.328125 
Q 29.296875 6.6875 41.796875 6.6875 
Q 48.140625 6.6875 53.78125 8.984375 
Q 59.421875 11.28125 64.40625 15.921875 
L 64.40625 5.609375 
Q 59.234375 2.09375 53.4375 0.328125 
Q 47.65625 -1.421875 41.21875 -1.421875 
Q 24.65625 -1.421875 15.125 8.703125 
Q 5.609375 18.84375 5.609375 36.375 
Q 5.609375 53.953125 15.125 64.078125 
Q 24.65625 74.21875 41.21875 74.21875 
Q 47.75 74.21875 53.53125 72.484375 
Q 59.328125 70.75 64.40625 67.28125 
z
" id="DejaVuSans-67"/>
      </defs>
      <use xlink:href="#DejaVuSans-71"/>
      <use x="77.490234" xlink:href="#DejaVuSans-67"/>
     </g>
    </g>
   </g>
   <g id="matplotlib.axis_2">
    <g id="ytick_1">
     <g id="line2d_8">
      <defs>
       <path d="M 0 0 
L -3.5 0 
" id="m37b99d50ef" style="stroke:#000000;stroke-width:0.8;"/>
      </defs>
      <g>
       <use style="stroke:#000000;stroke-width:0.8;" x="54" xlink:href="#m37b99d50ef" y="245.43887"/>
      </g>
     </g>
     <g id="text_9">
      <!-- −0.3 -->
      <g transform="translate(22.717187 249.238089)scale(0.1 -0.1)">
       <defs>
        <path d="M 10.59375 35.5 
L 73.1875 35.5 
L 73.1875 27.203125 
L 10.59375 27.203125 
z
" id="DejaVuSans-8722"/>
        <path d="M 10.6875 12.40625 
L 21 12.40625 
L 21 0 
L 10.6875 0 
z
" id="DejaVuSans-46"/>
       </defs>
       <use xlink:href="#DejaVuSans-8722"/>
       <use x="83.789062" xlink:href="#DejaVuSans-48"/>
       <use x="147.412109" xlink:href="#DejaVuSans-46"/>
       <use x="179.199219" xlink:href="#DejaVuSans-51"/>
      </g>
     </g>
    </g>
    <g id="ytick_2">
     <g id="line2d_9">
      <g>
       <use style="stroke:#000000;stroke-width:0.8;" x="54" xlink:href="#m37b99d50ef" y="203.392265"/>
      </g>
     </g>
     <g id="text_10">
      <!-- −0.2 -->
      <g transform="translate(22.717187 207.191484)scale(0.1 -0.1)">
       <defs>
        <path d="M 19.1875 8.296875 
L 53.609375 8.296875 
L 53.609375 0 
L 7.328125 0 
L 7.328125 8.296875 
Q 12.9375 14.109375 22.625 23.890625 
Q 32.328125 33.6875 34.8125 36.53125 
Q 39.546875 41.84375 41.421875 45.53125 
Q 43.3125 49.21875 43.3125 52.78125 
Q 43.3125 58.59375 39.234375 62.25 
Q 35.15625 65.921875 28.609375 65.921875 
Q 23.96875 65.921875 18.8125 64.3125 
Q 13.671875 62.703125 7.8125 59.421875 
L 7.8125 69.390625 
Q 13.765625 71.78125 18.9375 73 
Q 24.125 74.21875 28.421875 74.21875 
Q 39.75 74.21875 46.484375 68.546875 
Q 53.21875 62.890625 53.21875 53.421875 
Q 53.21875 48.921875 51.53125 44.890625 
Q 49.859375 40.875 45.40625 35.40625 
Q 44.1875 33.984375 37.640625 27.21875 
Q 31.109375 20.453125 19.1875 8.296875 
z
" id="DejaVuSans-50"/>
       </defs>
       <use xlink:href="#DejaVuSans-8722"/>
       <use x="83.789062" xlink:href="#DejaVuSans-48"/>
       <use x="147.412109" xlink:href="#DejaVuSans-46"/>
       <use x="179.199219" xlink:href="#DejaVuSans-50"/>
      </g>
     </g>
    </g>
    <g id="ytick_3">
     <g id="line2d_10">
      <g>
       <use style="stroke:#000000;stroke-width:0.8;" x="54" xlink:href="#m37b99d50ef" y="161.345659"/>
      </g>
     </g>
     <g id="text_11">
      <!-- −0.1 -->
      <g transform="translate(22.717187 165.144878)scale(0.1 -0.1)">
       <defs>
        <path d="M 12.40625 8.296875 
L 28.515625 8.296875 
L 28.515625 63.921875 
L 10.984375 60.40625 
L 10.984375 69.390625 
L 28.421875 72.90625 
L 38.28125 72.90625 
L 38.28125 8.296875 
L 54.390625 8.296875 
L 54.390625 0 
L 12.40625 0 
z
" id="DejaVuSans-49"/>
       </defs>
       <use xlink:href="#DejaVuSans-8722"/>
       <use x="83.789062" xlink:href="#DejaVuSans-48"/>
       <use x="147.412109" xlink:href="#DejaVuSans-46"/>
       <use x="179.199219" xlink:href="#DejaVuSans-49"/>
      </g>
     </g>
    </g>
    <g id="ytick_4">
     <g id="line2d_11">
      <g>
       <use style="stroke:#000000;stroke-width:0.8;" x="54" xlink:href="#m37b99d50ef" y="119.299053"/>
      </g>
     </g>
     <g id="text_12">
      <!-- 0.0 -->
      <g transform="translate(31.096875 123.098272)scale(0.1 -0.1)">
       <use xlink:href="#DejaVuSans-48"/>
       <use x="63.623047" xlink:href="#DejaVuSans-46"/>
       <use x="95.410156" xlink:href="#DejaVuSans-48"/>
      </g>
     </g>
    </g>
    <g id="ytick_5">
     <g id="line2d_12">
      <g>
       <use style="stroke:#000000;stroke-width:0.8;" x="54" xlink:href="#m37b99d50ef" y="77.252448"/>
      </g>
     </g>
     <g id="text_13">
      <!-- 0.1 -->
      <g transform="translate(31.096875 81.051666)scale(0.1 -0.1)">
       <use xlink:href="#DejaVuSans-48"/>
       <use x="63.623047" xlink:href="#DejaVuSans-46"/>
       <use x="95.410156" xlink:href="#DejaVuSans-49"/>
      </g>
     </g>
    </g>
    <g id="ytick_6">
     <g id="line2d_13">
      <g>
       <use style="stroke:#000000;stroke-width:0.8;" x="54" xlink:href="#m37b99d50ef" y="35.205842"/>
      </g>
     </g>
     <g id="text_14">
      <!-- 0.2 -->
      <g transform="translate(31.096875 39.005061)scale(0.1 -0.1)">
       <use xlink:href="#DejaVuSans-48"/>
       <use x="63.623047" xlink:href="#DejaVuSans-46"/>
       <use x="95.410156" xlink:href="#DejaVuSans-50"/>
      </g>
     </g>
    </g>
    <g id="text_15">
     <!-- Density -->
     <g transform="translate(16.6375 162.288594)rotate(-90)scale(0.1 -0.1)">
      <defs>
       <path d="M 19.671875 64.796875 
L 19.671875 8.109375 
L 31.59375 8.109375 
Q 46.6875 8.109375 53.6875 14.9375 
Q 60.6875 21.78125 60.6875 36.53125 
Q 60.6875 51.171875 53.6875 57.984375 
Q 46.6875 64.796875 31.59375 64.796875 
z
M 9.8125 72.90625 
L 30.078125 72.90625 
Q 51.265625 72.90625 61.171875 64.09375 
Q 71.09375 55.28125 71.09375 36.53125 
Q 71.09375 17.671875 61.125 8.828125 
Q 51.171875 0 30.078125 0 
L 9.8125 0 
z
" id="DejaVuSans-68"/>
       <path d="M 56.203125 29.59375 
L 56.203125 25.203125 
L 14.890625 25.203125 
Q 15.484375 15.921875 20.484375 11.0625 
Q 25.484375 6.203125 34.421875 6.203125 
Q 39.59375 6.203125 44.453125 7.46875 
Q 49.3125 8.734375 54.109375 11.28125 
L 54.109375 2.78125 
Q 49.265625 0.734375 44.1875 -0.34375 
Q 39.109375 -1.421875 33.890625 -1.421875 
Q 20.796875 -1.421875 13.15625 6.1875 
Q 5.515625 13.8125 5.515625 26.8125 
Q 5.515625 40.234375 12.765625 48.109375 
Q 20.015625 56 32.328125 56 
Q 43.359375 56 49.78125 48.890625 
Q 56.203125 41.796875 56.203125 29.59375 
z
M 47.21875 32.234375 
Q 47.125 39.59375 43.09375 43.984375 
Q 39.0625 48.390625 32.421875 48.390625 
Q 24.90625 48.390625 20.390625 44.140625 
Q 15.875 39.890625 15.1875 32.171875 
z
" id="DejaVuSans-101"/>
       <path d="M 54.890625 33.015625 
L 54.890625 0 
L 45.90625 0 
L 45.90625 32.71875 
Q 45.90625 40.484375 42.875 44.328125 
Q 39.84375 48.1875 33.796875 48.1875 
Q 26.515625 48.1875 22.3125 43.546875 
Q 18.109375 38.921875 18.109375 30.90625 
L 18.109375 0 
L 9.078125 0 
L 9.078125 54.6875 
L 18.109375 54.6875 
L 18.109375 46.1875 
Q 21.34375 51.125 25.703125 53.5625 
Q 30.078125 56 35.796875 56 
Q 45.21875 56 50.046875 50.171875 
Q 54.890625 44.34375 54.890625 33.015625 
z
" id="DejaVuSans-110"/>
       <path d="M 44.28125 53.078125 
L 44.28125 44.578125 
Q 40.484375 46.53125 36.375 47.5 
Q 32.28125 48.484375 27.875 48.484375 
Q 21.1875 48.484375 17.84375 46.4375 
Q 14.5 44.390625 14.5 40.28125 
Q 14.5 37.15625 16.890625 35.375 
Q 19.28125 33.59375 26.515625 31.984375 
L 29.59375 31.296875 
Q 39.15625 29.25 43.1875 25.515625 
Q 47.21875 21.78125 47.21875 15.09375 
Q 47.21875 7.46875 41.1875 3.015625 
Q 35.15625 -1.421875 24.609375 -1.421875 
Q 20.21875 -1.421875 15.453125 -0.5625 
Q 10.6875 0.296875 5.421875 2 
L 5.421875 11.28125 
Q 10.40625 8.6875 15.234375 7.390625 
Q 20.0625 6.109375 24.8125 6.109375 
Q 31.15625 6.109375 34.5625 8.28125 
Q 37.984375 10.453125 37.984375 14.40625 
Q 37.984375 18.0625 35.515625 20.015625 
Q 33.0625 21.96875 24.703125 23.78125 
L 21.578125 24.515625 
Q 13.234375 26.265625 9.515625 29.90625 
Q 5.8125 33.546875 5.8125 39.890625 
Q 5.8125 47.609375 11.28125 51.796875 
Q 16.75 56 26.8125 56 
Q 31.78125 56 36.171875 55.265625 
Q 40.578125 54.546875 44.28125 53.078125 
z
" id="DejaVuSans-115"/>
       <path d="M 9.421875 54.6875 
L 18.40625 54.6875 
L 18.40625 0 
L 9.421875 0 
z
M 9.421875 75.984375 
L 18.40625 75.984375 
L 18.40625 64.59375 
L 9.421875 64.59375 
z
" id="DejaVuSans-105"/>
       <path d="M 18.3125 70.21875 
L 18.3125 54.6875 
L 36.8125 54.6875 
L 36.8125 47.703125 
L 18.3125 47.703125 
L 18.3125 18.015625 
Q 18.3125 11.328125 20.140625 9.421875 
Q 21.96875 7.515625 27.59375 7.515625 
L 36.8125 7.515625 
L 36.8125 0 
L 27.59375 0 
Q 17.1875 0 13.234375 3.875 
Q 9.28125 7.765625 9.28125 18.015625 
L 9.28125 47.703125 
L 2.6875 47.703125 
L 2.6875 54.6875 
L 9.28125 54.6875 
L 9.28125 70.21875 
z
" id="DejaVuSans-116"/>
       <path d="M 32.171875 -5.078125 
Q 28.375 -14.84375 24.75 -17.8125 
Q 21.140625 -20.796875 15.09375 -20.796875 
L 7.90625 -20.796875 
L 7.90625 -13.28125 
L 13.1875 -13.28125 
Q 16.890625 -13.28125 18.9375 -11.515625 
Q 21 -9.765625 23.484375 -3.21875 
L 25.09375 0.875 
L 2.984375 54.6875 
L 12.5 54.6875 
L 29.59375 11.921875 
L 46.6875 54.6875 
L 56.203125 54.6875 
z
" id="DejaVuSans-121"/>
      </defs>
      <use xlink:href="#DejaVuSans-68"/>
      <use x="77.001953" xlink:href="#DejaVuSans-101"/>
      <use x="138.525391" xlink:href="#DejaVuSans-110"/>
      <use x="201.904297" xlink:href="#DejaVuSans-115"/>
      <use x="254.003906" xlink:href="#DejaVuSans-105"/>
      <use x="281.787109" xlink:href="#DejaVuSans-116"/>
      <use x="320.996094" xlink:href="#DejaVuSans-121"/>
     </g>
    </g>
   </g>
   <g id="line2d_14">
    <path clip-path="url(#p4d4b2858b9)" d="M 54 93.442625 
L 57.381818 94.476339 
L 60.763636 95.510053 
L 64.145455 96.543767 
L 67.527273 97.577482 
L 70.909091 98.611196 
L 74.290909 99.64491 
L 77.672727 100.678625 
L 81.054545 101.712339 
L 84.436364 102.746053 
L 87.818182 103.779768 
L 91.2 104.813482 
L 94.581818 105.847196 
L 97.963636 106.88091 
L 101.345455 107.914625 
L 104.727273 108.948339 
L 108.109091 109.982053 
L 111.490909 111.015768 
L 114.872727 112.049482 
L 118.254545 113.083196 
L 121.636364 114.11691 
L 125.018182 115.150625 
L 128.4 116.184339 
L 131.781818 117.218053 
L 135.163636 118.251768 
L 138.545455 119.285482 
L 141.927273 120.319196 
L 145.309091 121.352911 
L 148.690909 122.386625 
L 152.072727 123.420339 
L 155.454545 124.454053 
L 158.836364 125.487768 
L 162.218182 126.521482 
L 165.6 127.555196 
L 168.981818 128.588911 
L 172.363636 129.622625 
L 175.745455 130.656339 
L 179.127273 131.690053 
L 182.509091 132.723768 
L 185.890909 133.757482 
L 189.272727 134.791196 
L 192.654545 135.824911 
L 196.036364 136.858625 
L 199.418182 137.892339 
L 202.8 138.926054 
L 206.181818 139.959768 
L 209.563636 140.993482 
L 212.945455 142.027196 
L 216.327273 143.060911 
L 219.709091 144.094625 
L 223.090909 145.128339 
L 226.472727 146.162054 
L 229.854545 147.195768 
L 233.236364 148.229482 
L 236.618182 149.263197 
L 240 150.296911 
L 243.381818 151.330625 
L 246.763636 152.364339 
L 250.145455 153.398054 
L 253.527273 154.431768 
L 256.909091 155.465482 
L 260.290909 156.499197 
L 263.672727 157.532911 
L 267.054545 158.566625 
L 270.436364 159.600339 
L 273.818182 160.634054 
L 277.2 161.667768 
L 280.581818 162.701482 
L 283.963636 163.735197 
L 287.345455 164.768911 
L 290.727273 165.802625 
L 294.109091 166.83634 
L 297.490909 167.870054 
L 300.872727 168.903768 
L 304.254545 169.937482 
L 307.636364 170.971197 
L 311.018182 172.004911 
L 314.4 173.038625 
L 317.781818 174.07234 
L 321.163636 175.106054 
L 324.545455 176.139768 
L 327.927273 177.173483 
L 331.309091 178.207197 
L 334.690909 179.240911 
L 338.072727 180.274625 
L 341.454545 181.30834 
L 344.836364 182.342054 
L 348.218182 183.375768 
L 351.6 184.409483 
L 354.981818 185.443197 
L 358.363636 186.476911 
L 361.745455 187.510625 
L 365.127273 188.54434 
L 368.509091 189.578054 
L 371.890909 190.611768 
L 375.272727 191.645483 
L 378.654545 192.679197 
L 382.036364 193.712911 
L 385.418182 194.746626 
L 388.8 195.78034 
" style="fill:none;stroke:#2686a4;stroke-linecap:square;stroke-width:2.25;"/>
   </g>
   <g id="patch_3">
    <path d="M 54 252 
L 54 34.56 
" style="fill:none;stroke:#000000;stroke-linecap:square;stroke-linejoin:miter;stroke-width:0.8;"/>
   </g>
   <g id="patch_4">
    <path d="M 388.8 252 
L 388.8 34.56 
" style="fill:none;stroke:#000000;stroke-linecap:square;stroke-linejoin:miter;stroke-width:0.8;"/>
   </g>
   <g id="patch_5">
    <path d="M 54 252 
L 388.8 252 
" style="fill:none;stroke:#000000;stroke-linecap:square;stroke-linejoin:miter;stroke-width:0.8;"/>
   </g>
   <g id="patch_6">
    <path d="M 54 34.56 
L 388.8 34.56 
" style="fill:none;stroke:#000000;stroke-linecap:square;stroke-linejoin:miter;stroke-width:0.8;"/>
   </g>
  </g>
 </g>
 <defs>
  <clipPath id="p4d4b2858b9">
   <rect height="217.44" width="334.8" x="54" y="34.56"/>
  </clipPath>
 </defs>
</svg>
