<?xml version="1.0" encoding="utf-8" standalone="no"?>
<!DOCTYPE svg PUBLIC "-//W3C//DTD SVG 1.1//EN"
  "http://www.w3.org/Graphics/SVG/1.1/DTD/svg11.dtd">
<!-- Created with matplotlib (https://matplotlib.org/) -->
<svg height="288pt" version="1.1" viewBox="0 0 432 288" width="432pt" xmlns="http://www.w3.org/2000/svg" xmlns:xlink="http://www.w3.org/1999/xlink">
 <metadata>
  <rdf:RDF xmlns:cc="http://creativecommons.org/ns#" xmlns:dc="http://purl.org/dc/elements/1.1/" xmlns:rdf="http://www.w3.org/1999/02/22-rdf-syntax-ns#">
   <cc:Work>
    <dc:type rdf:resource="http://purl.org/dc/dcmitype/StillImage"/>
    <dc:date>2021-04-15T19:49:17.804948</dc:date>
    <dc:format>image/svg+xml</dc:format>
    <dc:creator>
     <cc:Agent>
      <dc:title>Matplotlib v3.3.2, https://matplotlib.org/</dc:title>
     </cc:Agent>
    </dc:creator>
   </cc:Work>
  </rdf:RDF>
 </metadata>
 <defs>
  <style type="text/css">*{stroke-linecap:butt;stroke-linejoin:round;}</style>
 </defs>
 <g id="figure_1">
  <g id="patch_1">
   <path d="M 0 288 
L 432 288 
L 432 0 
L 0 0 
z
" style="fill:none;"/>
  </g>
  <g id="axes_1">
   <g id="patch_2">
    <path d="M 54 252 
L 388.8 252 
L 388.8 34.56 
L 54 34.56 
z
" style="fill:#ffffff;"/>
   </g>
   <g id="PathCollection_1">
    <defs>
     <path d="M 0 3 
C 0.795609 3 1.55874 2.683901 2.12132 2.12132 
C 2.683901 1.55874 3 0.795609 3 0 
C 3 -0.795609 2.683901 -1.55874 2.12132 -2.12132 
C 1.55874 -2.683901 0.795609 -3 0 -3 
C -0.795609 -3 -1.55874 -2.683901 -2.12132 -2.12132 
C -2.683901 -1.55874 -3 -0.795609 -3 0 
C -3 0.795609 -2.683901 1.55874 -2.12132 2.12132 
C -1.55874 2.683901 -0.795609 3 0 3 
z
" id="m7038bcce4b" style="stroke:#c33543;stroke-opacity:0.8;"/>
    </defs>
    <g clip-path="url(#p70d83e188d)">
     <use style="fill:#c33543;fill-opacity:0.8;stroke:#c33543;stroke-opacity:0.8;" x="166.634744" xlink:href="#m7038bcce4b" y="163.351097"/>
     <use style="fill:#c33543;fill-opacity:0.8;stroke:#c33543;stroke-opacity:0.8;" x="174.517388" xlink:href="#m7038bcce4b" y="144.542867"/>
     <use style="fill:#c33543;fill-opacity:0.8;stroke:#c33543;stroke-opacity:0.8;" x="179.815584" xlink:href="#m7038bcce4b" y="153.840173"/>
     <use style="fill:#c33543;fill-opacity:0.8;stroke:#c33543;stroke-opacity:0.8;" x="54" xlink:href="#m7038bcce4b" y="145.236004"/>
     <use style="fill:#c33543;fill-opacity:0.8;stroke:#c33543;stroke-opacity:0.8;" x="295.157748" xlink:href="#m7038bcce4b" y="174.401414"/>
     <use style="fill:#c33543;fill-opacity:0.8;stroke:#c33543;stroke-opacity:0.8;" x="69.704774" xlink:href="#m7038bcce4b" y="145.80726"/>
     <use style="fill:#c33543;fill-opacity:0.8;stroke:#c33543;stroke-opacity:0.8;" x="158.628278" xlink:href="#m7038bcce4b" y="147.272956"/>
     <use style="fill:#c33543;fill-opacity:0.8;stroke:#c33543;stroke-opacity:0.8;" x="285.774644" xlink:href="#m7038bcce4b" y="171.978162"/>
     <use style="fill:#c33543;fill-opacity:0.8;stroke:#c33543;stroke-opacity:0.8;" x="128.195631" xlink:href="#m7038bcce4b" y="148.064605"/>
     <use style="fill:#c33543;fill-opacity:0.8;stroke:#c33543;stroke-opacity:0.8;" x="243.574995" xlink:href="#m7038bcce4b" y="165.558901"/>
     <use style="fill:#c33543;fill-opacity:0.8;stroke:#c33543;stroke-opacity:0.8;" x="87.181698" xlink:href="#m7038bcce4b" y="146.678563"/>
     <use style="fill:#c33543;fill-opacity:0.8;stroke:#c33543;stroke-opacity:0.8;" x="322.428011" xlink:href="#m7038bcce4b" y="147.139184"/>
     <use style="fill:#c33543;fill-opacity:0.8;stroke:#c33543;stroke-opacity:0.8;" x="134.912702" xlink:href="#m7038bcce4b" y="147.159047"/>
     <use style="fill:#c33543;fill-opacity:0.8;stroke:#c33543;stroke-opacity:0.8;" x="137.056314" xlink:href="#m7038bcce4b" y="146.898225"/>
     <use style="fill:#c33543;fill-opacity:0.8;stroke:#c33543;stroke-opacity:0.8;" x="357.789774" xlink:href="#m7038bcce4b" y="222.518712"/>
     <use style="fill:#c33543;fill-opacity:0.8;stroke:#c33543;stroke-opacity:0.8;" x="151.16601" xlink:href="#m7038bcce4b" y="137.752633"/>
     <use style="fill:#c33543;fill-opacity:0.8;stroke:#c33543;stroke-opacity:0.8;" x="384.327934" xlink:href="#m7038bcce4b" y="242.116364"/>
     <use style="fill:#c33543;fill-opacity:0.8;stroke:#c33543;stroke-opacity:0.8;" x="255.416465" xlink:href="#m7038bcce4b" y="162.650693"/>
     <use style="fill:#c33543;fill-opacity:0.8;stroke:#c33543;stroke-opacity:0.8;" x="91.804363" xlink:href="#m7038bcce4b" y="147.039943"/>
     <use style="fill:#c33543;fill-opacity:0.8;stroke:#c33543;stroke-opacity:0.8;" x="149.484633" xlink:href="#m7038bcce4b" y="148.626553"/>
     <use style="fill:#c33543;fill-opacity:0.8;stroke:#c33543;stroke-opacity:0.8;" x="388.8" xlink:href="#m7038bcce4b" y="44.443636"/>
     <use style="fill:#c33543;fill-opacity:0.8;stroke:#c33543;stroke-opacity:0.8;" x="205.900097" xlink:href="#m7038bcce4b" y="148.362144"/>
     <use style="fill:#c33543;fill-opacity:0.8;stroke:#c33543;stroke-opacity:0.8;" x="107.760213" xlink:href="#m7038bcce4b" y="147.964428"/>
     <use style="fill:#c33543;fill-opacity:0.8;stroke:#c33543;stroke-opacity:0.8;" x="218.230801" xlink:href="#m7038bcce4b" y="150.890998"/>
    </g>
   </g>
   <g id="PolyCollection_1">
    <path clip-path="url(#p70d83e188d)" d="M 54 123.714457 
L 54 167.674443 
L 57.381818 167.103819 
L 60.763636 166.508725 
L 64.145455 165.962112 
L 67.527273 165.393187 
L 70.909091 164.824261 
L 74.290909 164.250554 
L 77.672727 163.665611 
L 81.054545 163.132842 
L 84.436364 162.602018 
L 87.818182 162.074623 
L 91.2 161.563639 
L 94.581818 160.923643 
L 97.963636 160.359106 
L 101.345455 159.812831 
L 104.727273 159.301584 
L 108.109091 158.76252 
L 111.490909 158.17469 
L 114.872727 157.510354 
L 118.254545 157.219615 
L 121.636364 156.710457 
L 125.018182 156.123765 
L 128.4 155.594128 
L 131.781818 155.342016 
L 135.163636 155.12709 
L 138.545455 154.917322 
L 141.927273 154.738434 
L 145.309091 154.322506 
L 148.690909 154.584158 
L 152.072727 154.852754 
L 155.454545 155.402397 
L 158.836364 156.081485 
L 162.218182 156.690535 
L 165.6 157.377145 
L 168.981818 158.165636 
L 172.363636 159.040411 
L 175.745455 159.946394 
L 179.127273 160.852377 
L 182.509091 161.668266 
L 185.890909 162.587249 
L 189.272727 163.471505 
L 192.654545 164.288347 
L 196.036364 165.102856 
L 199.418182 165.917365 
L 202.8 166.793935 
L 206.181818 167.690541 
L 209.563636 168.589406 
L 212.945455 169.488536 
L 216.327273 170.388248 
L 219.709091 171.286966 
L 223.090909 172.184679 
L 226.472727 173.082328 
L 229.854545 173.958258 
L 233.236364 174.822619 
L 236.618182 175.62147 
L 240 176.530384 
L 243.381818 177.394198 
L 246.763636 178.331529 
L 250.145455 179.26505 
L 253.527273 180.271076 
L 256.909091 181.173356 
L 260.290909 182.074015 
L 263.672727 183.004794 
L 267.054545 183.966023 
L 270.436364 184.871362 
L 273.818182 185.805239 
L 277.2 186.740444 
L 280.581818 187.67684 
L 283.963636 188.613236 
L 287.345455 189.599962 
L 290.727273 190.678942 
L 294.109091 191.634663 
L 297.490909 192.558746 
L 300.872727 193.465534 
L 304.254545 194.372171 
L 307.636364 195.278809 
L 311.018182 196.209602 
L 314.4 197.276978 
L 317.781818 198.332409 
L 321.163636 199.246688 
L 324.545455 200.160225 
L 327.927273 201.073763 
L 331.309091 201.987125 
L 334.690909 202.900173 
L 338.072727 203.813221 
L 341.454545 204.726268 
L 344.836364 205.639316 
L 348.218182 206.552364 
L 351.6 207.465412 
L 354.981818 208.378459 
L 358.363636 209.291507 
L 361.745455 210.204555 
L 365.127273 211.117603 
L 368.509091 212.03065 
L 371.890909 212.957266 
L 375.272727 213.902024 
L 378.654545 214.846783 
L 382.036364 215.791541 
L 385.418182 216.7363 
L 388.8 217.681058 
L 388.8 107.146843 
L 388.8 107.146843 
L 385.418182 107.80295 
L 382.036364 108.459057 
L 378.654545 109.116389 
L 375.272727 109.773978 
L 371.890909 110.431568 
L 368.509091 111.089157 
L 365.127273 111.746746 
L 361.745455 112.404336 
L 358.363636 113.061925 
L 354.981818 113.719515 
L 351.6 114.377104 
L 348.218182 115.020521 
L 344.836364 115.557278 
L 341.454545 116.094035 
L 338.072727 116.630792 
L 334.690909 117.16755 
L 331.309091 117.704307 
L 327.927273 118.241842 
L 324.545455 118.78005 
L 321.163636 119.32087 
L 317.781818 119.897803 
L 314.4 120.442975 
L 311.018182 121.075228 
L 307.636364 121.70748 
L 304.254545 122.339733 
L 300.872727 122.971985 
L 297.490909 123.604238 
L 294.109091 124.23649 
L 290.727273 124.868743 
L 287.345455 125.500995 
L 283.963636 126.133248 
L 280.581818 126.7655 
L 277.2 127.37588 
L 273.818182 127.962586 
L 270.436364 128.551054 
L 267.054545 129.140952 
L 263.672727 129.73085 
L 260.290909 130.320748 
L 256.909091 130.910646 
L 253.527273 131.500544 
L 250.145455 132.090443 
L 246.763636 132.680341 
L 243.381818 133.270239 
L 240 133.860137 
L 236.618182 134.389862 
L 233.236364 134.866932 
L 229.854545 135.386303 
L 226.472727 135.840017 
L 223.090909 136.310533 
L 219.709091 136.772792 
L 216.327273 137.380352 
L 212.945455 137.947119 
L 209.563636 138.579502 
L 206.181818 139.211025 
L 202.8 139.889759 
L 199.418182 140.526349 
L 196.036364 141.153562 
L 192.654545 141.729279 
L 189.272727 142.162945 
L 185.890909 142.59025 
L 182.509091 143.012437 
L 179.127273 143.440368 
L 175.745455 143.863042 
L 172.363636 144.285784 
L 168.981818 144.711272 
L 165.6 144.998245 
L 162.218182 145.559776 
L 158.836364 145.811738 
L 155.454545 146.184049 
L 152.072727 146.235621 
L 148.690909 146.445519 
L 145.309091 145.904701 
L 141.927273 145.190368 
L 138.545455 144.476391 
L 135.163636 143.661732 
L 131.781818 143.029647 
L 128.4 142.251743 
L 125.018182 141.454496 
L 121.636364 140.503757 
L 118.254545 139.721731 
L 114.872727 138.913453 
L 111.490909 138.135897 
L 108.109091 137.293427 
L 104.727273 136.465316 
L 101.345455 135.682686 
L 97.963636 134.861883 
L 94.581818 134.078147 
L 91.2 133.286114 
L 87.818182 132.480383 
L 84.436364 131.629967 
L 81.054545 130.796046 
L 77.672727 129.926775 
L 74.290909 128.992795 
L 70.909091 128.071238 
L 67.527273 127.204163 
L 64.145455 126.293367 
L 60.763636 125.413333 
L 57.381818 124.598662 
L 54 123.714457 
z
" style="fill:#c33543;fill-opacity:0.15;"/>
   </g>
   <g id="matplotlib.axis_1">
    <g id="xtick_1">
     <g id="line2d_1">
      <defs>
       <path d="M 0 0 
L 0 3.5 
" id="m3c12a93344" style="stroke:#000000;stroke-width:0.8;"/>
      </defs>
      <g>
       <use style="stroke:#000000;stroke-width:0.8;" x="62.716287" xlink:href="#m3c12a93344" y="252"/>
      </g>
     </g>
     <g id="text_1">
      <!-- 30 -->
      <g transform="translate(56.353787 266.598437)scale(0.1 -0.1)">
       <defs>
        <path d="M 40.578125 39.3125 
Q 47.65625 37.796875 51.625 33 
Q 55.609375 28.21875 55.609375 21.1875 
Q 55.609375 10.40625 48.1875 4.484375 
Q 40.765625 -1.421875 27.09375 -1.421875 
Q 22.515625 -1.421875 17.65625 -0.515625 
Q 12.796875 0.390625 7.625 2.203125 
L 7.625 11.71875 
Q 11.71875 9.328125 16.59375 8.109375 
Q 21.484375 6.890625 26.8125 6.890625 
Q 36.078125 6.890625 40.9375 10.546875 
Q 45.796875 14.203125 45.796875 21.1875 
Q 45.796875 27.640625 41.28125 31.265625 
Q 36.765625 34.90625 28.71875 34.90625 
L 20.21875 34.90625 
L 20.21875 43.015625 
L 29.109375 43.015625 
Q 36.375 43.015625 40.234375 45.921875 
Q 44.09375 48.828125 44.09375 54.296875 
Q 44.09375 59.90625 40.109375 62.90625 
Q 36.140625 65.921875 28.71875 65.921875 
Q 24.65625 65.921875 20.015625 65.03125 
Q 15.375 64.15625 9.8125 62.3125 
L 9.8125 71.09375 
Q 15.4375 72.65625 20.34375 73.4375 
Q 25.25 74.21875 29.59375 74.21875 
Q 40.828125 74.21875 47.359375 69.109375 
Q 53.90625 64.015625 53.90625 55.328125 
Q 53.90625 49.265625 50.4375 45.09375 
Q 46.96875 40.921875 40.578125 39.3125 
z
" id="DejaVuSans-51"/>
        <path d="M 31.78125 66.40625 
Q 24.171875 66.40625 20.328125 58.90625 
Q 16.5 51.421875 16.5 36.375 
Q 16.5 21.390625 20.328125 13.890625 
Q 24.171875 6.390625 31.78125 6.390625 
Q 39.453125 6.390625 43.28125 13.890625 
Q 47.125 21.390625 47.125 36.375 
Q 47.125 51.421875 43.28125 58.90625 
Q 39.453125 66.40625 31.78125 66.40625 
z
M 31.78125 74.21875 
Q 44.046875 74.21875 50.515625 64.515625 
Q 56.984375 54.828125 56.984375 36.375 
Q 56.984375 17.96875 50.515625 8.265625 
Q 44.046875 -1.421875 31.78125 -1.421875 
Q 19.53125 -1.421875 13.0625 8.265625 
Q 6.59375 17.96875 6.59375 36.375 
Q 6.59375 54.828125 13.0625 64.515625 
Q 19.53125 74.21875 31.78125 74.21875 
z
" id="DejaVuSans-48"/>
       </defs>
       <use xlink:href="#DejaVuSans-51"/>
       <use x="63.623047" xlink:href="#DejaVuSans-48"/>
      </g>
     </g>
    </g>
    <g id="xtick_2">
     <g id="line2d_2">
      <g>
       <use style="stroke:#000000;stroke-width:0.8;" x="103.775667" xlink:href="#m3c12a93344" y="252"/>
      </g>
     </g>
     <g id="text_2">
      <!-- 35 -->
      <g transform="translate(97.413167 266.598437)scale(0.1 -0.1)">
       <defs>
        <path d="M 10.796875 72.90625 
L 49.515625 72.90625 
L 49.515625 64.59375 
L 19.828125 64.59375 
L 19.828125 46.734375 
Q 21.96875 47.46875 24.109375 47.828125 
Q 26.265625 48.1875 28.421875 48.1875 
Q 40.625 48.1875 47.75 41.5 
Q 54.890625 34.8125 54.890625 23.390625 
Q 54.890625 11.625 47.5625 5.09375 
Q 40.234375 -1.421875 26.90625 -1.421875 
Q 22.3125 -1.421875 17.546875 -0.640625 
Q 12.796875 0.140625 7.71875 1.703125 
L 7.71875 11.625 
Q 12.109375 9.234375 16.796875 8.0625 
Q 21.484375 6.890625 26.703125 6.890625 
Q 35.15625 6.890625 40.078125 11.328125 
Q 45.015625 15.765625 45.015625 23.390625 
Q 45.015625 31 40.078125 35.4375 
Q 35.15625 39.890625 26.703125 39.890625 
Q 22.75 39.890625 18.8125 39.015625 
Q 14.890625 38.140625 10.796875 36.28125 
z
" id="DejaVuSans-53"/>
       </defs>
       <use xlink:href="#DejaVuSans-51"/>
       <use x="63.623047" xlink:href="#DejaVuSans-53"/>
      </g>
     </g>
    </g>
    <g id="xtick_3">
     <g id="line2d_3">
      <g>
       <use style="stroke:#000000;stroke-width:0.8;" x="144.835047" xlink:href="#m3c12a93344" y="252"/>
      </g>
     </g>
     <g id="text_3">
      <!-- 40 -->
      <g transform="translate(138.472547 266.598437)scale(0.1 -0.1)">
       <defs>
        <path d="M 37.796875 64.3125 
L 12.890625 25.390625 
L 37.796875 25.390625 
z
M 35.203125 72.90625 
L 47.609375 72.90625 
L 47.609375 25.390625 
L 58.015625 25.390625 
L 58.015625 17.1875 
L 47.609375 17.1875 
L 47.609375 0 
L 37.796875 0 
L 37.796875 17.1875 
L 4.890625 17.1875 
L 4.890625 26.703125 
z
" id="DejaVuSans-52"/>
       </defs>
       <use xlink:href="#DejaVuSans-52"/>
       <use x="63.623047" xlink:href="#DejaVuSans-48"/>
      </g>
     </g>
    </g>
    <g id="xtick_4">
     <g id="line2d_4">
      <g>
       <use style="stroke:#000000;stroke-width:0.8;" x="185.894427" xlink:href="#m3c12a93344" y="252"/>
      </g>
     </g>
     <g id="text_4">
      <!-- 45 -->
      <g transform="translate(179.531927 266.598437)scale(0.1 -0.1)">
       <use xlink:href="#DejaVuSans-52"/>
       <use x="63.623047" xlink:href="#DejaVuSans-53"/>
      </g>
     </g>
    </g>
    <g id="xtick_5">
     <g id="line2d_5">
      <g>
       <use style="stroke:#000000;stroke-width:0.8;" x="226.953807" xlink:href="#m3c12a93344" y="252"/>
      </g>
     </g>
     <g id="text_5">
      <!-- 50 -->
      <g transform="translate(220.591307 266.598437)scale(0.1 -0.1)">
       <use xlink:href="#DejaVuSans-53"/>
       <use x="63.623047" xlink:href="#DejaVuSans-48"/>
      </g>
     </g>
    </g>
    <g id="xtick_6">
     <g id="line2d_6">
      <g>
       <use style="stroke:#000000;stroke-width:0.8;" x="268.013187" xlink:href="#m3c12a93344" y="252"/>
      </g>
     </g>
     <g id="text_6">
      <!-- 55 -->
      <g transform="translate(261.650687 266.598437)scale(0.1 -0.1)">
       <use xlink:href="#DejaVuSans-53"/>
       <use x="63.623047" xlink:href="#DejaVuSans-53"/>
      </g>
     </g>
    </g>
    <g id="xtick_7">
     <g id="line2d_7">
      <g>
       <use style="stroke:#000000;stroke-width:0.8;" x="309.072568" xlink:href="#m3c12a93344" y="252"/>
      </g>
     </g>
     <g id="text_7">
      <!-- 60 -->
      <g transform="translate(302.710068 266.598437)scale(0.1 -0.1)">
       <defs>
        <path d="M 33.015625 40.375 
Q 26.375 40.375 22.484375 35.828125 
Q 18.609375 31.296875 18.609375 23.390625 
Q 18.609375 15.53125 22.484375 10.953125 
Q 26.375 6.390625 33.015625 6.390625 
Q 39.65625 6.390625 43.53125 10.953125 
Q 47.40625 15.53125 47.40625 23.390625 
Q 47.40625 31.296875 43.53125 35.828125 
Q 39.65625 40.375 33.015625 40.375 
z
M 52.59375 71.296875 
L 52.59375 62.3125 
Q 48.875 64.0625 45.09375 64.984375 
Q 41.3125 65.921875 37.59375 65.921875 
Q 27.828125 65.921875 22.671875 59.328125 
Q 17.53125 52.734375 16.796875 39.40625 
Q 19.671875 43.65625 24.015625 45.921875 
Q 28.375 48.1875 33.59375 48.1875 
Q 44.578125 48.1875 50.953125 41.515625 
Q 57.328125 34.859375 57.328125 23.390625 
Q 57.328125 12.15625 50.6875 5.359375 
Q 44.046875 -1.421875 33.015625 -1.421875 
Q 20.359375 -1.421875 13.671875 8.265625 
Q 6.984375 17.96875 6.984375 36.375 
Q 6.984375 53.65625 15.1875 63.9375 
Q 23.390625 74.21875 37.203125 74.21875 
Q 40.921875 74.21875 44.703125 73.484375 
Q 48.484375 72.75 52.59375 71.296875 
z
" id="DejaVuSans-54"/>
       </defs>
       <use xlink:href="#DejaVuSans-54"/>
       <use x="63.623047" xlink:href="#DejaVuSans-48"/>
      </g>
     </g>
    </g>
    <g id="xtick_8">
     <g id="line2d_8">
      <g>
       <use style="stroke:#000000;stroke-width:0.8;" x="350.131948" xlink:href="#m3c12a93344" y="252"/>
      </g>
     </g>
     <g id="text_8">
      <!-- 65 -->
      <g transform="translate(343.769448 266.598437)scale(0.1 -0.1)">
       <use xlink:href="#DejaVuSans-54"/>
       <use x="63.623047" xlink:href="#DejaVuSans-53"/>
      </g>
     </g>
    </g>
    <g id="text_9">
     <!-- GC -->
     <g transform="translate(214.034375 280.276563)scale(0.1 -0.1)">
      <defs>
       <path d="M 59.515625 10.40625 
L 59.515625 29.984375 
L 43.40625 29.984375 
L 43.40625 38.09375 
L 69.28125 38.09375 
L 69.28125 6.78125 
Q 63.578125 2.734375 56.6875 0.65625 
Q 49.8125 -1.421875 42 -1.421875 
Q 24.90625 -1.421875 15.25 8.5625 
Q 5.609375 18.5625 5.609375 36.375 
Q 5.609375 54.25 15.25 64.234375 
Q 24.90625 74.21875 42 74.21875 
Q 49.125 74.21875 55.546875 72.453125 
Q 61.96875 70.703125 67.390625 67.28125 
L 67.390625 56.78125 
Q 61.921875 61.421875 55.765625 63.765625 
Q 49.609375 66.109375 42.828125 66.109375 
Q 29.4375 66.109375 22.71875 58.640625 
Q 16.015625 51.171875 16.015625 36.375 
Q 16.015625 21.625 22.71875 14.15625 
Q 29.4375 6.6875 42.828125 6.6875 
Q 48.046875 6.6875 52.140625 7.59375 
Q 56.25 8.5 59.515625 10.40625 
z
" id="DejaVuSans-71"/>
       <path d="M 64.40625 67.28125 
L 64.40625 56.890625 
Q 59.421875 61.53125 53.78125 63.8125 
Q 48.140625 66.109375 41.796875 66.109375 
Q 29.296875 66.109375 22.65625 58.46875 
Q 16.015625 50.828125 16.015625 36.375 
Q 16.015625 21.96875 22.65625 14.328125 
Q 29.296875 6.6875 41.796875 6.6875 
Q 48.140625 6.6875 53.78125 8.984375 
Q 59.421875 11.28125 64.40625 15.921875 
L 64.40625 5.609375 
Q 59.234375 2.09375 53.4375 0.328125 
Q 47.65625 -1.421875 41.21875 -1.421875 
Q 24.65625 -1.421875 15.125 8.703125 
Q 5.609375 18.84375 5.609375 36.375 
Q 5.609375 53.953125 15.125 64.078125 
Q 24.65625 74.21875 41.21875 74.21875 
Q 47.75 74.21875 53.53125 72.484375 
Q 59.328125 70.75 64.40625 67.28125 
z
" id="DejaVuSans-67"/>
      </defs>
      <use xlink:href="#DejaVuSans-71"/>
      <use x="77.490234" xlink:href="#DejaVuSans-67"/>
     </g>
    </g>
   </g>
   <g id="matplotlib.axis_2">
    <g id="ytick_1">
     <g id="line2d_9">
      <defs>
       <path d="M 0 0 
L -3.5 0 
" id="mf20405cf67" style="stroke:#000000;stroke-width:0.8;"/>
      </defs>
      <g>
       <use style="stroke:#000000;stroke-width:0.8;" x="54" xlink:href="#mf20405cf67" y="251.372886"/>
      </g>
     </g>
     <g id="text_10">
      <!-- −0.4 -->
      <g transform="translate(22.717187 255.172104)scale(0.1 -0.1)">
       <defs>
        <path d="M 10.59375 35.5 
L 73.1875 35.5 
L 73.1875 27.203125 
L 10.59375 27.203125 
z
" id="DejaVuSans-8722"/>
        <path d="M 10.6875 12.40625 
L 21 12.40625 
L 21 0 
L 10.6875 0 
z
" id="DejaVuSans-46"/>
       </defs>
       <use xlink:href="#DejaVuSans-8722"/>
       <use x="83.789062" xlink:href="#DejaVuSans-48"/>
       <use x="147.412109" xlink:href="#DejaVuSans-46"/>
       <use x="179.199219" xlink:href="#DejaVuSans-52"/>
      </g>
     </g>
    </g>
    <g id="ytick_2">
     <g id="line2d_10">
      <g>
       <use style="stroke:#000000;stroke-width:0.8;" x="54" xlink:href="#mf20405cf67" y="225.067557"/>
      </g>
     </g>
     <g id="text_11">
      <!-- −0.3 -->
      <g transform="translate(22.717187 228.866776)scale(0.1 -0.1)">
       <use xlink:href="#DejaVuSans-8722"/>
       <use x="83.789062" xlink:href="#DejaVuSans-48"/>
       <use x="147.412109" xlink:href="#DejaVuSans-46"/>
       <use x="179.199219" xlink:href="#DejaVuSans-51"/>
      </g>
     </g>
    </g>
    <g id="ytick_3">
     <g id="line2d_11">
      <g>
       <use style="stroke:#000000;stroke-width:0.8;" x="54" xlink:href="#mf20405cf67" y="198.762228"/>
      </g>
     </g>
     <g id="text_12">
      <!-- −0.2 -->
      <g transform="translate(22.717187 202.561447)scale(0.1 -0.1)">
       <defs>
        <path d="M 19.1875 8.296875 
L 53.609375 8.296875 
L 53.609375 0 
L 7.328125 0 
L 7.328125 8.296875 
Q 12.9375 14.109375 22.625 23.890625 
Q 32.328125 33.6875 34.8125 36.53125 
Q 39.546875 41.84375 41.421875 45.53125 
Q 43.3125 49.21875 43.3125 52.78125 
Q 43.3125 58.59375 39.234375 62.25 
Q 35.15625 65.921875 28.609375 65.921875 
Q 23.96875 65.921875 18.8125 64.3125 
Q 13.671875 62.703125 7.8125 59.421875 
L 7.8125 69.390625 
Q 13.765625 71.78125 18.9375 73 
Q 24.125 74.21875 28.421875 74.21875 
Q 39.75 74.21875 46.484375 68.546875 
Q 53.21875 62.890625 53.21875 53.421875 
Q 53.21875 48.921875 51.53125 44.890625 
Q 49.859375 40.875 45.40625 35.40625 
Q 44.1875 33.984375 37.640625 27.21875 
Q 31.109375 20.453125 19.1875 8.296875 
z
" id="DejaVuSans-50"/>
       </defs>
       <use xlink:href="#DejaVuSans-8722"/>
       <use x="83.789062" xlink:href="#DejaVuSans-48"/>
       <use x="147.412109" xlink:href="#DejaVuSans-46"/>
       <use x="179.199219" xlink:href="#DejaVuSans-50"/>
      </g>
     </g>
    </g>
    <g id="ytick_4">
     <g id="line2d_12">
      <g>
       <use style="stroke:#000000;stroke-width:0.8;" x="54" xlink:href="#mf20405cf67" y="172.4569"/>
      </g>
     </g>
     <g id="text_13">
      <!-- −0.1 -->
      <g transform="translate(22.717187 176.256118)scale(0.1 -0.1)">
       <defs>
        <path d="M 12.40625 8.296875 
L 28.515625 8.296875 
L 28.515625 63.921875 
L 10.984375 60.40625 
L 10.984375 69.390625 
L 28.421875 72.90625 
L 38.28125 72.90625 
L 38.28125 8.296875 
L 54.390625 8.296875 
L 54.390625 0 
L 12.40625 0 
z
" id="DejaVuSans-49"/>
       </defs>
       <use xlink:href="#DejaVuSans-8722"/>
       <use x="83.789062" xlink:href="#DejaVuSans-48"/>
       <use x="147.412109" xlink:href="#DejaVuSans-46"/>
       <use x="179.199219" xlink:href="#DejaVuSans-49"/>
      </g>
     </g>
    </g>
    <g id="ytick_5">
     <g id="line2d_13">
      <g>
       <use style="stroke:#000000;stroke-width:0.8;" x="54" xlink:href="#mf20405cf67" y="146.151571"/>
      </g>
     </g>
     <g id="text_14">
      <!-- 0.0 -->
      <g transform="translate(31.096875 149.95079)scale(0.1 -0.1)">
       <use xlink:href="#DejaVuSans-48"/>
       <use x="63.623047" xlink:href="#DejaVuSans-46"/>
       <use x="95.410156" xlink:href="#DejaVuSans-48"/>
      </g>
     </g>
    </g>
    <g id="ytick_6">
     <g id="line2d_14">
      <g>
       <use style="stroke:#000000;stroke-width:0.8;" x="54" xlink:href="#mf20405cf67" y="119.846242"/>
      </g>
     </g>
     <g id="text_15">
      <!-- 0.1 -->
      <g transform="translate(31.096875 123.645461)scale(0.1 -0.1)">
       <use xlink:href="#DejaVuSans-48"/>
       <use x="63.623047" xlink:href="#DejaVuSans-46"/>
       <use x="95.410156" xlink:href="#DejaVuSans-49"/>
      </g>
     </g>
    </g>
    <g id="ytick_7">
     <g id="line2d_15">
      <g>
       <use style="stroke:#000000;stroke-width:0.8;" x="54" xlink:href="#mf20405cf67" y="93.540914"/>
      </g>
     </g>
     <g id="text_16">
      <!-- 0.2 -->
      <g transform="translate(31.096875 97.340132)scale(0.1 -0.1)">
       <use xlink:href="#DejaVuSans-48"/>
       <use x="63.623047" xlink:href="#DejaVuSans-46"/>
       <use x="95.410156" xlink:href="#DejaVuSans-50"/>
      </g>
     </g>
    </g>
    <g id="ytick_8">
     <g id="line2d_16">
      <g>
       <use style="stroke:#000000;stroke-width:0.8;" x="54" xlink:href="#mf20405cf67" y="67.235585"/>
      </g>
     </g>
     <g id="text_17">
      <!-- 0.3 -->
      <g transform="translate(31.096875 71.034804)scale(0.1 -0.1)">
       <use xlink:href="#DejaVuSans-48"/>
       <use x="63.623047" xlink:href="#DejaVuSans-46"/>
       <use x="95.410156" xlink:href="#DejaVuSans-51"/>
      </g>
     </g>
    </g>
    <g id="ytick_9">
     <g id="line2d_17">
      <g>
       <use style="stroke:#000000;stroke-width:0.8;" x="54" xlink:href="#mf20405cf67" y="40.930256"/>
      </g>
     </g>
     <g id="text_18">
      <!-- 0.4 -->
      <g transform="translate(31.096875 44.729475)scale(0.1 -0.1)">
       <use xlink:href="#DejaVuSans-48"/>
       <use x="63.623047" xlink:href="#DejaVuSans-46"/>
       <use x="95.410156" xlink:href="#DejaVuSans-52"/>
      </g>
     </g>
    </g>
    <g id="text_19">
     <!-- DiffDens -->
     <g transform="translate(16.6375 164.739375)rotate(-90)scale(0.1 -0.1)">
      <defs>
       <path d="M 19.671875 64.796875 
L 19.671875 8.109375 
L 31.59375 8.109375 
Q 46.6875 8.109375 53.6875 14.9375 
Q 60.6875 21.78125 60.6875 36.53125 
Q 60.6875 51.171875 53.6875 57.984375 
Q 46.6875 64.796875 31.59375 64.796875 
z
M 9.8125 72.90625 
L 30.078125 72.90625 
Q 51.265625 72.90625 61.171875 64.09375 
Q 71.09375 55.28125 71.09375 36.53125 
Q 71.09375 17.671875 61.125 8.828125 
Q 51.171875 0 30.078125 0 
L 9.8125 0 
z
" id="DejaVuSans-68"/>
       <path d="M 9.421875 54.6875 
L 18.40625 54.6875 
L 18.40625 0 
L 9.421875 0 
z
M 9.421875 75.984375 
L 18.40625 75.984375 
L 18.40625 64.59375 
L 9.421875 64.59375 
z
" id="DejaVuSans-105"/>
       <path d="M 37.109375 75.984375 
L 37.109375 68.5 
L 28.515625 68.5 
Q 23.6875 68.5 21.796875 66.546875 
Q 19.921875 64.59375 19.921875 59.515625 
L 19.921875 54.6875 
L 34.71875 54.6875 
L 34.71875 47.703125 
L 19.921875 47.703125 
L 19.921875 0 
L 10.890625 0 
L 10.890625 47.703125 
L 2.296875 47.703125 
L 2.296875 54.6875 
L 10.890625 54.6875 
L 10.890625 58.5 
Q 10.890625 67.625 15.140625 71.796875 
Q 19.390625 75.984375 28.609375 75.984375 
z
" id="DejaVuSans-102"/>
       <path d="M 56.203125 29.59375 
L 56.203125 25.203125 
L 14.890625 25.203125 
Q 15.484375 15.921875 20.484375 11.0625 
Q 25.484375 6.203125 34.421875 6.203125 
Q 39.59375 6.203125 44.453125 7.46875 
Q 49.3125 8.734375 54.109375 11.28125 
L 54.109375 2.78125 
Q 49.265625 0.734375 44.1875 -0.34375 
Q 39.109375 -1.421875 33.890625 -1.421875 
Q 20.796875 -1.421875 13.15625 6.1875 
Q 5.515625 13.8125 5.515625 26.8125 
Q 5.515625 40.234375 12.765625 48.109375 
Q 20.015625 56 32.328125 56 
Q 43.359375 56 49.78125 48.890625 
Q 56.203125 41.796875 56.203125 29.59375 
z
M 47.21875 32.234375 
Q 47.125 39.59375 43.09375 43.984375 
Q 39.0625 48.390625 32.421875 48.390625 
Q 24.90625 48.390625 20.390625 44.140625 
Q 15.875 39.890625 15.1875 32.171875 
z
" id="DejaVuSans-101"/>
       <path d="M 54.890625 33.015625 
L 54.890625 0 
L 45.90625 0 
L 45.90625 32.71875 
Q 45.90625 40.484375 42.875 44.328125 
Q 39.84375 48.1875 33.796875 48.1875 
Q 26.515625 48.1875 22.3125 43.546875 
Q 18.109375 38.921875 18.109375 30.90625 
L 18.109375 0 
L 9.078125 0 
L 9.078125 54.6875 
L 18.109375 54.6875 
L 18.109375 46.1875 
Q 21.34375 51.125 25.703125 53.5625 
Q 30.078125 56 35.796875 56 
Q 45.21875 56 50.046875 50.171875 
Q 54.890625 44.34375 54.890625 33.015625 
z
" id="DejaVuSans-110"/>
       <path d="M 44.28125 53.078125 
L 44.28125 44.578125 
Q 40.484375 46.53125 36.375 47.5 
Q 32.28125 48.484375 27.875 48.484375 
Q 21.1875 48.484375 17.84375 46.4375 
Q 14.5 44.390625 14.5 40.28125 
Q 14.5 37.15625 16.890625 35.375 
Q 19.28125 33.59375 26.515625 31.984375 
L 29.59375 31.296875 
Q 39.15625 29.25 43.1875 25.515625 
Q 47.21875 21.78125 47.21875 15.09375 
Q 47.21875 7.46875 41.1875 3.015625 
Q 35.15625 -1.421875 24.609375 -1.421875 
Q 20.21875 -1.421875 15.453125 -0.5625 
Q 10.6875 0.296875 5.421875 2 
L 5.421875 11.28125 
Q 10.40625 8.6875 15.234375 7.390625 
Q 20.0625 6.109375 24.8125 6.109375 
Q 31.15625 6.109375 34.5625 8.28125 
Q 37.984375 10.453125 37.984375 14.40625 
Q 37.984375 18.0625 35.515625 20.015625 
Q 33.0625 21.96875 24.703125 23.78125 
L 21.578125 24.515625 
Q 13.234375 26.265625 9.515625 29.90625 
Q 5.8125 33.546875 5.8125 39.890625 
Q 5.8125 47.609375 11.28125 51.796875 
Q 16.75 56 26.8125 56 
Q 31.78125 56 36.171875 55.265625 
Q 40.578125 54.546875 44.28125 53.078125 
z
" id="DejaVuSans-115"/>
      </defs>
      <use xlink:href="#DejaVuSans-68"/>
      <use x="77.001953" xlink:href="#DejaVuSans-105"/>
      <use x="104.785156" xlink:href="#DejaVuSans-102"/>
      <use x="139.990234" xlink:href="#DejaVuSans-102"/>
      <use x="175.195312" xlink:href="#DejaVuSans-68"/>
      <use x="252.197266" xlink:href="#DejaVuSans-101"/>
      <use x="313.720703" xlink:href="#DejaVuSans-110"/>
      <use x="377.099609" xlink:href="#DejaVuSans-115"/>
     </g>
    </g>
   </g>
   <g id="line2d_18">
    <path clip-path="url(#p70d83e188d)" d="M 54 143.29417 
L 57.381818 143.550074 
L 60.763636 143.805978 
L 64.145455 144.061882 
L 67.527273 144.317786 
L 70.909091 144.57369 
L 74.290909 144.829594 
L 77.672727 145.085498 
L 81.054545 145.341402 
L 84.436364 145.597305 
L 87.818182 145.853209 
L 91.2 146.109113 
L 94.581818 146.365017 
L 97.963636 146.620921 
L 101.345455 146.876825 
L 104.727273 147.132729 
L 108.109091 147.388633 
L 111.490909 147.644537 
L 114.872727 147.90044 
L 118.254545 148.156344 
L 121.636364 148.412248 
L 125.018182 148.668152 
L 128.4 148.924056 
L 131.781818 149.17996 
L 135.163636 149.435864 
L 138.545455 149.691768 
L 141.927273 149.947672 
L 145.309091 150.203575 
L 148.690909 150.459479 
L 152.072727 150.715383 
L 155.454545 150.971287 
L 158.836364 151.227191 
L 162.218182 151.483095 
L 165.6 151.738999 
L 168.981818 151.994903 
L 172.363636 152.250807 
L 175.745455 152.50671 
L 179.127273 152.762614 
L 182.509091 153.018518 
L 185.890909 153.274422 
L 189.272727 153.530326 
L 192.654545 153.78623 
L 196.036364 154.042134 
L 199.418182 154.298038 
L 202.8 154.553942 
L 206.181818 154.809846 
L 209.563636 155.065749 
L 212.945455 155.321653 
L 216.327273 155.577557 
L 219.709091 155.833461 
L 223.090909 156.089365 
L 226.472727 156.345269 
L 229.854545 156.601173 
L 233.236364 156.857077 
L 236.618182 157.112981 
L 240 157.368884 
L 243.381818 157.624788 
L 246.763636 157.880692 
L 250.145455 158.136596 
L 253.527273 158.3925 
L 256.909091 158.648404 
L 260.290909 158.904308 
L 263.672727 159.160212 
L 267.054545 159.416116 
L 270.436364 159.672019 
L 273.818182 159.927923 
L 277.2 160.183827 
L 280.581818 160.439731 
L 283.963636 160.695635 
L 287.345455 160.951539 
L 290.727273 161.207443 
L 294.109091 161.463347 
L 297.490909 161.719251 
L 300.872727 161.975154 
L 304.254545 162.231058 
L 307.636364 162.486962 
L 311.018182 162.742866 
L 314.4 162.99877 
L 317.781818 163.254674 
L 321.163636 163.510578 
L 324.545455 163.766482 
L 327.927273 164.022386 
L 331.309091 164.27829 
L 334.690909 164.534193 
L 338.072727 164.790097 
L 341.454545 165.046001 
L 344.836364 165.301905 
L 348.218182 165.557809 
L 351.6 165.813713 
L 354.981818 166.069617 
L 358.363636 166.325521 
L 361.745455 166.581425 
L 365.127273 166.837328 
L 368.509091 167.093232 
L 371.890909 167.349136 
L 375.272727 167.60504 
L 378.654545 167.860944 
L 382.036364 168.116848 
L 385.418182 168.372752 
L 388.8 168.628656 
" style="fill:none;stroke:#c33543;stroke-linecap:square;stroke-width:2.25;"/>
   </g>
   <g id="patch_3">
    <path d="M 54 252 
L 54 34.56 
" style="fill:none;stroke:#000000;stroke-linecap:square;stroke-linejoin:miter;stroke-width:0.8;"/>
   </g>
   <g id="patch_4">
    <path d="M 388.8 252 
L 388.8 34.56 
" style="fill:none;stroke:#000000;stroke-linecap:square;stroke-linejoin:miter;stroke-width:0.8;"/>
   </g>
   <g id="patch_5">
    <path d="M 54 252 
L 388.8 252 
" style="fill:none;stroke:#000000;stroke-linecap:square;stroke-linejoin:miter;stroke-width:0.8;"/>
   </g>
   <g id="patch_6">
    <path d="M 54 34.56 
L 388.8 34.56 
" style="fill:none;stroke:#000000;stroke-linecap:square;stroke-linejoin:miter;stroke-width:0.8;"/>
   </g>
  </g>
 </g>
 <defs>
  <clipPath id="p70d83e188d">
   <rect height="217.44" width="334.8" x="54" y="34.56"/>
  </clipPath>
 </defs>
</svg>
