<?xml version="1.0" encoding="utf-8" standalone="no"?>
<!DOCTYPE svg PUBLIC "-//W3C//DTD SVG 1.1//EN"
  "http://www.w3.org/Graphics/SVG/1.1/DTD/svg11.dtd">
<!-- Created with matplotlib (https://matplotlib.org/) -->
<svg height="288pt" version="1.1" viewBox="0 0 432 288" width="432pt" xmlns="http://www.w3.org/2000/svg" xmlns:xlink="http://www.w3.org/1999/xlink">
 <metadata>
  <rdf:RDF xmlns:cc="http://creativecommons.org/ns#" xmlns:dc="http://purl.org/dc/elements/1.1/" xmlns:rdf="http://www.w3.org/1999/02/22-rdf-syntax-ns#">
   <cc:Work>
    <dc:type rdf:resource="http://purl.org/dc/dcmitype/StillImage"/>
    <dc:date>2021-04-15T19:50:34.260278</dc:date>
    <dc:format>image/svg+xml</dc:format>
    <dc:creator>
     <cc:Agent>
      <dc:title>Matplotlib v3.3.2, https://matplotlib.org/</dc:title>
     </cc:Agent>
    </dc:creator>
   </cc:Work>
  </rdf:RDF>
 </metadata>
 <defs>
  <style type="text/css">*{stroke-linecap:butt;stroke-linejoin:round;}</style>
 </defs>
 <g id="figure_1">
  <g id="patch_1">
   <path d="M 0 288 
L 432 288 
L 432 0 
L 0 0 
z
" style="fill:none;"/>
  </g>
  <g id="axes_1">
   <g id="patch_2">
    <path d="M 54 252 
L 388.8 252 
L 388.8 34.56 
L 54 34.56 
z
" style="fill:#ffffff;"/>
   </g>
   <g id="PathCollection_1">
    <defs>
     <path d="M 0 3 
C 0.795609 3 1.55874 2.683901 2.12132 2.12132 
C 2.683901 1.55874 3 0.795609 3 0 
C 3 -0.795609 2.683901 -1.55874 2.12132 -2.12132 
C 1.55874 -2.683901 0.795609 -3 0 -3 
C -0.795609 -3 -1.55874 -2.683901 -2.12132 -2.12132 
C -2.683901 -1.55874 -3 -0.795609 -3 0 
C -3 0.795609 -2.683901 1.55874 -2.12132 2.12132 
C -1.55874 2.683901 -0.795609 3 0 3 
z
" id="m28aa4ccafc" style="stroke:#c33543;stroke-opacity:0.8;"/>
    </defs>
    <g clip-path="url(#pbb42af7411)">
     <use style="fill:#c33543;fill-opacity:0.8;stroke:#c33543;stroke-opacity:0.8;" x="145.884814" xlink:href="#m28aa4ccafc" y="173.619235"/>
     <use style="fill:#c33543;fill-opacity:0.8;stroke:#c33543;stroke-opacity:0.8;" x="388.8" xlink:href="#m28aa4ccafc" y="185.811194"/>
     <use style="fill:#c33543;fill-opacity:0.8;stroke:#c33543;stroke-opacity:0.8;" x="216.211816" xlink:href="#m28aa4ccafc" y="194.342687"/>
     <use style="fill:#c33543;fill-opacity:0.8;stroke:#c33543;stroke-opacity:0.8;" x="54" xlink:href="#m28aa4ccafc" y="150.056223"/>
     <use style="fill:#c33543;fill-opacity:0.8;stroke:#c33543;stroke-opacity:0.8;" x="215.620372" xlink:href="#m28aa4ccafc" y="166.781801"/>
     <use style="fill:#c33543;fill-opacity:0.8;stroke:#c33543;stroke-opacity:0.8;" x="114.988452" xlink:href="#m28aa4ccafc" y="150.056223"/>
     <use style="fill:#c33543;fill-opacity:0.8;stroke:#c33543;stroke-opacity:0.8;" x="139.798223" xlink:href="#m28aa4ccafc" y="210.917418"/>
     <use style="fill:#c33543;fill-opacity:0.8;stroke:#c33543;stroke-opacity:0.8;" x="363.405598" xlink:href="#m28aa4ccafc" y="186.923148"/>
     <use style="fill:#c33543;fill-opacity:0.8;stroke:#c33543;stroke-opacity:0.8;" x="174.047091" xlink:href="#m28aa4ccafc" y="187.062647"/>
     <use style="fill:#c33543;fill-opacity:0.8;stroke:#c33543;stroke-opacity:0.8;" x="204.782797" xlink:href="#m28aa4ccafc" y="235.989269"/>
     <use style="fill:#c33543;fill-opacity:0.8;stroke:#c33543;stroke-opacity:0.8;" x="138.063002" xlink:href="#m28aa4ccafc" y="141.786093"/>
     <use style="fill:#c33543;fill-opacity:0.8;stroke:#c33543;stroke-opacity:0.8;" x="230.014709" xlink:href="#m28aa4ccafc" y="150.056223"/>
     <use style="fill:#c33543;fill-opacity:0.8;stroke:#c33543;stroke-opacity:0.8;" x="155.709774" xlink:href="#m28aa4ccafc" y="158.327432"/>
     <use style="fill:#c33543;fill-opacity:0.8;stroke:#c33543;stroke-opacity:0.8;" x="185.990969" xlink:href="#m28aa4ccafc" y="216.634537"/>
     <use style="fill:#c33543;fill-opacity:0.8;stroke:#c33543;stroke-opacity:0.8;" x="293.191696" xlink:href="#m28aa4ccafc" y="44.443636"/>
     <use style="fill:#c33543;fill-opacity:0.8;stroke:#c33543;stroke-opacity:0.8;" x="74.893131" xlink:href="#m28aa4ccafc" y="150.056223"/>
     <use style="fill:#c33543;fill-opacity:0.8;stroke:#c33543;stroke-opacity:0.8;" x="233.697216" xlink:href="#m28aa4ccafc" y="174.432155"/>
     <use style="fill:#c33543;fill-opacity:0.8;stroke:#c33543;stroke-opacity:0.8;" x="189.406628" xlink:href="#m28aa4ccafc" y="150.056223"/>
     <use style="fill:#c33543;fill-opacity:0.8;stroke:#c33543;stroke-opacity:0.8;" x="149.400569" xlink:href="#m28aa4ccafc" y="164.701509"/>
     <use style="fill:#c33543;fill-opacity:0.8;stroke:#c33543;stroke-opacity:0.8;" x="159.717635" xlink:href="#m28aa4ccafc" y="150.056223"/>
     <use style="fill:#c33543;fill-opacity:0.8;stroke:#c33543;stroke-opacity:0.8;" x="375.135634" xlink:href="#m28aa4ccafc" y="242.116364"/>
     <use style="fill:#c33543;fill-opacity:0.8;stroke:#c33543;stroke-opacity:0.8;" x="143.544536" xlink:href="#m28aa4ccafc" y="150.056223"/>
     <use style="fill:#c33543;fill-opacity:0.8;stroke:#c33543;stroke-opacity:0.8;" x="71.766412" xlink:href="#m28aa4ccafc" y="150.056223"/>
     <use style="fill:#c33543;fill-opacity:0.8;stroke:#c33543;stroke-opacity:0.8;" x="198.03477" xlink:href="#m28aa4ccafc" y="167.705408"/>
    </g>
   </g>
   <g id="PolyCollection_1">
    <path clip-path="url(#pbb42af7411)" d="M 54 139.86197 
L 54 188.051188 
L 57.381818 187.479195 
L 60.763636 186.549834 
L 64.145455 185.620474 
L 67.527273 184.691113 
L 70.909091 184.050134 
L 74.290909 183.565428 
L 77.672727 183.078535 
L 81.054545 182.589672 
L 84.436364 182.09782 
L 87.818182 181.603938 
L 91.2 181.042629 
L 94.581818 180.589611 
L 97.963636 180.021441 
L 101.345455 179.29541 
L 104.727273 179.100968 
L 108.109091 178.780476 
L 111.490909 178.333136 
L 114.872727 177.99106 
L 118.254545 177.429781 
L 121.636364 176.846076 
L 125.018182 176.525452 
L 128.4 176.187934 
L 131.781818 175.949647 
L 135.163636 176.064035 
L 138.545455 176.398664 
L 141.927273 176.582021 
L 145.309091 176.342029 
L 148.690909 176.352202 
L 152.072727 176.791317 
L 155.454545 177.231269 
L 158.836364 177.671235 
L 162.218182 177.9766 
L 165.6 178.552306 
L 168.981818 178.941075 
L 172.363636 179.435805 
L 175.745455 180.133967 
L 179.127273 180.618418 
L 182.509091 181.283286 
L 185.890909 181.917143 
L 189.272727 182.503875 
L 192.654545 183.206001 
L 196.036364 183.536682 
L 199.418182 184.373045 
L 202.8 185.352561 
L 206.181818 185.927653 
L 209.563636 186.497662 
L 212.945455 187.069902 
L 216.327273 187.647002 
L 219.709091 188.419999 
L 223.090909 189.335268 
L 226.472727 190.061402 
L 229.854545 190.716719 
L 233.236364 191.079781 
L 236.618182 191.914082 
L 240 192.70782 
L 243.381818 193.638717 
L 246.763636 194.49988 
L 250.145455 195.204623 
L 253.527273 196.064446 
L 256.909091 197.054649 
L 260.290909 197.992322 
L 263.672727 199.028658 
L 267.054545 199.975491 
L 270.436364 200.895774 
L 273.818182 201.878735 
L 277.2 202.835304 
L 280.581818 203.596424 
L 283.963636 204.45827 
L 287.345455 205.355473 
L 290.727273 206.252676 
L 294.109091 207.149878 
L 297.490909 208.047081 
L 300.872727 208.943797 
L 304.254545 209.836415 
L 307.636364 210.726576 
L 311.018182 211.62285 
L 314.4 212.618998 
L 317.781818 213.405585 
L 321.163636 214.302964 
L 324.545455 215.196159 
L 327.927273 216.089353 
L 331.309091 216.982548 
L 334.690909 217.875742 
L 338.072727 218.761875 
L 341.454545 219.585989 
L 344.836364 220.410104 
L 348.218182 221.234218 
L 351.6 222.058332 
L 354.981818 222.882446 
L 358.363636 223.706561 
L 361.745455 224.528971 
L 365.127273 225.350968 
L 368.509091 226.172965 
L 371.890909 226.993803 
L 375.272727 227.813912 
L 378.654545 228.63402 
L 382.036364 229.454129 
L 385.418182 230.274237 
L 388.8 231.026365 
L 388.8 112.958476 
L 388.8 112.958476 
L 385.418182 113.505866 
L 382.036364 114.111787 
L 378.654545 114.853589 
L 375.272727 115.714143 
L 371.890909 116.574698 
L 368.509091 117.426102 
L 365.127273 118.071565 
L 361.745455 118.717028 
L 358.363636 119.362491 
L 354.981818 120.007954 
L 351.6 120.653417 
L 348.218182 121.29888 
L 344.836364 121.944343 
L 341.454545 122.591921 
L 338.072727 123.239612 
L 334.690909 123.887302 
L 331.309091 124.534992 
L 327.927273 125.285499 
L 324.545455 126.042581 
L 321.163636 126.708338 
L 317.781818 127.218474 
L 314.4 127.758437 
L 311.018182 128.399795 
L 307.636364 129.044435 
L 304.254545 129.689898 
L 300.872727 130.335361 
L 297.490909 130.980856 
L 294.109091 131.644512 
L 290.727273 132.400251 
L 287.345455 133.15751 
L 283.963636 133.887158 
L 280.581818 134.455512 
L 277.2 135.189559 
L 273.818182 135.924057 
L 270.436364 136.660945 
L 267.054545 137.397834 
L 263.672727 138.134722 
L 260.290909 138.560086 
L 256.909091 138.935231 
L 253.527273 139.600378 
L 250.145455 140.270598 
L 246.763636 140.788076 
L 243.381818 141.295946 
L 240 141.766961 
L 236.618182 142.202962 
L 233.236364 143.055179 
L 229.854545 143.571721 
L 226.472727 143.736625 
L 223.090909 144.193352 
L 219.709091 144.675409 
L 216.327273 146.154855 
L 212.945455 146.434631 
L 209.563636 146.782187 
L 206.181818 147.888648 
L 202.8 148.314957 
L 199.418182 148.913504 
L 196.036364 149.693644 
L 192.654545 150.20633 
L 189.272727 151.044081 
L 185.890909 151.7767 
L 182.509091 152.150274 
L 179.127273 152.441687 
L 175.745455 152.522113 
L 172.363636 152.768539 
L 168.981818 153.190221 
L 165.6 153.391808 
L 162.218182 153.490841 
L 158.836364 153.855521 
L 155.454545 154.071732 
L 152.072727 154.196522 
L 148.690909 154.668664 
L 145.309091 154.383093 
L 141.927273 154.331933 
L 138.545455 154.001328 
L 135.163636 153.689683 
L 131.781818 153.608756 
L 128.4 153.16154 
L 125.018182 153.068626 
L 121.636364 152.917376 
L 118.254545 152.515586 
L 114.872727 152.082103 
L 111.490909 151.452305 
L 108.109091 150.845892 
L 104.727273 150.271315 
L 101.345455 149.738129 
L 97.963636 149.240657 
L 94.581818 148.6488 
L 91.2 148.130977 
L 87.818182 147.426664 
L 84.436364 146.8063 
L 81.054545 145.968608 
L 77.672727 145.254504 
L 74.290909 144.424132 
L 70.909091 143.592657 
L 67.527273 142.778074 
L 64.145455 142.076581 
L 60.763636 141.377426 
L 57.381818 140.625573 
L 54 139.86197 
z
" style="fill:#c33543;fill-opacity:0.15;"/>
   </g>
   <g id="matplotlib.axis_1">
    <g id="xtick_1">
     <g id="line2d_1">
      <defs>
       <path d="M 0 0 
L 0 3.5 
" id="mc9001032e9" style="stroke:#000000;stroke-width:0.8;"/>
      </defs>
      <g>
       <use style="stroke:#000000;stroke-width:0.8;" x="65.375333" xlink:href="#mc9001032e9" y="252"/>
      </g>
     </g>
     <g id="text_1">
      <!-- 45.0 -->
      <g transform="translate(54.24252 266.598437)scale(0.1 -0.1)">
       <defs>
        <path d="M 37.796875 64.3125 
L 12.890625 25.390625 
L 37.796875 25.390625 
z
M 35.203125 72.90625 
L 47.609375 72.90625 
L 47.609375 25.390625 
L 58.015625 25.390625 
L 58.015625 17.1875 
L 47.609375 17.1875 
L 47.609375 0 
L 37.796875 0 
L 37.796875 17.1875 
L 4.890625 17.1875 
L 4.890625 26.703125 
z
" id="DejaVuSans-52"/>
        <path d="M 10.796875 72.90625 
L 49.515625 72.90625 
L 49.515625 64.59375 
L 19.828125 64.59375 
L 19.828125 46.734375 
Q 21.96875 47.46875 24.109375 47.828125 
Q 26.265625 48.1875 28.421875 48.1875 
Q 40.625 48.1875 47.75 41.5 
Q 54.890625 34.8125 54.890625 23.390625 
Q 54.890625 11.625 47.5625 5.09375 
Q 40.234375 -1.421875 26.90625 -1.421875 
Q 22.3125 -1.421875 17.546875 -0.640625 
Q 12.796875 0.140625 7.71875 1.703125 
L 7.71875 11.625 
Q 12.109375 9.234375 16.796875 8.0625 
Q 21.484375 6.890625 26.703125 6.890625 
Q 35.15625 6.890625 40.078125 11.328125 
Q 45.015625 15.765625 45.015625 23.390625 
Q 45.015625 31 40.078125 35.4375 
Q 35.15625 39.890625 26.703125 39.890625 
Q 22.75 39.890625 18.8125 39.015625 
Q 14.890625 38.140625 10.796875 36.28125 
z
" id="DejaVuSans-53"/>
        <path d="M 10.6875 12.40625 
L 21 12.40625 
L 21 0 
L 10.6875 0 
z
" id="DejaVuSans-46"/>
        <path d="M 31.78125 66.40625 
Q 24.171875 66.40625 20.328125 58.90625 
Q 16.5 51.421875 16.5 36.375 
Q 16.5 21.390625 20.328125 13.890625 
Q 24.171875 6.390625 31.78125 6.390625 
Q 39.453125 6.390625 43.28125 13.890625 
Q 47.125 21.390625 47.125 36.375 
Q 47.125 51.421875 43.28125 58.90625 
Q 39.453125 66.40625 31.78125 66.40625 
z
M 31.78125 74.21875 
Q 44.046875 74.21875 50.515625 64.515625 
Q 56.984375 54.828125 56.984375 36.375 
Q 56.984375 17.96875 50.515625 8.265625 
Q 44.046875 -1.421875 31.78125 -1.421875 
Q 19.53125 -1.421875 13.0625 8.265625 
Q 6.59375 17.96875 6.59375 36.375 
Q 6.59375 54.828125 13.0625 64.515625 
Q 19.53125 74.21875 31.78125 74.21875 
z
" id="DejaVuSans-48"/>
       </defs>
       <use xlink:href="#DejaVuSans-52"/>
       <use x="63.623047" xlink:href="#DejaVuSans-53"/>
       <use x="127.246094" xlink:href="#DejaVuSans-46"/>
       <use x="159.033203" xlink:href="#DejaVuSans-48"/>
      </g>
     </g>
    </g>
    <g id="xtick_2">
     <g id="line2d_2">
      <g>
       <use style="stroke:#000000;stroke-width:0.8;" x="105.975311" xlink:href="#mc9001032e9" y="252"/>
      </g>
     </g>
     <g id="text_2">
      <!-- 47.5 -->
      <g transform="translate(94.842499 266.598437)scale(0.1 -0.1)">
       <defs>
        <path d="M 8.203125 72.90625 
L 55.078125 72.90625 
L 55.078125 68.703125 
L 28.609375 0 
L 18.3125 0 
L 43.21875 64.59375 
L 8.203125 64.59375 
z
" id="DejaVuSans-55"/>
       </defs>
       <use xlink:href="#DejaVuSans-52"/>
       <use x="63.623047" xlink:href="#DejaVuSans-55"/>
       <use x="127.246094" xlink:href="#DejaVuSans-46"/>
       <use x="159.033203" xlink:href="#DejaVuSans-53"/>
      </g>
     </g>
    </g>
    <g id="xtick_3">
     <g id="line2d_3">
      <g>
       <use style="stroke:#000000;stroke-width:0.8;" x="146.57529" xlink:href="#mc9001032e9" y="252"/>
      </g>
     </g>
     <g id="text_3">
      <!-- 50.0 -->
      <g transform="translate(135.442477 266.598437)scale(0.1 -0.1)">
       <use xlink:href="#DejaVuSans-53"/>
       <use x="63.623047" xlink:href="#DejaVuSans-48"/>
       <use x="127.246094" xlink:href="#DejaVuSans-46"/>
       <use x="159.033203" xlink:href="#DejaVuSans-48"/>
      </g>
     </g>
    </g>
    <g id="xtick_4">
     <g id="line2d_4">
      <g>
       <use style="stroke:#000000;stroke-width:0.8;" x="187.175268" xlink:href="#mc9001032e9" y="252"/>
      </g>
     </g>
     <g id="text_4">
      <!-- 52.5 -->
      <g transform="translate(176.042456 266.598437)scale(0.1 -0.1)">
       <defs>
        <path d="M 19.1875 8.296875 
L 53.609375 8.296875 
L 53.609375 0 
L 7.328125 0 
L 7.328125 8.296875 
Q 12.9375 14.109375 22.625 23.890625 
Q 32.328125 33.6875 34.8125 36.53125 
Q 39.546875 41.84375 41.421875 45.53125 
Q 43.3125 49.21875 43.3125 52.78125 
Q 43.3125 58.59375 39.234375 62.25 
Q 35.15625 65.921875 28.609375 65.921875 
Q 23.96875 65.921875 18.8125 64.3125 
Q 13.671875 62.703125 7.8125 59.421875 
L 7.8125 69.390625 
Q 13.765625 71.78125 18.9375 73 
Q 24.125 74.21875 28.421875 74.21875 
Q 39.75 74.21875 46.484375 68.546875 
Q 53.21875 62.890625 53.21875 53.421875 
Q 53.21875 48.921875 51.53125 44.890625 
Q 49.859375 40.875 45.40625 35.40625 
Q 44.1875 33.984375 37.640625 27.21875 
Q 31.109375 20.453125 19.1875 8.296875 
z
" id="DejaVuSans-50"/>
       </defs>
       <use xlink:href="#DejaVuSans-53"/>
       <use x="63.623047" xlink:href="#DejaVuSans-50"/>
       <use x="127.246094" xlink:href="#DejaVuSans-46"/>
       <use x="159.033203" xlink:href="#DejaVuSans-53"/>
      </g>
     </g>
    </g>
    <g id="xtick_5">
     <g id="line2d_5">
      <g>
       <use style="stroke:#000000;stroke-width:0.8;" x="227.775247" xlink:href="#mc9001032e9" y="252"/>
      </g>
     </g>
     <g id="text_5">
      <!-- 55.0 -->
      <g transform="translate(216.642434 266.598437)scale(0.1 -0.1)">
       <use xlink:href="#DejaVuSans-53"/>
       <use x="63.623047" xlink:href="#DejaVuSans-53"/>
       <use x="127.246094" xlink:href="#DejaVuSans-46"/>
       <use x="159.033203" xlink:href="#DejaVuSans-48"/>
      </g>
     </g>
    </g>
    <g id="xtick_6">
     <g id="line2d_6">
      <g>
       <use style="stroke:#000000;stroke-width:0.8;" x="268.375225" xlink:href="#mc9001032e9" y="252"/>
      </g>
     </g>
     <g id="text_6">
      <!-- 57.5 -->
      <g transform="translate(257.242413 266.598437)scale(0.1 -0.1)">
       <use xlink:href="#DejaVuSans-53"/>
       <use x="63.623047" xlink:href="#DejaVuSans-55"/>
       <use x="127.246094" xlink:href="#DejaVuSans-46"/>
       <use x="159.033203" xlink:href="#DejaVuSans-53"/>
      </g>
     </g>
    </g>
    <g id="xtick_7">
     <g id="line2d_7">
      <g>
       <use style="stroke:#000000;stroke-width:0.8;" x="308.975204" xlink:href="#mc9001032e9" y="252"/>
      </g>
     </g>
     <g id="text_7">
      <!-- 60.0 -->
      <g transform="translate(297.842391 266.598437)scale(0.1 -0.1)">
       <defs>
        <path d="M 33.015625 40.375 
Q 26.375 40.375 22.484375 35.828125 
Q 18.609375 31.296875 18.609375 23.390625 
Q 18.609375 15.53125 22.484375 10.953125 
Q 26.375 6.390625 33.015625 6.390625 
Q 39.65625 6.390625 43.53125 10.953125 
Q 47.40625 15.53125 47.40625 23.390625 
Q 47.40625 31.296875 43.53125 35.828125 
Q 39.65625 40.375 33.015625 40.375 
z
M 52.59375 71.296875 
L 52.59375 62.3125 
Q 48.875 64.0625 45.09375 64.984375 
Q 41.3125 65.921875 37.59375 65.921875 
Q 27.828125 65.921875 22.671875 59.328125 
Q 17.53125 52.734375 16.796875 39.40625 
Q 19.671875 43.65625 24.015625 45.921875 
Q 28.375 48.1875 33.59375 48.1875 
Q 44.578125 48.1875 50.953125 41.515625 
Q 57.328125 34.859375 57.328125 23.390625 
Q 57.328125 12.15625 50.6875 5.359375 
Q 44.046875 -1.421875 33.015625 -1.421875 
Q 20.359375 -1.421875 13.671875 8.265625 
Q 6.984375 17.96875 6.984375 36.375 
Q 6.984375 53.65625 15.1875 63.9375 
Q 23.390625 74.21875 37.203125 74.21875 
Q 40.921875 74.21875 44.703125 73.484375 
Q 48.484375 72.75 52.59375 71.296875 
z
" id="DejaVuSans-54"/>
       </defs>
       <use xlink:href="#DejaVuSans-54"/>
       <use x="63.623047" xlink:href="#DejaVuSans-48"/>
       <use x="127.246094" xlink:href="#DejaVuSans-46"/>
       <use x="159.033203" xlink:href="#DejaVuSans-48"/>
      </g>
     </g>
    </g>
    <g id="xtick_8">
     <g id="line2d_8">
      <g>
       <use style="stroke:#000000;stroke-width:0.8;" x="349.575182" xlink:href="#mc9001032e9" y="252"/>
      </g>
     </g>
     <g id="text_8">
      <!-- 62.5 -->
      <g transform="translate(338.44237 266.598437)scale(0.1 -0.1)">
       <use xlink:href="#DejaVuSans-54"/>
       <use x="63.623047" xlink:href="#DejaVuSans-50"/>
       <use x="127.246094" xlink:href="#DejaVuSans-46"/>
       <use x="159.033203" xlink:href="#DejaVuSans-53"/>
      </g>
     </g>
    </g>
    <g id="text_9">
     <!-- GC -->
     <g transform="translate(214.034375 280.276563)scale(0.1 -0.1)">
      <defs>
       <path d="M 59.515625 10.40625 
L 59.515625 29.984375 
L 43.40625 29.984375 
L 43.40625 38.09375 
L 69.28125 38.09375 
L 69.28125 6.78125 
Q 63.578125 2.734375 56.6875 0.65625 
Q 49.8125 -1.421875 42 -1.421875 
Q 24.90625 -1.421875 15.25 8.5625 
Q 5.609375 18.5625 5.609375 36.375 
Q 5.609375 54.25 15.25 64.234375 
Q 24.90625 74.21875 42 74.21875 
Q 49.125 74.21875 55.546875 72.453125 
Q 61.96875 70.703125 67.390625 67.28125 
L 67.390625 56.78125 
Q 61.921875 61.421875 55.765625 63.765625 
Q 49.609375 66.109375 42.828125 66.109375 
Q 29.4375 66.109375 22.71875 58.640625 
Q 16.015625 51.171875 16.015625 36.375 
Q 16.015625 21.625 22.71875 14.15625 
Q 29.4375 6.6875 42.828125 6.6875 
Q 48.046875 6.6875 52.140625 7.59375 
Q 56.25 8.5 59.515625 10.40625 
z
" id="DejaVuSans-71"/>
       <path d="M 64.40625 67.28125 
L 64.40625 56.890625 
Q 59.421875 61.53125 53.78125 63.8125 
Q 48.140625 66.109375 41.796875 66.109375 
Q 29.296875 66.109375 22.65625 58.46875 
Q 16.015625 50.828125 16.015625 36.375 
Q 16.015625 21.96875 22.65625 14.328125 
Q 29.296875 6.6875 41.796875 6.6875 
Q 48.140625 6.6875 53.78125 8.984375 
Q 59.421875 11.28125 64.40625 15.921875 
L 64.40625 5.609375 
Q 59.234375 2.09375 53.4375 0.328125 
Q 47.65625 -1.421875 41.21875 -1.421875 
Q 24.65625 -1.421875 15.125 8.703125 
Q 5.609375 18.84375 5.609375 36.375 
Q 5.609375 53.953125 15.125 64.078125 
Q 24.65625 74.21875 41.21875 74.21875 
Q 47.75 74.21875 53.53125 72.484375 
Q 59.328125 70.75 64.40625 67.28125 
z
" id="DejaVuSans-67"/>
      </defs>
      <use xlink:href="#DejaVuSans-71"/>
      <use x="77.490234" xlink:href="#DejaVuSans-67"/>
     </g>
    </g>
   </g>
   <g id="matplotlib.axis_2">
    <g id="ytick_1">
     <g id="line2d_9">
      <defs>
       <path d="M 0 0 
L -3.5 0 
" id="me17dacc8ba" style="stroke:#000000;stroke-width:0.8;"/>
      </defs>
      <g>
       <use style="stroke:#000000;stroke-width:0.8;" x="54" xlink:href="#me17dacc8ba" y="238.72855"/>
      </g>
     </g>
     <g id="text_10">
      <!-- −0.4 -->
      <g transform="translate(22.717187 242.527769)scale(0.1 -0.1)">
       <defs>
        <path d="M 10.59375 35.5 
L 73.1875 35.5 
L 73.1875 27.203125 
L 10.59375 27.203125 
z
" id="DejaVuSans-8722"/>
       </defs>
       <use xlink:href="#DejaVuSans-8722"/>
       <use x="83.789062" xlink:href="#DejaVuSans-48"/>
       <use x="147.412109" xlink:href="#DejaVuSans-46"/>
       <use x="179.199219" xlink:href="#DejaVuSans-52"/>
      </g>
     </g>
    </g>
    <g id="ytick_2">
     <g id="line2d_10">
      <g>
       <use style="stroke:#000000;stroke-width:0.8;" x="54" xlink:href="#me17dacc8ba" y="194.392387"/>
      </g>
     </g>
     <g id="text_11">
      <!-- −0.2 -->
      <g transform="translate(22.717187 198.191605)scale(0.1 -0.1)">
       <use xlink:href="#DejaVuSans-8722"/>
       <use x="83.789062" xlink:href="#DejaVuSans-48"/>
       <use x="147.412109" xlink:href="#DejaVuSans-46"/>
       <use x="179.199219" xlink:href="#DejaVuSans-50"/>
      </g>
     </g>
    </g>
    <g id="ytick_3">
     <g id="line2d_11">
      <g>
       <use style="stroke:#000000;stroke-width:0.8;" x="54" xlink:href="#me17dacc8ba" y="150.056223"/>
      </g>
     </g>
     <g id="text_12">
      <!-- 0.0 -->
      <g transform="translate(31.096875 153.855442)scale(0.1 -0.1)">
       <use xlink:href="#DejaVuSans-48"/>
       <use x="63.623047" xlink:href="#DejaVuSans-46"/>
       <use x="95.410156" xlink:href="#DejaVuSans-48"/>
      </g>
     </g>
    </g>
    <g id="ytick_4">
     <g id="line2d_12">
      <g>
       <use style="stroke:#000000;stroke-width:0.8;" x="54" xlink:href="#me17dacc8ba" y="105.720059"/>
      </g>
     </g>
     <g id="text_13">
      <!-- 0.2 -->
      <g transform="translate(31.096875 109.519278)scale(0.1 -0.1)">
       <use xlink:href="#DejaVuSans-48"/>
       <use x="63.623047" xlink:href="#DejaVuSans-46"/>
       <use x="95.410156" xlink:href="#DejaVuSans-50"/>
      </g>
     </g>
    </g>
    <g id="ytick_5">
     <g id="line2d_13">
      <g>
       <use style="stroke:#000000;stroke-width:0.8;" x="54" xlink:href="#me17dacc8ba" y="61.383895"/>
      </g>
     </g>
     <g id="text_14">
      <!-- 0.4 -->
      <g transform="translate(31.096875 65.183114)scale(0.1 -0.1)">
       <use xlink:href="#DejaVuSans-48"/>
       <use x="63.623047" xlink:href="#DejaVuSans-46"/>
       <use x="95.410156" xlink:href="#DejaVuSans-52"/>
      </g>
     </g>
    </g>
    <g id="text_15">
     <!-- DiffDens -->
     <g transform="translate(16.6375 164.739375)rotate(-90)scale(0.1 -0.1)">
      <defs>
       <path d="M 19.671875 64.796875 
L 19.671875 8.109375 
L 31.59375 8.109375 
Q 46.6875 8.109375 53.6875 14.9375 
Q 60.6875 21.78125 60.6875 36.53125 
Q 60.6875 51.171875 53.6875 57.984375 
Q 46.6875 64.796875 31.59375 64.796875 
z
M 9.8125 72.90625 
L 30.078125 72.90625 
Q 51.265625 72.90625 61.171875 64.09375 
Q 71.09375 55.28125 71.09375 36.53125 
Q 71.09375 17.671875 61.125 8.828125 
Q 51.171875 0 30.078125 0 
L 9.8125 0 
z
" id="DejaVuSans-68"/>
       <path d="M 9.421875 54.6875 
L 18.40625 54.6875 
L 18.40625 0 
L 9.421875 0 
z
M 9.421875 75.984375 
L 18.40625 75.984375 
L 18.40625 64.59375 
L 9.421875 64.59375 
z
" id="DejaVuSans-105"/>
       <path d="M 37.109375 75.984375 
L 37.109375 68.5 
L 28.515625 68.5 
Q 23.6875 68.5 21.796875 66.546875 
Q 19.921875 64.59375 19.921875 59.515625 
L 19.921875 54.6875 
L 34.71875 54.6875 
L 34.71875 47.703125 
L 19.921875 47.703125 
L 19.921875 0 
L 10.890625 0 
L 10.890625 47.703125 
L 2.296875 47.703125 
L 2.296875 54.6875 
L 10.890625 54.6875 
L 10.890625 58.5 
Q 10.890625 67.625 15.140625 71.796875 
Q 19.390625 75.984375 28.609375 75.984375 
z
" id="DejaVuSans-102"/>
       <path d="M 56.203125 29.59375 
L 56.203125 25.203125 
L 14.890625 25.203125 
Q 15.484375 15.921875 20.484375 11.0625 
Q 25.484375 6.203125 34.421875 6.203125 
Q 39.59375 6.203125 44.453125 7.46875 
Q 49.3125 8.734375 54.109375 11.28125 
L 54.109375 2.78125 
Q 49.265625 0.734375 44.1875 -0.34375 
Q 39.109375 -1.421875 33.890625 -1.421875 
Q 20.796875 -1.421875 13.15625 6.1875 
Q 5.515625 13.8125 5.515625 26.8125 
Q 5.515625 40.234375 12.765625 48.109375 
Q 20.015625 56 32.328125 56 
Q 43.359375 56 49.78125 48.890625 
Q 56.203125 41.796875 56.203125 29.59375 
z
M 47.21875 32.234375 
Q 47.125 39.59375 43.09375 43.984375 
Q 39.0625 48.390625 32.421875 48.390625 
Q 24.90625 48.390625 20.390625 44.140625 
Q 15.875 39.890625 15.1875 32.171875 
z
" id="DejaVuSans-101"/>
       <path d="M 54.890625 33.015625 
L 54.890625 0 
L 45.90625 0 
L 45.90625 32.71875 
Q 45.90625 40.484375 42.875 44.328125 
Q 39.84375 48.1875 33.796875 48.1875 
Q 26.515625 48.1875 22.3125 43.546875 
Q 18.109375 38.921875 18.109375 30.90625 
L 18.109375 0 
L 9.078125 0 
L 9.078125 54.6875 
L 18.109375 54.6875 
L 18.109375 46.1875 
Q 21.34375 51.125 25.703125 53.5625 
Q 30.078125 56 35.796875 56 
Q 45.21875 56 50.046875 50.171875 
Q 54.890625 44.34375 54.890625 33.015625 
z
" id="DejaVuSans-110"/>
       <path d="M 44.28125 53.078125 
L 44.28125 44.578125 
Q 40.484375 46.53125 36.375 47.5 
Q 32.28125 48.484375 27.875 48.484375 
Q 21.1875 48.484375 17.84375 46.4375 
Q 14.5 44.390625 14.5 40.28125 
Q 14.5 37.15625 16.890625 35.375 
Q 19.28125 33.59375 26.515625 31.984375 
L 29.59375 31.296875 
Q 39.15625 29.25 43.1875 25.515625 
Q 47.21875 21.78125 47.21875 15.09375 
Q 47.21875 7.46875 41.1875 3.015625 
Q 35.15625 -1.421875 24.609375 -1.421875 
Q 20.21875 -1.421875 15.453125 -0.5625 
Q 10.6875 0.296875 5.421875 2 
L 5.421875 11.28125 
Q 10.40625 8.6875 15.234375 7.390625 
Q 20.0625 6.109375 24.8125 6.109375 
Q 31.15625 6.109375 34.5625 8.28125 
Q 37.984375 10.453125 37.984375 14.40625 
Q 37.984375 18.0625 35.515625 20.015625 
Q 33.0625 21.96875 24.703125 23.78125 
L 21.578125 24.515625 
Q 13.234375 26.265625 9.515625 29.90625 
Q 5.8125 33.546875 5.8125 39.890625 
Q 5.8125 47.609375 11.28125 51.796875 
Q 16.75 56 26.8125 56 
Q 31.78125 56 36.171875 55.265625 
Q 40.578125 54.546875 44.28125 53.078125 
z
" id="DejaVuSans-115"/>
      </defs>
      <use xlink:href="#DejaVuSans-68"/>
      <use x="77.001953" xlink:href="#DejaVuSans-105"/>
      <use x="104.785156" xlink:href="#DejaVuSans-102"/>
      <use x="139.990234" xlink:href="#DejaVuSans-102"/>
      <use x="175.195312" xlink:href="#DejaVuSans-68"/>
      <use x="252.197266" xlink:href="#DejaVuSans-101"/>
      <use x="313.720703" xlink:href="#DejaVuSans-110"/>
      <use x="377.099609" xlink:href="#DejaVuSans-115"/>
     </g>
    </g>
   </g>
   <g id="line2d_14">
    <path clip-path="url(#pbb42af7411)" d="M 54 155.874124 
L 57.381818 156.190971 
L 60.763636 156.507818 
L 64.145455 156.824665 
L 67.527273 157.141513 
L 70.909091 157.45836 
L 74.290909 157.775207 
L 77.672727 158.092054 
L 81.054545 158.408902 
L 84.436364 158.725749 
L 87.818182 159.042596 
L 91.2 159.359444 
L 94.581818 159.676291 
L 97.963636 159.993138 
L 101.345455 160.309985 
L 104.727273 160.626833 
L 108.109091 160.94368 
L 111.490909 161.260527 
L 114.872727 161.577374 
L 118.254545 161.894222 
L 121.636364 162.211069 
L 125.018182 162.527916 
L 128.4 162.844763 
L 131.781818 163.161611 
L 135.163636 163.478458 
L 138.545455 163.795305 
L 141.927273 164.112153 
L 145.309091 164.429 
L 148.690909 164.745847 
L 152.072727 165.062694 
L 155.454545 165.379542 
L 158.836364 165.696389 
L 162.218182 166.013236 
L 165.6 166.330083 
L 168.981818 166.646931 
L 172.363636 166.963778 
L 175.745455 167.280625 
L 179.127273 167.597472 
L 182.509091 167.91432 
L 185.890909 168.231167 
L 189.272727 168.548014 
L 192.654545 168.864862 
L 196.036364 169.181709 
L 199.418182 169.498556 
L 202.8 169.815403 
L 206.181818 170.132251 
L 209.563636 170.449098 
L 212.945455 170.765945 
L 216.327273 171.082792 
L 219.709091 171.39964 
L 223.090909 171.716487 
L 226.472727 172.033334 
L 229.854545 172.350181 
L 233.236364 172.667029 
L 236.618182 172.983876 
L 240 173.300723 
L 243.381818 173.617571 
L 246.763636 173.934418 
L 250.145455 174.251265 
L 253.527273 174.568112 
L 256.909091 174.88496 
L 260.290909 175.201807 
L 263.672727 175.518654 
L 267.054545 175.835501 
L 270.436364 176.152349 
L 273.818182 176.469196 
L 277.2 176.786043 
L 280.581818 177.10289 
L 283.963636 177.419738 
L 287.345455 177.736585 
L 290.727273 178.053432 
L 294.109091 178.37028 
L 297.490909 178.687127 
L 300.872727 179.003974 
L 304.254545 179.320821 
L 307.636364 179.637669 
L 311.018182 179.954516 
L 314.4 180.271363 
L 317.781818 180.58821 
L 321.163636 180.905058 
L 324.545455 181.221905 
L 327.927273 181.538752 
L 331.309091 181.855599 
L 334.690909 182.172447 
L 338.072727 182.489294 
L 341.454545 182.806141 
L 344.836364 183.122989 
L 348.218182 183.439836 
L 351.6 183.756683 
L 354.981818 184.07353 
L 358.363636 184.390378 
L 361.745455 184.707225 
L 365.127273 185.024072 
L 368.509091 185.340919 
L 371.890909 185.657767 
L 375.272727 185.974614 
L 378.654545 186.291461 
L 382.036364 186.608308 
L 385.418182 186.925156 
L 388.8 187.242003 
" style="fill:none;stroke:#c33543;stroke-linecap:square;stroke-width:2.25;"/>
   </g>
   <g id="patch_3">
    <path d="M 54 252 
L 54 34.56 
" style="fill:none;stroke:#000000;stroke-linecap:square;stroke-linejoin:miter;stroke-width:0.8;"/>
   </g>
   <g id="patch_4">
    <path d="M 388.8 252 
L 388.8 34.56 
" style="fill:none;stroke:#000000;stroke-linecap:square;stroke-linejoin:miter;stroke-width:0.8;"/>
   </g>
   <g id="patch_5">
    <path d="M 54 252 
L 388.8 252 
" style="fill:none;stroke:#000000;stroke-linecap:square;stroke-linejoin:miter;stroke-width:0.8;"/>
   </g>
   <g id="patch_6">
    <path d="M 54 34.56 
L 388.8 34.56 
" style="fill:none;stroke:#000000;stroke-linecap:square;stroke-linejoin:miter;stroke-width:0.8;"/>
   </g>
  </g>
 </g>
 <defs>
  <clipPath id="pbb42af7411">
   <rect height="217.44" width="334.8" x="54" y="34.56"/>
  </clipPath>
 </defs>
</svg>
