<?xml version="1.0" encoding="utf-8" standalone="no"?>
<!DOCTYPE svg PUBLIC "-//W3C//DTD SVG 1.1//EN"
  "http://www.w3.org/Graphics/SVG/1.1/DTD/svg11.dtd">
<!-- Created with matplotlib (https://matplotlib.org/) -->
<svg height="288pt" version="1.1" viewBox="0 0 432 288" width="432pt" xmlns="http://www.w3.org/2000/svg" xmlns:xlink="http://www.w3.org/1999/xlink">
 <metadata>
  <rdf:RDF xmlns:cc="http://creativecommons.org/ns#" xmlns:dc="http://purl.org/dc/elements/1.1/" xmlns:rdf="http://www.w3.org/1999/02/22-rdf-syntax-ns#">
   <cc:Work>
    <dc:type rdf:resource="http://purl.org/dc/dcmitype/StillImage"/>
    <dc:date>2021-04-15T19:50:34.605611</dc:date>
    <dc:format>image/svg+xml</dc:format>
    <dc:creator>
     <cc:Agent>
      <dc:title>Matplotlib v3.3.2, https://matplotlib.org/</dc:title>
     </cc:Agent>
    </dc:creator>
   </cc:Work>
  </rdf:RDF>
 </metadata>
 <defs>
  <style type="text/css">*{stroke-linecap:butt;stroke-linejoin:round;}</style>
 </defs>
 <g id="figure_1">
  <g id="patch_1">
   <path d="M 0 288 
L 432 288 
L 432 0 
L 0 0 
z
" style="fill:none;"/>
  </g>
  <g id="axes_1">
   <g id="patch_2">
    <path d="M 54 252 
L 388.8 252 
L 388.8 34.56 
L 54 34.56 
z
" style="fill:#ffffff;"/>
   </g>
   <g id="PathCollection_1">
    <defs>
     <path d="M 0 3 
C 0.795609 3 1.55874 2.683901 2.12132 2.12132 
C 2.683901 1.55874 3 0.795609 3 0 
C 3 -0.795609 2.683901 -1.55874 2.12132 -2.12132 
C 1.55874 -2.683901 0.795609 -3 0 -3 
C -0.795609 -3 -1.55874 -2.683901 -2.12132 -2.12132 
C -2.683901 -1.55874 -3 -0.795609 -3 0 
C -3 0.795609 -2.683901 1.55874 -2.12132 2.12132 
C -1.55874 2.683901 -0.795609 3 0 3 
z
" id="m4bf246e0cb" style="stroke:#c33543;stroke-opacity:0.8;"/>
    </defs>
    <g clip-path="url(#p6f7dbfbb53)">
     <use style="fill:#c33543;fill-opacity:0.8;stroke:#c33543;stroke-opacity:0.8;" x="179.118257" xlink:href="#m4bf246e0cb" y="71.756425"/>
     <use style="fill:#c33543;fill-opacity:0.8;stroke:#c33543;stroke-opacity:0.8;" x="388.8" xlink:href="#m4bf246e0cb" y="132.738911"/>
     <use style="fill:#c33543;fill-opacity:0.8;stroke:#c33543;stroke-opacity:0.8;" x="197.954053" xlink:href="#m4bf246e0cb" y="132.738911"/>
     <use style="fill:#c33543;fill-opacity:0.8;stroke:#c33543;stroke-opacity:0.8;" x="91.40545" xlink:href="#m4bf246e0cb" y="132.738911"/>
     <use style="fill:#c33543;fill-opacity:0.8;stroke:#c33543;stroke-opacity:0.8;" x="261.69192" xlink:href="#m4bf246e0cb" y="132.738911"/>
     <use style="fill:#c33543;fill-opacity:0.8;stroke:#c33543;stroke-opacity:0.8;" x="142.775853" xlink:href="#m4bf246e0cb" y="132.738911"/>
     <use style="fill:#c33543;fill-opacity:0.8;stroke:#c33543;stroke-opacity:0.8;" x="137.069858" xlink:href="#m4bf246e0cb" y="132.738911"/>
     <use style="fill:#c33543;fill-opacity:0.8;stroke:#c33543;stroke-opacity:0.8;" x="283.620168" xlink:href="#m4bf246e0cb" y="132.738911"/>
     <use style="fill:#c33543;fill-opacity:0.8;stroke:#c33543;stroke-opacity:0.8;" x="153.488592" xlink:href="#m4bf246e0cb" y="132.738911"/>
     <use style="fill:#c33543;fill-opacity:0.8;stroke:#c33543;stroke-opacity:0.8;" x="146.397361" xlink:href="#m4bf246e0cb" y="132.738911"/>
     <use style="fill:#c33543;fill-opacity:0.8;stroke:#c33543;stroke-opacity:0.8;" x="166.637482" xlink:href="#m4bf246e0cb" y="132.738911"/>
     <use style="fill:#c33543;fill-opacity:0.8;stroke:#c33543;stroke-opacity:0.8;" x="218.851329" xlink:href="#m4bf246e0cb" y="242.116364"/>
     <use style="fill:#c33543;fill-opacity:0.8;stroke:#c33543;stroke-opacity:0.8;" x="167.026257" xlink:href="#m4bf246e0cb" y="132.738911"/>
     <use style="fill:#c33543;fill-opacity:0.8;stroke:#c33543;stroke-opacity:0.8;" x="208.075096" xlink:href="#m4bf246e0cb" y="132.738911"/>
     <use style="fill:#c33543;fill-opacity:0.8;stroke:#c33543;stroke-opacity:0.8;" x="297.962107" xlink:href="#m4bf246e0cb" y="196.662606"/>
     <use style="fill:#c33543;fill-opacity:0.8;stroke:#c33543;stroke-opacity:0.8;" x="93.93622" xlink:href="#m4bf246e0cb" y="132.738911"/>
     <use style="fill:#c33543;fill-opacity:0.8;stroke:#c33543;stroke-opacity:0.8;" x="276.707555" xlink:href="#m4bf246e0cb" y="132.738911"/>
     <use style="fill:#c33543;fill-opacity:0.8;stroke:#c33543;stroke-opacity:0.8;" x="193.926665" xlink:href="#m4bf246e0cb" y="132.738911"/>
     <use style="fill:#c33543;fill-opacity:0.8;stroke:#c33543;stroke-opacity:0.8;" x="159.193434" xlink:href="#m4bf246e0cb" y="132.738911"/>
     <use style="fill:#c33543;fill-opacity:0.8;stroke:#c33543;stroke-opacity:0.8;" x="168.219993" xlink:href="#m4bf246e0cb" y="132.738911"/>
     <use style="fill:#c33543;fill-opacity:0.8;stroke:#c33543;stroke-opacity:0.8;" x="363.466059" xlink:href="#m4bf246e0cb" y="44.443636"/>
     <use style="fill:#c33543;fill-opacity:0.8;stroke:#c33543;stroke-opacity:0.8;" x="54" xlink:href="#m4bf246e0cb" y="132.738911"/>
     <use style="fill:#c33543;fill-opacity:0.8;stroke:#c33543;stroke-opacity:0.8;" x="133.623919" xlink:href="#m4bf246e0cb" y="132.738911"/>
     <use style="fill:#c33543;fill-opacity:0.8;stroke:#c33543;stroke-opacity:0.8;" x="179.543296" xlink:href="#m4bf246e0cb" y="132.738911"/>
    </g>
   </g>
   <g id="PolyCollection_1">
    <path clip-path="url(#p6f7dbfbb53)" d="M 54 112.546529 
L 54 160.239422 
L 57.381818 159.409507 
L 60.763636 158.693236 
L 64.145455 158.307054 
L 67.527273 157.667801 
L 70.909091 157.023225 
L 74.290909 156.378649 
L 77.672727 155.734073 
L 81.054545 155.089496 
L 84.436364 154.332986 
L 87.818182 153.608417 
L 91.2 153.005217 
L 94.581818 152.171354 
L 97.963636 151.639458 
L 101.345455 151.106037 
L 104.727273 150.572581 
L 108.109091 150.044645 
L 111.490909 149.532467 
L 114.872727 148.98382 
L 118.254545 148.556631 
L 121.636364 148.188588 
L 125.018182 147.969502 
L 128.4 147.324264 
L 131.781818 147.178809 
L 135.163636 146.930007 
L 138.545455 146.499725 
L 141.927273 146.175159 
L 145.309091 145.87747 
L 148.690909 145.934295 
L 152.072727 145.9331 
L 155.454545 145.763007 
L 158.836364 145.665031 
L 162.218182 145.530996 
L 165.6 145.500941 
L 168.981818 145.589312 
L 172.363636 145.902835 
L 175.745455 146.235746 
L 179.127273 146.689042 
L 182.509091 146.833252 
L 185.890909 147.450166 
L 189.272727 148.048456 
L 192.654545 148.394986 
L 196.036364 149.002683 
L 199.418182 149.718461 
L 202.8 150.298336 
L 206.181818 150.832146 
L 209.563636 151.329298 
L 212.945455 151.84841 
L 216.327273 152.372164 
L 219.709091 152.974846 
L 223.090909 153.788345 
L 226.472727 154.230844 
L 229.854545 154.61287 
L 233.236364 155.000209 
L 236.618182 155.464415 
L 240 156.112775 
L 243.381818 156.934233 
L 246.763636 157.71873 
L 250.145455 158.563918 
L 253.527273 159.40121 
L 256.909091 160.227762 
L 260.290909 161.009329 
L 263.672727 161.835634 
L 267.054545 162.66194 
L 270.436364 163.488245 
L 273.818182 164.313629 
L 277.2 165.039223 
L 280.581818 165.759225 
L 283.963636 166.449063 
L 287.345455 167.058963 
L 290.727273 167.668864 
L 294.109091 168.278764 
L 297.490909 168.888665 
L 300.872727 169.498565 
L 304.254545 170.108466 
L 307.636364 170.715599 
L 311.018182 171.320495 
L 314.4 171.925392 
L 317.781818 172.530288 
L 321.163636 173.280003 
L 324.545455 174.031971 
L 327.927273 174.789661 
L 331.309091 175.54735 
L 334.690909 176.30504 
L 338.072727 177.062729 
L 341.454545 177.820418 
L 344.836364 178.578108 
L 348.218182 179.335797 
L 351.6 180.093487 
L 354.981818 180.851176 
L 358.363636 181.608865 
L 361.745455 182.366555 
L 365.127273 183.12241 
L 368.509091 183.877789 
L 371.890909 184.633168 
L 375.272727 185.388546 
L 378.654545 186.143925 
L 382.036364 186.899303 
L 385.418182 187.654682 
L 388.8 188.41006 
L 388.8 79.416831 
L 388.8 79.416831 
L 385.418182 80.114335 
L 382.036364 80.811838 
L 378.654545 81.509341 
L 375.272727 82.206844 
L 371.890909 82.904347 
L 368.509091 83.60185 
L 365.127273 84.299354 
L 361.745455 84.996857 
L 358.363636 85.699502 
L 354.981818 86.403092 
L 351.6 87.106682 
L 348.218182 87.810272 
L 344.836364 88.513862 
L 341.454545 89.352451 
L 338.072727 90.310423 
L 334.690909 91.128967 
L 331.309091 91.723547 
L 327.927273 92.318128 
L 324.545455 92.912708 
L 321.163636 93.508904 
L 317.781818 94.39365 
L 314.4 95.333844 
L 311.018182 96.280241 
L 307.636364 97.296967 
L 304.254545 98.440067 
L 300.872727 99.583167 
L 297.490909 100.407704 
L 294.109091 101.185622 
L 290.727273 101.949167 
L 287.345455 102.734767 
L 283.963636 103.505527 
L 280.581818 104.264159 
L 277.2 104.983715 
L 273.818182 105.695336 
L 270.436364 106.405821 
L 267.054545 107.156907 
L 263.672727 107.819064 
L 260.290909 108.59858 
L 256.909091 109.319416 
L 253.527273 110.040253 
L 250.145455 110.725267 
L 246.763636 111.347107 
L 243.381818 112.047102 
L 240 112.640929 
L 236.618182 113.104055 
L 233.236364 114.074501 
L 229.854545 114.869648 
L 226.472727 115.408857 
L 223.090909 116.176032 
L 219.709091 116.817186 
L 216.327273 117.541949 
L 212.945455 118.409421 
L 209.563636 119.10844 
L 206.181818 119.552633 
L 202.8 120.047352 
L 199.418182 120.747529 
L 196.036364 121.2837 
L 192.654545 121.714203 
L 189.272727 122.178662 
L 185.890909 122.589243 
L 182.509091 122.99838 
L 179.127273 123.678302 
L 175.745455 124.214998 
L 172.363636 124.456482 
L 168.981818 124.712773 
L 165.6 124.892392 
L 162.218182 125.059383 
L 158.836364 125.15212 
L 155.454545 125.22042 
L 152.072727 125.384623 
L 148.690909 125.254601 
L 145.309091 125.180258 
L 141.927273 125.004204 
L 138.545455 124.995721 
L 135.163636 124.645854 
L 131.781818 124.454203 
L 128.4 123.984749 
L 125.018182 123.514937 
L 121.636364 123.163016 
L 118.254545 122.857322 
L 114.872727 122.579215 
L 111.490909 122.101165 
L 108.109091 121.717599 
L 104.727273 121.157984 
L 101.345455 120.606903 
L 97.963636 120.203582 
L 94.581818 119.731103 
L 91.2 119.237775 
L 87.818182 118.627032 
L 84.436364 118.057207 
L 81.054545 117.327166 
L 77.672727 116.671797 
L 74.290909 115.957197 
L 70.909091 115.24671 
L 67.527273 114.727354 
L 64.145455 114.207998 
L 60.763636 113.688643 
L 57.381818 113.169287 
L 54 112.546529 
z
" style="fill:#c33543;fill-opacity:0.15;"/>
   </g>
   <g id="matplotlib.axis_1">
    <g id="xtick_1">
     <g id="line2d_1">
      <defs>
       <path d="M 0 0 
L 0 3.5 
" id="md2f9f1a64c" style="stroke:#000000;stroke-width:0.8;"/>
      </defs>
      <g>
       <use style="stroke:#000000;stroke-width:0.8;" x="64.89458" xlink:href="#md2f9f1a64c" y="252"/>
      </g>
     </g>
     <g id="text_1">
      <!-- 50.0 -->
      <g transform="translate(53.761768 266.598437)scale(0.1 -0.1)">
       <defs>
        <path d="M 10.796875 72.90625 
L 49.515625 72.90625 
L 49.515625 64.59375 
L 19.828125 64.59375 
L 19.828125 46.734375 
Q 21.96875 47.46875 24.109375 47.828125 
Q 26.265625 48.1875 28.421875 48.1875 
Q 40.625 48.1875 47.75 41.5 
Q 54.890625 34.8125 54.890625 23.390625 
Q 54.890625 11.625 47.5625 5.09375 
Q 40.234375 -1.421875 26.90625 -1.421875 
Q 22.3125 -1.421875 17.546875 -0.640625 
Q 12.796875 0.140625 7.71875 1.703125 
L 7.71875 11.625 
Q 12.109375 9.234375 16.796875 8.0625 
Q 21.484375 6.890625 26.703125 6.890625 
Q 35.15625 6.890625 40.078125 11.328125 
Q 45.015625 15.765625 45.015625 23.390625 
Q 45.015625 31 40.078125 35.4375 
Q 35.15625 39.890625 26.703125 39.890625 
Q 22.75 39.890625 18.8125 39.015625 
Q 14.890625 38.140625 10.796875 36.28125 
z
" id="DejaVuSans-53"/>
        <path d="M 31.78125 66.40625 
Q 24.171875 66.40625 20.328125 58.90625 
Q 16.5 51.421875 16.5 36.375 
Q 16.5 21.390625 20.328125 13.890625 
Q 24.171875 6.390625 31.78125 6.390625 
Q 39.453125 6.390625 43.28125 13.890625 
Q 47.125 21.390625 47.125 36.375 
Q 47.125 51.421875 43.28125 58.90625 
Q 39.453125 66.40625 31.78125 66.40625 
z
M 31.78125 74.21875 
Q 44.046875 74.21875 50.515625 64.515625 
Q 56.984375 54.828125 56.984375 36.375 
Q 56.984375 17.96875 50.515625 8.265625 
Q 44.046875 -1.421875 31.78125 -1.421875 
Q 19.53125 -1.421875 13.0625 8.265625 
Q 6.59375 17.96875 6.59375 36.375 
Q 6.59375 54.828125 13.0625 64.515625 
Q 19.53125 74.21875 31.78125 74.21875 
z
" id="DejaVuSans-48"/>
        <path d="M 10.6875 12.40625 
L 21 12.40625 
L 21 0 
L 10.6875 0 
z
" id="DejaVuSans-46"/>
       </defs>
       <use xlink:href="#DejaVuSans-53"/>
       <use x="63.623047" xlink:href="#DejaVuSans-48"/>
       <use x="127.246094" xlink:href="#DejaVuSans-46"/>
       <use x="159.033203" xlink:href="#DejaVuSans-48"/>
      </g>
     </g>
    </g>
    <g id="xtick_2">
     <g id="line2d_2">
      <g>
       <use style="stroke:#000000;stroke-width:0.8;" x="108.796581" xlink:href="#md2f9f1a64c" y="252"/>
      </g>
     </g>
     <g id="text_2">
      <!-- 52.5 -->
      <g transform="translate(97.663769 266.598437)scale(0.1 -0.1)">
       <defs>
        <path d="M 19.1875 8.296875 
L 53.609375 8.296875 
L 53.609375 0 
L 7.328125 0 
L 7.328125 8.296875 
Q 12.9375 14.109375 22.625 23.890625 
Q 32.328125 33.6875 34.8125 36.53125 
Q 39.546875 41.84375 41.421875 45.53125 
Q 43.3125 49.21875 43.3125 52.78125 
Q 43.3125 58.59375 39.234375 62.25 
Q 35.15625 65.921875 28.609375 65.921875 
Q 23.96875 65.921875 18.8125 64.3125 
Q 13.671875 62.703125 7.8125 59.421875 
L 7.8125 69.390625 
Q 13.765625 71.78125 18.9375 73 
Q 24.125 74.21875 28.421875 74.21875 
Q 39.75 74.21875 46.484375 68.546875 
Q 53.21875 62.890625 53.21875 53.421875 
Q 53.21875 48.921875 51.53125 44.890625 
Q 49.859375 40.875 45.40625 35.40625 
Q 44.1875 33.984375 37.640625 27.21875 
Q 31.109375 20.453125 19.1875 8.296875 
z
" id="DejaVuSans-50"/>
       </defs>
       <use xlink:href="#DejaVuSans-53"/>
       <use x="63.623047" xlink:href="#DejaVuSans-50"/>
       <use x="127.246094" xlink:href="#DejaVuSans-46"/>
       <use x="159.033203" xlink:href="#DejaVuSans-53"/>
      </g>
     </g>
    </g>
    <g id="xtick_3">
     <g id="line2d_3">
      <g>
       <use style="stroke:#000000;stroke-width:0.8;" x="152.698582" xlink:href="#md2f9f1a64c" y="252"/>
      </g>
     </g>
     <g id="text_3">
      <!-- 55.0 -->
      <g transform="translate(141.565769 266.598437)scale(0.1 -0.1)">
       <use xlink:href="#DejaVuSans-53"/>
       <use x="63.623047" xlink:href="#DejaVuSans-53"/>
       <use x="127.246094" xlink:href="#DejaVuSans-46"/>
       <use x="159.033203" xlink:href="#DejaVuSans-48"/>
      </g>
     </g>
    </g>
    <g id="xtick_4">
     <g id="line2d_4">
      <g>
       <use style="stroke:#000000;stroke-width:0.8;" x="196.600583" xlink:href="#md2f9f1a64c" y="252"/>
      </g>
     </g>
     <g id="text_4">
      <!-- 57.5 -->
      <g transform="translate(185.46777 266.598437)scale(0.1 -0.1)">
       <defs>
        <path d="M 8.203125 72.90625 
L 55.078125 72.90625 
L 55.078125 68.703125 
L 28.609375 0 
L 18.3125 0 
L 43.21875 64.59375 
L 8.203125 64.59375 
z
" id="DejaVuSans-55"/>
       </defs>
       <use xlink:href="#DejaVuSans-53"/>
       <use x="63.623047" xlink:href="#DejaVuSans-55"/>
       <use x="127.246094" xlink:href="#DejaVuSans-46"/>
       <use x="159.033203" xlink:href="#DejaVuSans-53"/>
      </g>
     </g>
    </g>
    <g id="xtick_5">
     <g id="line2d_5">
      <g>
       <use style="stroke:#000000;stroke-width:0.8;" x="240.502583" xlink:href="#md2f9f1a64c" y="252"/>
      </g>
     </g>
     <g id="text_5">
      <!-- 60.0 -->
      <g transform="translate(229.369771 266.598437)scale(0.1 -0.1)">
       <defs>
        <path d="M 33.015625 40.375 
Q 26.375 40.375 22.484375 35.828125 
Q 18.609375 31.296875 18.609375 23.390625 
Q 18.609375 15.53125 22.484375 10.953125 
Q 26.375 6.390625 33.015625 6.390625 
Q 39.65625 6.390625 43.53125 10.953125 
Q 47.40625 15.53125 47.40625 23.390625 
Q 47.40625 31.296875 43.53125 35.828125 
Q 39.65625 40.375 33.015625 40.375 
z
M 52.59375 71.296875 
L 52.59375 62.3125 
Q 48.875 64.0625 45.09375 64.984375 
Q 41.3125 65.921875 37.59375 65.921875 
Q 27.828125 65.921875 22.671875 59.328125 
Q 17.53125 52.734375 16.796875 39.40625 
Q 19.671875 43.65625 24.015625 45.921875 
Q 28.375 48.1875 33.59375 48.1875 
Q 44.578125 48.1875 50.953125 41.515625 
Q 57.328125 34.859375 57.328125 23.390625 
Q 57.328125 12.15625 50.6875 5.359375 
Q 44.046875 -1.421875 33.015625 -1.421875 
Q 20.359375 -1.421875 13.671875 8.265625 
Q 6.984375 17.96875 6.984375 36.375 
Q 6.984375 53.65625 15.1875 63.9375 
Q 23.390625 74.21875 37.203125 74.21875 
Q 40.921875 74.21875 44.703125 73.484375 
Q 48.484375 72.75 52.59375 71.296875 
z
" id="DejaVuSans-54"/>
       </defs>
       <use xlink:href="#DejaVuSans-54"/>
       <use x="63.623047" xlink:href="#DejaVuSans-48"/>
       <use x="127.246094" xlink:href="#DejaVuSans-46"/>
       <use x="159.033203" xlink:href="#DejaVuSans-48"/>
      </g>
     </g>
    </g>
    <g id="xtick_6">
     <g id="line2d_6">
      <g>
       <use style="stroke:#000000;stroke-width:0.8;" x="284.404584" xlink:href="#md2f9f1a64c" y="252"/>
      </g>
     </g>
     <g id="text_6">
      <!-- 62.5 -->
      <g transform="translate(273.271772 266.598437)scale(0.1 -0.1)">
       <use xlink:href="#DejaVuSans-54"/>
       <use x="63.623047" xlink:href="#DejaVuSans-50"/>
       <use x="127.246094" xlink:href="#DejaVuSans-46"/>
       <use x="159.033203" xlink:href="#DejaVuSans-53"/>
      </g>
     </g>
    </g>
    <g id="xtick_7">
     <g id="line2d_7">
      <g>
       <use style="stroke:#000000;stroke-width:0.8;" x="328.306585" xlink:href="#md2f9f1a64c" y="252"/>
      </g>
     </g>
     <g id="text_7">
      <!-- 65.0 -->
      <g transform="translate(317.173772 266.598437)scale(0.1 -0.1)">
       <use xlink:href="#DejaVuSans-54"/>
       <use x="63.623047" xlink:href="#DejaVuSans-53"/>
       <use x="127.246094" xlink:href="#DejaVuSans-46"/>
       <use x="159.033203" xlink:href="#DejaVuSans-48"/>
      </g>
     </g>
    </g>
    <g id="xtick_8">
     <g id="line2d_8">
      <g>
       <use style="stroke:#000000;stroke-width:0.8;" x="372.208586" xlink:href="#md2f9f1a64c" y="252"/>
      </g>
     </g>
     <g id="text_8">
      <!-- 67.5 -->
      <g transform="translate(361.075773 266.598437)scale(0.1 -0.1)">
       <use xlink:href="#DejaVuSans-54"/>
       <use x="63.623047" xlink:href="#DejaVuSans-55"/>
       <use x="127.246094" xlink:href="#DejaVuSans-46"/>
       <use x="159.033203" xlink:href="#DejaVuSans-53"/>
      </g>
     </g>
    </g>
    <g id="text_9">
     <!-- GC -->
     <g transform="translate(214.034375 280.276563)scale(0.1 -0.1)">
      <defs>
       <path d="M 59.515625 10.40625 
L 59.515625 29.984375 
L 43.40625 29.984375 
L 43.40625 38.09375 
L 69.28125 38.09375 
L 69.28125 6.78125 
Q 63.578125 2.734375 56.6875 0.65625 
Q 49.8125 -1.421875 42 -1.421875 
Q 24.90625 -1.421875 15.25 8.5625 
Q 5.609375 18.5625 5.609375 36.375 
Q 5.609375 54.25 15.25 64.234375 
Q 24.90625 74.21875 42 74.21875 
Q 49.125 74.21875 55.546875 72.453125 
Q 61.96875 70.703125 67.390625 67.28125 
L 67.390625 56.78125 
Q 61.921875 61.421875 55.765625 63.765625 
Q 49.609375 66.109375 42.828125 66.109375 
Q 29.4375 66.109375 22.71875 58.640625 
Q 16.015625 51.171875 16.015625 36.375 
Q 16.015625 21.625 22.71875 14.15625 
Q 29.4375 6.6875 42.828125 6.6875 
Q 48.046875 6.6875 52.140625 7.59375 
Q 56.25 8.5 59.515625 10.40625 
z
" id="DejaVuSans-71"/>
       <path d="M 64.40625 67.28125 
L 64.40625 56.890625 
Q 59.421875 61.53125 53.78125 63.8125 
Q 48.140625 66.109375 41.796875 66.109375 
Q 29.296875 66.109375 22.65625 58.46875 
Q 16.015625 50.828125 16.015625 36.375 
Q 16.015625 21.96875 22.65625 14.328125 
Q 29.296875 6.6875 41.796875 6.6875 
Q 48.140625 6.6875 53.78125 8.984375 
Q 59.421875 11.28125 64.40625 15.921875 
L 64.40625 5.609375 
Q 59.234375 2.09375 53.4375 0.328125 
Q 47.65625 -1.421875 41.21875 -1.421875 
Q 24.65625 -1.421875 15.125 8.703125 
Q 5.609375 18.84375 5.609375 36.375 
Q 5.609375 53.953125 15.125 64.078125 
Q 24.65625 74.21875 41.21875 74.21875 
Q 47.75 74.21875 53.53125 72.484375 
Q 59.328125 70.75 64.40625 67.28125 
z
" id="DejaVuSans-67"/>
      </defs>
      <use xlink:href="#DejaVuSans-71"/>
      <use x="77.490234" xlink:href="#DejaVuSans-67"/>
     </g>
    </g>
   </g>
   <g id="matplotlib.axis_2">
    <g id="ytick_1">
     <g id="line2d_9">
      <defs>
       <path d="M 0 0 
L -3.5 0 
" id="mcc05394d29" style="stroke:#000000;stroke-width:0.8;"/>
      </defs>
      <g>
       <use style="stroke:#000000;stroke-width:0.8;" x="54" xlink:href="#mcc05394d29" y="243.275765"/>
      </g>
     </g>
     <g id="text_10">
      <!-- −0.3 -->
      <g transform="translate(22.717187 247.074983)scale(0.1 -0.1)">
       <defs>
        <path d="M 10.59375 35.5 
L 73.1875 35.5 
L 73.1875 27.203125 
L 10.59375 27.203125 
z
" id="DejaVuSans-8722"/>
        <path d="M 40.578125 39.3125 
Q 47.65625 37.796875 51.625 33 
Q 55.609375 28.21875 55.609375 21.1875 
Q 55.609375 10.40625 48.1875 4.484375 
Q 40.765625 -1.421875 27.09375 -1.421875 
Q 22.515625 -1.421875 17.65625 -0.515625 
Q 12.796875 0.390625 7.625 2.203125 
L 7.625 11.71875 
Q 11.71875 9.328125 16.59375 8.109375 
Q 21.484375 6.890625 26.8125 6.890625 
Q 36.078125 6.890625 40.9375 10.546875 
Q 45.796875 14.203125 45.796875 21.1875 
Q 45.796875 27.640625 41.28125 31.265625 
Q 36.765625 34.90625 28.71875 34.90625 
L 20.21875 34.90625 
L 20.21875 43.015625 
L 29.109375 43.015625 
Q 36.375 43.015625 40.234375 45.921875 
Q 44.09375 48.828125 44.09375 54.296875 
Q 44.09375 59.90625 40.109375 62.90625 
Q 36.140625 65.921875 28.71875 65.921875 
Q 24.65625 65.921875 20.015625 65.03125 
Q 15.375 64.15625 9.8125 62.3125 
L 9.8125 71.09375 
Q 15.4375 72.65625 20.34375 73.4375 
Q 25.25 74.21875 29.59375 74.21875 
Q 40.828125 74.21875 47.359375 69.109375 
Q 53.90625 64.015625 53.90625 55.328125 
Q 53.90625 49.265625 50.4375 45.09375 
Q 46.96875 40.921875 40.578125 39.3125 
z
" id="DejaVuSans-51"/>
       </defs>
       <use xlink:href="#DejaVuSans-8722"/>
       <use x="83.789062" xlink:href="#DejaVuSans-48"/>
       <use x="147.412109" xlink:href="#DejaVuSans-46"/>
       <use x="179.199219" xlink:href="#DejaVuSans-51"/>
      </g>
     </g>
    </g>
    <g id="ytick_2">
     <g id="line2d_10">
      <g>
       <use style="stroke:#000000;stroke-width:0.8;" x="54" xlink:href="#mcc05394d29" y="206.430147"/>
      </g>
     </g>
     <g id="text_11">
      <!-- −0.2 -->
      <g transform="translate(22.717187 210.229365)scale(0.1 -0.1)">
       <use xlink:href="#DejaVuSans-8722"/>
       <use x="83.789062" xlink:href="#DejaVuSans-48"/>
       <use x="147.412109" xlink:href="#DejaVuSans-46"/>
       <use x="179.199219" xlink:href="#DejaVuSans-50"/>
      </g>
     </g>
    </g>
    <g id="ytick_3">
     <g id="line2d_11">
      <g>
       <use style="stroke:#000000;stroke-width:0.8;" x="54" xlink:href="#mcc05394d29" y="169.584529"/>
      </g>
     </g>
     <g id="text_12">
      <!-- −0.1 -->
      <g transform="translate(22.717187 173.383747)scale(0.1 -0.1)">
       <defs>
        <path d="M 12.40625 8.296875 
L 28.515625 8.296875 
L 28.515625 63.921875 
L 10.984375 60.40625 
L 10.984375 69.390625 
L 28.421875 72.90625 
L 38.28125 72.90625 
L 38.28125 8.296875 
L 54.390625 8.296875 
L 54.390625 0 
L 12.40625 0 
z
" id="DejaVuSans-49"/>
       </defs>
       <use xlink:href="#DejaVuSans-8722"/>
       <use x="83.789062" xlink:href="#DejaVuSans-48"/>
       <use x="147.412109" xlink:href="#DejaVuSans-46"/>
       <use x="179.199219" xlink:href="#DejaVuSans-49"/>
      </g>
     </g>
    </g>
    <g id="ytick_4">
     <g id="line2d_12">
      <g>
       <use style="stroke:#000000;stroke-width:0.8;" x="54" xlink:href="#mcc05394d29" y="132.738911"/>
      </g>
     </g>
     <g id="text_13">
      <!-- 0.0 -->
      <g transform="translate(31.096875 136.538129)scale(0.1 -0.1)">
       <use xlink:href="#DejaVuSans-48"/>
       <use x="63.623047" xlink:href="#DejaVuSans-46"/>
       <use x="95.410156" xlink:href="#DejaVuSans-48"/>
      </g>
     </g>
    </g>
    <g id="ytick_5">
     <g id="line2d_13">
      <g>
       <use style="stroke:#000000;stroke-width:0.8;" x="54" xlink:href="#mcc05394d29" y="95.893293"/>
      </g>
     </g>
     <g id="text_14">
      <!-- 0.1 -->
      <g transform="translate(31.096875 99.692511)scale(0.1 -0.1)">
       <use xlink:href="#DejaVuSans-48"/>
       <use x="63.623047" xlink:href="#DejaVuSans-46"/>
       <use x="95.410156" xlink:href="#DejaVuSans-49"/>
      </g>
     </g>
    </g>
    <g id="ytick_6">
     <g id="line2d_14">
      <g>
       <use style="stroke:#000000;stroke-width:0.8;" x="54" xlink:href="#mcc05394d29" y="59.047675"/>
      </g>
     </g>
     <g id="text_15">
      <!-- 0.2 -->
      <g transform="translate(31.096875 62.846893)scale(0.1 -0.1)">
       <use xlink:href="#DejaVuSans-48"/>
       <use x="63.623047" xlink:href="#DejaVuSans-46"/>
       <use x="95.410156" xlink:href="#DejaVuSans-50"/>
      </g>
     </g>
    </g>
    <g id="text_16">
     <!-- DiffDens -->
     <g transform="translate(16.6375 164.739375)rotate(-90)scale(0.1 -0.1)">
      <defs>
       <path d="M 19.671875 64.796875 
L 19.671875 8.109375 
L 31.59375 8.109375 
Q 46.6875 8.109375 53.6875 14.9375 
Q 60.6875 21.78125 60.6875 36.53125 
Q 60.6875 51.171875 53.6875 57.984375 
Q 46.6875 64.796875 31.59375 64.796875 
z
M 9.8125 72.90625 
L 30.078125 72.90625 
Q 51.265625 72.90625 61.171875 64.09375 
Q 71.09375 55.28125 71.09375 36.53125 
Q 71.09375 17.671875 61.125 8.828125 
Q 51.171875 0 30.078125 0 
L 9.8125 0 
z
" id="DejaVuSans-68"/>
       <path d="M 9.421875 54.6875 
L 18.40625 54.6875 
L 18.40625 0 
L 9.421875 0 
z
M 9.421875 75.984375 
L 18.40625 75.984375 
L 18.40625 64.59375 
L 9.421875 64.59375 
z
" id="DejaVuSans-105"/>
       <path d="M 37.109375 75.984375 
L 37.109375 68.5 
L 28.515625 68.5 
Q 23.6875 68.5 21.796875 66.546875 
Q 19.921875 64.59375 19.921875 59.515625 
L 19.921875 54.6875 
L 34.71875 54.6875 
L 34.71875 47.703125 
L 19.921875 47.703125 
L 19.921875 0 
L 10.890625 0 
L 10.890625 47.703125 
L 2.296875 47.703125 
L 2.296875 54.6875 
L 10.890625 54.6875 
L 10.890625 58.5 
Q 10.890625 67.625 15.140625 71.796875 
Q 19.390625 75.984375 28.609375 75.984375 
z
" id="DejaVuSans-102"/>
       <path d="M 56.203125 29.59375 
L 56.203125 25.203125 
L 14.890625 25.203125 
Q 15.484375 15.921875 20.484375 11.0625 
Q 25.484375 6.203125 34.421875 6.203125 
Q 39.59375 6.203125 44.453125 7.46875 
Q 49.3125 8.734375 54.109375 11.28125 
L 54.109375 2.78125 
Q 49.265625 0.734375 44.1875 -0.34375 
Q 39.109375 -1.421875 33.890625 -1.421875 
Q 20.796875 -1.421875 13.15625 6.1875 
Q 5.515625 13.8125 5.515625 26.8125 
Q 5.515625 40.234375 12.765625 48.109375 
Q 20.015625 56 32.328125 56 
Q 43.359375 56 49.78125 48.890625 
Q 56.203125 41.796875 56.203125 29.59375 
z
M 47.21875 32.234375 
Q 47.125 39.59375 43.09375 43.984375 
Q 39.0625 48.390625 32.421875 48.390625 
Q 24.90625 48.390625 20.390625 44.140625 
Q 15.875 39.890625 15.1875 32.171875 
z
" id="DejaVuSans-101"/>
       <path d="M 54.890625 33.015625 
L 54.890625 0 
L 45.90625 0 
L 45.90625 32.71875 
Q 45.90625 40.484375 42.875 44.328125 
Q 39.84375 48.1875 33.796875 48.1875 
Q 26.515625 48.1875 22.3125 43.546875 
Q 18.109375 38.921875 18.109375 30.90625 
L 18.109375 0 
L 9.078125 0 
L 9.078125 54.6875 
L 18.109375 54.6875 
L 18.109375 46.1875 
Q 21.34375 51.125 25.703125 53.5625 
Q 30.078125 56 35.796875 56 
Q 45.21875 56 50.046875 50.171875 
Q 54.890625 44.34375 54.890625 33.015625 
z
" id="DejaVuSans-110"/>
       <path d="M 44.28125 53.078125 
L 44.28125 44.578125 
Q 40.484375 46.53125 36.375 47.5 
Q 32.28125 48.484375 27.875 48.484375 
Q 21.1875 48.484375 17.84375 46.4375 
Q 14.5 44.390625 14.5 40.28125 
Q 14.5 37.15625 16.890625 35.375 
Q 19.28125 33.59375 26.515625 31.984375 
L 29.59375 31.296875 
Q 39.15625 29.25 43.1875 25.515625 
Q 47.21875 21.78125 47.21875 15.09375 
Q 47.21875 7.46875 41.1875 3.015625 
Q 35.15625 -1.421875 24.609375 -1.421875 
Q 20.21875 -1.421875 15.453125 -0.5625 
Q 10.6875 0.296875 5.421875 2 
L 5.421875 11.28125 
Q 10.40625 8.6875 15.234375 7.390625 
Q 20.0625 6.109375 24.8125 6.109375 
Q 31.15625 6.109375 34.5625 8.28125 
Q 37.984375 10.453125 37.984375 14.40625 
Q 37.984375 18.0625 35.515625 20.015625 
Q 33.0625 21.96875 24.703125 23.78125 
L 21.578125 24.515625 
Q 13.234375 26.265625 9.515625 29.90625 
Q 5.8125 33.546875 5.8125 39.890625 
Q 5.8125 47.609375 11.28125 51.796875 
Q 16.75 56 26.8125 56 
Q 31.78125 56 36.171875 55.265625 
Q 40.578125 54.546875 44.28125 53.078125 
z
" id="DejaVuSans-115"/>
      </defs>
      <use xlink:href="#DejaVuSans-68"/>
      <use x="77.001953" xlink:href="#DejaVuSans-105"/>
      <use x="104.785156" xlink:href="#DejaVuSans-102"/>
      <use x="139.990234" xlink:href="#DejaVuSans-102"/>
      <use x="175.195312" xlink:href="#DejaVuSans-68"/>
      <use x="252.197266" xlink:href="#DejaVuSans-101"/>
      <use x="313.720703" xlink:href="#DejaVuSans-110"/>
      <use x="377.099609" xlink:href="#DejaVuSans-115"/>
     </g>
    </g>
   </g>
   <g id="line2d_15">
    <path clip-path="url(#p6f7dbfbb53)" d="M 54 137.991158 
L 57.381818 137.888693 
L 60.763636 137.786229 
L 64.145455 137.683764 
L 67.527273 137.5813 
L 70.909091 137.478835 
L 74.290909 137.37637 
L 77.672727 137.273906 
L 81.054545 137.171441 
L 84.436364 137.068976 
L 87.818182 136.966512 
L 91.2 136.864047 
L 94.581818 136.761582 
L 97.963636 136.659118 
L 101.345455 136.556653 
L 104.727273 136.454188 
L 108.109091 136.351724 
L 111.490909 136.249259 
L 114.872727 136.146794 
L 118.254545 136.04433 
L 121.636364 135.941865 
L 125.018182 135.839401 
L 128.4 135.736936 
L 131.781818 135.634471 
L 135.163636 135.532007 
L 138.545455 135.429542 
L 141.927273 135.327077 
L 145.309091 135.224613 
L 148.690909 135.122148 
L 152.072727 135.019683 
L 155.454545 134.917219 
L 158.836364 134.814754 
L 162.218182 134.712289 
L 165.6 134.609825 
L 168.981818 134.50736 
L 172.363636 134.404895 
L 175.745455 134.302431 
L 179.127273 134.199966 
L 182.509091 134.097502 
L 185.890909 133.995037 
L 189.272727 133.892572 
L 192.654545 133.790108 
L 196.036364 133.687643 
L 199.418182 133.585178 
L 202.8 133.482714 
L 206.181818 133.380249 
L 209.563636 133.277784 
L 212.945455 133.17532 
L 216.327273 133.072855 
L 219.709091 132.97039 
L 223.090909 132.867926 
L 226.472727 132.765461 
L 229.854545 132.662996 
L 233.236364 132.560532 
L 236.618182 132.458067 
L 240 132.355603 
L 243.381818 132.253138 
L 246.763636 132.150673 
L 250.145455 132.048209 
L 253.527273 131.945744 
L 256.909091 131.843279 
L 260.290909 131.740815 
L 263.672727 131.63835 
L 267.054545 131.535885 
L 270.436364 131.433421 
L 273.818182 131.330956 
L 277.2 131.228491 
L 280.581818 131.126027 
L 283.963636 131.023562 
L 287.345455 130.921097 
L 290.727273 130.818633 
L 294.109091 130.716168 
L 297.490909 130.613704 
L 300.872727 130.511239 
L 304.254545 130.408774 
L 307.636364 130.30631 
L 311.018182 130.203845 
L 314.4 130.10138 
L 317.781818 129.998916 
L 321.163636 129.896451 
L 324.545455 129.793986 
L 327.927273 129.691522 
L 331.309091 129.589057 
L 334.690909 129.486592 
L 338.072727 129.384128 
L 341.454545 129.281663 
L 344.836364 129.179199 
L 348.218182 129.076734 
L 351.6 128.974269 
L 354.981818 128.871805 
L 358.363636 128.76934 
L 361.745455 128.666875 
L 365.127273 128.564411 
L 368.509091 128.461946 
L 371.890909 128.359481 
L 375.272727 128.257017 
L 378.654545 128.154552 
L 382.036364 128.052087 
L 385.418182 127.949623 
L 388.8 127.847158 
" style="fill:none;stroke:#c33543;stroke-linecap:square;stroke-width:2.25;"/>
   </g>
   <g id="patch_3">
    <path d="M 54 252 
L 54 34.56 
" style="fill:none;stroke:#000000;stroke-linecap:square;stroke-linejoin:miter;stroke-width:0.8;"/>
   </g>
   <g id="patch_4">
    <path d="M 388.8 252 
L 388.8 34.56 
" style="fill:none;stroke:#000000;stroke-linecap:square;stroke-linejoin:miter;stroke-width:0.8;"/>
   </g>
   <g id="patch_5">
    <path d="M 54 252 
L 388.8 252 
" style="fill:none;stroke:#000000;stroke-linecap:square;stroke-linejoin:miter;stroke-width:0.8;"/>
   </g>
   <g id="patch_6">
    <path d="M 54 34.56 
L 388.8 34.56 
" style="fill:none;stroke:#000000;stroke-linecap:square;stroke-linejoin:miter;stroke-width:0.8;"/>
   </g>
  </g>
 </g>
 <defs>
  <clipPath id="p6f7dbfbb53">
   <rect height="217.44" width="334.8" x="54" y="34.56"/>
  </clipPath>
 </defs>
</svg>
