<?xml version="1.0" encoding="utf-8" standalone="no"?>
<!DOCTYPE svg PUBLIC "-//W3C//DTD SVG 1.1//EN"
  "http://www.w3.org/Graphics/SVG/1.1/DTD/svg11.dtd">
<!-- Created with matplotlib (https://matplotlib.org/) -->
<svg height="288pt" version="1.1" viewBox="0 0 432 288" width="432pt" xmlns="http://www.w3.org/2000/svg" xmlns:xlink="http://www.w3.org/1999/xlink">
 <metadata>
  <rdf:RDF xmlns:cc="http://creativecommons.org/ns#" xmlns:dc="http://purl.org/dc/elements/1.1/" xmlns:rdf="http://www.w3.org/1999/02/22-rdf-syntax-ns#">
   <cc:Work>
    <dc:type rdf:resource="http://purl.org/dc/dcmitype/StillImage"/>
    <dc:date>2021-04-15T19:50:39.789735</dc:date>
    <dc:format>image/svg+xml</dc:format>
    <dc:creator>
     <cc:Agent>
      <dc:title>Matplotlib v3.3.2, https://matplotlib.org/</dc:title>
     </cc:Agent>
    </dc:creator>
   </cc:Work>
  </rdf:RDF>
 </metadata>
 <defs>
  <style type="text/css">*{stroke-linecap:butt;stroke-linejoin:round;}</style>
 </defs>
 <g id="figure_1">
  <g id="patch_1">
   <path d="M 0 288 
L 432 288 
L 432 0 
L 0 0 
z
" style="fill:none;"/>
  </g>
  <g id="axes_1">
   <g id="patch_2">
    <path d="M 54 252 
L 388.8 252 
L 388.8 34.56 
L 54 34.56 
z
" style="fill:#ffffff;"/>
   </g>
   <g id="PathCollection_1">
    <defs>
     <path d="M 0 3 
C 0.795609 3 1.55874 2.683901 2.12132 2.12132 
C 2.683901 1.55874 3 0.795609 3 0 
C 3 -0.795609 2.683901 -1.55874 2.12132 -2.12132 
C 1.55874 -2.683901 0.795609 -3 0 -3 
C -0.795609 -3 -1.55874 -2.683901 -2.12132 -2.12132 
C -2.683901 -1.55874 -3 -0.795609 -3 0 
C -3 0.795609 -2.683901 1.55874 -2.12132 2.12132 
C -1.55874 2.683901 -0.795609 3 0 3 
z
" id="meee2da5b43" style="stroke:#c33543;stroke-opacity:0.8;"/>
    </defs>
    <g clip-path="url(#pdbe24fa75c)">
     <use style="fill:#c33543;fill-opacity:0.8;stroke:#c33543;stroke-opacity:0.8;" x="159.562632" xlink:href="#meee2da5b43" y="116.939772"/>
     <use style="fill:#c33543;fill-opacity:0.8;stroke:#c33543;stroke-opacity:0.8;" x="54" xlink:href="#meee2da5b43" y="96.328491"/>
     <use style="fill:#c33543;fill-opacity:0.8;stroke:#c33543;stroke-opacity:0.8;" x="219.060451" xlink:href="#meee2da5b43" y="115.629837"/>
     <use style="fill:#c33543;fill-opacity:0.8;stroke:#c33543;stroke-opacity:0.8;" x="67.941476" xlink:href="#meee2da5b43" y="105.588904"/>
     <use style="fill:#c33543;fill-opacity:0.8;stroke:#c33543;stroke-opacity:0.8;" x="124.348812" xlink:href="#meee2da5b43" y="112.088878"/>
     <use style="fill:#c33543;fill-opacity:0.8;stroke:#c33543;stroke-opacity:0.8;" x="388.8" xlink:href="#meee2da5b43" y="242.116364"/>
     <use style="fill:#c33543;fill-opacity:0.8;stroke:#c33543;stroke-opacity:0.8;" x="228.343385" xlink:href="#meee2da5b43" y="125.155533"/>
     <use style="fill:#c33543;fill-opacity:0.8;stroke:#c33543;stroke-opacity:0.8;" x="230.538569" xlink:href="#meee2da5b43" y="105.588904"/>
    </g>
   </g>
   <g id="PolyCollection_1">
    <path clip-path="url(#pdbe24fa75c)" d="M 54 44.443636 
L 54 110.367717 
L 57.381818 110.368848 
L 60.763636 110.404039 
L 64.145455 110.560896 
L 67.527273 110.717753 
L 70.909091 110.87461 
L 74.290909 111.031467 
L 77.672727 111.03401 
L 81.054545 110.996521 
L 84.436364 110.996141 
L 87.818182 111.153173 
L 91.2 111.42964 
L 94.581818 111.577275 
L 97.963636 112.132422 
L 101.345455 112.550098 
L 104.727273 113.540586 
L 108.109091 113.837237 
L 111.490909 114.29837 
L 114.872727 115.386647 
L 118.254545 116.411663 
L 121.636364 117.720732 
L 125.018182 118.988125 
L 128.4 120.287258 
L 131.781818 121.447494 
L 135.163636 122.846567 
L 138.545455 124.071384 
L 141.927273 125.443901 
L 145.309091 126.886865 
L 148.690909 128.310798 
L 152.072727 129.635911 
L 155.454545 131.034445 
L 158.836364 132.486873 
L 162.218182 133.939301 
L 165.6 135.391729 
L 168.981818 136.844158 
L 172.363636 138.358272 
L 175.745455 139.88092 
L 179.127273 141.324704 
L 182.509091 142.768488 
L 185.890909 144.212271 
L 189.272727 145.632796 
L 192.654545 147.011155 
L 196.036364 148.463584 
L 199.418182 149.934276 
L 202.8 151.431191 
L 206.181818 152.874975 
L 209.563636 154.318758 
L 212.945455 155.762542 
L 216.327273 157.206326 
L 219.709091 158.65011 
L 223.090909 160.093894 
L 226.472727 161.537678 
L 229.854545 162.981626 
L 233.236364 164.425631 
L 236.618182 165.877782 
L 240 167.347337 
L 243.381818 168.801743 
L 246.763636 170.302575 
L 250.145455 171.795039 
L 253.527273 173.217869 
L 256.909091 174.654731 
L 260.290909 176.070348 
L 263.672727 177.51485 
L 267.054545 178.968026 
L 270.436364 180.422748 
L 273.818182 181.875043 
L 277.2 183.32662 
L 280.581818 184.778198 
L 283.963636 186.204311 
L 287.345455 187.683512 
L 290.727273 189.243745 
L 294.109091 190.787569 
L 297.490909 192.331394 
L 300.872727 193.875218 
L 304.254545 195.419042 
L 307.636364 196.962867 
L 311.018182 198.506691 
L 314.4 200.050515 
L 317.781818 201.594339 
L 321.163636 203.135026 
L 324.545455 204.66569 
L 327.927273 206.195644 
L 331.309091 207.588995 
L 334.690909 208.982346 
L 338.072727 210.61428 
L 341.454545 212.250375 
L 344.836364 213.886471 
L 348.218182 215.523662 
L 351.6 217.162137 
L 354.981818 218.800612 
L 358.363636 220.439087 
L 361.745455 221.99748 
L 365.127273 223.659436 
L 368.509091 225.271674 
L 371.890909 226.993756 
L 375.272727 228.870317 
L 378.654545 230.694988 
L 382.036364 232.619969 
L 385.418182 234.365106 
L 388.8 235.926851 
L 388.8 114.410997 
L 388.8 114.410997 
L 385.418182 114.322671 
L 382.036364 114.234345 
L 378.654545 114.146019 
L 375.272727 114.057693 
L 371.890909 113.969367 
L 368.509091 113.881041 
L 365.127273 113.792714 
L 361.745455 113.705296 
L 358.363636 113.616086 
L 354.981818 113.527736 
L 351.6 113.43941 
L 348.218182 113.351084 
L 344.836364 113.262758 
L 341.454545 113.174431 
L 338.072727 113.086223 
L 334.690909 113.097978 
L 331.309091 113.119061 
L 327.927273 113.111037 
L 324.545455 112.999053 
L 321.163636 112.969925 
L 317.781818 113.030816 
L 314.4 113.113451 
L 311.018182 113.196087 
L 307.636364 113.266643 
L 304.254545 113.287726 
L 300.872727 113.308809 
L 297.490909 113.329893 
L 294.109091 113.350976 
L 290.727273 113.374129 
L 287.345455 113.256838 
L 283.963636 113.106844 
L 280.581818 112.95685 
L 277.2 112.806856 
L 273.818182 112.786345 
L 270.436364 112.629329 
L 267.054545 112.443303 
L 263.672727 112.378364 
L 260.290909 112.406587 
L 256.909091 112.366892 
L 253.527273 112.285538 
L 250.145455 112.086914 
L 246.763636 111.889872 
L 243.381818 111.722396 
L 240 111.628534 
L 236.618182 111.468779 
L 233.236364 111.441994 
L 229.854545 111.27159 
L 226.472727 111.026638 
L 223.090909 110.793872 
L 219.709091 110.662266 
L 216.327273 110.429066 
L 212.945455 110.322869 
L 209.563636 110.241212 
L 206.181818 110.050891 
L 202.8 109.874575 
L 199.418182 109.703409 
L 196.036364 109.454351 
L 192.654545 109.14128 
L 189.272727 108.767003 
L 185.890909 108.322175 
L 182.509091 108.113094 
L 179.127273 107.540574 
L 175.745455 106.644655 
L 172.363636 105.58364 
L 168.981818 104.056309 
L 165.6 102.361702 
L 162.218182 100.663092 
L 158.836364 98.967653 
L 155.454545 97.311683 
L 152.072727 95.570273 
L 148.690909 93.870717 
L 145.309091 91.898114 
L 141.927273 90.175242 
L 138.545455 88.454995 
L 135.163636 86.734748 
L 131.781818 85.014501 
L 128.4 83.294254 
L 125.018182 81.574007 
L 121.636364 79.819704 
L 118.254545 77.899054 
L 114.872727 75.978577 
L 111.490909 74.250873 
L 108.109091 72.557099 
L 104.727273 70.863325 
L 101.345455 69.079386 
L 97.963636 67.187053 
L 94.581818 65.377392 
L 91.2 63.615708 
L 87.818182 61.856787 
L 84.436364 60.097865 
L 81.054545 58.338944 
L 77.672727 56.580023 
L 74.290909 54.821102 
L 70.909091 53.086686 
L 67.527273 51.358076 
L 64.145455 49.629466 
L 60.763636 47.900856 
L 57.381818 46.172246 
L 54 44.443636 
z
" style="fill:#c33543;fill-opacity:0.15;"/>
   </g>
   <g id="matplotlib.axis_1">
    <g id="xtick_1">
     <g id="line2d_1">
      <defs>
       <path d="M 0 0 
L 0 3.5 
" id="m4005d0ff53" style="stroke:#000000;stroke-width:0.8;"/>
      </defs>
      <g>
       <use style="stroke:#000000;stroke-width:0.8;" x="91.590823" xlink:href="#m4005d0ff53" y="252"/>
      </g>
     </g>
     <g id="text_1">
      <!-- 35 -->
      <g transform="translate(85.228323 266.598437)scale(0.1 -0.1)">
       <defs>
        <path d="M 40.578125 39.3125 
Q 47.65625 37.796875 51.625 33 
Q 55.609375 28.21875 55.609375 21.1875 
Q 55.609375 10.40625 48.1875 4.484375 
Q 40.765625 -1.421875 27.09375 -1.421875 
Q 22.515625 -1.421875 17.65625 -0.515625 
Q 12.796875 0.390625 7.625 2.203125 
L 7.625 11.71875 
Q 11.71875 9.328125 16.59375 8.109375 
Q 21.484375 6.890625 26.8125 6.890625 
Q 36.078125 6.890625 40.9375 10.546875 
Q 45.796875 14.203125 45.796875 21.1875 
Q 45.796875 27.640625 41.28125 31.265625 
Q 36.765625 34.90625 28.71875 34.90625 
L 20.21875 34.90625 
L 20.21875 43.015625 
L 29.109375 43.015625 
Q 36.375 43.015625 40.234375 45.921875 
Q 44.09375 48.828125 44.09375 54.296875 
Q 44.09375 59.90625 40.109375 62.90625 
Q 36.140625 65.921875 28.71875 65.921875 
Q 24.65625 65.921875 20.015625 65.03125 
Q 15.375 64.15625 9.8125 62.3125 
L 9.8125 71.09375 
Q 15.4375 72.65625 20.34375 73.4375 
Q 25.25 74.21875 29.59375 74.21875 
Q 40.828125 74.21875 47.359375 69.109375 
Q 53.90625 64.015625 53.90625 55.328125 
Q 53.90625 49.265625 50.4375 45.09375 
Q 46.96875 40.921875 40.578125 39.3125 
z
" id="DejaVuSans-51"/>
        <path d="M 10.796875 72.90625 
L 49.515625 72.90625 
L 49.515625 64.59375 
L 19.828125 64.59375 
L 19.828125 46.734375 
Q 21.96875 47.46875 24.109375 47.828125 
Q 26.265625 48.1875 28.421875 48.1875 
Q 40.625 48.1875 47.75 41.5 
Q 54.890625 34.8125 54.890625 23.390625 
Q 54.890625 11.625 47.5625 5.09375 
Q 40.234375 -1.421875 26.90625 -1.421875 
Q 22.3125 -1.421875 17.546875 -0.640625 
Q 12.796875 0.140625 7.71875 1.703125 
L 7.71875 11.625 
Q 12.109375 9.234375 16.796875 8.0625 
Q 21.484375 6.890625 26.703125 6.890625 
Q 35.15625 6.890625 40.078125 11.328125 
Q 45.015625 15.765625 45.015625 23.390625 
Q 45.015625 31 40.078125 35.4375 
Q 35.15625 39.890625 26.703125 39.890625 
Q 22.75 39.890625 18.8125 39.015625 
Q 14.890625 38.140625 10.796875 36.28125 
z
" id="DejaVuSans-53"/>
       </defs>
       <use xlink:href="#DejaVuSans-51"/>
       <use x="63.623047" xlink:href="#DejaVuSans-53"/>
      </g>
     </g>
    </g>
    <g id="xtick_2">
     <g id="line2d_2">
      <g>
       <use style="stroke:#000000;stroke-width:0.8;" x="141.400722" xlink:href="#m4005d0ff53" y="252"/>
      </g>
     </g>
     <g id="text_2">
      <!-- 40 -->
      <g transform="translate(135.038222 266.598437)scale(0.1 -0.1)">
       <defs>
        <path d="M 37.796875 64.3125 
L 12.890625 25.390625 
L 37.796875 25.390625 
z
M 35.203125 72.90625 
L 47.609375 72.90625 
L 47.609375 25.390625 
L 58.015625 25.390625 
L 58.015625 17.1875 
L 47.609375 17.1875 
L 47.609375 0 
L 37.796875 0 
L 37.796875 17.1875 
L 4.890625 17.1875 
L 4.890625 26.703125 
z
" id="DejaVuSans-52"/>
        <path d="M 31.78125 66.40625 
Q 24.171875 66.40625 20.328125 58.90625 
Q 16.5 51.421875 16.5 36.375 
Q 16.5 21.390625 20.328125 13.890625 
Q 24.171875 6.390625 31.78125 6.390625 
Q 39.453125 6.390625 43.28125 13.890625 
Q 47.125 21.390625 47.125 36.375 
Q 47.125 51.421875 43.28125 58.90625 
Q 39.453125 66.40625 31.78125 66.40625 
z
M 31.78125 74.21875 
Q 44.046875 74.21875 50.515625 64.515625 
Q 56.984375 54.828125 56.984375 36.375 
Q 56.984375 17.96875 50.515625 8.265625 
Q 44.046875 -1.421875 31.78125 -1.421875 
Q 19.53125 -1.421875 13.0625 8.265625 
Q 6.59375 17.96875 6.59375 36.375 
Q 6.59375 54.828125 13.0625 64.515625 
Q 19.53125 74.21875 31.78125 74.21875 
z
" id="DejaVuSans-48"/>
       </defs>
       <use xlink:href="#DejaVuSans-52"/>
       <use x="63.623047" xlink:href="#DejaVuSans-48"/>
      </g>
     </g>
    </g>
    <g id="xtick_3">
     <g id="line2d_3">
      <g>
       <use style="stroke:#000000;stroke-width:0.8;" x="191.210621" xlink:href="#m4005d0ff53" y="252"/>
      </g>
     </g>
     <g id="text_3">
      <!-- 45 -->
      <g transform="translate(184.848121 266.598437)scale(0.1 -0.1)">
       <use xlink:href="#DejaVuSans-52"/>
       <use x="63.623047" xlink:href="#DejaVuSans-53"/>
      </g>
     </g>
    </g>
    <g id="xtick_4">
     <g id="line2d_4">
      <g>
       <use style="stroke:#000000;stroke-width:0.8;" x="241.02052" xlink:href="#m4005d0ff53" y="252"/>
      </g>
     </g>
     <g id="text_4">
      <!-- 50 -->
      <g transform="translate(234.65802 266.598437)scale(0.1 -0.1)">
       <use xlink:href="#DejaVuSans-53"/>
       <use x="63.623047" xlink:href="#DejaVuSans-48"/>
      </g>
     </g>
    </g>
    <g id="xtick_5">
     <g id="line2d_5">
      <g>
       <use style="stroke:#000000;stroke-width:0.8;" x="290.830419" xlink:href="#m4005d0ff53" y="252"/>
      </g>
     </g>
     <g id="text_5">
      <!-- 55 -->
      <g transform="translate(284.467919 266.598437)scale(0.1 -0.1)">
       <use xlink:href="#DejaVuSans-53"/>
       <use x="63.623047" xlink:href="#DejaVuSans-53"/>
      </g>
     </g>
    </g>
    <g id="xtick_6">
     <g id="line2d_6">
      <g>
       <use style="stroke:#000000;stroke-width:0.8;" x="340.640318" xlink:href="#m4005d0ff53" y="252"/>
      </g>
     </g>
     <g id="text_6">
      <!-- 60 -->
      <g transform="translate(334.277818 266.598437)scale(0.1 -0.1)">
       <defs>
        <path d="M 33.015625 40.375 
Q 26.375 40.375 22.484375 35.828125 
Q 18.609375 31.296875 18.609375 23.390625 
Q 18.609375 15.53125 22.484375 10.953125 
Q 26.375 6.390625 33.015625 6.390625 
Q 39.65625 6.390625 43.53125 10.953125 
Q 47.40625 15.53125 47.40625 23.390625 
Q 47.40625 31.296875 43.53125 35.828125 
Q 39.65625 40.375 33.015625 40.375 
z
M 52.59375 71.296875 
L 52.59375 62.3125 
Q 48.875 64.0625 45.09375 64.984375 
Q 41.3125 65.921875 37.59375 65.921875 
Q 27.828125 65.921875 22.671875 59.328125 
Q 17.53125 52.734375 16.796875 39.40625 
Q 19.671875 43.65625 24.015625 45.921875 
Q 28.375 48.1875 33.59375 48.1875 
Q 44.578125 48.1875 50.953125 41.515625 
Q 57.328125 34.859375 57.328125 23.390625 
Q 57.328125 12.15625 50.6875 5.359375 
Q 44.046875 -1.421875 33.015625 -1.421875 
Q 20.359375 -1.421875 13.671875 8.265625 
Q 6.984375 17.96875 6.984375 36.375 
Q 6.984375 53.65625 15.1875 63.9375 
Q 23.390625 74.21875 37.203125 74.21875 
Q 40.921875 74.21875 44.703125 73.484375 
Q 48.484375 72.75 52.59375 71.296875 
z
" id="DejaVuSans-54"/>
       </defs>
       <use xlink:href="#DejaVuSans-54"/>
       <use x="63.623047" xlink:href="#DejaVuSans-48"/>
      </g>
     </g>
    </g>
    <g id="text_7">
     <!-- GC -->
     <g transform="translate(214.034375 280.276563)scale(0.1 -0.1)">
      <defs>
       <path d="M 59.515625 10.40625 
L 59.515625 29.984375 
L 43.40625 29.984375 
L 43.40625 38.09375 
L 69.28125 38.09375 
L 69.28125 6.78125 
Q 63.578125 2.734375 56.6875 0.65625 
Q 49.8125 -1.421875 42 -1.421875 
Q 24.90625 -1.421875 15.25 8.5625 
Q 5.609375 18.5625 5.609375 36.375 
Q 5.609375 54.25 15.25 64.234375 
Q 24.90625 74.21875 42 74.21875 
Q 49.125 74.21875 55.546875 72.453125 
Q 61.96875 70.703125 67.390625 67.28125 
L 67.390625 56.78125 
Q 61.921875 61.421875 55.765625 63.765625 
Q 49.609375 66.109375 42.828125 66.109375 
Q 29.4375 66.109375 22.71875 58.640625 
Q 16.015625 51.171875 16.015625 36.375 
Q 16.015625 21.625 22.71875 14.15625 
Q 29.4375 6.6875 42.828125 6.6875 
Q 48.046875 6.6875 52.140625 7.59375 
Q 56.25 8.5 59.515625 10.40625 
z
" id="DejaVuSans-71"/>
       <path d="M 64.40625 67.28125 
L 64.40625 56.890625 
Q 59.421875 61.53125 53.78125 63.8125 
Q 48.140625 66.109375 41.796875 66.109375 
Q 29.296875 66.109375 22.65625 58.46875 
Q 16.015625 50.828125 16.015625 36.375 
Q 16.015625 21.96875 22.65625 14.328125 
Q 29.296875 6.6875 41.796875 6.6875 
Q 48.140625 6.6875 53.78125 8.984375 
Q 59.421875 11.28125 64.40625 15.921875 
L 64.40625 5.609375 
Q 59.234375 2.09375 53.4375 0.328125 
Q 47.65625 -1.421875 41.21875 -1.421875 
Q 24.65625 -1.421875 15.125 8.703125 
Q 5.609375 18.84375 5.609375 36.375 
Q 5.609375 53.953125 15.125 64.078125 
Q 24.65625 74.21875 41.21875 74.21875 
Q 47.75 74.21875 53.53125 72.484375 
Q 59.328125 70.75 64.40625 67.28125 
z
" id="DejaVuSans-67"/>
      </defs>
      <use xlink:href="#DejaVuSans-71"/>
      <use x="77.490234" xlink:href="#DejaVuSans-67"/>
     </g>
    </g>
   </g>
   <g id="matplotlib.axis_2">
    <g id="ytick_1">
     <g id="line2d_7">
      <defs>
       <path d="M 0 0 
L -3.5 0 
" id="m213f97a7c3" style="stroke:#000000;stroke-width:0.8;"/>
      </defs>
      <g>
       <use style="stroke:#000000;stroke-width:0.8;" x="54" xlink:href="#m213f97a7c3" y="243.433854"/>
      </g>
     </g>
     <g id="text_8">
      <!-- −0.6 -->
      <g transform="translate(22.717187 247.233072)scale(0.1 -0.1)">
       <defs>
        <path d="M 10.59375 35.5 
L 73.1875 35.5 
L 73.1875 27.203125 
L 10.59375 27.203125 
z
" id="DejaVuSans-8722"/>
        <path d="M 10.6875 12.40625 
L 21 12.40625 
L 21 0 
L 10.6875 0 
z
" id="DejaVuSans-46"/>
       </defs>
       <use xlink:href="#DejaVuSans-8722"/>
       <use x="83.789062" xlink:href="#DejaVuSans-48"/>
       <use x="147.412109" xlink:href="#DejaVuSans-46"/>
       <use x="179.199219" xlink:href="#DejaVuSans-54"/>
      </g>
     </g>
    </g>
    <g id="ytick_2">
     <g id="line2d_8">
      <g>
       <use style="stroke:#000000;stroke-width:0.8;" x="54" xlink:href="#m213f97a7c3" y="197.485537"/>
      </g>
     </g>
     <g id="text_9">
      <!-- −0.4 -->
      <g transform="translate(22.717187 201.284756)scale(0.1 -0.1)">
       <use xlink:href="#DejaVuSans-8722"/>
       <use x="83.789062" xlink:href="#DejaVuSans-48"/>
       <use x="147.412109" xlink:href="#DejaVuSans-46"/>
       <use x="179.199219" xlink:href="#DejaVuSans-52"/>
      </g>
     </g>
    </g>
    <g id="ytick_3">
     <g id="line2d_9">
      <g>
       <use style="stroke:#000000;stroke-width:0.8;" x="54" xlink:href="#m213f97a7c3" y="151.53722"/>
      </g>
     </g>
     <g id="text_10">
      <!-- −0.2 -->
      <g transform="translate(22.717187 155.336439)scale(0.1 -0.1)">
       <defs>
        <path d="M 19.1875 8.296875 
L 53.609375 8.296875 
L 53.609375 0 
L 7.328125 0 
L 7.328125 8.296875 
Q 12.9375 14.109375 22.625 23.890625 
Q 32.328125 33.6875 34.8125 36.53125 
Q 39.546875 41.84375 41.421875 45.53125 
Q 43.3125 49.21875 43.3125 52.78125 
Q 43.3125 58.59375 39.234375 62.25 
Q 35.15625 65.921875 28.609375 65.921875 
Q 23.96875 65.921875 18.8125 64.3125 
Q 13.671875 62.703125 7.8125 59.421875 
L 7.8125 69.390625 
Q 13.765625 71.78125 18.9375 73 
Q 24.125 74.21875 28.421875 74.21875 
Q 39.75 74.21875 46.484375 68.546875 
Q 53.21875 62.890625 53.21875 53.421875 
Q 53.21875 48.921875 51.53125 44.890625 
Q 49.859375 40.875 45.40625 35.40625 
Q 44.1875 33.984375 37.640625 27.21875 
Q 31.109375 20.453125 19.1875 8.296875 
z
" id="DejaVuSans-50"/>
       </defs>
       <use xlink:href="#DejaVuSans-8722"/>
       <use x="83.789062" xlink:href="#DejaVuSans-48"/>
       <use x="147.412109" xlink:href="#DejaVuSans-46"/>
       <use x="179.199219" xlink:href="#DejaVuSans-50"/>
      </g>
     </g>
    </g>
    <g id="ytick_4">
     <g id="line2d_10">
      <g>
       <use style="stroke:#000000;stroke-width:0.8;" x="54" xlink:href="#m213f97a7c3" y="105.588904"/>
      </g>
     </g>
     <g id="text_11">
      <!-- 0.0 -->
      <g transform="translate(31.096875 109.388122)scale(0.1 -0.1)">
       <use xlink:href="#DejaVuSans-48"/>
       <use x="63.623047" xlink:href="#DejaVuSans-46"/>
       <use x="95.410156" xlink:href="#DejaVuSans-48"/>
      </g>
     </g>
    </g>
    <g id="ytick_5">
     <g id="line2d_11">
      <g>
       <use style="stroke:#000000;stroke-width:0.8;" x="54" xlink:href="#m213f97a7c3" y="59.640587"/>
      </g>
     </g>
     <g id="text_12">
      <!-- 0.2 -->
      <g transform="translate(31.096875 63.439806)scale(0.1 -0.1)">
       <use xlink:href="#DejaVuSans-48"/>
       <use x="63.623047" xlink:href="#DejaVuSans-46"/>
       <use x="95.410156" xlink:href="#DejaVuSans-50"/>
      </g>
     </g>
    </g>
    <g id="text_13">
     <!-- DiffDens -->
     <g transform="translate(16.6375 164.739375)rotate(-90)scale(0.1 -0.1)">
      <defs>
       <path d="M 19.671875 64.796875 
L 19.671875 8.109375 
L 31.59375 8.109375 
Q 46.6875 8.109375 53.6875 14.9375 
Q 60.6875 21.78125 60.6875 36.53125 
Q 60.6875 51.171875 53.6875 57.984375 
Q 46.6875 64.796875 31.59375 64.796875 
z
M 9.8125 72.90625 
L 30.078125 72.90625 
Q 51.265625 72.90625 61.171875 64.09375 
Q 71.09375 55.28125 71.09375 36.53125 
Q 71.09375 17.671875 61.125 8.828125 
Q 51.171875 0 30.078125 0 
L 9.8125 0 
z
" id="DejaVuSans-68"/>
       <path d="M 9.421875 54.6875 
L 18.40625 54.6875 
L 18.40625 0 
L 9.421875 0 
z
M 9.421875 75.984375 
L 18.40625 75.984375 
L 18.40625 64.59375 
L 9.421875 64.59375 
z
" id="DejaVuSans-105"/>
       <path d="M 37.109375 75.984375 
L 37.109375 68.5 
L 28.515625 68.5 
Q 23.6875 68.5 21.796875 66.546875 
Q 19.921875 64.59375 19.921875 59.515625 
L 19.921875 54.6875 
L 34.71875 54.6875 
L 34.71875 47.703125 
L 19.921875 47.703125 
L 19.921875 0 
L 10.890625 0 
L 10.890625 47.703125 
L 2.296875 47.703125 
L 2.296875 54.6875 
L 10.890625 54.6875 
L 10.890625 58.5 
Q 10.890625 67.625 15.140625 71.796875 
Q 19.390625 75.984375 28.609375 75.984375 
z
" id="DejaVuSans-102"/>
       <path d="M 56.203125 29.59375 
L 56.203125 25.203125 
L 14.890625 25.203125 
Q 15.484375 15.921875 20.484375 11.0625 
Q 25.484375 6.203125 34.421875 6.203125 
Q 39.59375 6.203125 44.453125 7.46875 
Q 49.3125 8.734375 54.109375 11.28125 
L 54.109375 2.78125 
Q 49.265625 0.734375 44.1875 -0.34375 
Q 39.109375 -1.421875 33.890625 -1.421875 
Q 20.796875 -1.421875 13.15625 6.1875 
Q 5.515625 13.8125 5.515625 26.8125 
Q 5.515625 40.234375 12.765625 48.109375 
Q 20.015625 56 32.328125 56 
Q 43.359375 56 49.78125 48.890625 
Q 56.203125 41.796875 56.203125 29.59375 
z
M 47.21875 32.234375 
Q 47.125 39.59375 43.09375 43.984375 
Q 39.0625 48.390625 32.421875 48.390625 
Q 24.90625 48.390625 20.390625 44.140625 
Q 15.875 39.890625 15.1875 32.171875 
z
" id="DejaVuSans-101"/>
       <path d="M 54.890625 33.015625 
L 54.890625 0 
L 45.90625 0 
L 45.90625 32.71875 
Q 45.90625 40.484375 42.875 44.328125 
Q 39.84375 48.1875 33.796875 48.1875 
Q 26.515625 48.1875 22.3125 43.546875 
Q 18.109375 38.921875 18.109375 30.90625 
L 18.109375 0 
L 9.078125 0 
L 9.078125 54.6875 
L 18.109375 54.6875 
L 18.109375 46.1875 
Q 21.34375 51.125 25.703125 53.5625 
Q 30.078125 56 35.796875 56 
Q 45.21875 56 50.046875 50.171875 
Q 54.890625 44.34375 54.890625 33.015625 
z
" id="DejaVuSans-110"/>
       <path d="M 44.28125 53.078125 
L 44.28125 44.578125 
Q 40.484375 46.53125 36.375 47.5 
Q 32.28125 48.484375 27.875 48.484375 
Q 21.1875 48.484375 17.84375 46.4375 
Q 14.5 44.390625 14.5 40.28125 
Q 14.5 37.15625 16.890625 35.375 
Q 19.28125 33.59375 26.515625 31.984375 
L 29.59375 31.296875 
Q 39.15625 29.25 43.1875 25.515625 
Q 47.21875 21.78125 47.21875 15.09375 
Q 47.21875 7.46875 41.1875 3.015625 
Q 35.15625 -1.421875 24.609375 -1.421875 
Q 20.21875 -1.421875 15.453125 -0.5625 
Q 10.6875 0.296875 5.421875 2 
L 5.421875 11.28125 
Q 10.40625 8.6875 15.234375 7.390625 
Q 20.0625 6.109375 24.8125 6.109375 
Q 31.15625 6.109375 34.5625 8.28125 
Q 37.984375 10.453125 37.984375 14.40625 
Q 37.984375 18.0625 35.515625 20.015625 
Q 33.0625 21.96875 24.703125 23.78125 
L 21.578125 24.515625 
Q 13.234375 26.265625 9.515625 29.90625 
Q 5.8125 33.546875 5.8125 39.890625 
Q 5.8125 47.609375 11.28125 51.796875 
Q 16.75 56 26.8125 56 
Q 31.78125 56 36.171875 55.265625 
Q 40.578125 54.546875 44.28125 53.078125 
z
" id="DejaVuSans-115"/>
      </defs>
      <use xlink:href="#DejaVuSans-68"/>
      <use x="77.001953" xlink:href="#DejaVuSans-105"/>
      <use x="104.785156" xlink:href="#DejaVuSans-102"/>
      <use x="139.990234" xlink:href="#DejaVuSans-102"/>
      <use x="175.195312" xlink:href="#DejaVuSans-68"/>
      <use x="252.197266" xlink:href="#DejaVuSans-101"/>
      <use x="313.720703" xlink:href="#DejaVuSans-110"/>
      <use x="377.099609" xlink:href="#DejaVuSans-115"/>
     </g>
    </g>
   </g>
   <g id="line2d_12">
    <path clip-path="url(#pdbe24fa75c)" d="M 54 80.209133 
L 57.381818 81.436822 
L 60.763636 82.664512 
L 64.145455 83.892201 
L 67.527273 85.119891 
L 70.909091 86.34758 
L 74.290909 87.575269 
L 77.672727 88.802959 
L 81.054545 90.030648 
L 84.436364 91.258338 
L 87.818182 92.486027 
L 91.2 93.713717 
L 94.581818 94.941406 
L 97.963636 96.169095 
L 101.345455 97.396785 
L 104.727273 98.624474 
L 108.109091 99.852164 
L 111.490909 101.079853 
L 114.872727 102.307543 
L 118.254545 103.535232 
L 121.636364 104.762921 
L 125.018182 105.990611 
L 128.4 107.2183 
L 131.781818 108.44599 
L 135.163636 109.673679 
L 138.545455 110.901369 
L 141.927273 112.129058 
L 145.309091 113.356747 
L 148.690909 114.584437 
L 152.072727 115.812126 
L 155.454545 117.039816 
L 158.836364 118.267505 
L 162.218182 119.495195 
L 165.6 120.722884 
L 168.981818 121.950573 
L 172.363636 123.178263 
L 175.745455 124.405952 
L 179.127273 125.633642 
L 182.509091 126.861331 
L 185.890909 128.089021 
L 189.272727 129.31671 
L 192.654545 130.544399 
L 196.036364 131.772089 
L 199.418182 132.999778 
L 202.8 134.227468 
L 206.181818 135.455157 
L 209.563636 136.682847 
L 212.945455 137.910536 
L 216.327273 139.138225 
L 219.709091 140.365915 
L 223.090909 141.593604 
L 226.472727 142.821294 
L 229.854545 144.048983 
L 233.236364 145.276673 
L 236.618182 146.504362 
L 240 147.732051 
L 243.381818 148.959741 
L 246.763636 150.18743 
L 250.145455 151.41512 
L 253.527273 152.642809 
L 256.909091 153.870498 
L 260.290909 155.098188 
L 263.672727 156.325877 
L 267.054545 157.553567 
L 270.436364 158.781256 
L 273.818182 160.008946 
L 277.2 161.236635 
L 280.581818 162.464324 
L 283.963636 163.692014 
L 287.345455 164.919703 
L 290.727273 166.147393 
L 294.109091 167.375082 
L 297.490909 168.602772 
L 300.872727 169.830461 
L 304.254545 171.05815 
L 307.636364 172.28584 
L 311.018182 173.513529 
L 314.4 174.741219 
L 317.781818 175.968908 
L 321.163636 177.196598 
L 324.545455 178.424287 
L 327.927273 179.651976 
L 331.309091 180.879666 
L 334.690909 182.107355 
L 338.072727 183.335045 
L 341.454545 184.562734 
L 344.836364 185.790424 
L 348.218182 187.018113 
L 351.6 188.245802 
L 354.981818 189.473492 
L 358.363636 190.701181 
L 361.745455 191.928871 
L 365.127273 193.15656 
L 368.509091 194.38425 
L 371.890909 195.611939 
L 375.272727 196.839628 
L 378.654545 198.067318 
L 382.036364 199.295007 
L 385.418182 200.522697 
L 388.8 201.750386 
" style="fill:none;stroke:#c33543;stroke-linecap:square;stroke-width:2.25;"/>
   </g>
   <g id="patch_3">
    <path d="M 54 252 
L 54 34.56 
" style="fill:none;stroke:#000000;stroke-linecap:square;stroke-linejoin:miter;stroke-width:0.8;"/>
   </g>
   <g id="patch_4">
    <path d="M 388.8 252 
L 388.8 34.56 
" style="fill:none;stroke:#000000;stroke-linecap:square;stroke-linejoin:miter;stroke-width:0.8;"/>
   </g>
   <g id="patch_5">
    <path d="M 54 252 
L 388.8 252 
" style="fill:none;stroke:#000000;stroke-linecap:square;stroke-linejoin:miter;stroke-width:0.8;"/>
   </g>
   <g id="patch_6">
    <path d="M 54 34.56 
L 388.8 34.56 
" style="fill:none;stroke:#000000;stroke-linecap:square;stroke-linejoin:miter;stroke-width:0.8;"/>
   </g>
  </g>
 </g>
 <defs>
  <clipPath id="pdbe24fa75c">
   <rect height="217.44" width="334.8" x="54" y="34.56"/>
  </clipPath>
 </defs>
</svg>
