<?xml version="1.0" encoding="utf-8" standalone="no"?>
<!DOCTYPE svg PUBLIC "-//W3C//DTD SVG 1.1//EN"
  "http://www.w3.org/Graphics/SVG/1.1/DTD/svg11.dtd">
<!-- Created with matplotlib (https://matplotlib.org/) -->
<svg height="288pt" version="1.1" viewBox="0 0 432 288" width="432pt" xmlns="http://www.w3.org/2000/svg" xmlns:xlink="http://www.w3.org/1999/xlink">
 <metadata>
  <rdf:RDF xmlns:cc="http://creativecommons.org/ns#" xmlns:dc="http://purl.org/dc/elements/1.1/" xmlns:rdf="http://www.w3.org/1999/02/22-rdf-syntax-ns#">
   <cc:Work>
    <dc:type rdf:resource="http://purl.org/dc/dcmitype/StillImage"/>
    <dc:date>2021-04-15T19:49:13.085593</dc:date>
    <dc:format>image/svg+xml</dc:format>
    <dc:creator>
     <cc:Agent>
      <dc:title>Matplotlib v3.3.2, https://matplotlib.org/</dc:title>
     </cc:Agent>
    </dc:creator>
   </cc:Work>
  </rdf:RDF>
 </metadata>
 <defs>
  <style type="text/css">*{stroke-linecap:butt;stroke-linejoin:round;}</style>
 </defs>
 <g id="figure_1">
  <g id="patch_1">
   <path d="M 0 288 
L 432 288 
L 432 0 
L 0 0 
z
" style="fill:none;"/>
  </g>
  <g id="axes_1">
   <g id="patch_2">
    <path d="M 54 252 
L 388.8 252 
L 388.8 34.56 
L 54 34.56 
z
" style="fill:#ffffff;"/>
   </g>
   <g id="PathCollection_1">
    <defs>
     <path d="M 0 3 
C 0.795609 3 1.55874 2.683901 2.12132 2.12132 
C 2.683901 1.55874 3 0.795609 3 0 
C 3 -0.795609 2.683901 -1.55874 2.12132 -2.12132 
C 1.55874 -2.683901 0.795609 -3 0 -3 
C -0.795609 -3 -1.55874 -2.683901 -2.12132 -2.12132 
C -2.683901 -1.55874 -3 -0.795609 -3 0 
C -3 0.795609 -2.683901 1.55874 -2.12132 2.12132 
C -1.55874 2.683901 -0.795609 3 0 3 
z
" id="m7f64cb9df2" style="stroke:#c33543;stroke-opacity:0.8;"/>
    </defs>
    <g clip-path="url(#p8a3052b4cb)">
     <use style="fill:#c33543;fill-opacity:0.8;stroke:#c33543;stroke-opacity:0.8;" x="73.694118" xlink:href="#m7f64cb9df2" y="124.254385"/>
     <use style="fill:#c33543;fill-opacity:0.8;stroke:#c33543;stroke-opacity:0.8;" x="388.8" xlink:href="#m7f64cb9df2" y="121.958398"/>
     <use style="fill:#c33543;fill-opacity:0.8;stroke:#c33543;stroke-opacity:0.8;" x="73.694118" xlink:href="#m7f64cb9df2" y="121.146871"/>
     <use style="fill:#c33543;fill-opacity:0.8;stroke:#c33543;stroke-opacity:0.8;" x="73.694118" xlink:href="#m7f64cb9df2" y="148.561802"/>
     <use style="fill:#c33543;fill-opacity:0.8;stroke:#c33543;stroke-opacity:0.8;" x="60.564706" xlink:href="#m7f64cb9df2" y="96.773091"/>
     <use style="fill:#c33543;fill-opacity:0.8;stroke:#c33543;stroke-opacity:0.8;" x="73.694118" xlink:href="#m7f64cb9df2" y="144.717194"/>
     <use style="fill:#c33543;fill-opacity:0.8;stroke:#c33543;stroke-opacity:0.8;" x="73.694118" xlink:href="#m7f64cb9df2" y="125.827636"/>
     <use style="fill:#c33543;fill-opacity:0.8;stroke:#c33543;stroke-opacity:0.8;" x="191.858824" xlink:href="#m7f64cb9df2" y="98.733946"/>
     <use style="fill:#c33543;fill-opacity:0.8;stroke:#c33543;stroke-opacity:0.8;" x="73.694118" xlink:href="#m7f64cb9df2" y="132.391587"/>
     <use style="fill:#c33543;fill-opacity:0.8;stroke:#c33543;stroke-opacity:0.8;" x="73.694118" xlink:href="#m7f64cb9df2" y="108.164527"/>
     <use style="fill:#c33543;fill-opacity:0.8;stroke:#c33543;stroke-opacity:0.8;" x="67.129412" xlink:href="#m7f64cb9df2" y="141.141836"/>
     <use style="fill:#c33543;fill-opacity:0.8;stroke:#c33543;stroke-opacity:0.8;" x="60.564706" xlink:href="#m7f64cb9df2" y="90.870983"/>
     <use style="fill:#c33543;fill-opacity:0.8;stroke:#c33543;stroke-opacity:0.8;" x="73.694118" xlink:href="#m7f64cb9df2" y="130.521385"/>
     <use style="fill:#c33543;fill-opacity:0.8;stroke:#c33543;stroke-opacity:0.8;" x="73.694118" xlink:href="#m7f64cb9df2" y="130.641366"/>
     <use style="fill:#c33543;fill-opacity:0.8;stroke:#c33543;stroke-opacity:0.8;" x="73.694118" xlink:href="#m7f64cb9df2" y="83.209193"/>
     <use style="fill:#c33543;fill-opacity:0.8;stroke:#c33543;stroke-opacity:0.8;" x="73.694118" xlink:href="#m7f64cb9df2" y="127.550788"/>
     <use style="fill:#c33543;fill-opacity:0.8;stroke:#c33543;stroke-opacity:0.8;" x="67.129412" xlink:href="#m7f64cb9df2" y="77.567171"/>
     <use style="fill:#c33543;fill-opacity:0.8;stroke:#c33543;stroke-opacity:0.8;" x="73.694118" xlink:href="#m7f64cb9df2" y="105.636675"/>
     <use style="fill:#c33543;fill-opacity:0.8;stroke:#c33543;stroke-opacity:0.8;" x="73.694118" xlink:href="#m7f64cb9df2" y="139.936583"/>
     <use style="fill:#c33543;fill-opacity:0.8;stroke:#c33543;stroke-opacity:0.8;" x="73.694118" xlink:href="#m7f64cb9df2" y="127.891642"/>
     <use style="fill:#c33543;fill-opacity:0.8;stroke:#c33543;stroke-opacity:0.8;" x="257.505882" xlink:href="#m7f64cb9df2" y="76.647288"/>
     <use style="fill:#c33543;fill-opacity:0.8;stroke:#c33543;stroke-opacity:0.8;" x="73.694118" xlink:href="#m7f64cb9df2" y="115.866012"/>
     <use style="fill:#c33543;fill-opacity:0.8;stroke:#c33543;stroke-opacity:0.8;" x="54" xlink:href="#m7f64cb9df2" y="136.901197"/>
     <use style="fill:#c33543;fill-opacity:0.8;stroke:#c33543;stroke-opacity:0.8;" x="73.694118" xlink:href="#m7f64cb9df2" y="113.179581"/>
    </g>
   </g>
   <g id="PolyCollection_1">
    <path clip-path="url(#p8a3052b4cb)" d="M 54 107.956448 
L 54 130.93323 
L 57.381818 130.263413 
L 60.763636 129.551557 
L 64.145455 128.716553 
L 67.527273 128.300709 
L 70.909091 127.626279 
L 74.290909 127.505466 
L 77.672727 127.522084 
L 81.054545 128.022299 
L 84.436364 128.482971 
L 87.818182 129.366128 
L 91.2 129.301968 
L 94.581818 129.79818 
L 97.963636 131.153138 
L 101.345455 132.224936 
L 104.727273 133.02352 
L 108.109091 133.823684 
L 111.490909 135.128415 
L 114.872727 136.433146 
L 118.254545 137.737877 
L 121.636364 139.042608 
L 125.018182 140.347339 
L 128.4 141.65207 
L 131.781818 142.956801 
L 135.163636 144.261532 
L 138.545455 145.566263 
L 141.927273 146.870994 
L 145.309091 148.175725 
L 148.690909 149.480457 
L 152.072727 150.785188 
L 155.454545 152.089919 
L 158.836364 153.39465 
L 162.218182 154.699381 
L 165.6 156.004112 
L 168.981818 157.308843 
L 172.363636 158.613574 
L 175.745455 159.918305 
L 179.127273 161.223036 
L 182.509091 162.527767 
L 185.890909 163.832498 
L 189.272727 165.13723 
L 192.654545 166.441961 
L 196.036364 167.746692 
L 199.418182 169.051423 
L 202.8 170.356154 
L 206.181818 171.660885 
L 209.563636 172.965616 
L 212.945455 174.270347 
L 216.327273 175.575078 
L 219.709091 176.879809 
L 223.090909 178.18454 
L 226.472727 179.489272 
L 229.854545 180.794003 
L 233.236364 182.098734 
L 236.618182 183.403465 
L 240 184.708196 
L 243.381818 186.012927 
L 246.763636 187.317658 
L 250.145455 188.622389 
L 253.527273 189.92712 
L 256.909091 191.231851 
L 260.290909 192.536582 
L 263.672727 193.841313 
L 267.054545 195.146045 
L 270.436364 196.450776 
L 273.818182 197.755507 
L 277.2 199.060238 
L 280.581818 200.364969 
L 283.963636 201.6697 
L 287.345455 202.974431 
L 290.727273 204.279162 
L 294.109091 205.583893 
L 297.490909 206.888624 
L 300.872727 208.193355 
L 304.254545 209.498086 
L 307.636364 210.802818 
L 311.018182 212.107549 
L 314.4 213.41228 
L 317.781818 214.717011 
L 321.163636 216.021742 
L 324.545455 217.326473 
L 327.927273 218.631204 
L 331.309091 219.935935 
L 334.690909 221.240666 
L 338.072727 222.545397 
L 341.454545 223.850128 
L 344.836364 225.15486 
L 348.218182 226.459591 
L 351.6 227.764322 
L 354.981818 229.069053 
L 358.363636 230.373784 
L 361.745455 231.678515 
L 365.127273 232.983246 
L 368.509091 234.287977 
L 371.890909 235.592708 
L 375.272727 236.897439 
L 378.654545 238.20217 
L 382.036364 239.506901 
L 385.418182 240.811633 
L 388.8 242.116364 
L 388.8 44.443636 
L 388.8 44.443636 
L 385.418182 45.304834 
L 382.036364 46.166118 
L 378.654545 47.028888 
L 375.272727 47.900007 
L 371.890909 48.752806 
L 368.509091 49.614261 
L 365.127273 50.475934 
L 361.745455 51.330312 
L 358.363636 52.18215 
L 354.981818 53.033988 
L 351.6 53.886519 
L 348.218182 54.740814 
L 344.836364 55.595109 
L 341.454545 56.490393 
L 338.072727 57.366268 
L 334.690909 58.227536 
L 331.309091 59.088803 
L 327.927273 59.950071 
L 324.545455 60.811339 
L 321.163636 61.672607 
L 317.781818 62.533875 
L 314.4 63.396283 
L 311.018182 64.25916 
L 307.636364 65.150051 
L 304.254545 66.065837 
L 300.872727 66.935511 
L 297.490909 67.799362 
L 294.109091 68.653517 
L 290.727273 69.468472 
L 287.345455 70.355722 
L 283.963636 71.163435 
L 280.581818 72.002226 
L 277.2 72.824007 
L 273.818182 73.695186 
L 270.436364 74.564218 
L 267.054545 75.431969 
L 263.672727 76.303802 
L 260.290909 77.032398 
L 256.909091 77.844931 
L 253.527273 78.625025 
L 250.145455 79.473168 
L 246.763636 80.345885 
L 243.381818 81.256466 
L 240 82.114538 
L 236.618182 82.771904 
L 233.236364 83.625797 
L 229.854545 84.352606 
L 226.472727 85.117397 
L 223.090909 85.842554 
L 219.709091 86.613589 
L 216.327273 87.41734 
L 212.945455 88.052135 
L 209.563636 88.755413 
L 206.181818 89.410702 
L 202.8 90.105603 
L 199.418182 90.846128 
L 196.036364 91.448278 
L 192.654545 92.028439 
L 189.272727 92.661592 
L 185.890909 93.352459 
L 182.509091 94.043722 
L 179.127273 94.6809 
L 175.745455 95.341007 
L 172.363636 96.052085 
L 168.981818 96.734253 
L 165.6 97.247189 
L 162.218182 97.952674 
L 158.836364 98.677887 
L 155.454545 99.386963 
L 152.072727 100.105271 
L 148.690909 100.814835 
L 145.309091 101.461862 
L 141.927273 102.070097 
L 138.545455 102.732516 
L 135.163636 103.382385 
L 131.781818 103.946238 
L 128.4 104.354619 
L 125.018182 104.946791 
L 121.636364 105.457158 
L 118.254545 106.012239 
L 114.872727 106.510588 
L 111.490909 107.013959 
L 108.109091 107.568989 
L 104.727273 108.046854 
L 101.345455 108.516735 
L 97.963636 108.816038 
L 94.581818 109.099129 
L 91.2 109.285435 
L 87.818182 109.391343 
L 84.436364 109.538235 
L 81.054545 109.71522 
L 77.672727 109.894749 
L 74.290909 109.957868 
L 70.909091 109.794807 
L 67.527273 109.624537 
L 64.145455 109.290059 
L 60.763636 108.807422 
L 57.381818 108.344861 
L 54 107.956448 
z
" style="fill:#c33543;fill-opacity:0.15;"/>
   </g>
   <g id="matplotlib.axis_1">
    <g id="xtick_1">
     <g id="line2d_1">
      <defs>
       <path d="M 0 0 
L 0 3.5 
" id="maa54d16082" style="stroke:#000000;stroke-width:0.8;"/>
      </defs>
      <g>
       <use style="stroke:#000000;stroke-width:0.8;" x="93.388235" xlink:href="#maa54d16082" y="252"/>
      </g>
     </g>
     <g id="text_1">
      <!-- 40 -->
      <g transform="translate(87.025735 266.598437)scale(0.1 -0.1)">
       <defs>
        <path d="M 37.796875 64.3125 
L 12.890625 25.390625 
L 37.796875 25.390625 
z
M 35.203125 72.90625 
L 47.609375 72.90625 
L 47.609375 25.390625 
L 58.015625 25.390625 
L 58.015625 17.1875 
L 47.609375 17.1875 
L 47.609375 0 
L 37.796875 0 
L 37.796875 17.1875 
L 4.890625 17.1875 
L 4.890625 26.703125 
z
" id="DejaVuSans-52"/>
        <path d="M 31.78125 66.40625 
Q 24.171875 66.40625 20.328125 58.90625 
Q 16.5 51.421875 16.5 36.375 
Q 16.5 21.390625 20.328125 13.890625 
Q 24.171875 6.390625 31.78125 6.390625 
Q 39.453125 6.390625 43.28125 13.890625 
Q 47.125 21.390625 47.125 36.375 
Q 47.125 51.421875 43.28125 58.90625 
Q 39.453125 66.40625 31.78125 66.40625 
z
M 31.78125 74.21875 
Q 44.046875 74.21875 50.515625 64.515625 
Q 56.984375 54.828125 56.984375 36.375 
Q 56.984375 17.96875 50.515625 8.265625 
Q 44.046875 -1.421875 31.78125 -1.421875 
Q 19.53125 -1.421875 13.0625 8.265625 
Q 6.59375 17.96875 6.59375 36.375 
Q 6.59375 54.828125 13.0625 64.515625 
Q 19.53125 74.21875 31.78125 74.21875 
z
" id="DejaVuSans-48"/>
       </defs>
       <use xlink:href="#DejaVuSans-52"/>
       <use x="63.623047" xlink:href="#DejaVuSans-48"/>
      </g>
     </g>
    </g>
    <g id="xtick_2">
     <g id="line2d_2">
      <g>
       <use style="stroke:#000000;stroke-width:0.8;" x="159.035294" xlink:href="#maa54d16082" y="252"/>
      </g>
     </g>
     <g id="text_2">
      <!-- 50 -->
      <g transform="translate(152.672794 266.598437)scale(0.1 -0.1)">
       <defs>
        <path d="M 10.796875 72.90625 
L 49.515625 72.90625 
L 49.515625 64.59375 
L 19.828125 64.59375 
L 19.828125 46.734375 
Q 21.96875 47.46875 24.109375 47.828125 
Q 26.265625 48.1875 28.421875 48.1875 
Q 40.625 48.1875 47.75 41.5 
Q 54.890625 34.8125 54.890625 23.390625 
Q 54.890625 11.625 47.5625 5.09375 
Q 40.234375 -1.421875 26.90625 -1.421875 
Q 22.3125 -1.421875 17.546875 -0.640625 
Q 12.796875 0.140625 7.71875 1.703125 
L 7.71875 11.625 
Q 12.109375 9.234375 16.796875 8.0625 
Q 21.484375 6.890625 26.703125 6.890625 
Q 35.15625 6.890625 40.078125 11.328125 
Q 45.015625 15.765625 45.015625 23.390625 
Q 45.015625 31 40.078125 35.4375 
Q 35.15625 39.890625 26.703125 39.890625 
Q 22.75 39.890625 18.8125 39.015625 
Q 14.890625 38.140625 10.796875 36.28125 
z
" id="DejaVuSans-53"/>
       </defs>
       <use xlink:href="#DejaVuSans-53"/>
       <use x="63.623047" xlink:href="#DejaVuSans-48"/>
      </g>
     </g>
    </g>
    <g id="xtick_3">
     <g id="line2d_3">
      <g>
       <use style="stroke:#000000;stroke-width:0.8;" x="224.682353" xlink:href="#maa54d16082" y="252"/>
      </g>
     </g>
     <g id="text_3">
      <!-- 60 -->
      <g transform="translate(218.319853 266.598437)scale(0.1 -0.1)">
       <defs>
        <path d="M 33.015625 40.375 
Q 26.375 40.375 22.484375 35.828125 
Q 18.609375 31.296875 18.609375 23.390625 
Q 18.609375 15.53125 22.484375 10.953125 
Q 26.375 6.390625 33.015625 6.390625 
Q 39.65625 6.390625 43.53125 10.953125 
Q 47.40625 15.53125 47.40625 23.390625 
Q 47.40625 31.296875 43.53125 35.828125 
Q 39.65625 40.375 33.015625 40.375 
z
M 52.59375 71.296875 
L 52.59375 62.3125 
Q 48.875 64.0625 45.09375 64.984375 
Q 41.3125 65.921875 37.59375 65.921875 
Q 27.828125 65.921875 22.671875 59.328125 
Q 17.53125 52.734375 16.796875 39.40625 
Q 19.671875 43.65625 24.015625 45.921875 
Q 28.375 48.1875 33.59375 48.1875 
Q 44.578125 48.1875 50.953125 41.515625 
Q 57.328125 34.859375 57.328125 23.390625 
Q 57.328125 12.15625 50.6875 5.359375 
Q 44.046875 -1.421875 33.015625 -1.421875 
Q 20.359375 -1.421875 13.671875 8.265625 
Q 6.984375 17.96875 6.984375 36.375 
Q 6.984375 53.65625 15.1875 63.9375 
Q 23.390625 74.21875 37.203125 74.21875 
Q 40.921875 74.21875 44.703125 73.484375 
Q 48.484375 72.75 52.59375 71.296875 
z
" id="DejaVuSans-54"/>
       </defs>
       <use xlink:href="#DejaVuSans-54"/>
       <use x="63.623047" xlink:href="#DejaVuSans-48"/>
      </g>
     </g>
    </g>
    <g id="xtick_4">
     <g id="line2d_4">
      <g>
       <use style="stroke:#000000;stroke-width:0.8;" x="290.329412" xlink:href="#maa54d16082" y="252"/>
      </g>
     </g>
     <g id="text_4">
      <!-- 70 -->
      <g transform="translate(283.966912 266.598437)scale(0.1 -0.1)">
       <defs>
        <path d="M 8.203125 72.90625 
L 55.078125 72.90625 
L 55.078125 68.703125 
L 28.609375 0 
L 18.3125 0 
L 43.21875 64.59375 
L 8.203125 64.59375 
z
" id="DejaVuSans-55"/>
       </defs>
       <use xlink:href="#DejaVuSans-55"/>
       <use x="63.623047" xlink:href="#DejaVuSans-48"/>
      </g>
     </g>
    </g>
    <g id="xtick_5">
     <g id="line2d_5">
      <g>
       <use style="stroke:#000000;stroke-width:0.8;" x="355.976471" xlink:href="#maa54d16082" y="252"/>
      </g>
     </g>
     <g id="text_5">
      <!-- 80 -->
      <g transform="translate(349.613971 266.598437)scale(0.1 -0.1)">
       <defs>
        <path d="M 31.78125 34.625 
Q 24.75 34.625 20.71875 30.859375 
Q 16.703125 27.09375 16.703125 20.515625 
Q 16.703125 13.921875 20.71875 10.15625 
Q 24.75 6.390625 31.78125 6.390625 
Q 38.8125 6.390625 42.859375 10.171875 
Q 46.921875 13.96875 46.921875 20.515625 
Q 46.921875 27.09375 42.890625 30.859375 
Q 38.875 34.625 31.78125 34.625 
z
M 21.921875 38.8125 
Q 15.578125 40.375 12.03125 44.71875 
Q 8.5 49.078125 8.5 55.328125 
Q 8.5 64.0625 14.71875 69.140625 
Q 20.953125 74.21875 31.78125 74.21875 
Q 42.671875 74.21875 48.875 69.140625 
Q 55.078125 64.0625 55.078125 55.328125 
Q 55.078125 49.078125 51.53125 44.71875 
Q 48 40.375 41.703125 38.8125 
Q 48.828125 37.15625 52.796875 32.3125 
Q 56.78125 27.484375 56.78125 20.515625 
Q 56.78125 9.90625 50.3125 4.234375 
Q 43.84375 -1.421875 31.78125 -1.421875 
Q 19.734375 -1.421875 13.25 4.234375 
Q 6.78125 9.90625 6.78125 20.515625 
Q 6.78125 27.484375 10.78125 32.3125 
Q 14.796875 37.15625 21.921875 38.8125 
z
M 18.3125 54.390625 
Q 18.3125 48.734375 21.84375 45.5625 
Q 25.390625 42.390625 31.78125 42.390625 
Q 38.140625 42.390625 41.71875 45.5625 
Q 45.3125 48.734375 45.3125 54.390625 
Q 45.3125 60.0625 41.71875 63.234375 
Q 38.140625 66.40625 31.78125 66.40625 
Q 25.390625 66.40625 21.84375 63.234375 
Q 18.3125 60.0625 18.3125 54.390625 
z
" id="DejaVuSans-56"/>
       </defs>
       <use xlink:href="#DejaVuSans-56"/>
       <use x="63.623047" xlink:href="#DejaVuSans-48"/>
      </g>
     </g>
    </g>
    <g id="text_6">
     <!-- Temp -->
     <g transform="translate(208.075 280.276563)scale(0.1 -0.1)">
      <defs>
       <path d="M -0.296875 72.90625 
L 61.375 72.90625 
L 61.375 64.59375 
L 35.5 64.59375 
L 35.5 0 
L 25.59375 0 
L 25.59375 64.59375 
L -0.296875 64.59375 
z
" id="DejaVuSans-84"/>
       <path d="M 56.203125 29.59375 
L 56.203125 25.203125 
L 14.890625 25.203125 
Q 15.484375 15.921875 20.484375 11.0625 
Q 25.484375 6.203125 34.421875 6.203125 
Q 39.59375 6.203125 44.453125 7.46875 
Q 49.3125 8.734375 54.109375 11.28125 
L 54.109375 2.78125 
Q 49.265625 0.734375 44.1875 -0.34375 
Q 39.109375 -1.421875 33.890625 -1.421875 
Q 20.796875 -1.421875 13.15625 6.1875 
Q 5.515625 13.8125 5.515625 26.8125 
Q 5.515625 40.234375 12.765625 48.109375 
Q 20.015625 56 32.328125 56 
Q 43.359375 56 49.78125 48.890625 
Q 56.203125 41.796875 56.203125 29.59375 
z
M 47.21875 32.234375 
Q 47.125 39.59375 43.09375 43.984375 
Q 39.0625 48.390625 32.421875 48.390625 
Q 24.90625 48.390625 20.390625 44.140625 
Q 15.875 39.890625 15.1875 32.171875 
z
" id="DejaVuSans-101"/>
       <path d="M 52 44.1875 
Q 55.375 50.25 60.0625 53.125 
Q 64.75 56 71.09375 56 
Q 79.640625 56 84.28125 50.015625 
Q 88.921875 44.046875 88.921875 33.015625 
L 88.921875 0 
L 79.890625 0 
L 79.890625 32.71875 
Q 79.890625 40.578125 77.09375 44.375 
Q 74.3125 48.1875 68.609375 48.1875 
Q 61.625 48.1875 57.5625 43.546875 
Q 53.515625 38.921875 53.515625 30.90625 
L 53.515625 0 
L 44.484375 0 
L 44.484375 32.71875 
Q 44.484375 40.625 41.703125 44.40625 
Q 38.921875 48.1875 33.109375 48.1875 
Q 26.21875 48.1875 22.15625 43.53125 
Q 18.109375 38.875 18.109375 30.90625 
L 18.109375 0 
L 9.078125 0 
L 9.078125 54.6875 
L 18.109375 54.6875 
L 18.109375 46.1875 
Q 21.1875 51.21875 25.484375 53.609375 
Q 29.78125 56 35.6875 56 
Q 41.65625 56 45.828125 52.96875 
Q 50 49.953125 52 44.1875 
z
" id="DejaVuSans-109"/>
       <path d="M 18.109375 8.203125 
L 18.109375 -20.796875 
L 9.078125 -20.796875 
L 9.078125 54.6875 
L 18.109375 54.6875 
L 18.109375 46.390625 
Q 20.953125 51.265625 25.265625 53.625 
Q 29.59375 56 35.59375 56 
Q 45.5625 56 51.78125 48.09375 
Q 58.015625 40.1875 58.015625 27.296875 
Q 58.015625 14.40625 51.78125 6.484375 
Q 45.5625 -1.421875 35.59375 -1.421875 
Q 29.59375 -1.421875 25.265625 0.953125 
Q 20.953125 3.328125 18.109375 8.203125 
z
M 48.6875 27.296875 
Q 48.6875 37.203125 44.609375 42.84375 
Q 40.53125 48.484375 33.40625 48.484375 
Q 26.265625 48.484375 22.1875 42.84375 
Q 18.109375 37.203125 18.109375 27.296875 
Q 18.109375 17.390625 22.1875 11.75 
Q 26.265625 6.109375 33.40625 6.109375 
Q 40.53125 6.109375 44.609375 11.75 
Q 48.6875 17.390625 48.6875 27.296875 
z
" id="DejaVuSans-112"/>
      </defs>
      <use xlink:href="#DejaVuSans-84"/>
      <use x="44.083984" xlink:href="#DejaVuSans-101"/>
      <use x="105.607422" xlink:href="#DejaVuSans-109"/>
      <use x="203.019531" xlink:href="#DejaVuSans-112"/>
     </g>
    </g>
   </g>
   <g id="matplotlib.axis_2">
    <g id="ytick_1">
     <g id="line2d_6">
      <defs>
       <path d="M 0 0 
L -3.5 0 
" id="maf11731eb6" style="stroke:#000000;stroke-width:0.8;"/>
      </defs>
      <g>
       <use style="stroke:#000000;stroke-width:0.8;" x="54" xlink:href="#maf11731eb6" y="235.742495"/>
      </g>
     </g>
     <g id="text_7">
      <!-- −20 -->
      <g transform="translate(25.895312 239.541713)scale(0.1 -0.1)">
       <defs>
        <path d="M 10.59375 35.5 
L 73.1875 35.5 
L 73.1875 27.203125 
L 10.59375 27.203125 
z
" id="DejaVuSans-8722"/>
        <path d="M 19.1875 8.296875 
L 53.609375 8.296875 
L 53.609375 0 
L 7.328125 0 
L 7.328125 8.296875 
Q 12.9375 14.109375 22.625 23.890625 
Q 32.328125 33.6875 34.8125 36.53125 
Q 39.546875 41.84375 41.421875 45.53125 
Q 43.3125 49.21875 43.3125 52.78125 
Q 43.3125 58.59375 39.234375 62.25 
Q 35.15625 65.921875 28.609375 65.921875 
Q 23.96875 65.921875 18.8125 64.3125 
Q 13.671875 62.703125 7.8125 59.421875 
L 7.8125 69.390625 
Q 13.765625 71.78125 18.9375 73 
Q 24.125 74.21875 28.421875 74.21875 
Q 39.75 74.21875 46.484375 68.546875 
Q 53.21875 62.890625 53.21875 53.421875 
Q 53.21875 48.921875 51.53125 44.890625 
Q 49.859375 40.875 45.40625 35.40625 
Q 44.1875 33.984375 37.640625 27.21875 
Q 31.109375 20.453125 19.1875 8.296875 
z
" id="DejaVuSans-50"/>
       </defs>
       <use xlink:href="#DejaVuSans-8722"/>
       <use x="83.789062" xlink:href="#DejaVuSans-50"/>
       <use x="147.412109" xlink:href="#DejaVuSans-48"/>
      </g>
     </g>
    </g>
    <g id="ytick_2">
     <g id="line2d_7">
      <g>
       <use style="stroke:#000000;stroke-width:0.8;" x="54" xlink:href="#maf11731eb6" y="200.235015"/>
      </g>
     </g>
     <g id="text_8">
      <!-- 0 -->
      <g transform="translate(40.6375 204.034234)scale(0.1 -0.1)">
       <use xlink:href="#DejaVuSans-48"/>
      </g>
     </g>
    </g>
    <g id="ytick_3">
     <g id="line2d_8">
      <g>
       <use style="stroke:#000000;stroke-width:0.8;" x="54" xlink:href="#maf11731eb6" y="164.727535"/>
      </g>
     </g>
     <g id="text_9">
      <!-- 20 -->
      <g transform="translate(34.275 168.526754)scale(0.1 -0.1)">
       <use xlink:href="#DejaVuSans-50"/>
       <use x="63.623047" xlink:href="#DejaVuSans-48"/>
      </g>
     </g>
    </g>
    <g id="ytick_4">
     <g id="line2d_9">
      <g>
       <use style="stroke:#000000;stroke-width:0.8;" x="54" xlink:href="#maf11731eb6" y="129.220055"/>
      </g>
     </g>
     <g id="text_10">
      <!-- 40 -->
      <g transform="translate(34.275 133.019274)scale(0.1 -0.1)">
       <use xlink:href="#DejaVuSans-52"/>
       <use x="63.623047" xlink:href="#DejaVuSans-48"/>
      </g>
     </g>
    </g>
    <g id="ytick_5">
     <g id="line2d_10">
      <g>
       <use style="stroke:#000000;stroke-width:0.8;" x="54" xlink:href="#maf11731eb6" y="93.712575"/>
      </g>
     </g>
     <g id="text_11">
      <!-- 60 -->
      <g transform="translate(34.275 97.511794)scale(0.1 -0.1)">
       <use xlink:href="#DejaVuSans-54"/>
       <use x="63.623047" xlink:href="#DejaVuSans-48"/>
      </g>
     </g>
    </g>
    <g id="ytick_6">
     <g id="line2d_11">
      <g>
       <use style="stroke:#000000;stroke-width:0.8;" x="54" xlink:href="#maf11731eb6" y="58.205095"/>
      </g>
     </g>
     <g id="text_12">
      <!-- 80 -->
      <g transform="translate(34.275 62.004314)scale(0.1 -0.1)">
       <use xlink:href="#DejaVuSans-56"/>
       <use x="63.623047" xlink:href="#DejaVuSans-48"/>
      </g>
     </g>
    </g>
    <g id="text_13">
     <!-- GC -->
     <g transform="translate(19.815625 150.645625)rotate(-90)scale(0.1 -0.1)">
      <defs>
       <path d="M 59.515625 10.40625 
L 59.515625 29.984375 
L 43.40625 29.984375 
L 43.40625 38.09375 
L 69.28125 38.09375 
L 69.28125 6.78125 
Q 63.578125 2.734375 56.6875 0.65625 
Q 49.8125 -1.421875 42 -1.421875 
Q 24.90625 -1.421875 15.25 8.5625 
Q 5.609375 18.5625 5.609375 36.375 
Q 5.609375 54.25 15.25 64.234375 
Q 24.90625 74.21875 42 74.21875 
Q 49.125 74.21875 55.546875 72.453125 
Q 61.96875 70.703125 67.390625 67.28125 
L 67.390625 56.78125 
Q 61.921875 61.421875 55.765625 63.765625 
Q 49.609375 66.109375 42.828125 66.109375 
Q 29.4375 66.109375 22.71875 58.640625 
Q 16.015625 51.171875 16.015625 36.375 
Q 16.015625 21.625 22.71875 14.15625 
Q 29.4375 6.6875 42.828125 6.6875 
Q 48.046875 6.6875 52.140625 7.59375 
Q 56.25 8.5 59.515625 10.40625 
z
" id="DejaVuSans-71"/>
       <path d="M 64.40625 67.28125 
L 64.40625 56.890625 
Q 59.421875 61.53125 53.78125 63.8125 
Q 48.140625 66.109375 41.796875 66.109375 
Q 29.296875 66.109375 22.65625 58.46875 
Q 16.015625 50.828125 16.015625 36.375 
Q 16.015625 21.96875 22.65625 14.328125 
Q 29.296875 6.6875 41.796875 6.6875 
Q 48.140625 6.6875 53.78125 8.984375 
Q 59.421875 11.28125 64.40625 15.921875 
L 64.40625 5.609375 
Q 59.234375 2.09375 53.4375 0.328125 
Q 47.65625 -1.421875 41.21875 -1.421875 
Q 24.65625 -1.421875 15.125 8.703125 
Q 5.609375 18.84375 5.609375 36.375 
Q 5.609375 53.953125 15.125 64.078125 
Q 24.65625 74.21875 41.21875 74.21875 
Q 47.75 74.21875 53.53125 72.484375 
Q 59.328125 70.75 64.40625 67.28125 
z
" id="DejaVuSans-67"/>
      </defs>
      <use xlink:href="#DejaVuSans-71"/>
      <use x="77.490234" xlink:href="#DejaVuSans-67"/>
     </g>
    </g>
   </g>
   <g id="line2d_12">
    <path clip-path="url(#p8a3052b4cb)" d="M 54 120.043556 
L 57.381818 119.843551 
L 60.763636 119.643547 
L 64.145455 119.443543 
L 67.527273 119.243539 
L 70.909091 119.043535 
L 74.290909 118.843531 
L 77.672727 118.643527 
L 81.054545 118.443523 
L 84.436364 118.243518 
L 87.818182 118.043514 
L 91.2 117.84351 
L 94.581818 117.643506 
L 97.963636 117.443502 
L 101.345455 117.243498 
L 104.727273 117.043494 
L 108.109091 116.84349 
L 111.490909 116.643486 
L 114.872727 116.443481 
L 118.254545 116.243477 
L 121.636364 116.043473 
L 125.018182 115.843469 
L 128.4 115.643465 
L 131.781818 115.443461 
L 135.163636 115.243457 
L 138.545455 115.043453 
L 141.927273 114.843448 
L 145.309091 114.643444 
L 148.690909 114.44344 
L 152.072727 114.243436 
L 155.454545 114.043432 
L 158.836364 113.843428 
L 162.218182 113.643424 
L 165.6 113.44342 
L 168.981818 113.243416 
L 172.363636 113.043411 
L 175.745455 112.843407 
L 179.127273 112.643403 
L 182.509091 112.443399 
L 185.890909 112.243395 
L 189.272727 112.043391 
L 192.654545 111.843387 
L 196.036364 111.643383 
L 199.418182 111.443379 
L 202.8 111.243374 
L 206.181818 111.04337 
L 209.563636 110.843366 
L 212.945455 110.643362 
L 216.327273 110.443358 
L 219.709091 110.243354 
L 223.090909 110.04335 
L 226.472727 109.843346 
L 229.854545 109.643341 
L 233.236364 109.443337 
L 236.618182 109.243333 
L 240 109.043329 
L 243.381818 108.843325 
L 246.763636 108.643321 
L 250.145455 108.443317 
L 253.527273 108.243313 
L 256.909091 108.043309 
L 260.290909 107.843304 
L 263.672727 107.6433 
L 267.054545 107.443296 
L 270.436364 107.243292 
L 273.818182 107.043288 
L 277.2 106.843284 
L 280.581818 106.64328 
L 283.963636 106.443276 
L 287.345455 106.243272 
L 290.727273 106.043267 
L 294.109091 105.843263 
L 297.490909 105.643259 
L 300.872727 105.443255 
L 304.254545 105.243251 
L 307.636364 105.043247 
L 311.018182 104.843243 
L 314.4 104.643239 
L 317.781818 104.443234 
L 321.163636 104.24323 
L 324.545455 104.043226 
L 327.927273 103.843222 
L 331.309091 103.643218 
L 334.690909 103.443214 
L 338.072727 103.24321 
L 341.454545 103.043206 
L 344.836364 102.843202 
L 348.218182 102.643197 
L 351.6 102.443193 
L 354.981818 102.243189 
L 358.363636 102.043185 
L 361.745455 101.843181 
L 365.127273 101.643177 
L 368.509091 101.443173 
L 371.890909 101.243169 
L 375.272727 101.043164 
L 378.654545 100.84316 
L 382.036364 100.643156 
L 385.418182 100.443152 
L 388.8 100.243148 
" style="fill:none;stroke:#c33543;stroke-linecap:square;stroke-width:2.25;"/>
   </g>
   <g id="patch_3">
    <path d="M 54 252 
L 54 34.56 
" style="fill:none;stroke:#000000;stroke-linecap:square;stroke-linejoin:miter;stroke-width:0.8;"/>
   </g>
   <g id="patch_4">
    <path d="M 388.8 252 
L 388.8 34.56 
" style="fill:none;stroke:#000000;stroke-linecap:square;stroke-linejoin:miter;stroke-width:0.8;"/>
   </g>
   <g id="patch_5">
    <path d="M 54 252 
L 388.8 252 
" style="fill:none;stroke:#000000;stroke-linecap:square;stroke-linejoin:miter;stroke-width:0.8;"/>
   </g>
   <g id="patch_6">
    <path d="M 54 34.56 
L 388.8 34.56 
" style="fill:none;stroke:#000000;stroke-linecap:square;stroke-linejoin:miter;stroke-width:0.8;"/>
   </g>
  </g>
 </g>
 <defs>
  <clipPath id="p8a3052b4cb">
   <rect height="217.44" width="334.8" x="54" y="34.56"/>
  </clipPath>
 </defs>
</svg>
