<?xml version="1.0" encoding="utf-8" standalone="no"?>
<!DOCTYPE svg PUBLIC "-//W3C//DTD SVG 1.1//EN"
  "http://www.w3.org/Graphics/SVG/1.1/DTD/svg11.dtd">
<!-- Created with matplotlib (https://matplotlib.org/) -->
<svg height="288pt" version="1.1" viewBox="0 0 432 288" width="432pt" xmlns="http://www.w3.org/2000/svg" xmlns:xlink="http://www.w3.org/1999/xlink">
 <metadata>
  <rdf:RDF xmlns:cc="http://creativecommons.org/ns#" xmlns:dc="http://purl.org/dc/elements/1.1/" xmlns:rdf="http://www.w3.org/1999/02/22-rdf-syntax-ns#">
   <cc:Work>
    <dc:type rdf:resource="http://purl.org/dc/dcmitype/StillImage"/>
    <dc:date>2021-04-15T19:48:59.581363</dc:date>
    <dc:format>image/svg+xml</dc:format>
    <dc:creator>
     <cc:Agent>
      <dc:title>Matplotlib v3.3.2, https://matplotlib.org/</dc:title>
     </cc:Agent>
    </dc:creator>
   </cc:Work>
  </rdf:RDF>
 </metadata>
 <defs>
  <style type="text/css">*{stroke-linecap:butt;stroke-linejoin:round;}</style>
 </defs>
 <g id="figure_1">
  <g id="patch_1">
   <path d="M 0 288 
L 432 288 
L 432 0 
L 0 0 
z
" style="fill:none;"/>
  </g>
  <g id="axes_1">
   <g id="patch_2">
    <path d="M 54 252 
L 388.8 252 
L 388.8 34.56 
L 54 34.56 
z
" style="fill:#ffffff;"/>
   </g>
   <g id="PathCollection_1">
    <defs>
     <path d="M 0 3 
C 0.795609 3 1.55874 2.683901 2.12132 2.12132 
C 2.683901 1.55874 3 0.795609 3 0 
C 3 -0.795609 2.683901 -1.55874 2.12132 -2.12132 
C 1.55874 -2.683901 0.795609 -3 0 -3 
C -0.795609 -3 -1.55874 -2.683901 -2.12132 -2.12132 
C -2.683901 -1.55874 -3 -0.795609 -3 0 
C -3 0.795609 -2.683901 1.55874 -2.12132 2.12132 
C -1.55874 2.683901 -0.795609 3 0 3 
z
" id="mc2492d259f" style="stroke:#c33543;stroke-opacity:0.8;"/>
    </defs>
    <g clip-path="url(#p7b114d047e)">
     <use style="fill:#c33543;fill-opacity:0.8;stroke:#c33543;stroke-opacity:0.8;" x="177.83924" xlink:href="#mc2492d259f" y="142.760936"/>
     <use style="fill:#c33543;fill-opacity:0.8;stroke:#c33543;stroke-opacity:0.8;" x="151.861586" xlink:href="#mc2492d259f" y="135.731611"/>
     <use style="fill:#c33543;fill-opacity:0.8;stroke:#c33543;stroke-opacity:0.8;" x="94.142728" xlink:href="#mc2492d259f" y="144.597388"/>
     <use style="fill:#c33543;fill-opacity:0.8;stroke:#c33543;stroke-opacity:0.8;" x="181.615287" xlink:href="#mc2492d259f" y="151.625459"/>
     <use style="fill:#c33543;fill-opacity:0.8;stroke:#c33543;stroke-opacity:0.8;" x="129.244414" xlink:href="#mc2492d259f" y="145.626668"/>
     <use style="fill:#c33543;fill-opacity:0.8;stroke:#c33543;stroke-opacity:0.8;" x="150.153118" xlink:href="#mc2492d259f" y="146.643068"/>
     <use style="fill:#c33543;fill-opacity:0.8;stroke:#c33543;stroke-opacity:0.8;" x="285.974281" xlink:href="#mc2492d259f" y="168.90335"/>
     <use style="fill:#c33543;fill-opacity:0.8;stroke:#c33543;stroke-opacity:0.8;" x="358.273411" xlink:href="#mc2492d259f" y="220.631427"/>
     <use style="fill:#c33543;fill-opacity:0.8;stroke:#c33543;stroke-opacity:0.8;" x="388.8" xlink:href="#mc2492d259f" y="44.443636"/>
     <use style="fill:#c33543;fill-opacity:0.8;stroke:#c33543;stroke-opacity:0.8;" x="159.812149" xlink:href="#mc2492d259f" y="144.911849"/>
     <use style="fill:#c33543;fill-opacity:0.8;stroke:#c33543;stroke-opacity:0.8;" x="54" xlink:href="#mc2492d259f" y="141.791505"/>
     <use style="fill:#c33543;fill-opacity:0.8;stroke:#c33543;stroke-opacity:0.8;" x="71.877063" xlink:href="#mc2492d259f" y="142.744451"/>
     <use style="fill:#c33543;fill-opacity:0.8;stroke:#c33543;stroke-opacity:0.8;" x="384.525079" xlink:href="#mc2492d259f" y="242.116364"/>
     <use style="fill:#c33543;fill-opacity:0.8;stroke:#c33543;stroke-opacity:0.8;" x="322.594993" xlink:href="#mc2492d259f" y="145.590331"/>
     <use style="fill:#c33543;fill-opacity:0.8;stroke:#c33543;stroke-opacity:0.8;" x="108.274532" xlink:href="#mc2492d259f" y="144.430576"/>
     <use style="fill:#c33543;fill-opacity:0.8;stroke:#c33543;stroke-opacity:0.8;" x="167.204044" xlink:href="#mc2492d259f" y="163.581022"/>
     <use style="fill:#c33543;fill-opacity:0.8;stroke:#c33543;stroke-opacity:0.8;" x="295.078528" xlink:href="#mc2492d259f" y="173.469748"/>
     <use style="fill:#c33543;fill-opacity:0.8;stroke:#c33543;stroke-opacity:0.8;" x="253.826063" xlink:href="#mc2492d259f" y="160.722197"/>
     <use style="fill:#c33543;fill-opacity:0.8;stroke:#c33543;stroke-opacity:0.8;" x="137.419988" xlink:href="#mc2492d259f" y="144.424309"/>
     <use style="fill:#c33543;fill-opacity:0.8;stroke:#c33543;stroke-opacity:0.8;" x="88.510174" xlink:href="#mc2492d259f" y="144.187289"/>
     <use style="fill:#c33543;fill-opacity:0.8;stroke:#c33543;stroke-opacity:0.8;" x="206.388619" xlink:href="#mc2492d259f" y="147.820838"/>
     <use style="fill:#c33543;fill-opacity:0.8;stroke:#c33543;stroke-opacity:0.8;" x="137.979629" xlink:href="#mc2492d259f" y="143.917485"/>
     <use style="fill:#c33543;fill-opacity:0.8;stroke:#c33543;stroke-opacity:0.8;" x="218.594753" xlink:href="#mc2492d259f" y="147.529716"/>
     <use style="fill:#c33543;fill-opacity:0.8;stroke:#c33543;stroke-opacity:0.8;" x="242.049841" xlink:href="#mc2492d259f" y="162.398509"/>
    </g>
   </g>
   <g id="PolyCollection_1">
    <path clip-path="url(#p7b114d047e)" d="M 54 118.551537 
L 54 163.269301 
L 57.381818 162.799887 
L 60.763636 162.330473 
L 64.145455 161.845933 
L 67.527273 161.335146 
L 70.909091 160.927331 
L 74.290909 160.457351 
L 77.672727 159.972192 
L 81.054545 159.505713 
L 84.436364 158.938735 
L 87.818182 158.367987 
L 91.2 157.751682 
L 94.581818 157.238677 
L 97.963636 156.659537 
L 101.345455 156.135446 
L 104.727273 155.690787 
L 108.109091 155.155536 
L 111.490909 154.697668 
L 114.872727 154.172438 
L 118.254545 153.664302 
L 121.636364 153.305374 
L 125.018182 152.741718 
L 128.4 152.382126 
L 131.781818 152.112217 
L 135.163636 151.783467 
L 138.545455 151.793464 
L 141.927273 151.764672 
L 145.309091 151.866247 
L 148.690909 151.94806 
L 152.072727 152.263904 
L 155.454545 152.885533 
L 158.836364 153.605585 
L 162.218182 154.151688 
L 165.6 154.974344 
L 168.981818 155.987761 
L 172.363636 156.817463 
L 175.745455 157.429497 
L 179.127273 158.335204 
L 182.509091 159.276637 
L 185.890909 160.240384 
L 189.272727 161.151419 
L 192.654545 162.157929 
L 196.036364 163.16402 
L 199.418182 164.10114 
L 202.8 164.895636 
L 206.181818 165.831195 
L 209.563636 166.766161 
L 212.945455 167.744143 
L 216.327273 168.724015 
L 219.709091 169.704397 
L 223.090909 170.561428 
L 226.472727 171.496215 
L 229.854545 172.477762 
L 233.236364 173.44637 
L 236.618182 174.410587 
L 240 175.312047 
L 243.381818 176.208342 
L 246.763636 177.121133 
L 250.145455 178.039823 
L 253.527273 178.958514 
L 256.909091 179.887794 
L 260.290909 180.803147 
L 263.672727 181.720816 
L 267.054545 182.689806 
L 270.436364 183.73996 
L 273.818182 184.701664 
L 277.2 185.613954 
L 280.581818 186.534849 
L 283.963636 187.432876 
L 287.345455 188.284373 
L 290.727273 189.191191 
L 294.109091 190.035846 
L 297.490909 190.987191 
L 300.872727 191.991725 
L 304.254545 192.999239 
L 307.636364 194.119529 
L 311.018182 195.197027 
L 314.4 196.114171 
L 317.781818 197.054783 
L 321.163636 198.074099 
L 324.545455 199.093036 
L 327.927273 200.111972 
L 331.309091 201.077845 
L 334.690909 202.062452 
L 338.072727 203.077942 
L 341.454545 204.171659 
L 344.836364 205.219766 
L 348.218182 206.243955 
L 351.6 207.265414 
L 354.981818 208.285492 
L 358.363636 209.30557 
L 361.745455 210.325647 
L 365.127273 211.345725 
L 368.509091 212.357115 
L 371.890909 213.387914 
L 375.272727 214.409463 
L 378.654545 215.431013 
L 382.036364 216.452562 
L 385.418182 217.474111 
L 388.8 218.495661 
L 388.8 111.898188 
L 388.8 111.898188 
L 385.418182 112.389135 
L 382.036364 112.880082 
L 378.654545 113.371028 
L 375.272727 113.900454 
L 371.890909 114.452753 
L 368.509091 115.005052 
L 365.127273 115.557351 
L 361.745455 116.10965 
L 358.363636 116.661949 
L 354.981818 117.214248 
L 351.6 117.766547 
L 348.218182 118.318846 
L 344.836364 118.871145 
L 341.454545 119.423444 
L 338.072727 119.975742 
L 334.690909 120.528041 
L 331.309091 121.070939 
L 327.927273 121.604358 
L 324.545455 122.137777 
L 321.163636 122.671195 
L 317.781818 123.204614 
L 314.4 123.70917 
L 311.018182 124.122457 
L 307.636364 124.535743 
L 304.254545 124.94903 
L 300.872727 125.363994 
L 297.490909 125.78026 
L 294.109091 126.196525 
L 290.727273 126.61279 
L 287.345455 127.124767 
L 283.963636 127.72832 
L 280.581818 128.331873 
L 277.2 128.800237 
L 273.818182 129.169394 
L 270.436364 129.540922 
L 267.054545 129.914692 
L 263.672727 130.367597 
L 260.290909 130.957728 
L 256.909091 131.546381 
L 253.527273 131.979068 
L 250.145455 132.412628 
L 246.763636 132.846189 
L 243.381818 133.279749 
L 240 133.713309 
L 236.618182 134.14687 
L 233.236364 134.58043 
L 229.854545 135.013991 
L 226.472727 135.435437 
L 223.090909 135.879997 
L 219.709091 136.311719 
L 216.327273 136.800436 
L 212.945455 137.292967 
L 209.563636 137.835253 
L 206.181818 138.325394 
L 202.8 138.815535 
L 199.418182 139.283088 
L 196.036364 139.790245 
L 192.654545 140.279608 
L 189.272727 140.705937 
L 185.890909 141.070914 
L 182.509091 141.483213 
L 179.127273 141.980428 
L 175.745455 142.26545 
L 172.363636 142.627065 
L 168.981818 142.98748 
L 165.6 143.245633 
L 162.218182 143.666803 
L 158.836364 143.931693 
L 155.454545 144.043047 
L 152.072727 144.262521 
L 148.690909 144.135473 
L 145.309091 143.518868 
L 141.927273 142.744099 
L 138.545455 141.965009 
L 135.163636 141.151071 
L 131.781818 140.309389 
L 128.4 139.422763 
L 125.018182 138.511468 
L 121.636364 137.692745 
L 118.254545 136.827589 
L 114.872727 135.928184 
L 111.490909 135.037966 
L 108.109091 134.044069 
L 104.727273 133.111202 
L 101.345455 132.111023 
L 97.963636 131.099033 
L 94.581818 130.139267 
L 91.2 129.239826 
L 87.818182 128.340702 
L 84.436364 127.443396 
L 81.054545 126.540766 
L 77.672727 125.536808 
L 74.290909 124.530331 
L 70.909091 123.522953 
L 67.527273 122.515574 
L 64.145455 121.508195 
L 60.763636 120.500817 
L 57.381818 119.495941 
L 54 118.551537 
z
" style="fill:#c33543;fill-opacity:0.15;"/>
   </g>
   <g id="matplotlib.axis_1">
    <g id="xtick_1">
     <g id="line2d_1">
      <defs>
       <path d="M 0 0 
L 0 3.5 
" id="m5995394095" style="stroke:#000000;stroke-width:0.8;"/>
      </defs>
      <g>
       <use style="stroke:#000000;stroke-width:0.8;" x="61.342243" xlink:href="#m5995394095" y="252"/>
      </g>
     </g>
     <g id="text_1">
      <!-- 30 -->
      <g transform="translate(54.979743 266.598437)scale(0.1 -0.1)">
       <defs>
        <path d="M 40.578125 39.3125 
Q 47.65625 37.796875 51.625 33 
Q 55.609375 28.21875 55.609375 21.1875 
Q 55.609375 10.40625 48.1875 4.484375 
Q 40.765625 -1.421875 27.09375 -1.421875 
Q 22.515625 -1.421875 17.65625 -0.515625 
Q 12.796875 0.390625 7.625 2.203125 
L 7.625 11.71875 
Q 11.71875 9.328125 16.59375 8.109375 
Q 21.484375 6.890625 26.8125 6.890625 
Q 36.078125 6.890625 40.9375 10.546875 
Q 45.796875 14.203125 45.796875 21.1875 
Q 45.796875 27.640625 41.28125 31.265625 
Q 36.765625 34.90625 28.71875 34.90625 
L 20.21875 34.90625 
L 20.21875 43.015625 
L 29.109375 43.015625 
Q 36.375 43.015625 40.234375 45.921875 
Q 44.09375 48.828125 44.09375 54.296875 
Q 44.09375 59.90625 40.109375 62.90625 
Q 36.140625 65.921875 28.71875 65.921875 
Q 24.65625 65.921875 20.015625 65.03125 
Q 15.375 64.15625 9.8125 62.3125 
L 9.8125 71.09375 
Q 15.4375 72.65625 20.34375 73.4375 
Q 25.25 74.21875 29.59375 74.21875 
Q 40.828125 74.21875 47.359375 69.109375 
Q 53.90625 64.015625 53.90625 55.328125 
Q 53.90625 49.265625 50.4375 45.09375 
Q 46.96875 40.921875 40.578125 39.3125 
z
" id="DejaVuSans-51"/>
        <path d="M 31.78125 66.40625 
Q 24.171875 66.40625 20.328125 58.90625 
Q 16.5 51.421875 16.5 36.375 
Q 16.5 21.390625 20.328125 13.890625 
Q 24.171875 6.390625 31.78125 6.390625 
Q 39.453125 6.390625 43.28125 13.890625 
Q 47.125 21.390625 47.125 36.375 
Q 47.125 51.421875 43.28125 58.90625 
Q 39.453125 66.40625 31.78125 66.40625 
z
M 31.78125 74.21875 
Q 44.046875 74.21875 50.515625 64.515625 
Q 56.984375 54.828125 56.984375 36.375 
Q 56.984375 17.96875 50.515625 8.265625 
Q 44.046875 -1.421875 31.78125 -1.421875 
Q 19.53125 -1.421875 13.0625 8.265625 
Q 6.59375 17.96875 6.59375 36.375 
Q 6.59375 54.828125 13.0625 64.515625 
Q 19.53125 74.21875 31.78125 74.21875 
z
" id="DejaVuSans-48"/>
       </defs>
       <use xlink:href="#DejaVuSans-51"/>
       <use x="63.623047" xlink:href="#DejaVuSans-48"/>
      </g>
     </g>
    </g>
    <g id="xtick_2">
     <g id="line2d_2">
      <g>
       <use style="stroke:#000000;stroke-width:0.8;" x="102.675897" xlink:href="#m5995394095" y="252"/>
      </g>
     </g>
     <g id="text_2">
      <!-- 35 -->
      <g transform="translate(96.313397 266.598437)scale(0.1 -0.1)">
       <defs>
        <path d="M 10.796875 72.90625 
L 49.515625 72.90625 
L 49.515625 64.59375 
L 19.828125 64.59375 
L 19.828125 46.734375 
Q 21.96875 47.46875 24.109375 47.828125 
Q 26.265625 48.1875 28.421875 48.1875 
Q 40.625 48.1875 47.75 41.5 
Q 54.890625 34.8125 54.890625 23.390625 
Q 54.890625 11.625 47.5625 5.09375 
Q 40.234375 -1.421875 26.90625 -1.421875 
Q 22.3125 -1.421875 17.546875 -0.640625 
Q 12.796875 0.140625 7.71875 1.703125 
L 7.71875 11.625 
Q 12.109375 9.234375 16.796875 8.0625 
Q 21.484375 6.890625 26.703125 6.890625 
Q 35.15625 6.890625 40.078125 11.328125 
Q 45.015625 15.765625 45.015625 23.390625 
Q 45.015625 31 40.078125 35.4375 
Q 35.15625 39.890625 26.703125 39.890625 
Q 22.75 39.890625 18.8125 39.015625 
Q 14.890625 38.140625 10.796875 36.28125 
z
" id="DejaVuSans-53"/>
       </defs>
       <use xlink:href="#DejaVuSans-51"/>
       <use x="63.623047" xlink:href="#DejaVuSans-53"/>
      </g>
     </g>
    </g>
    <g id="xtick_3">
     <g id="line2d_3">
      <g>
       <use style="stroke:#000000;stroke-width:0.8;" x="144.00955" xlink:href="#m5995394095" y="252"/>
      </g>
     </g>
     <g id="text_3">
      <!-- 40 -->
      <g transform="translate(137.64705 266.598437)scale(0.1 -0.1)">
       <defs>
        <path d="M 37.796875 64.3125 
L 12.890625 25.390625 
L 37.796875 25.390625 
z
M 35.203125 72.90625 
L 47.609375 72.90625 
L 47.609375 25.390625 
L 58.015625 25.390625 
L 58.015625 17.1875 
L 47.609375 17.1875 
L 47.609375 0 
L 37.796875 0 
L 37.796875 17.1875 
L 4.890625 17.1875 
L 4.890625 26.703125 
z
" id="DejaVuSans-52"/>
       </defs>
       <use xlink:href="#DejaVuSans-52"/>
       <use x="63.623047" xlink:href="#DejaVuSans-48"/>
      </g>
     </g>
    </g>
    <g id="xtick_4">
     <g id="line2d_4">
      <g>
       <use style="stroke:#000000;stroke-width:0.8;" x="185.343204" xlink:href="#m5995394095" y="252"/>
      </g>
     </g>
     <g id="text_4">
      <!-- 45 -->
      <g transform="translate(178.980704 266.598437)scale(0.1 -0.1)">
       <use xlink:href="#DejaVuSans-52"/>
       <use x="63.623047" xlink:href="#DejaVuSans-53"/>
      </g>
     </g>
    </g>
    <g id="xtick_5">
     <g id="line2d_5">
      <g>
       <use style="stroke:#000000;stroke-width:0.8;" x="226.676858" xlink:href="#m5995394095" y="252"/>
      </g>
     </g>
     <g id="text_5">
      <!-- 50 -->
      <g transform="translate(220.314358 266.598437)scale(0.1 -0.1)">
       <use xlink:href="#DejaVuSans-53"/>
       <use x="63.623047" xlink:href="#DejaVuSans-48"/>
      </g>
     </g>
    </g>
    <g id="xtick_6">
     <g id="line2d_6">
      <g>
       <use style="stroke:#000000;stroke-width:0.8;" x="268.010512" xlink:href="#m5995394095" y="252"/>
      </g>
     </g>
     <g id="text_6">
      <!-- 55 -->
      <g transform="translate(261.648012 266.598437)scale(0.1 -0.1)">
       <use xlink:href="#DejaVuSans-53"/>
       <use x="63.623047" xlink:href="#DejaVuSans-53"/>
      </g>
     </g>
    </g>
    <g id="xtick_7">
     <g id="line2d_7">
      <g>
       <use style="stroke:#000000;stroke-width:0.8;" x="309.344165" xlink:href="#m5995394095" y="252"/>
      </g>
     </g>
     <g id="text_7">
      <!-- 60 -->
      <g transform="translate(302.981665 266.598437)scale(0.1 -0.1)">
       <defs>
        <path d="M 33.015625 40.375 
Q 26.375 40.375 22.484375 35.828125 
Q 18.609375 31.296875 18.609375 23.390625 
Q 18.609375 15.53125 22.484375 10.953125 
Q 26.375 6.390625 33.015625 6.390625 
Q 39.65625 6.390625 43.53125 10.953125 
Q 47.40625 15.53125 47.40625 23.390625 
Q 47.40625 31.296875 43.53125 35.828125 
Q 39.65625 40.375 33.015625 40.375 
z
M 52.59375 71.296875 
L 52.59375 62.3125 
Q 48.875 64.0625 45.09375 64.984375 
Q 41.3125 65.921875 37.59375 65.921875 
Q 27.828125 65.921875 22.671875 59.328125 
Q 17.53125 52.734375 16.796875 39.40625 
Q 19.671875 43.65625 24.015625 45.921875 
Q 28.375 48.1875 33.59375 48.1875 
Q 44.578125 48.1875 50.953125 41.515625 
Q 57.328125 34.859375 57.328125 23.390625 
Q 57.328125 12.15625 50.6875 5.359375 
Q 44.046875 -1.421875 33.015625 -1.421875 
Q 20.359375 -1.421875 13.671875 8.265625 
Q 6.984375 17.96875 6.984375 36.375 
Q 6.984375 53.65625 15.1875 63.9375 
Q 23.390625 74.21875 37.203125 74.21875 
Q 40.921875 74.21875 44.703125 73.484375 
Q 48.484375 72.75 52.59375 71.296875 
z
" id="DejaVuSans-54"/>
       </defs>
       <use xlink:href="#DejaVuSans-54"/>
       <use x="63.623047" xlink:href="#DejaVuSans-48"/>
      </g>
     </g>
    </g>
    <g id="xtick_8">
     <g id="line2d_8">
      <g>
       <use style="stroke:#000000;stroke-width:0.8;" x="350.677819" xlink:href="#m5995394095" y="252"/>
      </g>
     </g>
     <g id="text_8">
      <!-- 65 -->
      <g transform="translate(344.315319 266.598437)scale(0.1 -0.1)">
       <use xlink:href="#DejaVuSans-54"/>
       <use x="63.623047" xlink:href="#DejaVuSans-53"/>
      </g>
     </g>
    </g>
    <g id="text_9">
     <!-- GC -->
     <g transform="translate(214.034375 280.276563)scale(0.1 -0.1)">
      <defs>
       <path d="M 59.515625 10.40625 
L 59.515625 29.984375 
L 43.40625 29.984375 
L 43.40625 38.09375 
L 69.28125 38.09375 
L 69.28125 6.78125 
Q 63.578125 2.734375 56.6875 0.65625 
Q 49.8125 -1.421875 42 -1.421875 
Q 24.90625 -1.421875 15.25 8.5625 
Q 5.609375 18.5625 5.609375 36.375 
Q 5.609375 54.25 15.25 64.234375 
Q 24.90625 74.21875 42 74.21875 
Q 49.125 74.21875 55.546875 72.453125 
Q 61.96875 70.703125 67.390625 67.28125 
L 67.390625 56.78125 
Q 61.921875 61.421875 55.765625 63.765625 
Q 49.609375 66.109375 42.828125 66.109375 
Q 29.4375 66.109375 22.71875 58.640625 
Q 16.015625 51.171875 16.015625 36.375 
Q 16.015625 21.625 22.71875 14.15625 
Q 29.4375 6.6875 42.828125 6.6875 
Q 48.046875 6.6875 52.140625 7.59375 
Q 56.25 8.5 59.515625 10.40625 
z
" id="DejaVuSans-71"/>
       <path d="M 64.40625 67.28125 
L 64.40625 56.890625 
Q 59.421875 61.53125 53.78125 63.8125 
Q 48.140625 66.109375 41.796875 66.109375 
Q 29.296875 66.109375 22.65625 58.46875 
Q 16.015625 50.828125 16.015625 36.375 
Q 16.015625 21.96875 22.65625 14.328125 
Q 29.296875 6.6875 41.796875 6.6875 
Q 48.140625 6.6875 53.78125 8.984375 
Q 59.421875 11.28125 64.40625 15.921875 
L 64.40625 5.609375 
Q 59.234375 2.09375 53.4375 0.328125 
Q 47.65625 -1.421875 41.21875 -1.421875 
Q 24.65625 -1.421875 15.125 8.703125 
Q 5.609375 18.84375 5.609375 36.375 
Q 5.609375 53.953125 15.125 64.078125 
Q 24.65625 74.21875 41.21875 74.21875 
Q 47.75 74.21875 53.53125 72.484375 
Q 59.328125 70.75 64.40625 67.28125 
z
" id="DejaVuSans-67"/>
      </defs>
      <use xlink:href="#DejaVuSans-71"/>
      <use x="77.490234" xlink:href="#DejaVuSans-67"/>
     </g>
    </g>
   </g>
   <g id="matplotlib.axis_2">
    <g id="ytick_1">
     <g id="line2d_9">
      <defs>
       <path d="M 0 0 
L -3.5 0 
" id="mfef3b39e8f" style="stroke:#000000;stroke-width:0.8;"/>
      </defs>
      <g>
       <use style="stroke:#000000;stroke-width:0.8;" x="54" xlink:href="#mfef3b39e8f" y="249.933952"/>
      </g>
     </g>
     <g id="text_10">
      <!-- −0.4 -->
      <g transform="translate(22.717187 253.733171)scale(0.1 -0.1)">
       <defs>
        <path d="M 10.59375 35.5 
L 73.1875 35.5 
L 73.1875 27.203125 
L 10.59375 27.203125 
z
" id="DejaVuSans-8722"/>
        <path d="M 10.6875 12.40625 
L 21 12.40625 
L 21 0 
L 10.6875 0 
z
" id="DejaVuSans-46"/>
       </defs>
       <use xlink:href="#DejaVuSans-8722"/>
       <use x="83.789062" xlink:href="#DejaVuSans-48"/>
       <use x="147.412109" xlink:href="#DejaVuSans-46"/>
       <use x="179.199219" xlink:href="#DejaVuSans-52"/>
      </g>
     </g>
    </g>
    <g id="ytick_2">
     <g id="line2d_10">
      <g>
       <use style="stroke:#000000;stroke-width:0.8;" x="54" xlink:href="#mfef3b39e8f" y="223.220718"/>
      </g>
     </g>
     <g id="text_11">
      <!-- −0.3 -->
      <g transform="translate(22.717187 227.019937)scale(0.1 -0.1)">
       <use xlink:href="#DejaVuSans-8722"/>
       <use x="83.789062" xlink:href="#DejaVuSans-48"/>
       <use x="147.412109" xlink:href="#DejaVuSans-46"/>
       <use x="179.199219" xlink:href="#DejaVuSans-51"/>
      </g>
     </g>
    </g>
    <g id="ytick_3">
     <g id="line2d_11">
      <g>
       <use style="stroke:#000000;stroke-width:0.8;" x="54" xlink:href="#mfef3b39e8f" y="196.507483"/>
      </g>
     </g>
     <g id="text_12">
      <!-- −0.2 -->
      <g transform="translate(22.717187 200.306702)scale(0.1 -0.1)">
       <defs>
        <path d="M 19.1875 8.296875 
L 53.609375 8.296875 
L 53.609375 0 
L 7.328125 0 
L 7.328125 8.296875 
Q 12.9375 14.109375 22.625 23.890625 
Q 32.328125 33.6875 34.8125 36.53125 
Q 39.546875 41.84375 41.421875 45.53125 
Q 43.3125 49.21875 43.3125 52.78125 
Q 43.3125 58.59375 39.234375 62.25 
Q 35.15625 65.921875 28.609375 65.921875 
Q 23.96875 65.921875 18.8125 64.3125 
Q 13.671875 62.703125 7.8125 59.421875 
L 7.8125 69.390625 
Q 13.765625 71.78125 18.9375 73 
Q 24.125 74.21875 28.421875 74.21875 
Q 39.75 74.21875 46.484375 68.546875 
Q 53.21875 62.890625 53.21875 53.421875 
Q 53.21875 48.921875 51.53125 44.890625 
Q 49.859375 40.875 45.40625 35.40625 
Q 44.1875 33.984375 37.640625 27.21875 
Q 31.109375 20.453125 19.1875 8.296875 
z
" id="DejaVuSans-50"/>
       </defs>
       <use xlink:href="#DejaVuSans-8722"/>
       <use x="83.789062" xlink:href="#DejaVuSans-48"/>
       <use x="147.412109" xlink:href="#DejaVuSans-46"/>
       <use x="179.199219" xlink:href="#DejaVuSans-50"/>
      </g>
     </g>
    </g>
    <g id="ytick_4">
     <g id="line2d_12">
      <g>
       <use style="stroke:#000000;stroke-width:0.8;" x="54" xlink:href="#mfef3b39e8f" y="169.794249"/>
      </g>
     </g>
     <g id="text_13">
      <!-- −0.1 -->
      <g transform="translate(22.717187 173.593468)scale(0.1 -0.1)">
       <defs>
        <path d="M 12.40625 8.296875 
L 28.515625 8.296875 
L 28.515625 63.921875 
L 10.984375 60.40625 
L 10.984375 69.390625 
L 28.421875 72.90625 
L 38.28125 72.90625 
L 38.28125 8.296875 
L 54.390625 8.296875 
L 54.390625 0 
L 12.40625 0 
z
" id="DejaVuSans-49"/>
       </defs>
       <use xlink:href="#DejaVuSans-8722"/>
       <use x="83.789062" xlink:href="#DejaVuSans-48"/>
       <use x="147.412109" xlink:href="#DejaVuSans-46"/>
       <use x="179.199219" xlink:href="#DejaVuSans-49"/>
      </g>
     </g>
    </g>
    <g id="ytick_5">
     <g id="line2d_13">
      <g>
       <use style="stroke:#000000;stroke-width:0.8;" x="54" xlink:href="#mfef3b39e8f" y="143.081015"/>
      </g>
     </g>
     <g id="text_14">
      <!-- 0.0 -->
      <g transform="translate(31.096875 146.880233)scale(0.1 -0.1)">
       <use xlink:href="#DejaVuSans-48"/>
       <use x="63.623047" xlink:href="#DejaVuSans-46"/>
       <use x="95.410156" xlink:href="#DejaVuSans-48"/>
      </g>
     </g>
    </g>
    <g id="ytick_6">
     <g id="line2d_14">
      <g>
       <use style="stroke:#000000;stroke-width:0.8;" x="54" xlink:href="#mfef3b39e8f" y="116.36778"/>
      </g>
     </g>
     <g id="text_15">
      <!-- 0.1 -->
      <g transform="translate(31.096875 120.166999)scale(0.1 -0.1)">
       <use xlink:href="#DejaVuSans-48"/>
       <use x="63.623047" xlink:href="#DejaVuSans-46"/>
       <use x="95.410156" xlink:href="#DejaVuSans-49"/>
      </g>
     </g>
    </g>
    <g id="ytick_7">
     <g id="line2d_15">
      <g>
       <use style="stroke:#000000;stroke-width:0.8;" x="54" xlink:href="#mfef3b39e8f" y="89.654546"/>
      </g>
     </g>
     <g id="text_16">
      <!-- 0.2 -->
      <g transform="translate(31.096875 93.453765)scale(0.1 -0.1)">
       <use xlink:href="#DejaVuSans-48"/>
       <use x="63.623047" xlink:href="#DejaVuSans-46"/>
       <use x="95.410156" xlink:href="#DejaVuSans-50"/>
      </g>
     </g>
    </g>
    <g id="ytick_8">
     <g id="line2d_16">
      <g>
       <use style="stroke:#000000;stroke-width:0.8;" x="54" xlink:href="#mfef3b39e8f" y="62.941311"/>
      </g>
     </g>
     <g id="text_17">
      <!-- 0.3 -->
      <g transform="translate(31.096875 66.74053)scale(0.1 -0.1)">
       <use xlink:href="#DejaVuSans-48"/>
       <use x="63.623047" xlink:href="#DejaVuSans-46"/>
       <use x="95.410156" xlink:href="#DejaVuSans-51"/>
      </g>
     </g>
    </g>
    <g id="ytick_9">
     <g id="line2d_17">
      <g>
       <use style="stroke:#000000;stroke-width:0.8;" x="54" xlink:href="#mfef3b39e8f" y="36.228077"/>
      </g>
     </g>
     <g id="text_18">
      <!-- 0.4 -->
      <g transform="translate(31.096875 40.027296)scale(0.1 -0.1)">
       <use xlink:href="#DejaVuSans-48"/>
       <use x="63.623047" xlink:href="#DejaVuSans-46"/>
       <use x="95.410156" xlink:href="#DejaVuSans-52"/>
      </g>
     </g>
    </g>
    <g id="text_19">
     <!-- Density -->
     <g transform="translate(16.6375 162.288594)rotate(-90)scale(0.1 -0.1)">
      <defs>
       <path d="M 19.671875 64.796875 
L 19.671875 8.109375 
L 31.59375 8.109375 
Q 46.6875 8.109375 53.6875 14.9375 
Q 60.6875 21.78125 60.6875 36.53125 
Q 60.6875 51.171875 53.6875 57.984375 
Q 46.6875 64.796875 31.59375 64.796875 
z
M 9.8125 72.90625 
L 30.078125 72.90625 
Q 51.265625 72.90625 61.171875 64.09375 
Q 71.09375 55.28125 71.09375 36.53125 
Q 71.09375 17.671875 61.125 8.828125 
Q 51.171875 0 30.078125 0 
L 9.8125 0 
z
" id="DejaVuSans-68"/>
       <path d="M 56.203125 29.59375 
L 56.203125 25.203125 
L 14.890625 25.203125 
Q 15.484375 15.921875 20.484375 11.0625 
Q 25.484375 6.203125 34.421875 6.203125 
Q 39.59375 6.203125 44.453125 7.46875 
Q 49.3125 8.734375 54.109375 11.28125 
L 54.109375 2.78125 
Q 49.265625 0.734375 44.1875 -0.34375 
Q 39.109375 -1.421875 33.890625 -1.421875 
Q 20.796875 -1.421875 13.15625 6.1875 
Q 5.515625 13.8125 5.515625 26.8125 
Q 5.515625 40.234375 12.765625 48.109375 
Q 20.015625 56 32.328125 56 
Q 43.359375 56 49.78125 48.890625 
Q 56.203125 41.796875 56.203125 29.59375 
z
M 47.21875 32.234375 
Q 47.125 39.59375 43.09375 43.984375 
Q 39.0625 48.390625 32.421875 48.390625 
Q 24.90625 48.390625 20.390625 44.140625 
Q 15.875 39.890625 15.1875 32.171875 
z
" id="DejaVuSans-101"/>
       <path d="M 54.890625 33.015625 
L 54.890625 0 
L 45.90625 0 
L 45.90625 32.71875 
Q 45.90625 40.484375 42.875 44.328125 
Q 39.84375 48.1875 33.796875 48.1875 
Q 26.515625 48.1875 22.3125 43.546875 
Q 18.109375 38.921875 18.109375 30.90625 
L 18.109375 0 
L 9.078125 0 
L 9.078125 54.6875 
L 18.109375 54.6875 
L 18.109375 46.1875 
Q 21.34375 51.125 25.703125 53.5625 
Q 30.078125 56 35.796875 56 
Q 45.21875 56 50.046875 50.171875 
Q 54.890625 44.34375 54.890625 33.015625 
z
" id="DejaVuSans-110"/>
       <path d="M 44.28125 53.078125 
L 44.28125 44.578125 
Q 40.484375 46.53125 36.375 47.5 
Q 32.28125 48.484375 27.875 48.484375 
Q 21.1875 48.484375 17.84375 46.4375 
Q 14.5 44.390625 14.5 40.28125 
Q 14.5 37.15625 16.890625 35.375 
Q 19.28125 33.59375 26.515625 31.984375 
L 29.59375 31.296875 
Q 39.15625 29.25 43.1875 25.515625 
Q 47.21875 21.78125 47.21875 15.09375 
Q 47.21875 7.46875 41.1875 3.015625 
Q 35.15625 -1.421875 24.609375 -1.421875 
Q 20.21875 -1.421875 15.453125 -0.5625 
Q 10.6875 0.296875 5.421875 2 
L 5.421875 11.28125 
Q 10.40625 8.6875 15.234375 7.390625 
Q 20.0625 6.109375 24.8125 6.109375 
Q 31.15625 6.109375 34.5625 8.28125 
Q 37.984375 10.453125 37.984375 14.40625 
Q 37.984375 18.0625 35.515625 20.015625 
Q 33.0625 21.96875 24.703125 23.78125 
L 21.578125 24.515625 
Q 13.234375 26.265625 9.515625 29.90625 
Q 5.8125 33.546875 5.8125 39.890625 
Q 5.8125 47.609375 11.28125 51.796875 
Q 16.75 56 26.8125 56 
Q 31.78125 56 36.171875 55.265625 
Q 40.578125 54.546875 44.28125 53.078125 
z
" id="DejaVuSans-115"/>
       <path d="M 9.421875 54.6875 
L 18.40625 54.6875 
L 18.40625 0 
L 9.421875 0 
z
M 9.421875 75.984375 
L 18.40625 75.984375 
L 18.40625 64.59375 
L 9.421875 64.59375 
z
" id="DejaVuSans-105"/>
       <path d="M 18.3125 70.21875 
L 18.3125 54.6875 
L 36.8125 54.6875 
L 36.8125 47.703125 
L 18.3125 47.703125 
L 18.3125 18.015625 
Q 18.3125 11.328125 20.140625 9.421875 
Q 21.96875 7.515625 27.59375 7.515625 
L 36.8125 7.515625 
L 36.8125 0 
L 27.59375 0 
Q 17.1875 0 13.234375 3.875 
Q 9.28125 7.765625 9.28125 18.015625 
L 9.28125 47.703125 
L 2.6875 47.703125 
L 2.6875 54.6875 
L 9.28125 54.6875 
L 9.28125 70.21875 
z
" id="DejaVuSans-116"/>
       <path d="M 32.171875 -5.078125 
Q 28.375 -14.84375 24.75 -17.8125 
Q 21.140625 -20.796875 15.09375 -20.796875 
L 7.90625 -20.796875 
L 7.90625 -13.28125 
L 13.1875 -13.28125 
Q 16.890625 -13.28125 18.9375 -11.515625 
Q 21 -9.765625 23.484375 -3.21875 
L 25.09375 0.875 
L 2.984375 54.6875 
L 12.5 54.6875 
L 29.59375 11.921875 
L 46.6875 54.6875 
L 56.203125 54.6875 
z
" id="DejaVuSans-121"/>
      </defs>
      <use xlink:href="#DejaVuSans-68"/>
      <use x="77.001953" xlink:href="#DejaVuSans-101"/>
      <use x="138.525391" xlink:href="#DejaVuSans-110"/>
      <use x="201.904297" xlink:href="#DejaVuSans-115"/>
      <use x="254.003906" xlink:href="#DejaVuSans-105"/>
      <use x="281.787109" xlink:href="#DejaVuSans-116"/>
      <use x="320.996094" xlink:href="#DejaVuSans-121"/>
     </g>
    </g>
   </g>
   <g id="line2d_18">
    <path clip-path="url(#p7b114d047e)" d="M 54 140.186168 
L 57.381818 140.465025 
L 60.763636 140.743883 
L 64.145455 141.02274 
L 67.527273 141.301597 
L 70.909091 141.580454 
L 74.290909 141.859311 
L 77.672727 142.138168 
L 81.054545 142.417026 
L 84.436364 142.695883 
L 87.818182 142.97474 
L 91.2 143.253597 
L 94.581818 143.532454 
L 97.963636 143.811311 
L 101.345455 144.090168 
L 104.727273 144.369026 
L 108.109091 144.647883 
L 111.490909 144.92674 
L 114.872727 145.205597 
L 118.254545 145.484454 
L 121.636364 145.763311 
L 125.018182 146.042169 
L 128.4 146.321026 
L 131.781818 146.599883 
L 135.163636 146.87874 
L 138.545455 147.157597 
L 141.927273 147.436454 
L 145.309091 147.715312 
L 148.690909 147.994169 
L 152.072727 148.273026 
L 155.454545 148.551883 
L 158.836364 148.83074 
L 162.218182 149.109597 
L 165.6 149.388455 
L 168.981818 149.667312 
L 172.363636 149.946169 
L 175.745455 150.225026 
L 179.127273 150.503883 
L 182.509091 150.78274 
L 185.890909 151.061598 
L 189.272727 151.340455 
L 192.654545 151.619312 
L 196.036364 151.898169 
L 199.418182 152.177026 
L 202.8 152.455883 
L 206.181818 152.73474 
L 209.563636 153.013598 
L 212.945455 153.292455 
L 216.327273 153.571312 
L 219.709091 153.850169 
L 223.090909 154.129026 
L 226.472727 154.407883 
L 229.854545 154.686741 
L 233.236364 154.965598 
L 236.618182 155.244455 
L 240 155.523312 
L 243.381818 155.802169 
L 246.763636 156.081026 
L 250.145455 156.359884 
L 253.527273 156.638741 
L 256.909091 156.917598 
L 260.290909 157.196455 
L 263.672727 157.475312 
L 267.054545 157.754169 
L 270.436364 158.033027 
L 273.818182 158.311884 
L 277.2 158.590741 
L 280.581818 158.869598 
L 283.963636 159.148455 
L 287.345455 159.427312 
L 290.727273 159.706169 
L 294.109091 159.985027 
L 297.490909 160.263884 
L 300.872727 160.542741 
L 304.254545 160.821598 
L 307.636364 161.100455 
L 311.018182 161.379312 
L 314.4 161.65817 
L 317.781818 161.937027 
L 321.163636 162.215884 
L 324.545455 162.494741 
L 327.927273 162.773598 
L 331.309091 163.052455 
L 334.690909 163.331313 
L 338.072727 163.61017 
L 341.454545 163.889027 
L 344.836364 164.167884 
L 348.218182 164.446741 
L 351.6 164.725598 
L 354.981818 165.004456 
L 358.363636 165.283313 
L 361.745455 165.56217 
L 365.127273 165.841027 
L 368.509091 166.119884 
L 371.890909 166.398741 
L 375.272727 166.677599 
L 378.654545 166.956456 
L 382.036364 167.235313 
L 385.418182 167.51417 
L 388.8 167.793027 
" style="fill:none;stroke:#c33543;stroke-linecap:square;stroke-width:2.25;"/>
   </g>
   <g id="patch_3">
    <path d="M 54 252 
L 54 34.56 
" style="fill:none;stroke:#000000;stroke-linecap:square;stroke-linejoin:miter;stroke-width:0.8;"/>
   </g>
   <g id="patch_4">
    <path d="M 388.8 252 
L 388.8 34.56 
" style="fill:none;stroke:#000000;stroke-linecap:square;stroke-linejoin:miter;stroke-width:0.8;"/>
   </g>
   <g id="patch_5">
    <path d="M 54 252 
L 388.8 252 
" style="fill:none;stroke:#000000;stroke-linecap:square;stroke-linejoin:miter;stroke-width:0.8;"/>
   </g>
   <g id="patch_6">
    <path d="M 54 34.56 
L 388.8 34.56 
" style="fill:none;stroke:#000000;stroke-linecap:square;stroke-linejoin:miter;stroke-width:0.8;"/>
   </g>
  </g>
 </g>
 <defs>
  <clipPath id="p7b114d047e">
   <rect height="217.44" width="334.8" x="54" y="34.56"/>
  </clipPath>
 </defs>
</svg>
