<?xml version="1.0" encoding="utf-8" standalone="no"?>
<!DOCTYPE svg PUBLIC "-//W3C//DTD SVG 1.1//EN"
  "http://www.w3.org/Graphics/SVG/1.1/DTD/svg11.dtd">
<!-- Created with matplotlib (https://matplotlib.org/) -->
<svg height="288pt" version="1.1" viewBox="0 0 432 288" width="432pt" xmlns="http://www.w3.org/2000/svg" xmlns:xlink="http://www.w3.org/1999/xlink">
 <metadata>
  <rdf:RDF xmlns:cc="http://creativecommons.org/ns#" xmlns:dc="http://purl.org/dc/elements/1.1/" xmlns:rdf="http://www.w3.org/1999/02/22-rdf-syntax-ns#">
   <cc:Work>
    <dc:type rdf:resource="http://purl.org/dc/dcmitype/StillImage"/>
    <dc:date>2021-04-15T19:50:34.945269</dc:date>
    <dc:format>image/svg+xml</dc:format>
    <dc:creator>
     <cc:Agent>
      <dc:title>Matplotlib v3.3.2, https://matplotlib.org/</dc:title>
     </cc:Agent>
    </dc:creator>
   </cc:Work>
  </rdf:RDF>
 </metadata>
 <defs>
  <style type="text/css">*{stroke-linecap:butt;stroke-linejoin:round;}</style>
 </defs>
 <g id="figure_1">
  <g id="patch_1">
   <path d="M 0 288 
L 432 288 
L 432 0 
L 0 0 
z
" style="fill:none;"/>
  </g>
  <g id="axes_1">
   <g id="patch_2">
    <path d="M 54 252 
L 388.8 252 
L 388.8 34.56 
L 54 34.56 
z
" style="fill:#ffffff;"/>
   </g>
   <g id="PathCollection_1">
    <defs>
     <path d="M 0 3 
C 0.795609 3 1.55874 2.683901 2.12132 2.12132 
C 2.683901 1.55874 3 0.795609 3 0 
C 3 -0.795609 2.683901 -1.55874 2.12132 -2.12132 
C 1.55874 -2.683901 0.795609 -3 0 -3 
C -0.795609 -3 -1.55874 -2.683901 -2.12132 -2.12132 
C -2.683901 -1.55874 -3 -0.795609 -3 0 
C -3 0.795609 -2.683901 1.55874 -2.12132 2.12132 
C -1.55874 2.683901 -0.795609 3 0 3 
z
" id="m4dec028ca3" style="stroke:#d3772e;stroke-opacity:0.8;"/>
    </defs>
    <g clip-path="url(#p15b3211b07)">
     <use style="fill:#d3772e;fill-opacity:0.8;stroke:#d3772e;stroke-opacity:0.8;" x="297.476053" xlink:href="#m4dec028ca3" y="109.786811"/>
     <use style="fill:#d3772e;fill-opacity:0.8;stroke:#d3772e;stroke-opacity:0.8;" x="235.591956" xlink:href="#m4dec028ca3" y="116.904975"/>
     <use style="fill:#d3772e;fill-opacity:0.8;stroke:#d3772e;stroke-opacity:0.8;" x="118.190839" xlink:href="#m4dec028ca3" y="116.904975"/>
     <use style="fill:#d3772e;fill-opacity:0.8;stroke:#d3772e;stroke-opacity:0.8;" x="330.32411" xlink:href="#m4dec028ca3" y="116.904975"/>
     <use style="fill:#d3772e;fill-opacity:0.8;stroke:#d3772e;stroke-opacity:0.8;" x="128.531292" xlink:href="#m4dec028ca3" y="112.139063"/>
     <use style="fill:#d3772e;fill-opacity:0.8;stroke:#d3772e;stroke-opacity:0.8;" x="298.939038" xlink:href="#m4dec028ca3" y="187.281095"/>
     <use style="fill:#d3772e;fill-opacity:0.8;stroke:#d3772e;stroke-opacity:0.8;" x="320.480753" xlink:href="#m4dec028ca3" y="233.927834"/>
     <use style="fill:#d3772e;fill-opacity:0.8;stroke:#d3772e;stroke-opacity:0.8;" x="54" xlink:href="#m4dec028ca3" y="116.904975"/>
     <use style="fill:#d3772e;fill-opacity:0.8;stroke:#d3772e;stroke-opacity:0.8;" x="188.163805" xlink:href="#m4dec028ca3" y="68.920398"/>
     <use style="fill:#d3772e;fill-opacity:0.8;stroke:#d3772e;stroke-opacity:0.8;" x="313.826998" xlink:href="#m4dec028ca3" y="242.116364"/>
     <use style="fill:#d3772e;fill-opacity:0.8;stroke:#d3772e;stroke-opacity:0.8;" x="269.050778" xlink:href="#m4dec028ca3" y="116.904975"/>
     <use style="fill:#d3772e;fill-opacity:0.8;stroke:#d3772e;stroke-opacity:0.8;" x="317.041644" xlink:href="#m4dec028ca3" y="136.828044"/>
     <use style="fill:#d3772e;fill-opacity:0.8;stroke:#d3772e;stroke-opacity:0.8;" x="388.8" xlink:href="#m4dec028ca3" y="106.083949"/>
     <use style="fill:#d3772e;fill-opacity:0.8;stroke:#d3772e;stroke-opacity:0.8;" x="253.307654" xlink:href="#m4dec028ca3" y="95.625394"/>
     <use style="fill:#d3772e;fill-opacity:0.8;stroke:#d3772e;stroke-opacity:0.8;" x="267.889664" xlink:href="#m4dec028ca3" y="98.814238"/>
     <use style="fill:#d3772e;fill-opacity:0.8;stroke:#d3772e;stroke-opacity:0.8;" x="291.609368" xlink:href="#m4dec028ca3" y="75.963178"/>
     <use style="fill:#d3772e;fill-opacity:0.8;stroke:#d3772e;stroke-opacity:0.8;" x="218.219551" xlink:href="#m4dec028ca3" y="116.904975"/>
     <use style="fill:#d3772e;fill-opacity:0.8;stroke:#d3772e;stroke-opacity:0.8;" x="308.082935" xlink:href="#m4dec028ca3" y="44.443636"/>
     <use style="fill:#d3772e;fill-opacity:0.8;stroke:#d3772e;stroke-opacity:0.8;" x="317.327938" xlink:href="#m4dec028ca3" y="125.469375"/>
     <use style="fill:#d3772e;fill-opacity:0.8;stroke:#d3772e;stroke-opacity:0.8;" x="300.652807" xlink:href="#m4dec028ca3" y="70.069521"/>
     <use style="fill:#d3772e;fill-opacity:0.8;stroke:#d3772e;stroke-opacity:0.8;" x="277.457415" xlink:href="#m4dec028ca3" y="116.904975"/>
     <use style="fill:#d3772e;fill-opacity:0.8;stroke:#d3772e;stroke-opacity:0.8;" x="208.738495" xlink:href="#m4dec028ca3" y="81.6012"/>
     <use style="fill:#d3772e;fill-opacity:0.8;stroke:#d3772e;stroke-opacity:0.8;" x="112.764034" xlink:href="#m4dec028ca3" y="110.524746"/>
     <use style="fill:#d3772e;fill-opacity:0.8;stroke:#d3772e;stroke-opacity:0.8;" x="240.923752" xlink:href="#m4dec028ca3" y="108.578672"/>
     <use style="fill:#d3772e;fill-opacity:0.8;stroke:#d3772e;stroke-opacity:0.8;" x="273.033568" xlink:href="#m4dec028ca3" y="192.168936"/>
    </g>
   </g>
   <g id="PolyCollection_1">
    <path clip-path="url(#p15b3211b07)" d="M 54 47.325462 
L 54 115.796991 
L 57.381818 115.818583 
L 60.763636 115.83872 
L 64.145455 115.813883 
L 67.527273 115.726831 
L 70.909091 115.79832 
L 74.290909 115.702878 
L 77.672727 115.675244 
L 81.054545 115.764827 
L 84.436364 115.848111 
L 87.818182 115.952069 
L 91.2 115.92731 
L 94.581818 116.068951 
L 97.963636 116.175043 
L 101.345455 116.398253 
L 104.727273 116.299628 
L 108.109091 116.334141 
L 111.490909 116.491017 
L 114.872727 116.921427 
L 118.254545 116.960065 
L 121.636364 117.02605 
L 125.018182 117.118622 
L 128.4 117.265531 
L 131.781818 117.418825 
L 135.163636 117.651126 
L 138.545455 117.902248 
L 141.927273 118.137811 
L 145.309091 118.715926 
L 148.690909 118.879802 
L 152.072727 119.20024 
L 155.454545 119.728945 
L 158.836364 120.324219 
L 162.218182 120.639535 
L 165.6 121.117778 
L 168.981818 121.405599 
L 172.363636 121.927776 
L 175.745455 122.315246 
L 179.127273 123.021109 
L 182.509091 123.454003 
L 185.890909 124.160795 
L 189.272727 124.946607 
L 192.654545 125.62355 
L 196.036364 126.474803 
L 199.418182 127.300347 
L 202.8 127.973447 
L 206.181818 128.416141 
L 209.563636 129.154007 
L 212.945455 129.641344 
L 216.327273 130.423333 
L 219.709091 130.883104 
L 223.090909 131.659428 
L 226.472727 132.464984 
L 229.854545 133.448106 
L 233.236364 134.356279 
L 236.618182 135.226871 
L 240 135.968736 
L 243.381818 136.860175 
L 246.763636 137.51727 
L 250.145455 138.316219 
L 253.527273 139.107122 
L 256.909091 140.093343 
L 260.290909 141.181587 
L 263.672727 142.221479 
L 267.054545 143.008518 
L 270.436364 143.790664 
L 273.818182 144.581912 
L 277.2 145.377725 
L 280.581818 146.163537 
L 283.963636 147.169955 
L 287.345455 148.515631 
L 290.727273 149.734575 
L 294.109091 150.54115 
L 297.490909 151.390131 
L 300.872727 152.55096 
L 304.254545 153.528778 
L 307.636364 154.560158 
L 311.018182 155.673347 
L 314.4 156.783395 
L 317.781818 157.896999 
L 321.163636 159.010141 
L 324.545455 160.10849 
L 327.927273 161.218755 
L 331.309091 162.395156 
L 334.690909 163.532921 
L 338.072727 164.660504 
L 341.454545 165.786709 
L 344.836364 167.396637 
L 348.218182 168.500182 
L 351.6 169.878834 
L 354.981818 171.257852 
L 358.363636 172.398769 
L 361.745455 173.432609 
L 365.127273 174.464381 
L 368.509091 175.496152 
L 371.890909 176.527923 
L 375.272727 177.559695 
L 378.654545 178.591466 
L 382.036364 179.622578 
L 385.418182 180.584759 
L 388.8 181.53622 
L 388.8 101.656484 
L 388.8 101.656484 
L 385.418182 101.708114 
L 382.036364 101.759743 
L 378.654545 101.811373 
L 375.272727 101.863002 
L 371.890909 101.914632 
L 368.509091 101.976488 
L 365.127273 102.026473 
L 361.745455 102.065226 
L 358.363636 102.11385 
L 354.981818 102.163231 
L 351.6 102.214388 
L 348.218182 102.265545 
L 344.836364 102.362397 
L 341.454545 102.536296 
L 338.072727 102.565347 
L 334.690909 102.651366 
L 331.309091 102.839824 
L 327.927273 102.869868 
L 324.545455 102.921126 
L 321.163636 103.06239 
L 317.781818 103.205792 
L 314.4 103.378671 
L 311.018182 103.503011 
L 307.636364 103.581117 
L 304.254545 103.518159 
L 300.872727 103.477672 
L 297.490909 103.676471 
L 294.109091 103.714248 
L 290.727273 103.905569 
L 287.345455 103.815252 
L 283.963636 103.735728 
L 280.581818 103.818038 
L 277.2 103.973575 
L 273.818182 104.04101 
L 270.436364 104.066959 
L 267.054545 104.148266 
L 263.672727 104.229162 
L 260.290909 104.270728 
L 256.909091 104.26035 
L 253.527273 104.36696 
L 250.145455 104.475259 
L 246.763636 104.399292 
L 243.381818 104.213036 
L 240 104.030998 
L 236.618182 103.842363 
L 233.236364 103.697167 
L 229.854545 103.471665 
L 226.472727 103.157974 
L 223.090909 102.696752 
L 219.709091 102.159511 
L 216.327273 101.844387 
L 212.945455 101.374362 
L 209.563636 100.9729 
L 206.181818 100.181818 
L 202.8 99.347311 
L 199.418182 98.447186 
L 196.036364 97.537767 
L 192.654545 96.509464 
L 189.272727 95.485756 
L 185.890909 94.661531 
L 182.509091 93.344223 
L 179.127273 92.465636 
L 175.745455 91.704027 
L 172.363636 90.516604 
L 168.981818 89.391888 
L 165.6 87.772858 
L 162.218182 86.601482 
L 158.836364 85.496967 
L 155.454545 84.330966 
L 152.072727 83.28971 
L 148.690909 82.234607 
L 145.309091 81.129251 
L 141.927273 80.028492 
L 138.545455 78.927732 
L 135.163636 77.588291 
L 131.781818 75.722374 
L 128.4 74.085059 
L 125.018182 72.724761 
L 121.636364 71.57552 
L 118.254545 70.674782 
L 114.872727 69.774043 
L 111.490909 68.873305 
L 108.109091 67.624155 
L 104.727273 66.21521 
L 101.345455 64.806265 
L 97.963636 63.397321 
L 94.581818 62.097899 
L 91.2 61.111267 
L 87.818182 60.124636 
L 84.436364 59.138004 
L 81.054545 57.91603 
L 77.672727 56.589546 
L 74.290909 55.263063 
L 70.909091 53.936579 
L 67.527273 52.610096 
L 64.145455 51.283612 
L 60.763636 49.959962 
L 57.381818 48.642712 
L 54 47.325462 
z
" style="fill:#d3772e;fill-opacity:0.15;"/>
   </g>
   <g id="matplotlib.axis_1">
    <g id="xtick_1">
     <g id="line2d_1">
      <defs>
       <path d="M 0 0 
L 0 3.5 
" id="m730787368c" style="stroke:#000000;stroke-width:0.8;"/>
      </defs>
      <g>
       <use style="stroke:#000000;stroke-width:0.8;" x="100.74545" xlink:href="#m730787368c" y="252"/>
      </g>
     </g>
     <g id="text_1">
      <!-- 35 -->
      <g transform="translate(94.38295 266.598437)scale(0.1 -0.1)">
       <defs>
        <path d="M 40.578125 39.3125 
Q 47.65625 37.796875 51.625 33 
Q 55.609375 28.21875 55.609375 21.1875 
Q 55.609375 10.40625 48.1875 4.484375 
Q 40.765625 -1.421875 27.09375 -1.421875 
Q 22.515625 -1.421875 17.65625 -0.515625 
Q 12.796875 0.390625 7.625 2.203125 
L 7.625 11.71875 
Q 11.71875 9.328125 16.59375 8.109375 
Q 21.484375 6.890625 26.8125 6.890625 
Q 36.078125 6.890625 40.9375 10.546875 
Q 45.796875 14.203125 45.796875 21.1875 
Q 45.796875 27.640625 41.28125 31.265625 
Q 36.765625 34.90625 28.71875 34.90625 
L 20.21875 34.90625 
L 20.21875 43.015625 
L 29.109375 43.015625 
Q 36.375 43.015625 40.234375 45.921875 
Q 44.09375 48.828125 44.09375 54.296875 
Q 44.09375 59.90625 40.109375 62.90625 
Q 36.140625 65.921875 28.71875 65.921875 
Q 24.65625 65.921875 20.015625 65.03125 
Q 15.375 64.15625 9.8125 62.3125 
L 9.8125 71.09375 
Q 15.4375 72.65625 20.34375 73.4375 
Q 25.25 74.21875 29.59375 74.21875 
Q 40.828125 74.21875 47.359375 69.109375 
Q 53.90625 64.015625 53.90625 55.328125 
Q 53.90625 49.265625 50.4375 45.09375 
Q 46.96875 40.921875 40.578125 39.3125 
z
" id="DejaVuSans-51"/>
        <path d="M 10.796875 72.90625 
L 49.515625 72.90625 
L 49.515625 64.59375 
L 19.828125 64.59375 
L 19.828125 46.734375 
Q 21.96875 47.46875 24.109375 47.828125 
Q 26.265625 48.1875 28.421875 48.1875 
Q 40.625 48.1875 47.75 41.5 
Q 54.890625 34.8125 54.890625 23.390625 
Q 54.890625 11.625 47.5625 5.09375 
Q 40.234375 -1.421875 26.90625 -1.421875 
Q 22.3125 -1.421875 17.546875 -0.640625 
Q 12.796875 0.140625 7.71875 1.703125 
L 7.71875 11.625 
Q 12.109375 9.234375 16.796875 8.0625 
Q 21.484375 6.890625 26.703125 6.890625 
Q 35.15625 6.890625 40.078125 11.328125 
Q 45.015625 15.765625 45.015625 23.390625 
Q 45.015625 31 40.078125 35.4375 
Q 35.15625 39.890625 26.703125 39.890625 
Q 22.75 39.890625 18.8125 39.015625 
Q 14.890625 38.140625 10.796875 36.28125 
z
" id="DejaVuSans-53"/>
       </defs>
       <use xlink:href="#DejaVuSans-51"/>
       <use x="63.623047" xlink:href="#DejaVuSans-53"/>
      </g>
     </g>
    </g>
    <g id="xtick_2">
     <g id="line2d_2">
      <g>
       <use style="stroke:#000000;stroke-width:0.8;" x="165.591154" xlink:href="#m730787368c" y="252"/>
      </g>
     </g>
     <g id="text_2">
      <!-- 40 -->
      <g transform="translate(159.228654 266.598437)scale(0.1 -0.1)">
       <defs>
        <path d="M 37.796875 64.3125 
L 12.890625 25.390625 
L 37.796875 25.390625 
z
M 35.203125 72.90625 
L 47.609375 72.90625 
L 47.609375 25.390625 
L 58.015625 25.390625 
L 58.015625 17.1875 
L 47.609375 17.1875 
L 47.609375 0 
L 37.796875 0 
L 37.796875 17.1875 
L 4.890625 17.1875 
L 4.890625 26.703125 
z
" id="DejaVuSans-52"/>
        <path d="M 31.78125 66.40625 
Q 24.171875 66.40625 20.328125 58.90625 
Q 16.5 51.421875 16.5 36.375 
Q 16.5 21.390625 20.328125 13.890625 
Q 24.171875 6.390625 31.78125 6.390625 
Q 39.453125 6.390625 43.28125 13.890625 
Q 47.125 21.390625 47.125 36.375 
Q 47.125 51.421875 43.28125 58.90625 
Q 39.453125 66.40625 31.78125 66.40625 
z
M 31.78125 74.21875 
Q 44.046875 74.21875 50.515625 64.515625 
Q 56.984375 54.828125 56.984375 36.375 
Q 56.984375 17.96875 50.515625 8.265625 
Q 44.046875 -1.421875 31.78125 -1.421875 
Q 19.53125 -1.421875 13.0625 8.265625 
Q 6.59375 17.96875 6.59375 36.375 
Q 6.59375 54.828125 13.0625 64.515625 
Q 19.53125 74.21875 31.78125 74.21875 
z
" id="DejaVuSans-48"/>
       </defs>
       <use xlink:href="#DejaVuSans-52"/>
       <use x="63.623047" xlink:href="#DejaVuSans-48"/>
      </g>
     </g>
    </g>
    <g id="xtick_3">
     <g id="line2d_3">
      <g>
       <use style="stroke:#000000;stroke-width:0.8;" x="230.436858" xlink:href="#m730787368c" y="252"/>
      </g>
     </g>
     <g id="text_3">
      <!-- 45 -->
      <g transform="translate(224.074358 266.598437)scale(0.1 -0.1)">
       <use xlink:href="#DejaVuSans-52"/>
       <use x="63.623047" xlink:href="#DejaVuSans-53"/>
      </g>
     </g>
    </g>
    <g id="xtick_4">
     <g id="line2d_4">
      <g>
       <use style="stroke:#000000;stroke-width:0.8;" x="295.282562" xlink:href="#m730787368c" y="252"/>
      </g>
     </g>
     <g id="text_4">
      <!-- 50 -->
      <g transform="translate(288.920062 266.598437)scale(0.1 -0.1)">
       <use xlink:href="#DejaVuSans-53"/>
       <use x="63.623047" xlink:href="#DejaVuSans-48"/>
      </g>
     </g>
    </g>
    <g id="xtick_5">
     <g id="line2d_5">
      <g>
       <use style="stroke:#000000;stroke-width:0.8;" x="360.128266" xlink:href="#m730787368c" y="252"/>
      </g>
     </g>
     <g id="text_5">
      <!-- 55 -->
      <g transform="translate(353.765766 266.598437)scale(0.1 -0.1)">
       <use xlink:href="#DejaVuSans-53"/>
       <use x="63.623047" xlink:href="#DejaVuSans-53"/>
      </g>
     </g>
    </g>
    <g id="text_6">
     <!-- GC -->
     <g transform="translate(214.034375 280.276563)scale(0.1 -0.1)">
      <defs>
       <path d="M 59.515625 10.40625 
L 59.515625 29.984375 
L 43.40625 29.984375 
L 43.40625 38.09375 
L 69.28125 38.09375 
L 69.28125 6.78125 
Q 63.578125 2.734375 56.6875 0.65625 
Q 49.8125 -1.421875 42 -1.421875 
Q 24.90625 -1.421875 15.25 8.5625 
Q 5.609375 18.5625 5.609375 36.375 
Q 5.609375 54.25 15.25 64.234375 
Q 24.90625 74.21875 42 74.21875 
Q 49.125 74.21875 55.546875 72.453125 
Q 61.96875 70.703125 67.390625 67.28125 
L 67.390625 56.78125 
Q 61.921875 61.421875 55.765625 63.765625 
Q 49.609375 66.109375 42.828125 66.109375 
Q 29.4375 66.109375 22.71875 58.640625 
Q 16.015625 51.171875 16.015625 36.375 
Q 16.015625 21.625 22.71875 14.15625 
Q 29.4375 6.6875 42.828125 6.6875 
Q 48.046875 6.6875 52.140625 7.59375 
Q 56.25 8.5 59.515625 10.40625 
z
" id="DejaVuSans-71"/>
       <path d="M 64.40625 67.28125 
L 64.40625 56.890625 
Q 59.421875 61.53125 53.78125 63.8125 
Q 48.140625 66.109375 41.796875 66.109375 
Q 29.296875 66.109375 22.65625 58.46875 
Q 16.015625 50.828125 16.015625 36.375 
Q 16.015625 21.96875 22.65625 14.328125 
Q 29.296875 6.6875 41.796875 6.6875 
Q 48.140625 6.6875 53.78125 8.984375 
Q 59.421875 11.28125 64.40625 15.921875 
L 64.40625 5.609375 
Q 59.234375 2.09375 53.4375 0.328125 
Q 47.65625 -1.421875 41.21875 -1.421875 
Q 24.65625 -1.421875 15.125 8.703125 
Q 5.609375 18.84375 5.609375 36.375 
Q 5.609375 53.953125 15.125 64.078125 
Q 24.65625 74.21875 41.21875 74.21875 
Q 47.75 74.21875 53.53125 72.484375 
Q 59.328125 70.75 64.40625 67.28125 
z
" id="DejaVuSans-67"/>
      </defs>
      <use xlink:href="#DejaVuSans-71"/>
      <use x="77.490234" xlink:href="#DejaVuSans-67"/>
     </g>
    </g>
   </g>
   <g id="matplotlib.axis_2">
    <g id="ytick_1">
     <g id="line2d_6">
      <defs>
       <path d="M 0 0 
L -3.5 0 
" id="m735dc99aa6" style="stroke:#000000;stroke-width:0.8;"/>
      </defs>
      <g>
       <use style="stroke:#000000;stroke-width:0.8;" x="54" xlink:href="#m735dc99aa6" y="225.488291"/>
      </g>
     </g>
     <g id="text_7">
      <!-- −0.3 -->
      <g transform="translate(22.717187 229.28751)scale(0.1 -0.1)">
       <defs>
        <path d="M 10.59375 35.5 
L 73.1875 35.5 
L 73.1875 27.203125 
L 10.59375 27.203125 
z
" id="DejaVuSans-8722"/>
        <path d="M 10.6875 12.40625 
L 21 12.40625 
L 21 0 
L 10.6875 0 
z
" id="DejaVuSans-46"/>
       </defs>
       <use xlink:href="#DejaVuSans-8722"/>
       <use x="83.789062" xlink:href="#DejaVuSans-48"/>
       <use x="147.412109" xlink:href="#DejaVuSans-46"/>
       <use x="179.199219" xlink:href="#DejaVuSans-51"/>
      </g>
     </g>
    </g>
    <g id="ytick_2">
     <g id="line2d_7">
      <g>
       <use style="stroke:#000000;stroke-width:0.8;" x="54" xlink:href="#m735dc99aa6" y="189.293853"/>
      </g>
     </g>
     <g id="text_8">
      <!-- −0.2 -->
      <g transform="translate(22.717187 193.093071)scale(0.1 -0.1)">
       <defs>
        <path d="M 19.1875 8.296875 
L 53.609375 8.296875 
L 53.609375 0 
L 7.328125 0 
L 7.328125 8.296875 
Q 12.9375 14.109375 22.625 23.890625 
Q 32.328125 33.6875 34.8125 36.53125 
Q 39.546875 41.84375 41.421875 45.53125 
Q 43.3125 49.21875 43.3125 52.78125 
Q 43.3125 58.59375 39.234375 62.25 
Q 35.15625 65.921875 28.609375 65.921875 
Q 23.96875 65.921875 18.8125 64.3125 
Q 13.671875 62.703125 7.8125 59.421875 
L 7.8125 69.390625 
Q 13.765625 71.78125 18.9375 73 
Q 24.125 74.21875 28.421875 74.21875 
Q 39.75 74.21875 46.484375 68.546875 
Q 53.21875 62.890625 53.21875 53.421875 
Q 53.21875 48.921875 51.53125 44.890625 
Q 49.859375 40.875 45.40625 35.40625 
Q 44.1875 33.984375 37.640625 27.21875 
Q 31.109375 20.453125 19.1875 8.296875 
z
" id="DejaVuSans-50"/>
       </defs>
       <use xlink:href="#DejaVuSans-8722"/>
       <use x="83.789062" xlink:href="#DejaVuSans-48"/>
       <use x="147.412109" xlink:href="#DejaVuSans-46"/>
       <use x="179.199219" xlink:href="#DejaVuSans-50"/>
      </g>
     </g>
    </g>
    <g id="ytick_3">
     <g id="line2d_8">
      <g>
       <use style="stroke:#000000;stroke-width:0.8;" x="54" xlink:href="#m735dc99aa6" y="153.099414"/>
      </g>
     </g>
     <g id="text_9">
      <!-- −0.1 -->
      <g transform="translate(22.717187 156.898633)scale(0.1 -0.1)">
       <defs>
        <path d="M 12.40625 8.296875 
L 28.515625 8.296875 
L 28.515625 63.921875 
L 10.984375 60.40625 
L 10.984375 69.390625 
L 28.421875 72.90625 
L 38.28125 72.90625 
L 38.28125 8.296875 
L 54.390625 8.296875 
L 54.390625 0 
L 12.40625 0 
z
" id="DejaVuSans-49"/>
       </defs>
       <use xlink:href="#DejaVuSans-8722"/>
       <use x="83.789062" xlink:href="#DejaVuSans-48"/>
       <use x="147.412109" xlink:href="#DejaVuSans-46"/>
       <use x="179.199219" xlink:href="#DejaVuSans-49"/>
      </g>
     </g>
    </g>
    <g id="ytick_4">
     <g id="line2d_9">
      <g>
       <use style="stroke:#000000;stroke-width:0.8;" x="54" xlink:href="#m735dc99aa6" y="116.904975"/>
      </g>
     </g>
     <g id="text_10">
      <!-- 0.0 -->
      <g transform="translate(31.096875 120.704194)scale(0.1 -0.1)">
       <use xlink:href="#DejaVuSans-48"/>
       <use x="63.623047" xlink:href="#DejaVuSans-46"/>
       <use x="95.410156" xlink:href="#DejaVuSans-48"/>
      </g>
     </g>
    </g>
    <g id="ytick_5">
     <g id="line2d_10">
      <g>
       <use style="stroke:#000000;stroke-width:0.8;" x="54" xlink:href="#m735dc99aa6" y="80.710536"/>
      </g>
     </g>
     <g id="text_11">
      <!-- 0.1 -->
      <g transform="translate(31.096875 84.509755)scale(0.1 -0.1)">
       <use xlink:href="#DejaVuSans-48"/>
       <use x="63.623047" xlink:href="#DejaVuSans-46"/>
       <use x="95.410156" xlink:href="#DejaVuSans-49"/>
      </g>
     </g>
    </g>
    <g id="ytick_6">
     <g id="line2d_11">
      <g>
       <use style="stroke:#000000;stroke-width:0.8;" x="54" xlink:href="#m735dc99aa6" y="44.516098"/>
      </g>
     </g>
     <g id="text_12">
      <!-- 0.2 -->
      <g transform="translate(31.096875 48.315316)scale(0.1 -0.1)">
       <use xlink:href="#DejaVuSans-48"/>
       <use x="63.623047" xlink:href="#DejaVuSans-46"/>
       <use x="95.410156" xlink:href="#DejaVuSans-50"/>
      </g>
     </g>
    </g>
    <g id="text_13">
     <!-- DiffDens -->
     <g transform="translate(16.6375 164.739375)rotate(-90)scale(0.1 -0.1)">
      <defs>
       <path d="M 19.671875 64.796875 
L 19.671875 8.109375 
L 31.59375 8.109375 
Q 46.6875 8.109375 53.6875 14.9375 
Q 60.6875 21.78125 60.6875 36.53125 
Q 60.6875 51.171875 53.6875 57.984375 
Q 46.6875 64.796875 31.59375 64.796875 
z
M 9.8125 72.90625 
L 30.078125 72.90625 
Q 51.265625 72.90625 61.171875 64.09375 
Q 71.09375 55.28125 71.09375 36.53125 
Q 71.09375 17.671875 61.125 8.828125 
Q 51.171875 0 30.078125 0 
L 9.8125 0 
z
" id="DejaVuSans-68"/>
       <path d="M 9.421875 54.6875 
L 18.40625 54.6875 
L 18.40625 0 
L 9.421875 0 
z
M 9.421875 75.984375 
L 18.40625 75.984375 
L 18.40625 64.59375 
L 9.421875 64.59375 
z
" id="DejaVuSans-105"/>
       <path d="M 37.109375 75.984375 
L 37.109375 68.5 
L 28.515625 68.5 
Q 23.6875 68.5 21.796875 66.546875 
Q 19.921875 64.59375 19.921875 59.515625 
L 19.921875 54.6875 
L 34.71875 54.6875 
L 34.71875 47.703125 
L 19.921875 47.703125 
L 19.921875 0 
L 10.890625 0 
L 10.890625 47.703125 
L 2.296875 47.703125 
L 2.296875 54.6875 
L 10.890625 54.6875 
L 10.890625 58.5 
Q 10.890625 67.625 15.140625 71.796875 
Q 19.390625 75.984375 28.609375 75.984375 
z
" id="DejaVuSans-102"/>
       <path d="M 56.203125 29.59375 
L 56.203125 25.203125 
L 14.890625 25.203125 
Q 15.484375 15.921875 20.484375 11.0625 
Q 25.484375 6.203125 34.421875 6.203125 
Q 39.59375 6.203125 44.453125 7.46875 
Q 49.3125 8.734375 54.109375 11.28125 
L 54.109375 2.78125 
Q 49.265625 0.734375 44.1875 -0.34375 
Q 39.109375 -1.421875 33.890625 -1.421875 
Q 20.796875 -1.421875 13.15625 6.1875 
Q 5.515625 13.8125 5.515625 26.8125 
Q 5.515625 40.234375 12.765625 48.109375 
Q 20.015625 56 32.328125 56 
Q 43.359375 56 49.78125 48.890625 
Q 56.203125 41.796875 56.203125 29.59375 
z
M 47.21875 32.234375 
Q 47.125 39.59375 43.09375 43.984375 
Q 39.0625 48.390625 32.421875 48.390625 
Q 24.90625 48.390625 20.390625 44.140625 
Q 15.875 39.890625 15.1875 32.171875 
z
" id="DejaVuSans-101"/>
       <path d="M 54.890625 33.015625 
L 54.890625 0 
L 45.90625 0 
L 45.90625 32.71875 
Q 45.90625 40.484375 42.875 44.328125 
Q 39.84375 48.1875 33.796875 48.1875 
Q 26.515625 48.1875 22.3125 43.546875 
Q 18.109375 38.921875 18.109375 30.90625 
L 18.109375 0 
L 9.078125 0 
L 9.078125 54.6875 
L 18.109375 54.6875 
L 18.109375 46.1875 
Q 21.34375 51.125 25.703125 53.5625 
Q 30.078125 56 35.796875 56 
Q 45.21875 56 50.046875 50.171875 
Q 54.890625 44.34375 54.890625 33.015625 
z
" id="DejaVuSans-110"/>
       <path d="M 44.28125 53.078125 
L 44.28125 44.578125 
Q 40.484375 46.53125 36.375 47.5 
Q 32.28125 48.484375 27.875 48.484375 
Q 21.1875 48.484375 17.84375 46.4375 
Q 14.5 44.390625 14.5 40.28125 
Q 14.5 37.15625 16.890625 35.375 
Q 19.28125 33.59375 26.515625 31.984375 
L 29.59375 31.296875 
Q 39.15625 29.25 43.1875 25.515625 
Q 47.21875 21.78125 47.21875 15.09375 
Q 47.21875 7.46875 41.1875 3.015625 
Q 35.15625 -1.421875 24.609375 -1.421875 
Q 20.21875 -1.421875 15.453125 -0.5625 
Q 10.6875 0.296875 5.421875 2 
L 5.421875 11.28125 
Q 10.40625 8.6875 15.234375 7.390625 
Q 20.0625 6.109375 24.8125 6.109375 
Q 31.15625 6.109375 34.5625 8.28125 
Q 37.984375 10.453125 37.984375 14.40625 
Q 37.984375 18.0625 35.515625 20.015625 
Q 33.0625 21.96875 24.703125 23.78125 
L 21.578125 24.515625 
Q 13.234375 26.265625 9.515625 29.90625 
Q 5.8125 33.546875 5.8125 39.890625 
Q 5.8125 47.609375 11.28125 51.796875 
Q 16.75 56 26.8125 56 
Q 31.78125 56 36.171875 55.265625 
Q 40.578125 54.546875 44.28125 53.078125 
z
" id="DejaVuSans-115"/>
      </defs>
      <use xlink:href="#DejaVuSans-68"/>
      <use x="77.001953" xlink:href="#DejaVuSans-105"/>
      <use x="104.785156" xlink:href="#DejaVuSans-102"/>
      <use x="139.990234" xlink:href="#DejaVuSans-102"/>
      <use x="175.195312" xlink:href="#DejaVuSans-68"/>
      <use x="252.197266" xlink:href="#DejaVuSans-101"/>
      <use x="313.720703" xlink:href="#DejaVuSans-110"/>
      <use x="377.099609" xlink:href="#DejaVuSans-115"/>
     </g>
    </g>
   </g>
   <g id="line2d_12">
    <path clip-path="url(#p15b3211b07)" d="M 54 96.876606 
L 57.381818 97.281821 
L 60.763636 97.687036 
L 64.145455 98.09225 
L 67.527273 98.497465 
L 70.909091 98.90268 
L 74.290909 99.307894 
L 77.672727 99.713109 
L 81.054545 100.118324 
L 84.436364 100.523538 
L 87.818182 100.928753 
L 91.2 101.333968 
L 94.581818 101.739182 
L 97.963636 102.144397 
L 101.345455 102.549612 
L 104.727273 102.954826 
L 108.109091 103.360041 
L 111.490909 103.765256 
L 114.872727 104.17047 
L 118.254545 104.575685 
L 121.636364 104.9809 
L 125.018182 105.386114 
L 128.4 105.791329 
L 131.781818 106.196544 
L 135.163636 106.601758 
L 138.545455 107.006973 
L 141.927273 107.412188 
L 145.309091 107.817402 
L 148.690909 108.222617 
L 152.072727 108.627832 
L 155.454545 109.033046 
L 158.836364 109.438261 
L 162.218182 109.843475 
L 165.6 110.24869 
L 168.981818 110.653905 
L 172.363636 111.059119 
L 175.745455 111.464334 
L 179.127273 111.869549 
L 182.509091 112.274763 
L 185.890909 112.679978 
L 189.272727 113.085193 
L 192.654545 113.490407 
L 196.036364 113.895622 
L 199.418182 114.300837 
L 202.8 114.706051 
L 206.181818 115.111266 
L 209.563636 115.516481 
L 212.945455 115.921695 
L 216.327273 116.32691 
L 219.709091 116.732125 
L 223.090909 117.137339 
L 226.472727 117.542554 
L 229.854545 117.947769 
L 233.236364 118.352983 
L 236.618182 118.758198 
L 240 119.163413 
L 243.381818 119.568627 
L 246.763636 119.973842 
L 250.145455 120.379057 
L 253.527273 120.784271 
L 256.909091 121.189486 
L 260.290909 121.594701 
L 263.672727 121.999915 
L 267.054545 122.40513 
L 270.436364 122.810345 
L 273.818182 123.215559 
L 277.2 123.620774 
L 280.581818 124.025989 
L 283.963636 124.431203 
L 287.345455 124.836418 
L 290.727273 125.241633 
L 294.109091 125.646847 
L 297.490909 126.052062 
L 300.872727 126.457276 
L 304.254545 126.862491 
L 307.636364 127.267706 
L 311.018182 127.67292 
L 314.4 128.078135 
L 317.781818 128.48335 
L 321.163636 128.888564 
L 324.545455 129.293779 
L 327.927273 129.698994 
L 331.309091 130.104208 
L 334.690909 130.509423 
L 338.072727 130.914638 
L 341.454545 131.319852 
L 344.836364 131.725067 
L 348.218182 132.130282 
L 351.6 132.535496 
L 354.981818 132.940711 
L 358.363636 133.345926 
L 361.745455 133.75114 
L 365.127273 134.156355 
L 368.509091 134.56157 
L 371.890909 134.966784 
L 375.272727 135.371999 
L 378.654545 135.777214 
L 382.036364 136.182428 
L 385.418182 136.587643 
L 388.8 136.992858 
" style="fill:none;stroke:#d3772e;stroke-linecap:square;stroke-width:2.25;"/>
   </g>
   <g id="patch_3">
    <path d="M 54 252 
L 54 34.56 
" style="fill:none;stroke:#000000;stroke-linecap:square;stroke-linejoin:miter;stroke-width:0.8;"/>
   </g>
   <g id="patch_4">
    <path d="M 388.8 252 
L 388.8 34.56 
" style="fill:none;stroke:#000000;stroke-linecap:square;stroke-linejoin:miter;stroke-width:0.8;"/>
   </g>
   <g id="patch_5">
    <path d="M 54 252 
L 388.8 252 
" style="fill:none;stroke:#000000;stroke-linecap:square;stroke-linejoin:miter;stroke-width:0.8;"/>
   </g>
   <g id="patch_6">
    <path d="M 54 34.56 
L 388.8 34.56 
" style="fill:none;stroke:#000000;stroke-linecap:square;stroke-linejoin:miter;stroke-width:0.8;"/>
   </g>
  </g>
 </g>
 <defs>
  <clipPath id="p15b3211b07">
   <rect height="217.44" width="334.8" x="54" y="34.56"/>
  </clipPath>
 </defs>
</svg>
