<?xml version="1.0" encoding="utf-8" standalone="no"?>
<!DOCTYPE svg PUBLIC "-//W3C//DTD SVG 1.1//EN"
  "http://www.w3.org/Graphics/SVG/1.1/DTD/svg11.dtd">
<!-- Created with matplotlib (https://matplotlib.org/) -->
<svg height="288pt" version="1.1" viewBox="0 0 432 288" width="432pt" xmlns="http://www.w3.org/2000/svg" xmlns:xlink="http://www.w3.org/1999/xlink">
 <metadata>
  <rdf:RDF xmlns:cc="http://creativecommons.org/ns#" xmlns:dc="http://purl.org/dc/elements/1.1/" xmlns:rdf="http://www.w3.org/1999/02/22-rdf-syntax-ns#">
   <cc:Work>
    <dc:type rdf:resource="http://purl.org/dc/dcmitype/StillImage"/>
    <dc:date>2021-04-15T19:50:40.122874</dc:date>
    <dc:format>image/svg+xml</dc:format>
    <dc:creator>
     <cc:Agent>
      <dc:title>Matplotlib v3.3.2, https://matplotlib.org/</dc:title>
     </cc:Agent>
    </dc:creator>
   </cc:Work>
  </rdf:RDF>
 </metadata>
 <defs>
  <style type="text/css">*{stroke-linecap:butt;stroke-linejoin:round;}</style>
 </defs>
 <g id="figure_1">
  <g id="patch_1">
   <path d="M 0 288 
L 432 288 
L 432 0 
L 0 0 
z
" style="fill:none;"/>
  </g>
  <g id="axes_1">
   <g id="patch_2">
    <path d="M 54 252 
L 388.8 252 
L 388.8 34.56 
L 54 34.56 
z
" style="fill:#ffffff;"/>
   </g>
   <g id="PathCollection_1">
    <defs>
     <path d="M 0 3 
C 0.795609 3 1.55874 2.683901 2.12132 2.12132 
C 2.683901 1.55874 3 0.795609 3 0 
C 3 -0.795609 2.683901 -1.55874 2.12132 -2.12132 
C 1.55874 -2.683901 0.795609 -3 0 -3 
C -0.795609 -3 -1.55874 -2.683901 -2.12132 -2.12132 
C -2.683901 -1.55874 -3 -0.795609 -3 0 
C -3 0.795609 -2.683901 1.55874 -2.12132 2.12132 
C -1.55874 2.683901 -0.795609 3 0 3 
z
" id="m2260648239" style="stroke:#d3772e;stroke-opacity:0.8;"/>
    </defs>
    <g clip-path="url(#p199af5ba71)">
     <use style="fill:#d3772e;fill-opacity:0.8;stroke:#d3772e;stroke-opacity:0.8;" x="203.6017" xlink:href="#m2260648239" y="119.766694"/>
     <use style="fill:#d3772e;fill-opacity:0.8;stroke:#d3772e;stroke-opacity:0.8;" x="215.704517" xlink:href="#m2260648239" y="115.496257"/>
     <use style="fill:#d3772e;fill-opacity:0.8;stroke:#d3772e;stroke-opacity:0.8;" x="54" xlink:href="#m2260648239" y="124.993205"/>
     <use style="fill:#d3772e;fill-opacity:0.8;stroke:#d3772e;stroke-opacity:0.8;" x="263.940806" xlink:href="#m2260648239" y="80.727315"/>
     <use style="fill:#d3772e;fill-opacity:0.8;stroke:#d3772e;stroke-opacity:0.8;" x="116.763885" xlink:href="#m2260648239" y="119.891119"/>
     <use style="fill:#d3772e;fill-opacity:0.8;stroke:#d3772e;stroke-opacity:0.8;" x="201.810843" xlink:href="#m2260648239" y="66.860343"/>
     <use style="fill:#d3772e;fill-opacity:0.8;stroke:#d3772e;stroke-opacity:0.8;" x="315.271591" xlink:href="#m2260648239" y="103.579446"/>
     <use style="fill:#d3772e;fill-opacity:0.8;stroke:#d3772e;stroke-opacity:0.8;" x="213.813148" xlink:href="#m2260648239" y="100.5363"/>
     <use style="fill:#d3772e;fill-opacity:0.8;stroke:#d3772e;stroke-opacity:0.8;" x="388.8" xlink:href="#m2260648239" y="242.116364"/>
     <use style="fill:#d3772e;fill-opacity:0.8;stroke:#d3772e;stroke-opacity:0.8;" x="164.082778" xlink:href="#m2260648239" y="120.54212"/>
     <use style="fill:#d3772e;fill-opacity:0.8;stroke:#d3772e;stroke-opacity:0.8;" x="232.365336" xlink:href="#m2260648239" y="98.198053"/>
     <use style="fill:#d3772e;fill-opacity:0.8;stroke:#d3772e;stroke-opacity:0.8;" x="241.053629" xlink:href="#m2260648239" y="124.698867"/>
     <use style="fill:#d3772e;fill-opacity:0.8;stroke:#d3772e;stroke-opacity:0.8;" x="232.896444" xlink:href="#m2260648239" y="113.264122"/>
     <use style="fill:#d3772e;fill-opacity:0.8;stroke:#d3772e;stroke-opacity:0.8;" x="239.394235" xlink:href="#m2260648239" y="121.100743"/>
     <use style="fill:#d3772e;fill-opacity:0.8;stroke:#d3772e;stroke-opacity:0.8;" x="100.196886" xlink:href="#m2260648239" y="124.698867"/>
     <use style="fill:#d3772e;fill-opacity:0.8;stroke:#d3772e;stroke-opacity:0.8;" x="74.806818" xlink:href="#m2260648239" y="124.698867"/>
    </g>
   </g>
   <g id="PolyCollection_1">
    <path clip-path="url(#p199af5ba71)" d="M 54 44.443636 
L 54 131.014401 
L 57.381818 130.545488 
L 60.763636 130.076576 
L 64.145455 129.607663 
L 67.527273 129.030666 
L 70.909091 128.498791 
L 74.290909 128.063615 
L 77.672727 127.628439 
L 81.054545 127.094827 
L 84.436364 126.605504 
L 87.818182 126.240905 
L 91.2 125.870523 
L 94.581818 125.328031 
L 97.963636 124.847944 
L 101.345455 124.443522 
L 104.727273 124.04434 
L 108.109091 123.670091 
L 111.490909 123.281793 
L 114.872727 122.876874 
L 118.254545 122.550131 
L 121.636364 122.172985 
L 125.018182 121.824889 
L 128.4 121.516115 
L 131.781818 121.281052 
L 135.163636 121.221747 
L 138.545455 121.372985 
L 141.927273 121.252 
L 145.309091 121.346292 
L 148.690909 121.750011 
L 152.072727 122.346245 
L 155.454545 123.046866 
L 158.836364 123.864545 
L 162.218182 124.489032 
L 165.6 125.297069 
L 168.981818 126.07413 
L 172.363636 126.910358 
L 175.745455 127.57154 
L 179.127273 128.32999 
L 182.509091 129.086454 
L 185.890909 129.95178 
L 189.272727 131.067705 
L 192.654545 131.925619 
L 196.036364 132.984004 
L 199.418182 133.777218 
L 202.8 134.522534 
L 206.181818 135.263699 
L 209.563636 136.098218 
L 212.945455 136.960508 
L 216.327273 137.943907 
L 219.709091 139.009833 
L 223.090909 139.896291 
L 226.472727 140.880034 
L 229.854545 142.101883 
L 233.236364 142.973374 
L 236.618182 144.194848 
L 240 145.122015 
L 243.381818 146.015978 
L 246.763636 147.160401 
L 250.145455 148.260524 
L 253.527273 149.057378 
L 256.909091 149.854233 
L 260.290909 150.939976 
L 263.672727 152.131758 
L 267.054545 153.311754 
L 270.436364 154.4675 
L 273.818182 155.618018 
L 277.2 156.774156 
L 280.581818 157.915825 
L 283.963636 158.967228 
L 287.345455 160.236504 
L 290.727273 161.387765 
L 294.109091 162.305339 
L 297.490909 163.623493 
L 300.872727 164.702827 
L 304.254545 165.83075 
L 307.636364 167.158806 
L 311.018182 168.324405 
L 314.4 169.481208 
L 317.781818 170.940492 
L 321.163636 172.477803 
L 324.545455 173.638819 
L 327.927273 175.329489 
L 331.309091 176.650797 
L 334.690909 177.872382 
L 338.072727 179.246951 
L 341.454545 180.48143 
L 344.836364 181.715909 
L 348.218182 182.943204 
L 351.6 184.173562 
L 354.981818 185.417107 
L 358.363636 186.653825 
L 361.745455 187.888304 
L 365.127273 189.122783 
L 368.509091 190.94994 
L 371.890909 192.532863 
L 375.272727 193.926709 
L 378.654545 195.299721 
L 382.036364 196.474088 
L 385.418182 197.940641 
L 388.8 199.266027 
L 388.8 71.988114 
L 388.8 71.988114 
L 385.418182 72.58188 
L 382.036364 73.175647 
L 378.654545 73.769413 
L 375.272727 74.363179 
L 371.890909 74.956946 
L 368.509091 75.51374 
L 365.127273 76.011952 
L 361.745455 76.510164 
L 358.363636 77.055294 
L 354.981818 77.636093 
L 351.6 78.213624 
L 348.218182 78.790653 
L 344.836364 79.370878 
L 341.454545 79.951305 
L 338.072727 80.531733 
L 334.690909 81.11216 
L 331.309091 81.693152 
L 327.927273 82.274747 
L 324.545455 82.863934 
L 321.163636 83.507598 
L 317.781818 84.151263 
L 314.4 84.796086 
L 311.018182 85.44227 
L 307.636364 86.088454 
L 304.254545 86.709326 
L 300.872727 87.339526 
L 297.490909 87.856923 
L 294.109091 88.37432 
L 290.727273 88.891717 
L 287.345455 89.411986 
L 283.963636 89.951951 
L 280.581818 90.511429 
L 277.2 91.033002 
L 273.818182 91.573288 
L 270.436364 92.116363 
L 267.054545 92.671183 
L 263.672727 93.271998 
L 260.290909 93.873444 
L 256.909091 94.453901 
L 253.527273 94.972844 
L 250.145455 95.447112 
L 246.763636 95.939566 
L 243.381818 96.437371 
L 240 96.976566 
L 236.618182 97.51576 
L 233.236364 98.05576 
L 229.854545 98.698627 
L 226.472727 99.412405 
L 223.090909 99.672538 
L 219.709091 99.870884 
L 216.327273 100.43012 
L 212.945455 100.851901 
L 209.563636 101.178292 
L 206.181818 101.252045 
L 202.8 101.122656 
L 199.418182 100.950473 
L 196.036364 100.826281 
L 192.654545 100.305482 
L 189.272727 99.815434 
L 185.890909 99.283144 
L 182.509091 98.17129 
L 179.127273 96.764499 
L 175.745455 95.640315 
L 172.363636 94.427425 
L 168.981818 92.960914 
L 165.6 91.459489 
L 162.218182 89.966413 
L 158.836364 88.463848 
L 155.454545 86.957581 
L 152.072727 85.451313 
L 148.690909 83.945046 
L 145.309091 82.441717 
L 141.927273 80.941399 
L 138.545455 79.449547 
L 135.163636 78.10979 
L 131.781818 76.993978 
L 128.4 75.792705 
L 125.018182 74.066868 
L 121.636364 72.341032 
L 118.254545 70.615195 
L 114.872727 68.941826 
L 111.490909 67.434332 
L 108.109091 65.926838 
L 104.727273 64.419345 
L 101.345455 62.911851 
L 97.963636 61.406534 
L 94.581818 59.911929 
L 91.2 58.417324 
L 87.818182 56.922719 
L 84.436364 55.452312 
L 81.054545 54.229126 
L 77.672727 53.00594 
L 74.290909 51.782753 
L 70.909091 50.559567 
L 67.527273 49.336381 
L 64.145455 48.113195 
L 60.763636 46.890009 
L 57.381818 45.666823 
L 54 44.443636 
z
" style="fill:#d3772e;fill-opacity:0.15;"/>
   </g>
   <g id="matplotlib.axis_1">
    <g id="xtick_1">
     <g id="line2d_1">
      <defs>
       <path d="M 0 0 
L 0 3.5 
" id="mcd2cd64458" style="stroke:#000000;stroke-width:0.8;"/>
      </defs>
      <g>
       <use style="stroke:#000000;stroke-width:0.8;" x="88.426269" xlink:href="#mcd2cd64458" y="252"/>
      </g>
     </g>
     <g id="text_1">
      <!-- 40 -->
      <g transform="translate(82.063769 266.598437)scale(0.1 -0.1)">
       <defs>
        <path d="M 37.796875 64.3125 
L 12.890625 25.390625 
L 37.796875 25.390625 
z
M 35.203125 72.90625 
L 47.609375 72.90625 
L 47.609375 25.390625 
L 58.015625 25.390625 
L 58.015625 17.1875 
L 47.609375 17.1875 
L 47.609375 0 
L 37.796875 0 
L 37.796875 17.1875 
L 4.890625 17.1875 
L 4.890625 26.703125 
z
" id="DejaVuSans-52"/>
        <path d="M 31.78125 66.40625 
Q 24.171875 66.40625 20.328125 58.90625 
Q 16.5 51.421875 16.5 36.375 
Q 16.5 21.390625 20.328125 13.890625 
Q 24.171875 6.390625 31.78125 6.390625 
Q 39.453125 6.390625 43.28125 13.890625 
Q 47.125 21.390625 47.125 36.375 
Q 47.125 51.421875 43.28125 58.90625 
Q 39.453125 66.40625 31.78125 66.40625 
z
M 31.78125 74.21875 
Q 44.046875 74.21875 50.515625 64.515625 
Q 56.984375 54.828125 56.984375 36.375 
Q 56.984375 17.96875 50.515625 8.265625 
Q 44.046875 -1.421875 31.78125 -1.421875 
Q 19.53125 -1.421875 13.0625 8.265625 
Q 6.59375 17.96875 6.59375 36.375 
Q 6.59375 54.828125 13.0625 64.515625 
Q 19.53125 74.21875 31.78125 74.21875 
z
" id="DejaVuSans-48"/>
       </defs>
       <use xlink:href="#DejaVuSans-52"/>
       <use x="63.623047" xlink:href="#DejaVuSans-48"/>
      </g>
     </g>
    </g>
    <g id="xtick_2">
     <g id="line2d_2">
      <g>
       <use style="stroke:#000000;stroke-width:0.8;" x="151.075741" xlink:href="#mcd2cd64458" y="252"/>
      </g>
     </g>
     <g id="text_2">
      <!-- 45 -->
      <g transform="translate(144.713241 266.598437)scale(0.1 -0.1)">
       <defs>
        <path d="M 10.796875 72.90625 
L 49.515625 72.90625 
L 49.515625 64.59375 
L 19.828125 64.59375 
L 19.828125 46.734375 
Q 21.96875 47.46875 24.109375 47.828125 
Q 26.265625 48.1875 28.421875 48.1875 
Q 40.625 48.1875 47.75 41.5 
Q 54.890625 34.8125 54.890625 23.390625 
Q 54.890625 11.625 47.5625 5.09375 
Q 40.234375 -1.421875 26.90625 -1.421875 
Q 22.3125 -1.421875 17.546875 -0.640625 
Q 12.796875 0.140625 7.71875 1.703125 
L 7.71875 11.625 
Q 12.109375 9.234375 16.796875 8.0625 
Q 21.484375 6.890625 26.703125 6.890625 
Q 35.15625 6.890625 40.078125 11.328125 
Q 45.015625 15.765625 45.015625 23.390625 
Q 45.015625 31 40.078125 35.4375 
Q 35.15625 39.890625 26.703125 39.890625 
Q 22.75 39.890625 18.8125 39.015625 
Q 14.890625 38.140625 10.796875 36.28125 
z
" id="DejaVuSans-53"/>
       </defs>
       <use xlink:href="#DejaVuSans-52"/>
       <use x="63.623047" xlink:href="#DejaVuSans-53"/>
      </g>
     </g>
    </g>
    <g id="xtick_3">
     <g id="line2d_3">
      <g>
       <use style="stroke:#000000;stroke-width:0.8;" x="213.725214" xlink:href="#mcd2cd64458" y="252"/>
      </g>
     </g>
     <g id="text_3">
      <!-- 50 -->
      <g transform="translate(207.362714 266.598437)scale(0.1 -0.1)">
       <use xlink:href="#DejaVuSans-53"/>
       <use x="63.623047" xlink:href="#DejaVuSans-48"/>
      </g>
     </g>
    </g>
    <g id="xtick_4">
     <g id="line2d_4">
      <g>
       <use style="stroke:#000000;stroke-width:0.8;" x="276.374686" xlink:href="#mcd2cd64458" y="252"/>
      </g>
     </g>
     <g id="text_4">
      <!-- 55 -->
      <g transform="translate(270.012186 266.598437)scale(0.1 -0.1)">
       <use xlink:href="#DejaVuSans-53"/>
       <use x="63.623047" xlink:href="#DejaVuSans-53"/>
      </g>
     </g>
    </g>
    <g id="xtick_5">
     <g id="line2d_5">
      <g>
       <use style="stroke:#000000;stroke-width:0.8;" x="339.024159" xlink:href="#mcd2cd64458" y="252"/>
      </g>
     </g>
     <g id="text_5">
      <!-- 60 -->
      <g transform="translate(332.661659 266.598437)scale(0.1 -0.1)">
       <defs>
        <path d="M 33.015625 40.375 
Q 26.375 40.375 22.484375 35.828125 
Q 18.609375 31.296875 18.609375 23.390625 
Q 18.609375 15.53125 22.484375 10.953125 
Q 26.375 6.390625 33.015625 6.390625 
Q 39.65625 6.390625 43.53125 10.953125 
Q 47.40625 15.53125 47.40625 23.390625 
Q 47.40625 31.296875 43.53125 35.828125 
Q 39.65625 40.375 33.015625 40.375 
z
M 52.59375 71.296875 
L 52.59375 62.3125 
Q 48.875 64.0625 45.09375 64.984375 
Q 41.3125 65.921875 37.59375 65.921875 
Q 27.828125 65.921875 22.671875 59.328125 
Q 17.53125 52.734375 16.796875 39.40625 
Q 19.671875 43.65625 24.015625 45.921875 
Q 28.375 48.1875 33.59375 48.1875 
Q 44.578125 48.1875 50.953125 41.515625 
Q 57.328125 34.859375 57.328125 23.390625 
Q 57.328125 12.15625 50.6875 5.359375 
Q 44.046875 -1.421875 33.015625 -1.421875 
Q 20.359375 -1.421875 13.671875 8.265625 
Q 6.984375 17.96875 6.984375 36.375 
Q 6.984375 53.65625 15.1875 63.9375 
Q 23.390625 74.21875 37.203125 74.21875 
Q 40.921875 74.21875 44.703125 73.484375 
Q 48.484375 72.75 52.59375 71.296875 
z
" id="DejaVuSans-54"/>
       </defs>
       <use xlink:href="#DejaVuSans-54"/>
       <use x="63.623047" xlink:href="#DejaVuSans-48"/>
      </g>
     </g>
    </g>
    <g id="text_6">
     <!-- GC -->
     <g transform="translate(214.034375 280.276563)scale(0.1 -0.1)">
      <defs>
       <path d="M 59.515625 10.40625 
L 59.515625 29.984375 
L 43.40625 29.984375 
L 43.40625 38.09375 
L 69.28125 38.09375 
L 69.28125 6.78125 
Q 63.578125 2.734375 56.6875 0.65625 
Q 49.8125 -1.421875 42 -1.421875 
Q 24.90625 -1.421875 15.25 8.5625 
Q 5.609375 18.5625 5.609375 36.375 
Q 5.609375 54.25 15.25 64.234375 
Q 24.90625 74.21875 42 74.21875 
Q 49.125 74.21875 55.546875 72.453125 
Q 61.96875 70.703125 67.390625 67.28125 
L 67.390625 56.78125 
Q 61.921875 61.421875 55.765625 63.765625 
Q 49.609375 66.109375 42.828125 66.109375 
Q 29.4375 66.109375 22.71875 58.640625 
Q 16.015625 51.171875 16.015625 36.375 
Q 16.015625 21.625 22.71875 14.15625 
Q 29.4375 6.6875 42.828125 6.6875 
Q 48.046875 6.6875 52.140625 7.59375 
Q 56.25 8.5 59.515625 10.40625 
z
" id="DejaVuSans-71"/>
       <path d="M 64.40625 67.28125 
L 64.40625 56.890625 
Q 59.421875 61.53125 53.78125 63.8125 
Q 48.140625 66.109375 41.796875 66.109375 
Q 29.296875 66.109375 22.65625 58.46875 
Q 16.015625 50.828125 16.015625 36.375 
Q 16.015625 21.96875 22.65625 14.328125 
Q 29.296875 6.6875 41.796875 6.6875 
Q 48.140625 6.6875 53.78125 8.984375 
Q 59.421875 11.28125 64.40625 15.921875 
L 64.40625 5.609375 
Q 59.234375 2.09375 53.4375 0.328125 
Q 47.65625 -1.421875 41.21875 -1.421875 
Q 24.65625 -1.421875 15.125 8.703125 
Q 5.609375 18.84375 5.609375 36.375 
Q 5.609375 53.953125 15.125 64.078125 
Q 24.65625 74.21875 41.21875 74.21875 
Q 47.75 74.21875 53.53125 72.484375 
Q 59.328125 70.75 64.40625 67.28125 
z
" id="DejaVuSans-67"/>
      </defs>
      <use xlink:href="#DejaVuSans-71"/>
      <use x="77.490234" xlink:href="#DejaVuSans-67"/>
     </g>
    </g>
   </g>
   <g id="matplotlib.axis_2">
    <g id="ytick_1">
     <g id="line2d_6">
      <defs>
       <path d="M 0 0 
L -3.5 0 
" id="m7a39a17f9e" style="stroke:#000000;stroke-width:0.8;"/>
      </defs>
      <g>
       <use style="stroke:#000000;stroke-width:0.8;" x="54" xlink:href="#m7a39a17f9e" y="239.464618"/>
      </g>
     </g>
     <g id="text_7">
      <!-- −0.4 -->
      <g transform="translate(22.717187 243.263836)scale(0.1 -0.1)">
       <defs>
        <path d="M 10.59375 35.5 
L 73.1875 35.5 
L 73.1875 27.203125 
L 10.59375 27.203125 
z
" id="DejaVuSans-8722"/>
        <path d="M 10.6875 12.40625 
L 21 12.40625 
L 21 0 
L 10.6875 0 
z
" id="DejaVuSans-46"/>
       </defs>
       <use xlink:href="#DejaVuSans-8722"/>
       <use x="83.789062" xlink:href="#DejaVuSans-48"/>
       <use x="147.412109" xlink:href="#DejaVuSans-46"/>
       <use x="179.199219" xlink:href="#DejaVuSans-52"/>
      </g>
     </g>
    </g>
    <g id="ytick_2">
     <g id="line2d_7">
      <g>
       <use style="stroke:#000000;stroke-width:0.8;" x="54" xlink:href="#m7a39a17f9e" y="210.77318"/>
      </g>
     </g>
     <g id="text_8">
      <!-- −0.3 -->
      <g transform="translate(22.717187 214.572399)scale(0.1 -0.1)">
       <defs>
        <path d="M 40.578125 39.3125 
Q 47.65625 37.796875 51.625 33 
Q 55.609375 28.21875 55.609375 21.1875 
Q 55.609375 10.40625 48.1875 4.484375 
Q 40.765625 -1.421875 27.09375 -1.421875 
Q 22.515625 -1.421875 17.65625 -0.515625 
Q 12.796875 0.390625 7.625 2.203125 
L 7.625 11.71875 
Q 11.71875 9.328125 16.59375 8.109375 
Q 21.484375 6.890625 26.8125 6.890625 
Q 36.078125 6.890625 40.9375 10.546875 
Q 45.796875 14.203125 45.796875 21.1875 
Q 45.796875 27.640625 41.28125 31.265625 
Q 36.765625 34.90625 28.71875 34.90625 
L 20.21875 34.90625 
L 20.21875 43.015625 
L 29.109375 43.015625 
Q 36.375 43.015625 40.234375 45.921875 
Q 44.09375 48.828125 44.09375 54.296875 
Q 44.09375 59.90625 40.109375 62.90625 
Q 36.140625 65.921875 28.71875 65.921875 
Q 24.65625 65.921875 20.015625 65.03125 
Q 15.375 64.15625 9.8125 62.3125 
L 9.8125 71.09375 
Q 15.4375 72.65625 20.34375 73.4375 
Q 25.25 74.21875 29.59375 74.21875 
Q 40.828125 74.21875 47.359375 69.109375 
Q 53.90625 64.015625 53.90625 55.328125 
Q 53.90625 49.265625 50.4375 45.09375 
Q 46.96875 40.921875 40.578125 39.3125 
z
" id="DejaVuSans-51"/>
       </defs>
       <use xlink:href="#DejaVuSans-8722"/>
       <use x="83.789062" xlink:href="#DejaVuSans-48"/>
       <use x="147.412109" xlink:href="#DejaVuSans-46"/>
       <use x="179.199219" xlink:href="#DejaVuSans-51"/>
      </g>
     </g>
    </g>
    <g id="ytick_3">
     <g id="line2d_8">
      <g>
       <use style="stroke:#000000;stroke-width:0.8;" x="54" xlink:href="#m7a39a17f9e" y="182.081742"/>
      </g>
     </g>
     <g id="text_9">
      <!-- −0.2 -->
      <g transform="translate(22.717187 185.880961)scale(0.1 -0.1)">
       <defs>
        <path d="M 19.1875 8.296875 
L 53.609375 8.296875 
L 53.609375 0 
L 7.328125 0 
L 7.328125 8.296875 
Q 12.9375 14.109375 22.625 23.890625 
Q 32.328125 33.6875 34.8125 36.53125 
Q 39.546875 41.84375 41.421875 45.53125 
Q 43.3125 49.21875 43.3125 52.78125 
Q 43.3125 58.59375 39.234375 62.25 
Q 35.15625 65.921875 28.609375 65.921875 
Q 23.96875 65.921875 18.8125 64.3125 
Q 13.671875 62.703125 7.8125 59.421875 
L 7.8125 69.390625 
Q 13.765625 71.78125 18.9375 73 
Q 24.125 74.21875 28.421875 74.21875 
Q 39.75 74.21875 46.484375 68.546875 
Q 53.21875 62.890625 53.21875 53.421875 
Q 53.21875 48.921875 51.53125 44.890625 
Q 49.859375 40.875 45.40625 35.40625 
Q 44.1875 33.984375 37.640625 27.21875 
Q 31.109375 20.453125 19.1875 8.296875 
z
" id="DejaVuSans-50"/>
       </defs>
       <use xlink:href="#DejaVuSans-8722"/>
       <use x="83.789062" xlink:href="#DejaVuSans-48"/>
       <use x="147.412109" xlink:href="#DejaVuSans-46"/>
       <use x="179.199219" xlink:href="#DejaVuSans-50"/>
      </g>
     </g>
    </g>
    <g id="ytick_4">
     <g id="line2d_9">
      <g>
       <use style="stroke:#000000;stroke-width:0.8;" x="54" xlink:href="#m7a39a17f9e" y="153.390305"/>
      </g>
     </g>
     <g id="text_10">
      <!-- −0.1 -->
      <g transform="translate(22.717187 157.189523)scale(0.1 -0.1)">
       <defs>
        <path d="M 12.40625 8.296875 
L 28.515625 8.296875 
L 28.515625 63.921875 
L 10.984375 60.40625 
L 10.984375 69.390625 
L 28.421875 72.90625 
L 38.28125 72.90625 
L 38.28125 8.296875 
L 54.390625 8.296875 
L 54.390625 0 
L 12.40625 0 
z
" id="DejaVuSans-49"/>
       </defs>
       <use xlink:href="#DejaVuSans-8722"/>
       <use x="83.789062" xlink:href="#DejaVuSans-48"/>
       <use x="147.412109" xlink:href="#DejaVuSans-46"/>
       <use x="179.199219" xlink:href="#DejaVuSans-49"/>
      </g>
     </g>
    </g>
    <g id="ytick_5">
     <g id="line2d_10">
      <g>
       <use style="stroke:#000000;stroke-width:0.8;" x="54" xlink:href="#m7a39a17f9e" y="124.698867"/>
      </g>
     </g>
     <g id="text_11">
      <!-- 0.0 -->
      <g transform="translate(31.096875 128.498086)scale(0.1 -0.1)">
       <use xlink:href="#DejaVuSans-48"/>
       <use x="63.623047" xlink:href="#DejaVuSans-46"/>
       <use x="95.410156" xlink:href="#DejaVuSans-48"/>
      </g>
     </g>
    </g>
    <g id="ytick_6">
     <g id="line2d_11">
      <g>
       <use style="stroke:#000000;stroke-width:0.8;" x="54" xlink:href="#m7a39a17f9e" y="96.007429"/>
      </g>
     </g>
     <g id="text_12">
      <!-- 0.1 -->
      <g transform="translate(31.096875 99.806648)scale(0.1 -0.1)">
       <use xlink:href="#DejaVuSans-48"/>
       <use x="63.623047" xlink:href="#DejaVuSans-46"/>
       <use x="95.410156" xlink:href="#DejaVuSans-49"/>
      </g>
     </g>
    </g>
    <g id="ytick_7">
     <g id="line2d_12">
      <g>
       <use style="stroke:#000000;stroke-width:0.8;" x="54" xlink:href="#m7a39a17f9e" y="67.315991"/>
      </g>
     </g>
     <g id="text_13">
      <!-- 0.2 -->
      <g transform="translate(31.096875 71.11521)scale(0.1 -0.1)">
       <use xlink:href="#DejaVuSans-48"/>
       <use x="63.623047" xlink:href="#DejaVuSans-46"/>
       <use x="95.410156" xlink:href="#DejaVuSans-50"/>
      </g>
     </g>
    </g>
    <g id="ytick_8">
     <g id="line2d_13">
      <g>
       <use style="stroke:#000000;stroke-width:0.8;" x="54" xlink:href="#m7a39a17f9e" y="38.624554"/>
      </g>
     </g>
     <g id="text_14">
      <!-- 0.3 -->
      <g transform="translate(31.096875 42.423772)scale(0.1 -0.1)">
       <use xlink:href="#DejaVuSans-48"/>
       <use x="63.623047" xlink:href="#DejaVuSans-46"/>
       <use x="95.410156" xlink:href="#DejaVuSans-51"/>
      </g>
     </g>
    </g>
    <g id="text_15">
     <!-- DiffDens -->
     <g transform="translate(16.6375 164.739375)rotate(-90)scale(0.1 -0.1)">
      <defs>
       <path d="M 19.671875 64.796875 
L 19.671875 8.109375 
L 31.59375 8.109375 
Q 46.6875 8.109375 53.6875 14.9375 
Q 60.6875 21.78125 60.6875 36.53125 
Q 60.6875 51.171875 53.6875 57.984375 
Q 46.6875 64.796875 31.59375 64.796875 
z
M 9.8125 72.90625 
L 30.078125 72.90625 
Q 51.265625 72.90625 61.171875 64.09375 
Q 71.09375 55.28125 71.09375 36.53125 
Q 71.09375 17.671875 61.125 8.828125 
Q 51.171875 0 30.078125 0 
L 9.8125 0 
z
" id="DejaVuSans-68"/>
       <path d="M 9.421875 54.6875 
L 18.40625 54.6875 
L 18.40625 0 
L 9.421875 0 
z
M 9.421875 75.984375 
L 18.40625 75.984375 
L 18.40625 64.59375 
L 9.421875 64.59375 
z
" id="DejaVuSans-105"/>
       <path d="M 37.109375 75.984375 
L 37.109375 68.5 
L 28.515625 68.5 
Q 23.6875 68.5 21.796875 66.546875 
Q 19.921875 64.59375 19.921875 59.515625 
L 19.921875 54.6875 
L 34.71875 54.6875 
L 34.71875 47.703125 
L 19.921875 47.703125 
L 19.921875 0 
L 10.890625 0 
L 10.890625 47.703125 
L 2.296875 47.703125 
L 2.296875 54.6875 
L 10.890625 54.6875 
L 10.890625 58.5 
Q 10.890625 67.625 15.140625 71.796875 
Q 19.390625 75.984375 28.609375 75.984375 
z
" id="DejaVuSans-102"/>
       <path d="M 56.203125 29.59375 
L 56.203125 25.203125 
L 14.890625 25.203125 
Q 15.484375 15.921875 20.484375 11.0625 
Q 25.484375 6.203125 34.421875 6.203125 
Q 39.59375 6.203125 44.453125 7.46875 
Q 49.3125 8.734375 54.109375 11.28125 
L 54.109375 2.78125 
Q 49.265625 0.734375 44.1875 -0.34375 
Q 39.109375 -1.421875 33.890625 -1.421875 
Q 20.796875 -1.421875 13.15625 6.1875 
Q 5.515625 13.8125 5.515625 26.8125 
Q 5.515625 40.234375 12.765625 48.109375 
Q 20.015625 56 32.328125 56 
Q 43.359375 56 49.78125 48.890625 
Q 56.203125 41.796875 56.203125 29.59375 
z
M 47.21875 32.234375 
Q 47.125 39.59375 43.09375 43.984375 
Q 39.0625 48.390625 32.421875 48.390625 
Q 24.90625 48.390625 20.390625 44.140625 
Q 15.875 39.890625 15.1875 32.171875 
z
" id="DejaVuSans-101"/>
       <path d="M 54.890625 33.015625 
L 54.890625 0 
L 45.90625 0 
L 45.90625 32.71875 
Q 45.90625 40.484375 42.875 44.328125 
Q 39.84375 48.1875 33.796875 48.1875 
Q 26.515625 48.1875 22.3125 43.546875 
Q 18.109375 38.921875 18.109375 30.90625 
L 18.109375 0 
L 9.078125 0 
L 9.078125 54.6875 
L 18.109375 54.6875 
L 18.109375 46.1875 
Q 21.34375 51.125 25.703125 53.5625 
Q 30.078125 56 35.796875 56 
Q 45.21875 56 50.046875 50.171875 
Q 54.890625 44.34375 54.890625 33.015625 
z
" id="DejaVuSans-110"/>
       <path d="M 44.28125 53.078125 
L 44.28125 44.578125 
Q 40.484375 46.53125 36.375 47.5 
Q 32.28125 48.484375 27.875 48.484375 
Q 21.1875 48.484375 17.84375 46.4375 
Q 14.5 44.390625 14.5 40.28125 
Q 14.5 37.15625 16.890625 35.375 
Q 19.28125 33.59375 26.515625 31.984375 
L 29.59375 31.296875 
Q 39.15625 29.25 43.1875 25.515625 
Q 47.21875 21.78125 47.21875 15.09375 
Q 47.21875 7.46875 41.1875 3.015625 
Q 35.15625 -1.421875 24.609375 -1.421875 
Q 20.21875 -1.421875 15.453125 -0.5625 
Q 10.6875 0.296875 5.421875 2 
L 5.421875 11.28125 
Q 10.40625 8.6875 15.234375 7.390625 
Q 20.0625 6.109375 24.8125 6.109375 
Q 31.15625 6.109375 34.5625 8.28125 
Q 37.984375 10.453125 37.984375 14.40625 
Q 37.984375 18.0625 35.515625 20.015625 
Q 33.0625 21.96875 24.703125 23.78125 
L 21.578125 24.515625 
Q 13.234375 26.265625 9.515625 29.90625 
Q 5.8125 33.546875 5.8125 39.890625 
Q 5.8125 47.609375 11.28125 51.796875 
Q 16.75 56 26.8125 56 
Q 31.78125 56 36.171875 55.265625 
Q 40.578125 54.546875 44.28125 53.078125 
z
" id="DejaVuSans-115"/>
      </defs>
      <use xlink:href="#DejaVuSans-68"/>
      <use x="77.001953" xlink:href="#DejaVuSans-105"/>
      <use x="104.785156" xlink:href="#DejaVuSans-102"/>
      <use x="139.990234" xlink:href="#DejaVuSans-102"/>
      <use x="175.195312" xlink:href="#DejaVuSans-68"/>
      <use x="252.197266" xlink:href="#DejaVuSans-101"/>
      <use x="313.720703" xlink:href="#DejaVuSans-110"/>
      <use x="377.099609" xlink:href="#DejaVuSans-115"/>
     </g>
    </g>
   </g>
   <g id="line2d_14">
    <path clip-path="url(#p199af5ba71)" d="M 54 98.049046 
L 57.381818 98.51848 
L 60.763636 98.987915 
L 64.145455 99.457349 
L 67.527273 99.926784 
L 70.909091 100.396218 
L 74.290909 100.865653 
L 77.672727 101.335087 
L 81.054545 101.804522 
L 84.436364 102.273956 
L 87.818182 102.743391 
L 91.2 103.212825 
L 94.581818 103.68226 
L 97.963636 104.151694 
L 101.345455 104.621129 
L 104.727273 105.090563 
L 108.109091 105.559997 
L 111.490909 106.029432 
L 114.872727 106.498866 
L 118.254545 106.968301 
L 121.636364 107.437735 
L 125.018182 107.90717 
L 128.4 108.376604 
L 131.781818 108.846039 
L 135.163636 109.315473 
L 138.545455 109.784908 
L 141.927273 110.254342 
L 145.309091 110.723777 
L 148.690909 111.193211 
L 152.072727 111.662646 
L 155.454545 112.13208 
L 158.836364 112.601515 
L 162.218182 113.070949 
L 165.6 113.540383 
L 168.981818 114.009818 
L 172.363636 114.479252 
L 175.745455 114.948687 
L 179.127273 115.418121 
L 182.509091 115.887556 
L 185.890909 116.35699 
L 189.272727 116.826425 
L 192.654545 117.295859 
L 196.036364 117.765294 
L 199.418182 118.234728 
L 202.8 118.704163 
L 206.181818 119.173597 
L 209.563636 119.643032 
L 212.945455 120.112466 
L 216.327273 120.5819 
L 219.709091 121.051335 
L 223.090909 121.520769 
L 226.472727 121.990204 
L 229.854545 122.459638 
L 233.236364 122.929073 
L 236.618182 123.398507 
L 240 123.867942 
L 243.381818 124.337376 
L 246.763636 124.806811 
L 250.145455 125.276245 
L 253.527273 125.74568 
L 256.909091 126.215114 
L 260.290909 126.684549 
L 263.672727 127.153983 
L 267.054545 127.623417 
L 270.436364 128.092852 
L 273.818182 128.562286 
L 277.2 129.031721 
L 280.581818 129.501155 
L 283.963636 129.97059 
L 287.345455 130.440024 
L 290.727273 130.909459 
L 294.109091 131.378893 
L 297.490909 131.848328 
L 300.872727 132.317762 
L 304.254545 132.787197 
L 307.636364 133.256631 
L 311.018182 133.726066 
L 314.4 134.1955 
L 317.781818 134.664934 
L 321.163636 135.134369 
L 324.545455 135.603803 
L 327.927273 136.073238 
L 331.309091 136.542672 
L 334.690909 137.012107 
L 338.072727 137.481541 
L 341.454545 137.950976 
L 344.836364 138.42041 
L 348.218182 138.889845 
L 351.6 139.359279 
L 354.981818 139.828714 
L 358.363636 140.298148 
L 361.745455 140.767583 
L 365.127273 141.237017 
L 368.509091 141.706451 
L 371.890909 142.175886 
L 375.272727 142.64532 
L 378.654545 143.114755 
L 382.036364 143.584189 
L 385.418182 144.053624 
L 388.8 144.523058 
" style="fill:none;stroke:#d3772e;stroke-linecap:square;stroke-width:2.25;"/>
   </g>
   <g id="patch_3">
    <path d="M 54 252 
L 54 34.56 
" style="fill:none;stroke:#000000;stroke-linecap:square;stroke-linejoin:miter;stroke-width:0.8;"/>
   </g>
   <g id="patch_4">
    <path d="M 388.8 252 
L 388.8 34.56 
" style="fill:none;stroke:#000000;stroke-linecap:square;stroke-linejoin:miter;stroke-width:0.8;"/>
   </g>
   <g id="patch_5">
    <path d="M 54 252 
L 388.8 252 
" style="fill:none;stroke:#000000;stroke-linecap:square;stroke-linejoin:miter;stroke-width:0.8;"/>
   </g>
   <g id="patch_6">
    <path d="M 54 34.56 
L 388.8 34.56 
" style="fill:none;stroke:#000000;stroke-linecap:square;stroke-linejoin:miter;stroke-width:0.8;"/>
   </g>
  </g>
 </g>
 <defs>
  <clipPath id="p199af5ba71">
   <rect height="217.44" width="334.8" x="54" y="34.56"/>
  </clipPath>
 </defs>
</svg>
