<?xml version="1.0" encoding="utf-8" standalone="no"?>
<!DOCTYPE svg PUBLIC "-//W3C//DTD SVG 1.1//EN"
  "http://www.w3.org/Graphics/SVG/1.1/DTD/svg11.dtd">
<!-- Created with matplotlib (https://matplotlib.org/) -->
<svg height="288pt" version="1.1" viewBox="0 0 432 288" width="432pt" xmlns="http://www.w3.org/2000/svg" xmlns:xlink="http://www.w3.org/1999/xlink">
 <metadata>
  <rdf:RDF xmlns:cc="http://creativecommons.org/ns#" xmlns:dc="http://purl.org/dc/elements/1.1/" xmlns:rdf="http://www.w3.org/1999/02/22-rdf-syntax-ns#">
   <cc:Work>
    <dc:type rdf:resource="http://purl.org/dc/dcmitype/StillImage"/>
    <dc:date>2021-04-15T19:48:59.912293</dc:date>
    <dc:format>image/svg+xml</dc:format>
    <dc:creator>
     <cc:Agent>
      <dc:title>Matplotlib v3.3.2, https://matplotlib.org/</dc:title>
     </cc:Agent>
    </dc:creator>
   </cc:Work>
  </rdf:RDF>
 </metadata>
 <defs>
  <style type="text/css">*{stroke-linecap:butt;stroke-linejoin:round;}</style>
 </defs>
 <g id="figure_1">
  <g id="patch_1">
   <path d="M 0 288 
L 432 288 
L 432 0 
L 0 0 
z
" style="fill:none;"/>
  </g>
  <g id="axes_1">
   <g id="patch_2">
    <path d="M 54 252 
L 388.8 252 
L 388.8 34.56 
L 54 34.56 
z
" style="fill:#ffffff;"/>
   </g>
   <g id="PathCollection_1">
    <defs>
     <path d="M 0 3 
C 0.795609 3 1.55874 2.683901 2.12132 2.12132 
C 2.683901 1.55874 3 0.795609 3 0 
C 3 -0.795609 2.683901 -1.55874 2.12132 -2.12132 
C 1.55874 -2.683901 0.795609 -3 0 -3 
C -0.795609 -3 -1.55874 -2.683901 -2.12132 -2.12132 
C -2.683901 -1.55874 -3 -0.795609 -3 0 
C -3 0.795609 -2.683901 1.55874 -2.12132 2.12132 
C -1.55874 2.683901 -0.795609 3 0 3 
z
" id="m5da3337d55" style="stroke:#d3772e;stroke-opacity:0.8;"/>
    </defs>
    <g clip-path="url(#p9c91cd996a)">
     <use style="fill:#d3772e;fill-opacity:0.8;stroke:#d3772e;stroke-opacity:0.8;" x="190.413701" xlink:href="#m5da3337d55" y="159.975082"/>
     <use style="fill:#d3772e;fill-opacity:0.8;stroke:#d3772e;stroke-opacity:0.8;" x="190.583202" xlink:href="#m5da3337d55" y="160.931939"/>
     <use style="fill:#d3772e;fill-opacity:0.8;stroke:#d3772e;stroke-opacity:0.8;" x="177.919323" xlink:href="#m5da3337d55" y="161.465437"/>
     <use style="fill:#d3772e;fill-opacity:0.8;stroke:#d3772e;stroke-opacity:0.8;" x="202.578822" xlink:href="#m5da3337d55" y="154.873722"/>
     <use style="fill:#d3772e;fill-opacity:0.8;stroke:#d3772e;stroke-opacity:0.8;" x="158.552129" xlink:href="#m5da3337d55" y="163.10978"/>
     <use style="fill:#d3772e;fill-opacity:0.8;stroke:#d3772e;stroke-opacity:0.8;" x="191.237123" xlink:href="#m5da3337d55" y="140.642728"/>
     <use style="fill:#d3772e;fill-opacity:0.8;stroke:#d3772e;stroke-opacity:0.8;" x="167.528395" xlink:href="#m5da3337d55" y="179.796843"/>
     <use style="fill:#d3772e;fill-opacity:0.8;stroke:#d3772e;stroke-opacity:0.8;" x="198.353799" xlink:href="#m5da3337d55" y="164.28448"/>
     <use style="fill:#d3772e;fill-opacity:0.8;stroke:#d3772e;stroke-opacity:0.8;" x="146.927564" xlink:href="#m5da3337d55" y="188.624909"/>
     <use style="fill:#d3772e;fill-opacity:0.8;stroke:#d3772e;stroke-opacity:0.8;" x="222.319413" xlink:href="#m5da3337d55" y="160.684862"/>
     <use style="fill:#d3772e;fill-opacity:0.8;stroke:#d3772e;stroke-opacity:0.8;" x="204.059403" xlink:href="#m5da3337d55" y="176.557835"/>
     <use style="fill:#d3772e;fill-opacity:0.8;stroke:#d3772e;stroke-opacity:0.8;" x="118.459275" xlink:href="#m5da3337d55" y="174.870045"/>
     <use style="fill:#d3772e;fill-opacity:0.8;stroke:#d3772e;stroke-opacity:0.8;" x="147.699448" xlink:href="#m5da3337d55" y="194.959389"/>
     <use style="fill:#d3772e;fill-opacity:0.8;stroke:#d3772e;stroke-opacity:0.8;" x="296.048886" xlink:href="#m5da3337d55" y="141.670084"/>
     <use style="fill:#d3772e;fill-opacity:0.8;stroke:#d3772e;stroke-opacity:0.8;" x="283.7526" xlink:href="#m5da3337d55" y="185.027086"/>
     <use style="fill:#d3772e;fill-opacity:0.8;stroke:#d3772e;stroke-opacity:0.8;" x="175.084511" xlink:href="#m5da3337d55" y="199.885466"/>
     <use style="fill:#d3772e;fill-opacity:0.8;stroke:#d3772e;stroke-opacity:0.8;" x="151.223214" xlink:href="#m5da3337d55" y="198.182869"/>
     <use style="fill:#d3772e;fill-opacity:0.8;stroke:#d3772e;stroke-opacity:0.8;" x="54" xlink:href="#m5da3337d55" y="197.961348"/>
     <use style="fill:#d3772e;fill-opacity:0.8;stroke:#d3772e;stroke-opacity:0.8;" x="166.955489" xlink:href="#m5da3337d55" y="197.180581"/>
     <use style="fill:#d3772e;fill-opacity:0.8;stroke:#d3772e;stroke-opacity:0.8;" x="148.509393" xlink:href="#m5da3337d55" y="178.425985"/>
     <use style="fill:#d3772e;fill-opacity:0.8;stroke:#d3772e;stroke-opacity:0.8;" x="135.606707" xlink:href="#m5da3337d55" y="190.847934"/>
     <use style="fill:#d3772e;fill-opacity:0.8;stroke:#d3772e;stroke-opacity:0.8;" x="221.845343" xlink:href="#m5da3337d55" y="168.542883"/>
     <use style="fill:#d3772e;fill-opacity:0.8;stroke:#d3772e;stroke-opacity:0.8;" x="212.453593" xlink:href="#m5da3337d55" y="179.967686"/>
     <use style="fill:#d3772e;fill-opacity:0.8;stroke:#d3772e;stroke-opacity:0.8;" x="388.8" xlink:href="#m5da3337d55" y="44.443636"/>
     <use style="fill:#d3772e;fill-opacity:0.8;stroke:#d3772e;stroke-opacity:0.8;" x="374.755719" xlink:href="#m5da3337d55" y="242.116364"/>
    </g>
   </g>
   <g id="PolyCollection_1">
    <path clip-path="url(#p9c91cd996a)" d="M 54 155.651366 
L 54 237.10509 
L 57.381818 235.326118 
L 60.763636 233.547145 
L 64.145455 231.891845 
L 67.527273 230.244833 
L 70.909091 228.620147 
L 74.290909 227.000607 
L 77.672727 225.305618 
L 81.054545 223.662695 
L 84.436364 222.017095 
L 87.818182 220.36945 
L 91.2 218.604451 
L 94.581818 216.827572 
L 97.963636 215.050693 
L 101.345455 213.273814 
L 104.727273 211.496934 
L 108.109091 209.750925 
L 111.490909 207.969874 
L 114.872727 206.300496 
L 118.254545 204.741296 
L 121.636364 203.470107 
L 125.018182 202.111535 
L 128.4 200.638291 
L 131.781818 198.996797 
L 135.163636 197.289673 
L 138.545455 195.628307 
L 141.927273 194.176787 
L 145.309091 192.517023 
L 148.690909 190.8498 
L 152.072727 189.256028 
L 155.454545 187.837847 
L 158.836364 186.542924 
L 162.218182 185.276743 
L 165.6 184.359279 
L 168.981818 183.472833 
L 172.363636 182.965407 
L 175.745455 182.731073 
L 179.127273 182.739974 
L 182.509091 182.794345 
L 185.890909 182.78663 
L 189.272727 183.127995 
L 192.654545 183.64262 
L 196.036364 184.017217 
L 199.418182 184.522645 
L 202.8 185.216082 
L 206.181818 185.562406 
L 209.563636 185.978023 
L 212.945455 186.469009 
L 216.327273 186.746779 
L 219.709091 186.877438 
L 223.090909 187.312479 
L 226.472727 187.951946 
L 229.854545 188.313905 
L 233.236364 188.571399 
L 236.618182 188.825443 
L 240 189.264528 
L 243.381818 189.814132 
L 246.763636 190.567673 
L 250.145455 191.402951 
L 253.527273 191.853688 
L 256.909091 192.447955 
L 260.290909 192.909768 
L 263.672727 193.217916 
L 267.054545 193.652518 
L 270.436364 194.199345 
L 273.818182 194.789121 
L 277.2 195.560542 
L 280.581818 196.205506 
L 283.963636 197.048668 
L 287.345455 197.492848 
L 290.727273 197.846782 
L 294.109091 198.54668 
L 297.490909 199.298038 
L 300.872727 200.049396 
L 304.254545 200.609388 
L 307.636364 201.134191 
L 311.018182 201.658993 
L 314.4 202.17708 
L 317.781818 202.694731 
L 321.163636 203.212382 
L 324.545455 203.730033 
L 327.927273 204.247684 
L 331.309091 204.765335 
L 334.690909 205.282986 
L 338.072727 205.800637 
L 341.454545 206.378057 
L 344.836364 207.006359 
L 348.218182 207.626744 
L 351.6 208.25445 
L 354.981818 208.882156 
L 358.363636 209.509862 
L 361.745455 210.137569 
L 365.127273 210.765275 
L 368.509091 211.392156 
L 371.890909 212.013471 
L 375.272727 212.634786 
L 378.654545 213.158864 
L 382.036364 213.60299 
L 385.418182 214.047116 
L 388.8 214.491242 
L 388.8 67.304726 
L 388.8 67.304726 
L 385.418182 68.933664 
L 382.036364 70.562603 
L 378.654545 72.191542 
L 375.272727 73.82048 
L 371.890909 75.558179 
L 368.509091 77.300686 
L 365.127273 79.043192 
L 361.745455 80.721305 
L 358.363636 82.237882 
L 354.981818 83.754459 
L 351.6 85.271723 
L 348.218182 86.985476 
L 344.836364 88.741891 
L 341.454545 90.498306 
L 338.072727 92.15202 
L 334.690909 93.712021 
L 331.309091 95.365437 
L 327.927273 97.058915 
L 324.545455 98.585928 
L 321.163636 100.112941 
L 317.781818 101.639954 
L 314.4 103.168087 
L 311.018182 104.767039 
L 307.636364 106.680774 
L 304.254545 108.598914 
L 300.872727 110.517235 
L 297.490909 112.422048 
L 294.109091 113.990914 
L 290.727273 115.55978 
L 287.345455 117.187147 
L 283.963636 118.74962 
L 280.581818 120.251295 
L 277.2 121.811251 
L 273.818182 123.371207 
L 270.436364 124.942301 
L 267.054545 126.502115 
L 263.672727 128.154565 
L 260.290909 129.860472 
L 256.909091 131.626989 
L 253.527273 133.203605 
L 250.145455 134.926616 
L 246.763636 136.681798 
L 243.381818 138.38822 
L 240 140.094642 
L 236.618182 141.771059 
L 233.236364 143.36236 
L 229.854545 145.082471 
L 226.472727 146.763761 
L 223.090909 148.517275 
L 219.709091 150.065849 
L 216.327273 151.561898 
L 212.945455 153.07342 
L 209.563636 154.58133 
L 206.181818 156.385765 
L 202.8 157.813518 
L 199.418182 159.079368 
L 196.036364 160.647794 
L 192.654545 161.953077 
L 189.272727 163.336337 
L 185.890909 164.873329 
L 182.509091 166.40069 
L 179.127273 167.342084 
L 175.745455 168.272569 
L 172.363636 169.164303 
L 168.981818 169.889863 
L 165.6 169.995491 
L 162.218182 170.104403 
L 158.836364 170.233713 
L 155.454545 170.104732 
L 152.072727 169.880572 
L 148.690909 169.396184 
L 145.309091 169.044555 
L 141.927273 168.497611 
L 138.545455 168.090621 
L 135.163636 167.601463 
L 131.781818 167.121324 
L 128.4 166.7776 
L 125.018182 166.305372 
L 121.636364 165.682611 
L 118.254545 165.117083 
L 114.872727 164.698301 
L 111.490909 164.426623 
L 108.109091 164.15912 
L 104.727273 163.651223 
L 101.345455 163.353096 
L 97.963636 163.040563 
L 94.581818 162.536287 
L 91.2 161.970507 
L 87.818182 161.32426 
L 84.436364 160.678013 
L 81.054545 160.031766 
L 77.672727 159.400734 
L 74.290909 158.775761 
L 70.909091 158.231679 
L 67.527273 157.657512 
L 64.145455 157.155975 
L 60.763636 156.654439 
L 57.381818 156.152902 
L 54 155.651366 
z
" style="fill:#d3772e;fill-opacity:0.15;"/>
   </g>
   <g id="matplotlib.axis_1">
    <g id="xtick_1">
     <g id="line2d_1">
      <defs>
       <path d="M 0 0 
L 0 3.5 
" id="me797de4714" style="stroke:#000000;stroke-width:0.8;"/>
      </defs>
      <g>
       <use style="stroke:#000000;stroke-width:0.8;" x="90.161745" xlink:href="#me797de4714" y="252"/>
      </g>
     </g>
     <g id="text_1">
      <!-- 30 -->
      <g transform="translate(83.799245 266.598437)scale(0.1 -0.1)">
       <defs>
        <path d="M 40.578125 39.3125 
Q 47.65625 37.796875 51.625 33 
Q 55.609375 28.21875 55.609375 21.1875 
Q 55.609375 10.40625 48.1875 4.484375 
Q 40.765625 -1.421875 27.09375 -1.421875 
Q 22.515625 -1.421875 17.65625 -0.515625 
Q 12.796875 0.390625 7.625 2.203125 
L 7.625 11.71875 
Q 11.71875 9.328125 16.59375 8.109375 
Q 21.484375 6.890625 26.8125 6.890625 
Q 36.078125 6.890625 40.9375 10.546875 
Q 45.796875 14.203125 45.796875 21.1875 
Q 45.796875 27.640625 41.28125 31.265625 
Q 36.765625 34.90625 28.71875 34.90625 
L 20.21875 34.90625 
L 20.21875 43.015625 
L 29.109375 43.015625 
Q 36.375 43.015625 40.234375 45.921875 
Q 44.09375 48.828125 44.09375 54.296875 
Q 44.09375 59.90625 40.109375 62.90625 
Q 36.140625 65.921875 28.71875 65.921875 
Q 24.65625 65.921875 20.015625 65.03125 
Q 15.375 64.15625 9.8125 62.3125 
L 9.8125 71.09375 
Q 15.4375 72.65625 20.34375 73.4375 
Q 25.25 74.21875 29.59375 74.21875 
Q 40.828125 74.21875 47.359375 69.109375 
Q 53.90625 64.015625 53.90625 55.328125 
Q 53.90625 49.265625 50.4375 45.09375 
Q 46.96875 40.921875 40.578125 39.3125 
z
" id="DejaVuSans-51"/>
        <path d="M 31.78125 66.40625 
Q 24.171875 66.40625 20.328125 58.90625 
Q 16.5 51.421875 16.5 36.375 
Q 16.5 21.390625 20.328125 13.890625 
Q 24.171875 6.390625 31.78125 6.390625 
Q 39.453125 6.390625 43.28125 13.890625 
Q 47.125 21.390625 47.125 36.375 
Q 47.125 51.421875 43.28125 58.90625 
Q 39.453125 66.40625 31.78125 66.40625 
z
M 31.78125 74.21875 
Q 44.046875 74.21875 50.515625 64.515625 
Q 56.984375 54.828125 56.984375 36.375 
Q 56.984375 17.96875 50.515625 8.265625 
Q 44.046875 -1.421875 31.78125 -1.421875 
Q 19.53125 -1.421875 13.0625 8.265625 
Q 6.59375 17.96875 6.59375 36.375 
Q 6.59375 54.828125 13.0625 64.515625 
Q 19.53125 74.21875 31.78125 74.21875 
z
" id="DejaVuSans-48"/>
       </defs>
       <use xlink:href="#DejaVuSans-51"/>
       <use x="63.623047" xlink:href="#DejaVuSans-48"/>
      </g>
     </g>
    </g>
    <g id="xtick_2">
     <g id="line2d_2">
      <g>
       <use style="stroke:#000000;stroke-width:0.8;" x="134.086182" xlink:href="#me797de4714" y="252"/>
      </g>
     </g>
     <g id="text_2">
      <!-- 35 -->
      <g transform="translate(127.723682 266.598437)scale(0.1 -0.1)">
       <defs>
        <path d="M 10.796875 72.90625 
L 49.515625 72.90625 
L 49.515625 64.59375 
L 19.828125 64.59375 
L 19.828125 46.734375 
Q 21.96875 47.46875 24.109375 47.828125 
Q 26.265625 48.1875 28.421875 48.1875 
Q 40.625 48.1875 47.75 41.5 
Q 54.890625 34.8125 54.890625 23.390625 
Q 54.890625 11.625 47.5625 5.09375 
Q 40.234375 -1.421875 26.90625 -1.421875 
Q 22.3125 -1.421875 17.546875 -0.640625 
Q 12.796875 0.140625 7.71875 1.703125 
L 7.71875 11.625 
Q 12.109375 9.234375 16.796875 8.0625 
Q 21.484375 6.890625 26.703125 6.890625 
Q 35.15625 6.890625 40.078125 11.328125 
Q 45.015625 15.765625 45.015625 23.390625 
Q 45.015625 31 40.078125 35.4375 
Q 35.15625 39.890625 26.703125 39.890625 
Q 22.75 39.890625 18.8125 39.015625 
Q 14.890625 38.140625 10.796875 36.28125 
z
" id="DejaVuSans-53"/>
       </defs>
       <use xlink:href="#DejaVuSans-51"/>
       <use x="63.623047" xlink:href="#DejaVuSans-53"/>
      </g>
     </g>
    </g>
    <g id="xtick_3">
     <g id="line2d_3">
      <g>
       <use style="stroke:#000000;stroke-width:0.8;" x="178.010619" xlink:href="#me797de4714" y="252"/>
      </g>
     </g>
     <g id="text_3">
      <!-- 40 -->
      <g transform="translate(171.648119 266.598437)scale(0.1 -0.1)">
       <defs>
        <path d="M 37.796875 64.3125 
L 12.890625 25.390625 
L 37.796875 25.390625 
z
M 35.203125 72.90625 
L 47.609375 72.90625 
L 47.609375 25.390625 
L 58.015625 25.390625 
L 58.015625 17.1875 
L 47.609375 17.1875 
L 47.609375 0 
L 37.796875 0 
L 37.796875 17.1875 
L 4.890625 17.1875 
L 4.890625 26.703125 
z
" id="DejaVuSans-52"/>
       </defs>
       <use xlink:href="#DejaVuSans-52"/>
       <use x="63.623047" xlink:href="#DejaVuSans-48"/>
      </g>
     </g>
    </g>
    <g id="xtick_4">
     <g id="line2d_4">
      <g>
       <use style="stroke:#000000;stroke-width:0.8;" x="221.935056" xlink:href="#me797de4714" y="252"/>
      </g>
     </g>
     <g id="text_4">
      <!-- 45 -->
      <g transform="translate(215.572556 266.598437)scale(0.1 -0.1)">
       <use xlink:href="#DejaVuSans-52"/>
       <use x="63.623047" xlink:href="#DejaVuSans-53"/>
      </g>
     </g>
    </g>
    <g id="xtick_5">
     <g id="line2d_5">
      <g>
       <use style="stroke:#000000;stroke-width:0.8;" x="265.859493" xlink:href="#me797de4714" y="252"/>
      </g>
     </g>
     <g id="text_5">
      <!-- 50 -->
      <g transform="translate(259.496993 266.598437)scale(0.1 -0.1)">
       <use xlink:href="#DejaVuSans-53"/>
       <use x="63.623047" xlink:href="#DejaVuSans-48"/>
      </g>
     </g>
    </g>
    <g id="xtick_6">
     <g id="line2d_6">
      <g>
       <use style="stroke:#000000;stroke-width:0.8;" x="309.78393" xlink:href="#me797de4714" y="252"/>
      </g>
     </g>
     <g id="text_6">
      <!-- 55 -->
      <g transform="translate(303.42143 266.598437)scale(0.1 -0.1)">
       <use xlink:href="#DejaVuSans-53"/>
       <use x="63.623047" xlink:href="#DejaVuSans-53"/>
      </g>
     </g>
    </g>
    <g id="xtick_7">
     <g id="line2d_7">
      <g>
       <use style="stroke:#000000;stroke-width:0.8;" x="353.708367" xlink:href="#me797de4714" y="252"/>
      </g>
     </g>
     <g id="text_7">
      <!-- 60 -->
      <g transform="translate(347.345867 266.598437)scale(0.1 -0.1)">
       <defs>
        <path d="M 33.015625 40.375 
Q 26.375 40.375 22.484375 35.828125 
Q 18.609375 31.296875 18.609375 23.390625 
Q 18.609375 15.53125 22.484375 10.953125 
Q 26.375 6.390625 33.015625 6.390625 
Q 39.65625 6.390625 43.53125 10.953125 
Q 47.40625 15.53125 47.40625 23.390625 
Q 47.40625 31.296875 43.53125 35.828125 
Q 39.65625 40.375 33.015625 40.375 
z
M 52.59375 71.296875 
L 52.59375 62.3125 
Q 48.875 64.0625 45.09375 64.984375 
Q 41.3125 65.921875 37.59375 65.921875 
Q 27.828125 65.921875 22.671875 59.328125 
Q 17.53125 52.734375 16.796875 39.40625 
Q 19.671875 43.65625 24.015625 45.921875 
Q 28.375 48.1875 33.59375 48.1875 
Q 44.578125 48.1875 50.953125 41.515625 
Q 57.328125 34.859375 57.328125 23.390625 
Q 57.328125 12.15625 50.6875 5.359375 
Q 44.046875 -1.421875 33.015625 -1.421875 
Q 20.359375 -1.421875 13.671875 8.265625 
Q 6.984375 17.96875 6.984375 36.375 
Q 6.984375 53.65625 15.1875 63.9375 
Q 23.390625 74.21875 37.203125 74.21875 
Q 40.921875 74.21875 44.703125 73.484375 
Q 48.484375 72.75 52.59375 71.296875 
z
" id="DejaVuSans-54"/>
       </defs>
       <use xlink:href="#DejaVuSans-54"/>
       <use x="63.623047" xlink:href="#DejaVuSans-48"/>
      </g>
     </g>
    </g>
    <g id="text_8">
     <!-- GC -->
     <g transform="translate(214.034375 280.276563)scale(0.1 -0.1)">
      <defs>
       <path d="M 59.515625 10.40625 
L 59.515625 29.984375 
L 43.40625 29.984375 
L 43.40625 38.09375 
L 69.28125 38.09375 
L 69.28125 6.78125 
Q 63.578125 2.734375 56.6875 0.65625 
Q 49.8125 -1.421875 42 -1.421875 
Q 24.90625 -1.421875 15.25 8.5625 
Q 5.609375 18.5625 5.609375 36.375 
Q 5.609375 54.25 15.25 64.234375 
Q 24.90625 74.21875 42 74.21875 
Q 49.125 74.21875 55.546875 72.453125 
Q 61.96875 70.703125 67.390625 67.28125 
L 67.390625 56.78125 
Q 61.921875 61.421875 55.765625 63.765625 
Q 49.609375 66.109375 42.828125 66.109375 
Q 29.4375 66.109375 22.71875 58.640625 
Q 16.015625 51.171875 16.015625 36.375 
Q 16.015625 21.625 22.71875 14.15625 
Q 29.4375 6.6875 42.828125 6.6875 
Q 48.046875 6.6875 52.140625 7.59375 
Q 56.25 8.5 59.515625 10.40625 
z
" id="DejaVuSans-71"/>
       <path d="M 64.40625 67.28125 
L 64.40625 56.890625 
Q 59.421875 61.53125 53.78125 63.8125 
Q 48.140625 66.109375 41.796875 66.109375 
Q 29.296875 66.109375 22.65625 58.46875 
Q 16.015625 50.828125 16.015625 36.375 
Q 16.015625 21.96875 22.65625 14.328125 
Q 29.296875 6.6875 41.796875 6.6875 
Q 48.140625 6.6875 53.78125 8.984375 
Q 59.421875 11.28125 64.40625 15.921875 
L 64.40625 5.609375 
Q 59.234375 2.09375 53.4375 0.328125 
Q 47.65625 -1.421875 41.21875 -1.421875 
Q 24.65625 -1.421875 15.125 8.703125 
Q 5.609375 18.84375 5.609375 36.375 
Q 5.609375 53.953125 15.125 64.078125 
Q 24.65625 74.21875 41.21875 74.21875 
Q 47.75 74.21875 53.53125 72.484375 
Q 59.328125 70.75 64.40625 67.28125 
z
" id="DejaVuSans-67"/>
      </defs>
      <use xlink:href="#DejaVuSans-71"/>
      <use x="77.490234" xlink:href="#DejaVuSans-67"/>
     </g>
    </g>
   </g>
   <g id="matplotlib.axis_2">
    <g id="ytick_1">
     <g id="line2d_8">
      <defs>
       <path d="M 0 0 
L -3.5 0 
" id="md9056509f6" style="stroke:#000000;stroke-width:0.8;"/>
      </defs>
      <g>
       <use style="stroke:#000000;stroke-width:0.8;" x="54" xlink:href="#md9056509f6" y="251.300595"/>
      </g>
     </g>
     <g id="text_9">
      <!-- −0.2 -->
      <g transform="translate(22.717187 255.099814)scale(0.1 -0.1)">
       <defs>
        <path d="M 10.59375 35.5 
L 73.1875 35.5 
L 73.1875 27.203125 
L 10.59375 27.203125 
z
" id="DejaVuSans-8722"/>
        <path d="M 10.6875 12.40625 
L 21 12.40625 
L 21 0 
L 10.6875 0 
z
" id="DejaVuSans-46"/>
        <path d="M 19.1875 8.296875 
L 53.609375 8.296875 
L 53.609375 0 
L 7.328125 0 
L 7.328125 8.296875 
Q 12.9375 14.109375 22.625 23.890625 
Q 32.328125 33.6875 34.8125 36.53125 
Q 39.546875 41.84375 41.421875 45.53125 
Q 43.3125 49.21875 43.3125 52.78125 
Q 43.3125 58.59375 39.234375 62.25 
Q 35.15625 65.921875 28.609375 65.921875 
Q 23.96875 65.921875 18.8125 64.3125 
Q 13.671875 62.703125 7.8125 59.421875 
L 7.8125 69.390625 
Q 13.765625 71.78125 18.9375 73 
Q 24.125 74.21875 28.421875 74.21875 
Q 39.75 74.21875 46.484375 68.546875 
Q 53.21875 62.890625 53.21875 53.421875 
Q 53.21875 48.921875 51.53125 44.890625 
Q 49.859375 40.875 45.40625 35.40625 
Q 44.1875 33.984375 37.640625 27.21875 
Q 31.109375 20.453125 19.1875 8.296875 
z
" id="DejaVuSans-50"/>
       </defs>
       <use xlink:href="#DejaVuSans-8722"/>
       <use x="83.789062" xlink:href="#DejaVuSans-48"/>
       <use x="147.412109" xlink:href="#DejaVuSans-46"/>
       <use x="179.199219" xlink:href="#DejaVuSans-50"/>
      </g>
     </g>
    </g>
    <g id="ytick_2">
     <g id="line2d_9">
      <g>
       <use style="stroke:#000000;stroke-width:0.8;" x="54" xlink:href="#md9056509f6" y="225.194061"/>
      </g>
     </g>
     <g id="text_10">
      <!-- −0.1 -->
      <g transform="translate(22.717187 228.99328)scale(0.1 -0.1)">
       <defs>
        <path d="M 12.40625 8.296875 
L 28.515625 8.296875 
L 28.515625 63.921875 
L 10.984375 60.40625 
L 10.984375 69.390625 
L 28.421875 72.90625 
L 38.28125 72.90625 
L 38.28125 8.296875 
L 54.390625 8.296875 
L 54.390625 0 
L 12.40625 0 
z
" id="DejaVuSans-49"/>
       </defs>
       <use xlink:href="#DejaVuSans-8722"/>
       <use x="83.789062" xlink:href="#DejaVuSans-48"/>
       <use x="147.412109" xlink:href="#DejaVuSans-46"/>
       <use x="179.199219" xlink:href="#DejaVuSans-49"/>
      </g>
     </g>
    </g>
    <g id="ytick_3">
     <g id="line2d_10">
      <g>
       <use style="stroke:#000000;stroke-width:0.8;" x="54" xlink:href="#md9056509f6" y="199.087526"/>
      </g>
     </g>
     <g id="text_11">
      <!-- 0.0 -->
      <g transform="translate(31.096875 202.886745)scale(0.1 -0.1)">
       <use xlink:href="#DejaVuSans-48"/>
       <use x="63.623047" xlink:href="#DejaVuSans-46"/>
       <use x="95.410156" xlink:href="#DejaVuSans-48"/>
      </g>
     </g>
    </g>
    <g id="ytick_4">
     <g id="line2d_11">
      <g>
       <use style="stroke:#000000;stroke-width:0.8;" x="54" xlink:href="#md9056509f6" y="172.980992"/>
      </g>
     </g>
     <g id="text_12">
      <!-- 0.1 -->
      <g transform="translate(31.096875 176.780211)scale(0.1 -0.1)">
       <use xlink:href="#DejaVuSans-48"/>
       <use x="63.623047" xlink:href="#DejaVuSans-46"/>
       <use x="95.410156" xlink:href="#DejaVuSans-49"/>
      </g>
     </g>
    </g>
    <g id="ytick_5">
     <g id="line2d_12">
      <g>
       <use style="stroke:#000000;stroke-width:0.8;" x="54" xlink:href="#md9056509f6" y="146.874458"/>
      </g>
     </g>
     <g id="text_13">
      <!-- 0.2 -->
      <g transform="translate(31.096875 150.673676)scale(0.1 -0.1)">
       <use xlink:href="#DejaVuSans-48"/>
       <use x="63.623047" xlink:href="#DejaVuSans-46"/>
       <use x="95.410156" xlink:href="#DejaVuSans-50"/>
      </g>
     </g>
    </g>
    <g id="ytick_6">
     <g id="line2d_13">
      <g>
       <use style="stroke:#000000;stroke-width:0.8;" x="54" xlink:href="#md9056509f6" y="120.767923"/>
      </g>
     </g>
     <g id="text_14">
      <!-- 0.3 -->
      <g transform="translate(31.096875 124.567142)scale(0.1 -0.1)">
       <use xlink:href="#DejaVuSans-48"/>
       <use x="63.623047" xlink:href="#DejaVuSans-46"/>
       <use x="95.410156" xlink:href="#DejaVuSans-51"/>
      </g>
     </g>
    </g>
    <g id="ytick_7">
     <g id="line2d_14">
      <g>
       <use style="stroke:#000000;stroke-width:0.8;" x="54" xlink:href="#md9056509f6" y="94.661389"/>
      </g>
     </g>
     <g id="text_15">
      <!-- 0.4 -->
      <g transform="translate(31.096875 98.460607)scale(0.1 -0.1)">
       <use xlink:href="#DejaVuSans-48"/>
       <use x="63.623047" xlink:href="#DejaVuSans-46"/>
       <use x="95.410156" xlink:href="#DejaVuSans-52"/>
      </g>
     </g>
    </g>
    <g id="ytick_8">
     <g id="line2d_15">
      <g>
       <use style="stroke:#000000;stroke-width:0.8;" x="54" xlink:href="#md9056509f6" y="68.554854"/>
      </g>
     </g>
     <g id="text_16">
      <!-- 0.5 -->
      <g transform="translate(31.096875 72.354073)scale(0.1 -0.1)">
       <use xlink:href="#DejaVuSans-48"/>
       <use x="63.623047" xlink:href="#DejaVuSans-46"/>
       <use x="95.410156" xlink:href="#DejaVuSans-53"/>
      </g>
     </g>
    </g>
    <g id="ytick_9">
     <g id="line2d_16">
      <g>
       <use style="stroke:#000000;stroke-width:0.8;" x="54" xlink:href="#md9056509f6" y="42.44832"/>
      </g>
     </g>
     <g id="text_17">
      <!-- 0.6 -->
      <g transform="translate(31.096875 46.247539)scale(0.1 -0.1)">
       <use xlink:href="#DejaVuSans-48"/>
       <use x="63.623047" xlink:href="#DejaVuSans-46"/>
       <use x="95.410156" xlink:href="#DejaVuSans-54"/>
      </g>
     </g>
    </g>
    <g id="text_18">
     <!-- Density -->
     <g transform="translate(16.6375 162.288594)rotate(-90)scale(0.1 -0.1)">
      <defs>
       <path d="M 19.671875 64.796875 
L 19.671875 8.109375 
L 31.59375 8.109375 
Q 46.6875 8.109375 53.6875 14.9375 
Q 60.6875 21.78125 60.6875 36.53125 
Q 60.6875 51.171875 53.6875 57.984375 
Q 46.6875 64.796875 31.59375 64.796875 
z
M 9.8125 72.90625 
L 30.078125 72.90625 
Q 51.265625 72.90625 61.171875 64.09375 
Q 71.09375 55.28125 71.09375 36.53125 
Q 71.09375 17.671875 61.125 8.828125 
Q 51.171875 0 30.078125 0 
L 9.8125 0 
z
" id="DejaVuSans-68"/>
       <path d="M 56.203125 29.59375 
L 56.203125 25.203125 
L 14.890625 25.203125 
Q 15.484375 15.921875 20.484375 11.0625 
Q 25.484375 6.203125 34.421875 6.203125 
Q 39.59375 6.203125 44.453125 7.46875 
Q 49.3125 8.734375 54.109375 11.28125 
L 54.109375 2.78125 
Q 49.265625 0.734375 44.1875 -0.34375 
Q 39.109375 -1.421875 33.890625 -1.421875 
Q 20.796875 -1.421875 13.15625 6.1875 
Q 5.515625 13.8125 5.515625 26.8125 
Q 5.515625 40.234375 12.765625 48.109375 
Q 20.015625 56 32.328125 56 
Q 43.359375 56 49.78125 48.890625 
Q 56.203125 41.796875 56.203125 29.59375 
z
M 47.21875 32.234375 
Q 47.125 39.59375 43.09375 43.984375 
Q 39.0625 48.390625 32.421875 48.390625 
Q 24.90625 48.390625 20.390625 44.140625 
Q 15.875 39.890625 15.1875 32.171875 
z
" id="DejaVuSans-101"/>
       <path d="M 54.890625 33.015625 
L 54.890625 0 
L 45.90625 0 
L 45.90625 32.71875 
Q 45.90625 40.484375 42.875 44.328125 
Q 39.84375 48.1875 33.796875 48.1875 
Q 26.515625 48.1875 22.3125 43.546875 
Q 18.109375 38.921875 18.109375 30.90625 
L 18.109375 0 
L 9.078125 0 
L 9.078125 54.6875 
L 18.109375 54.6875 
L 18.109375 46.1875 
Q 21.34375 51.125 25.703125 53.5625 
Q 30.078125 56 35.796875 56 
Q 45.21875 56 50.046875 50.171875 
Q 54.890625 44.34375 54.890625 33.015625 
z
" id="DejaVuSans-110"/>
       <path d="M 44.28125 53.078125 
L 44.28125 44.578125 
Q 40.484375 46.53125 36.375 47.5 
Q 32.28125 48.484375 27.875 48.484375 
Q 21.1875 48.484375 17.84375 46.4375 
Q 14.5 44.390625 14.5 40.28125 
Q 14.5 37.15625 16.890625 35.375 
Q 19.28125 33.59375 26.515625 31.984375 
L 29.59375 31.296875 
Q 39.15625 29.25 43.1875 25.515625 
Q 47.21875 21.78125 47.21875 15.09375 
Q 47.21875 7.46875 41.1875 3.015625 
Q 35.15625 -1.421875 24.609375 -1.421875 
Q 20.21875 -1.421875 15.453125 -0.5625 
Q 10.6875 0.296875 5.421875 2 
L 5.421875 11.28125 
Q 10.40625 8.6875 15.234375 7.390625 
Q 20.0625 6.109375 24.8125 6.109375 
Q 31.15625 6.109375 34.5625 8.28125 
Q 37.984375 10.453125 37.984375 14.40625 
Q 37.984375 18.0625 35.515625 20.015625 
Q 33.0625 21.96875 24.703125 23.78125 
L 21.578125 24.515625 
Q 13.234375 26.265625 9.515625 29.90625 
Q 5.8125 33.546875 5.8125 39.890625 
Q 5.8125 47.609375 11.28125 51.796875 
Q 16.75 56 26.8125 56 
Q 31.78125 56 36.171875 55.265625 
Q 40.578125 54.546875 44.28125 53.078125 
z
" id="DejaVuSans-115"/>
       <path d="M 9.421875 54.6875 
L 18.40625 54.6875 
L 18.40625 0 
L 9.421875 0 
z
M 9.421875 75.984375 
L 18.40625 75.984375 
L 18.40625 64.59375 
L 9.421875 64.59375 
z
" id="DejaVuSans-105"/>
       <path d="M 18.3125 70.21875 
L 18.3125 54.6875 
L 36.8125 54.6875 
L 36.8125 47.703125 
L 18.3125 47.703125 
L 18.3125 18.015625 
Q 18.3125 11.328125 20.140625 9.421875 
Q 21.96875 7.515625 27.59375 7.515625 
L 36.8125 7.515625 
L 36.8125 0 
L 27.59375 0 
Q 17.1875 0 13.234375 3.875 
Q 9.28125 7.765625 9.28125 18.015625 
L 9.28125 47.703125 
L 2.6875 47.703125 
L 2.6875 54.6875 
L 9.28125 54.6875 
L 9.28125 70.21875 
z
" id="DejaVuSans-116"/>
       <path d="M 32.171875 -5.078125 
Q 28.375 -14.84375 24.75 -17.8125 
Q 21.140625 -20.796875 15.09375 -20.796875 
L 7.90625 -20.796875 
L 7.90625 -13.28125 
L 13.1875 -13.28125 
Q 16.890625 -13.28125 18.9375 -11.515625 
Q 21 -9.765625 23.484375 -3.21875 
L 25.09375 0.875 
L 2.984375 54.6875 
L 12.5 54.6875 
L 29.59375 11.921875 
L 46.6875 54.6875 
L 56.203125 54.6875 
z
" id="DejaVuSans-121"/>
      </defs>
      <use xlink:href="#DejaVuSans-68"/>
      <use x="77.001953" xlink:href="#DejaVuSans-101"/>
      <use x="138.525391" xlink:href="#DejaVuSans-110"/>
      <use x="201.904297" xlink:href="#DejaVuSans-115"/>
      <use x="254.003906" xlink:href="#DejaVuSans-105"/>
      <use x="281.787109" xlink:href="#DejaVuSans-116"/>
      <use x="320.996094" xlink:href="#DejaVuSans-121"/>
     </g>
    </g>
   </g>
   <g id="line2d_17">
    <path clip-path="url(#p9c91cd996a)" d="M 54 197.794607 
L 57.381818 197.189458 
L 60.763636 196.58431 
L 64.145455 195.979161 
L 67.527273 195.374012 
L 70.909091 194.768864 
L 74.290909 194.163715 
L 77.672727 193.558567 
L 81.054545 192.953418 
L 84.436364 192.34827 
L 87.818182 191.743121 
L 91.2 191.137973 
L 94.581818 190.532824 
L 97.963636 189.927676 
L 101.345455 189.322527 
L 104.727273 188.717379 
L 108.109091 188.11223 
L 111.490909 187.507082 
L 114.872727 186.901933 
L 118.254545 186.296784 
L 121.636364 185.691636 
L 125.018182 185.086487 
L 128.4 184.481339 
L 131.781818 183.87619 
L 135.163636 183.271042 
L 138.545455 182.665893 
L 141.927273 182.060745 
L 145.309091 181.455596 
L 148.690909 180.850448 
L 152.072727 180.245299 
L 155.454545 179.640151 
L 158.836364 179.035002 
L 162.218182 178.429854 
L 165.6 177.824705 
L 168.981818 177.219556 
L 172.363636 176.614408 
L 175.745455 176.009259 
L 179.127273 175.404111 
L 182.509091 174.798962 
L 185.890909 174.193814 
L 189.272727 173.588665 
L 192.654545 172.983517 
L 196.036364 172.378368 
L 199.418182 171.77322 
L 202.8 171.168071 
L 206.181818 170.562923 
L 209.563636 169.957774 
L 212.945455 169.352626 
L 216.327273 168.747477 
L 219.709091 168.142328 
L 223.090909 167.53718 
L 226.472727 166.932031 
L 229.854545 166.326883 
L 233.236364 165.721734 
L 236.618182 165.116586 
L 240 164.511437 
L 243.381818 163.906289 
L 246.763636 163.30114 
L 250.145455 162.695992 
L 253.527273 162.090843 
L 256.909091 161.485695 
L 260.290909 160.880546 
L 263.672727 160.275398 
L 267.054545 159.670249 
L 270.436364 159.0651 
L 273.818182 158.459952 
L 277.2 157.854803 
L 280.581818 157.249655 
L 283.963636 156.644506 
L 287.345455 156.039358 
L 290.727273 155.434209 
L 294.109091 154.829061 
L 297.490909 154.223912 
L 300.872727 153.618764 
L 304.254545 153.013615 
L 307.636364 152.408467 
L 311.018182 151.803318 
L 314.4 151.19817 
L 317.781818 150.593021 
L 321.163636 149.987872 
L 324.545455 149.382724 
L 327.927273 148.777575 
L 331.309091 148.172427 
L 334.690909 147.567278 
L 338.072727 146.96213 
L 341.454545 146.356981 
L 344.836364 145.751833 
L 348.218182 145.146684 
L 351.6 144.541536 
L 354.981818 143.936387 
L 358.363636 143.331239 
L 361.745455 142.72609 
L 365.127273 142.120942 
L 368.509091 141.515793 
L 371.890909 140.910644 
L 375.272727 140.305496 
L 378.654545 139.700347 
L 382.036364 139.095199 
L 385.418182 138.49005 
L 388.8 137.884902 
" style="fill:none;stroke:#d3772e;stroke-linecap:square;stroke-width:2.25;"/>
   </g>
   <g id="patch_3">
    <path d="M 54 252 
L 54 34.56 
" style="fill:none;stroke:#000000;stroke-linecap:square;stroke-linejoin:miter;stroke-width:0.8;"/>
   </g>
   <g id="patch_4">
    <path d="M 388.8 252 
L 388.8 34.56 
" style="fill:none;stroke:#000000;stroke-linecap:square;stroke-linejoin:miter;stroke-width:0.8;"/>
   </g>
   <g id="patch_5">
    <path d="M 54 252 
L 388.8 252 
" style="fill:none;stroke:#000000;stroke-linecap:square;stroke-linejoin:miter;stroke-width:0.8;"/>
   </g>
   <g id="patch_6">
    <path d="M 54 34.56 
L 388.8 34.56 
" style="fill:none;stroke:#000000;stroke-linecap:square;stroke-linejoin:miter;stroke-width:0.8;"/>
   </g>
  </g>
 </g>
 <defs>
  <clipPath id="p9c91cd996a">
   <rect height="217.44" width="334.8" x="54" y="34.56"/>
  </clipPath>
 </defs>
</svg>
