<?xml version="1.0" encoding="utf-8" standalone="no"?>
<!DOCTYPE svg PUBLIC "-//W3C//DTD SVG 1.1//EN"
  "http://www.w3.org/Graphics/SVG/1.1/DTD/svg11.dtd">
<!-- Created with matplotlib (https://matplotlib.org/) -->
<svg height="288pt" version="1.1" viewBox="0 0 432 288" width="432pt" xmlns="http://www.w3.org/2000/svg" xmlns:xlink="http://www.w3.org/1999/xlink">
 <metadata>
  <rdf:RDF xmlns:cc="http://creativecommons.org/ns#" xmlns:dc="http://purl.org/dc/elements/1.1/" xmlns:rdf="http://www.w3.org/1999/02/22-rdf-syntax-ns#">
   <cc:Work>
    <dc:type rdf:resource="http://purl.org/dc/dcmitype/StillImage"/>
    <dc:date>2021-04-15T19:49:10.591389</dc:date>
    <dc:format>image/svg+xml</dc:format>
    <dc:creator>
     <cc:Agent>
      <dc:title>Matplotlib v3.3.2, https://matplotlib.org/</dc:title>
     </cc:Agent>
    </dc:creator>
   </cc:Work>
  </rdf:RDF>
 </metadata>
 <defs>
  <style type="text/css">*{stroke-linecap:butt;stroke-linejoin:round;}</style>
 </defs>
 <g id="figure_1">
  <g id="patch_1">
   <path d="M 0 288 
L 432 288 
L 432 0 
L 0 0 
z
" style="fill:none;"/>
  </g>
  <g id="axes_1">
   <g id="patch_2">
    <path d="M 54 252 
L 388.8 252 
L 388.8 34.56 
L 54 34.56 
z
" style="fill:#ffffff;"/>
   </g>
   <g id="PathCollection_1">
    <defs>
     <path d="M 0 3 
C 0.795609 3 1.55874 2.683901 2.12132 2.12132 
C 2.683901 1.55874 3 0.795609 3 0 
C 3 -0.795609 2.683901 -1.55874 2.12132 -2.12132 
C 1.55874 -2.683901 0.795609 -3 0 -3 
C -0.795609 -3 -1.55874 -2.683901 -2.12132 -2.12132 
C -2.683901 -1.55874 -3 -0.795609 -3 0 
C -3 0.795609 -2.683901 1.55874 -2.12132 2.12132 
C -1.55874 2.683901 -0.795609 3 0 3 
z
" id="mc8a45e522d" style="stroke:#d3772e;stroke-opacity:0.8;"/>
    </defs>
    <g clip-path="url(#p81bb080fc3)">
     <use style="fill:#d3772e;fill-opacity:0.8;stroke:#d3772e;stroke-opacity:0.8;" x="168.112148" xlink:href="#mc8a45e522d" y="136.543869"/>
     <use style="fill:#d3772e;fill-opacity:0.8;stroke:#d3772e;stroke-opacity:0.8;" x="118.706503" xlink:href="#mc8a45e522d" y="130.237196"/>
     <use style="fill:#d3772e;fill-opacity:0.8;stroke:#d3772e;stroke-opacity:0.8;" x="164.841429" xlink:href="#mc8a45e522d" y="168.646075"/>
     <use style="fill:#d3772e;fill-opacity:0.8;stroke:#d3772e;stroke-opacity:0.8;" x="284.281103" xlink:href="#mc8a45e522d" y="150.460974"/>
     <use style="fill:#d3772e;fill-opacity:0.8;stroke:#d3772e;stroke-opacity:0.8;" x="148.364363" xlink:href="#mc8a45e522d" y="164.295918"/>
     <use style="fill:#d3772e;fill-opacity:0.8;stroke:#d3772e;stroke-opacity:0.8;" x="388.8" xlink:href="#mc8a45e522d" y="44.443636"/>
     <use style="fill:#d3772e;fill-opacity:0.8;stroke:#d3772e;stroke-opacity:0.8;" x="146.892811" xlink:href="#mc8a45e522d" y="151.779702"/>
     <use style="fill:#d3772e;fill-opacity:0.8;stroke:#d3772e;stroke-opacity:0.8;" x="54" xlink:href="#mc8a45e522d" y="165.461539"/>
     <use style="fill:#d3772e;fill-opacity:0.8;stroke:#d3772e;stroke-opacity:0.8;" x="201.519573" xlink:href="#mc8a45e522d" y="129.399412"/>
     <use style="fill:#d3772e;fill-opacity:0.8;stroke:#d3772e;stroke-opacity:0.8;" x="196.522756" xlink:href="#mc8a45e522d" y="119.843023"/>
     <use style="fill:#d3772e;fill-opacity:0.8;stroke:#d3772e;stroke-opacity:0.8;" x="221.727539" xlink:href="#mc8a45e522d" y="117.269945"/>
     <use style="fill:#d3772e;fill-opacity:0.8;stroke:#d3772e;stroke-opacity:0.8;" x="194.035891" xlink:href="#mc8a45e522d" y="106.869985"/>
     <use style="fill:#d3772e;fill-opacity:0.8;stroke:#d3772e;stroke-opacity:0.8;" x="376.167326" xlink:href="#mc8a45e522d" y="242.116364"/>
     <use style="fill:#d3772e;fill-opacity:0.8;stroke:#d3772e;stroke-opacity:0.8;" x="160.343515" xlink:href="#mc8a45e522d" y="108.237506"/>
     <use style="fill:#d3772e;fill-opacity:0.8;stroke:#d3772e;stroke-opacity:0.8;" x="203.767546" xlink:href="#mc8a45e522d" y="98.438613"/>
     <use style="fill:#d3772e;fill-opacity:0.8;stroke:#d3772e;stroke-opacity:0.8;" x="297.255217" xlink:href="#mc8a45e522d" y="85.692241"/>
     <use style="fill:#d3772e;fill-opacity:0.8;stroke:#d3772e;stroke-opacity:0.8;" x="191.68655" xlink:href="#mc8a45e522d" y="73.262936"/>
     <use style="fill:#d3772e;fill-opacity:0.8;stroke:#d3772e;stroke-opacity:0.8;" x="220.210735" xlink:href="#mc8a45e522d" y="136.497533"/>
     <use style="fill:#d3772e;fill-opacity:0.8;stroke:#d3772e;stroke-opacity:0.8;" x="190.400944" xlink:href="#mc8a45e522d" y="109.242038"/>
     <use style="fill:#d3772e;fill-opacity:0.8;stroke:#d3772e;stroke-opacity:0.8;" x="211.330483" xlink:href="#mc8a45e522d" y="162.321961"/>
     <use style="fill:#d3772e;fill-opacity:0.8;stroke:#d3772e;stroke-opacity:0.8;" x="178.730589" xlink:href="#mc8a45e522d" y="120.22241"/>
     <use style="fill:#d3772e;fill-opacity:0.8;stroke:#d3772e;stroke-opacity:0.8;" x="176.197522" xlink:href="#mc8a45e522d" y="168.222035"/>
     <use style="fill:#d3772e;fill-opacity:0.8;stroke:#d3772e;stroke-opacity:0.8;" x="152.040133" xlink:href="#mc8a45e522d" y="165.49394"/>
     <use style="fill:#d3772e;fill-opacity:0.8;stroke:#d3772e;stroke-opacity:0.8;" x="135.628134" xlink:href="#mc8a45e522d" y="157.409956"/>
     <use style="fill:#d3772e;fill-opacity:0.8;stroke:#d3772e;stroke-opacity:0.8;" x="148.673593" xlink:href="#mc8a45e522d" y="138.207418"/>
    </g>
   </g>
   <g id="PolyCollection_1">
    <path clip-path="url(#p81bb080fc3)" d="M 54 95.002694 
L 54 186.769713 
L 57.381818 185.547069 
L 60.763636 184.266062 
L 64.145455 182.893422 
L 67.527273 181.465721 
L 70.909091 179.890588 
L 74.290909 178.379289 
L 77.672727 177.039195 
L 81.054545 175.699102 
L 84.436364 174.359008 
L 87.818182 173.004504 
L 91.2 171.652282 
L 94.581818 170.334472 
L 97.963636 169.002662 
L 101.345455 167.656331 
L 104.727273 166.317479 
L 108.109091 164.978352 
L 111.490909 163.638258 
L 114.872727 162.300923 
L 118.254545 161.048262 
L 121.636364 159.725275 
L 125.018182 158.559437 
L 128.4 157.548598 
L 131.781818 156.169587 
L 135.163636 154.814574 
L 138.545455 153.500926 
L 141.927273 152.487689 
L 145.309091 151.422897 
L 148.690909 150.612101 
L 152.072727 149.777249 
L 155.454545 148.960397 
L 158.836364 148.16866 
L 162.218182 147.842921 
L 165.6 146.789738 
L 168.981818 146.247167 
L 172.363636 146.021354 
L 175.745455 146.230655 
L 179.127273 146.253138 
L 182.509091 146.231 
L 185.890909 146.597124 
L 189.272727 147.189446 
L 192.654545 147.767505 
L 196.036364 148.468662 
L 199.418182 148.982944 
L 202.8 149.593969 
L 206.181818 150.273606 
L 209.563636 151.13898 
L 212.945455 151.45122 
L 216.327273 152.201619 
L 219.709091 152.742078 
L 223.090909 153.326189 
L 226.472727 154.18601 
L 229.854545 155.090436 
L 233.236364 156.103287 
L 236.618182 156.899287 
L 240 158.109733 
L 243.381818 158.742148 
L 246.763636 159.8723 
L 250.145455 160.782534 
L 253.527273 161.663662 
L 256.909091 162.497143 
L 260.290909 163.380812 
L 263.672727 164.376328 
L 267.054545 165.403146 
L 270.436364 166.351561 
L 273.818182 167.361026 
L 277.2 168.460856 
L 280.581818 169.478831 
L 283.963636 170.496805 
L 287.345455 171.514779 
L 290.727273 172.532753 
L 294.109091 173.550727 
L 297.490909 174.565076 
L 300.872727 175.59829 
L 304.254545 176.631505 
L 307.636364 177.664719 
L 311.018182 178.694426 
L 314.4 179.86589 
L 317.781818 181.039045 
L 321.163636 181.88539 
L 324.545455 182.941772 
L 327.927273 183.997798 
L 331.309091 184.944822 
L 334.690909 186.122488 
L 338.072727 187.207685 
L 341.454545 188.47109 
L 344.836364 189.482633 
L 348.218182 190.411205 
L 351.6 191.445225 
L 354.981818 192.511299 
L 358.363636 193.576346 
L 361.745455 194.63071 
L 365.127273 195.685075 
L 368.509091 196.871017 
L 371.890909 198.011109 
L 375.272727 198.870147 
L 378.654545 199.934232 
L 382.036364 200.992447 
L 385.418182 202.050663 
L 388.8 203.108878 
L 388.8 45.133939 
L 388.8 45.133939 
L 385.418182 46.498823 
L 382.036364 47.803668 
L 378.654545 49.013532 
L 375.272727 50.350602 
L 371.890909 51.742048 
L 368.509091 53.133495 
L 365.127273 54.524941 
L 361.745455 55.916387 
L 358.363636 57.307833 
L 354.981818 58.69928 
L 351.6 60.093912 
L 348.218182 61.344663 
L 344.836364 62.554127 
L 341.454545 63.763591 
L 338.072727 65.160553 
L 334.690909 66.57683 
L 331.309091 67.97737 
L 327.927273 69.206328 
L 324.545455 70.436957 
L 321.163636 71.667585 
L 317.781818 73.042803 
L 314.4 74.376668 
L 311.018182 75.645253 
L 307.636364 77.233518 
L 304.254545 78.718776 
L 300.872727 80.064643 
L 297.490909 81.256632 
L 294.109091 82.662999 
L 290.727273 84.064815 
L 287.345455 85.46663 
L 283.963636 86.71027 
L 280.581818 88.107894 
L 277.2 89.489282 
L 273.818182 90.763405 
L 270.436364 92.131646 
L 267.054545 93.406644 
L 263.672727 94.572973 
L 260.290909 95.756462 
L 256.909091 96.930067 
L 253.527273 98.10844 
L 250.145455 99.286812 
L 246.763636 100.469051 
L 243.381818 101.738736 
L 240 103.008422 
L 236.618182 104.283757 
L 233.236364 105.557222 
L 229.854545 106.985126 
L 226.472727 108.423879 
L 223.090909 109.628649 
L 219.709091 110.970537 
L 216.327273 112.21638 
L 212.945455 113.591709 
L 209.563636 114.880037 
L 206.181818 116.066465 
L 202.8 117.149884 
L 199.418182 118.276488 
L 196.036364 119.291104 
L 192.654545 120.081184 
L 189.272727 121.104713 
L 185.890909 122.16441 
L 182.509091 121.985119 
L 179.127273 122.878152 
L 175.745455 123.537133 
L 172.363636 123.921971 
L 168.981818 124.03861 
L 165.6 124.225037 
L 162.218182 123.794519 
L 158.836364 123.239483 
L 155.454545 122.529685 
L 152.072727 121.899514 
L 148.690909 120.851006 
L 145.309091 119.663181 
L 141.927273 118.652618 
L 138.545455 117.869461 
L 135.163636 117.18694 
L 131.781818 116.499263 
L 128.4 115.798925 
L 125.018182 115.069916 
L 121.636364 114.439039 
L 118.254545 113.754429 
L 114.872727 113.02335 
L 111.490909 112.157139 
L 108.109091 111.496361 
L 104.727273 110.880767 
L 101.345455 110.265174 
L 97.963636 108.906969 
L 94.581818 107.793537 
L 91.2 107.058105 
L 87.818182 106.351459 
L 84.436364 105.286301 
L 81.054545 104.299292 
L 77.672727 103.37077 
L 74.290909 102.013774 
L 70.909091 100.73854 
L 67.527273 99.602511 
L 64.145455 98.466261 
L 60.763636 97.325218 
L 57.381818 96.184175 
L 54 95.002694 
z
" style="fill:#d3772e;fill-opacity:0.15;"/>
   </g>
   <g id="matplotlib.axis_1">
    <g id="xtick_1">
     <g id="line2d_1">
      <defs>
       <path d="M 0 0 
L 0 3.5 
" id="m9fc7482b8a" style="stroke:#000000;stroke-width:0.8;"/>
      </defs>
      <g>
       <use style="stroke:#000000;stroke-width:0.8;" x="90.815958" xlink:href="#m9fc7482b8a" y="252"/>
      </g>
     </g>
     <g id="text_1">
      <!-- 30 -->
      <g transform="translate(84.453458 266.598437)scale(0.1 -0.1)">
       <defs>
        <path d="M 40.578125 39.3125 
Q 47.65625 37.796875 51.625 33 
Q 55.609375 28.21875 55.609375 21.1875 
Q 55.609375 10.40625 48.1875 4.484375 
Q 40.765625 -1.421875 27.09375 -1.421875 
Q 22.515625 -1.421875 17.65625 -0.515625 
Q 12.796875 0.390625 7.625 2.203125 
L 7.625 11.71875 
Q 11.71875 9.328125 16.59375 8.109375 
Q 21.484375 6.890625 26.8125 6.890625 
Q 36.078125 6.890625 40.9375 10.546875 
Q 45.796875 14.203125 45.796875 21.1875 
Q 45.796875 27.640625 41.28125 31.265625 
Q 36.765625 34.90625 28.71875 34.90625 
L 20.21875 34.90625 
L 20.21875 43.015625 
L 29.109375 43.015625 
Q 36.375 43.015625 40.234375 45.921875 
Q 44.09375 48.828125 44.09375 54.296875 
Q 44.09375 59.90625 40.109375 62.90625 
Q 36.140625 65.921875 28.71875 65.921875 
Q 24.65625 65.921875 20.015625 65.03125 
Q 15.375 64.15625 9.8125 62.3125 
L 9.8125 71.09375 
Q 15.4375 72.65625 20.34375 73.4375 
Q 25.25 74.21875 29.59375 74.21875 
Q 40.828125 74.21875 47.359375 69.109375 
Q 53.90625 64.015625 53.90625 55.328125 
Q 53.90625 49.265625 50.4375 45.09375 
Q 46.96875 40.921875 40.578125 39.3125 
z
" id="DejaVuSans-51"/>
        <path d="M 31.78125 66.40625 
Q 24.171875 66.40625 20.328125 58.90625 
Q 16.5 51.421875 16.5 36.375 
Q 16.5 21.390625 20.328125 13.890625 
Q 24.171875 6.390625 31.78125 6.390625 
Q 39.453125 6.390625 43.28125 13.890625 
Q 47.125 21.390625 47.125 36.375 
Q 47.125 51.421875 43.28125 58.90625 
Q 39.453125 66.40625 31.78125 66.40625 
z
M 31.78125 74.21875 
Q 44.046875 74.21875 50.515625 64.515625 
Q 56.984375 54.828125 56.984375 36.375 
Q 56.984375 17.96875 50.515625 8.265625 
Q 44.046875 -1.421875 31.78125 -1.421875 
Q 19.53125 -1.421875 13.0625 8.265625 
Q 6.59375 17.96875 6.59375 36.375 
Q 6.59375 54.828125 13.0625 64.515625 
Q 19.53125 74.21875 31.78125 74.21875 
z
" id="DejaVuSans-48"/>
       </defs>
       <use xlink:href="#DejaVuSans-51"/>
       <use x="63.623047" xlink:href="#DejaVuSans-48"/>
      </g>
     </g>
    </g>
    <g id="xtick_2">
     <g id="line2d_2">
      <g>
       <use style="stroke:#000000;stroke-width:0.8;" x="134.857628" xlink:href="#m9fc7482b8a" y="252"/>
      </g>
     </g>
     <g id="text_2">
      <!-- 35 -->
      <g transform="translate(128.495128 266.598437)scale(0.1 -0.1)">
       <defs>
        <path d="M 10.796875 72.90625 
L 49.515625 72.90625 
L 49.515625 64.59375 
L 19.828125 64.59375 
L 19.828125 46.734375 
Q 21.96875 47.46875 24.109375 47.828125 
Q 26.265625 48.1875 28.421875 48.1875 
Q 40.625 48.1875 47.75 41.5 
Q 54.890625 34.8125 54.890625 23.390625 
Q 54.890625 11.625 47.5625 5.09375 
Q 40.234375 -1.421875 26.90625 -1.421875 
Q 22.3125 -1.421875 17.546875 -0.640625 
Q 12.796875 0.140625 7.71875 1.703125 
L 7.71875 11.625 
Q 12.109375 9.234375 16.796875 8.0625 
Q 21.484375 6.890625 26.703125 6.890625 
Q 35.15625 6.890625 40.078125 11.328125 
Q 45.015625 15.765625 45.015625 23.390625 
Q 45.015625 31 40.078125 35.4375 
Q 35.15625 39.890625 26.703125 39.890625 
Q 22.75 39.890625 18.8125 39.015625 
Q 14.890625 38.140625 10.796875 36.28125 
z
" id="DejaVuSans-53"/>
       </defs>
       <use xlink:href="#DejaVuSans-51"/>
       <use x="63.623047" xlink:href="#DejaVuSans-53"/>
      </g>
     </g>
    </g>
    <g id="xtick_3">
     <g id="line2d_3">
      <g>
       <use style="stroke:#000000;stroke-width:0.8;" x="178.899298" xlink:href="#m9fc7482b8a" y="252"/>
      </g>
     </g>
     <g id="text_3">
      <!-- 40 -->
      <g transform="translate(172.536798 266.598437)scale(0.1 -0.1)">
       <defs>
        <path d="M 37.796875 64.3125 
L 12.890625 25.390625 
L 37.796875 25.390625 
z
M 35.203125 72.90625 
L 47.609375 72.90625 
L 47.609375 25.390625 
L 58.015625 25.390625 
L 58.015625 17.1875 
L 47.609375 17.1875 
L 47.609375 0 
L 37.796875 0 
L 37.796875 17.1875 
L 4.890625 17.1875 
L 4.890625 26.703125 
z
" id="DejaVuSans-52"/>
       </defs>
       <use xlink:href="#DejaVuSans-52"/>
       <use x="63.623047" xlink:href="#DejaVuSans-48"/>
      </g>
     </g>
    </g>
    <g id="xtick_4">
     <g id="line2d_4">
      <g>
       <use style="stroke:#000000;stroke-width:0.8;" x="222.940968" xlink:href="#m9fc7482b8a" y="252"/>
      </g>
     </g>
     <g id="text_4">
      <!-- 45 -->
      <g transform="translate(216.578468 266.598437)scale(0.1 -0.1)">
       <use xlink:href="#DejaVuSans-52"/>
       <use x="63.623047" xlink:href="#DejaVuSans-53"/>
      </g>
     </g>
    </g>
    <g id="xtick_5">
     <g id="line2d_5">
      <g>
       <use style="stroke:#000000;stroke-width:0.8;" x="266.982638" xlink:href="#m9fc7482b8a" y="252"/>
      </g>
     </g>
     <g id="text_5">
      <!-- 50 -->
      <g transform="translate(260.620138 266.598437)scale(0.1 -0.1)">
       <use xlink:href="#DejaVuSans-53"/>
       <use x="63.623047" xlink:href="#DejaVuSans-48"/>
      </g>
     </g>
    </g>
    <g id="xtick_6">
     <g id="line2d_6">
      <g>
       <use style="stroke:#000000;stroke-width:0.8;" x="311.024308" xlink:href="#m9fc7482b8a" y="252"/>
      </g>
     </g>
     <g id="text_6">
      <!-- 55 -->
      <g transform="translate(304.661808 266.598437)scale(0.1 -0.1)">
       <use xlink:href="#DejaVuSans-53"/>
       <use x="63.623047" xlink:href="#DejaVuSans-53"/>
      </g>
     </g>
    </g>
    <g id="xtick_7">
     <g id="line2d_7">
      <g>
       <use style="stroke:#000000;stroke-width:0.8;" x="355.065978" xlink:href="#m9fc7482b8a" y="252"/>
      </g>
     </g>
     <g id="text_7">
      <!-- 60 -->
      <g transform="translate(348.703478 266.598437)scale(0.1 -0.1)">
       <defs>
        <path d="M 33.015625 40.375 
Q 26.375 40.375 22.484375 35.828125 
Q 18.609375 31.296875 18.609375 23.390625 
Q 18.609375 15.53125 22.484375 10.953125 
Q 26.375 6.390625 33.015625 6.390625 
Q 39.65625 6.390625 43.53125 10.953125 
Q 47.40625 15.53125 47.40625 23.390625 
Q 47.40625 31.296875 43.53125 35.828125 
Q 39.65625 40.375 33.015625 40.375 
z
M 52.59375 71.296875 
L 52.59375 62.3125 
Q 48.875 64.0625 45.09375 64.984375 
Q 41.3125 65.921875 37.59375 65.921875 
Q 27.828125 65.921875 22.671875 59.328125 
Q 17.53125 52.734375 16.796875 39.40625 
Q 19.671875 43.65625 24.015625 45.921875 
Q 28.375 48.1875 33.59375 48.1875 
Q 44.578125 48.1875 50.953125 41.515625 
Q 57.328125 34.859375 57.328125 23.390625 
Q 57.328125 12.15625 50.6875 5.359375 
Q 44.046875 -1.421875 33.015625 -1.421875 
Q 20.359375 -1.421875 13.671875 8.265625 
Q 6.984375 17.96875 6.984375 36.375 
Q 6.984375 53.65625 15.1875 63.9375 
Q 23.390625 74.21875 37.203125 74.21875 
Q 40.921875 74.21875 44.703125 73.484375 
Q 48.484375 72.75 52.59375 71.296875 
z
" id="DejaVuSans-54"/>
       </defs>
       <use xlink:href="#DejaVuSans-54"/>
       <use x="63.623047" xlink:href="#DejaVuSans-48"/>
      </g>
     </g>
    </g>
    <g id="text_8">
     <!-- GC -->
     <g transform="translate(214.034375 280.276563)scale(0.1 -0.1)">
      <defs>
       <path d="M 59.515625 10.40625 
L 59.515625 29.984375 
L 43.40625 29.984375 
L 43.40625 38.09375 
L 69.28125 38.09375 
L 69.28125 6.78125 
Q 63.578125 2.734375 56.6875 0.65625 
Q 49.8125 -1.421875 42 -1.421875 
Q 24.90625 -1.421875 15.25 8.5625 
Q 5.609375 18.5625 5.609375 36.375 
Q 5.609375 54.25 15.25 64.234375 
Q 24.90625 74.21875 42 74.21875 
Q 49.125 74.21875 55.546875 72.453125 
Q 61.96875 70.703125 67.390625 67.28125 
L 67.390625 56.78125 
Q 61.921875 61.421875 55.765625 63.765625 
Q 49.609375 66.109375 42.828125 66.109375 
Q 29.4375 66.109375 22.71875 58.640625 
Q 16.015625 51.171875 16.015625 36.375 
Q 16.015625 21.625 22.71875 14.15625 
Q 29.4375 6.6875 42.828125 6.6875 
Q 48.046875 6.6875 52.140625 7.59375 
Q 56.25 8.5 59.515625 10.40625 
z
" id="DejaVuSans-71"/>
       <path d="M 64.40625 67.28125 
L 64.40625 56.890625 
Q 59.421875 61.53125 53.78125 63.8125 
Q 48.140625 66.109375 41.796875 66.109375 
Q 29.296875 66.109375 22.65625 58.46875 
Q 16.015625 50.828125 16.015625 36.375 
Q 16.015625 21.96875 22.65625 14.328125 
Q 29.296875 6.6875 41.796875 6.6875 
Q 48.140625 6.6875 53.78125 8.984375 
Q 59.421875 11.28125 64.40625 15.921875 
L 64.40625 5.609375 
Q 59.234375 2.09375 53.4375 0.328125 
Q 47.65625 -1.421875 41.21875 -1.421875 
Q 24.65625 -1.421875 15.125 8.703125 
Q 5.609375 18.84375 5.609375 36.375 
Q 5.609375 53.953125 15.125 64.078125 
Q 24.65625 74.21875 41.21875 74.21875 
Q 47.75 74.21875 53.53125 72.484375 
Q 59.328125 70.75 64.40625 67.28125 
z
" id="DejaVuSans-67"/>
      </defs>
      <use xlink:href="#DejaVuSans-71"/>
      <use x="77.490234" xlink:href="#DejaVuSans-67"/>
     </g>
    </g>
   </g>
   <g id="matplotlib.axis_2">
    <g id="ytick_1">
     <g id="line2d_8">
      <defs>
       <path d="M 0 0 
L -3.5 0 
" id="m0b98dd94bf" style="stroke:#000000;stroke-width:0.8;"/>
      </defs>
      <g>
       <use style="stroke:#000000;stroke-width:0.8;" x="54" xlink:href="#m0b98dd94bf" y="211.241773"/>
      </g>
     </g>
     <g id="text_9">
      <!-- −0.1 -->
      <g transform="translate(22.717187 215.040992)scale(0.1 -0.1)">
       <defs>
        <path d="M 10.59375 35.5 
L 73.1875 35.5 
L 73.1875 27.203125 
L 10.59375 27.203125 
z
" id="DejaVuSans-8722"/>
        <path d="M 10.6875 12.40625 
L 21 12.40625 
L 21 0 
L 10.6875 0 
z
" id="DejaVuSans-46"/>
        <path d="M 12.40625 8.296875 
L 28.515625 8.296875 
L 28.515625 63.921875 
L 10.984375 60.40625 
L 10.984375 69.390625 
L 28.421875 72.90625 
L 38.28125 72.90625 
L 38.28125 8.296875 
L 54.390625 8.296875 
L 54.390625 0 
L 12.40625 0 
z
" id="DejaVuSans-49"/>
       </defs>
       <use xlink:href="#DejaVuSans-8722"/>
       <use x="83.789062" xlink:href="#DejaVuSans-48"/>
       <use x="147.412109" xlink:href="#DejaVuSans-46"/>
       <use x="179.199219" xlink:href="#DejaVuSans-49"/>
      </g>
     </g>
    </g>
    <g id="ytick_2">
     <g id="line2d_9">
      <g>
       <use style="stroke:#000000;stroke-width:0.8;" x="54" xlink:href="#m0b98dd94bf" y="167.020431"/>
      </g>
     </g>
     <g id="text_10">
      <!-- 0.0 -->
      <g transform="translate(31.096875 170.81965)scale(0.1 -0.1)">
       <use xlink:href="#DejaVuSans-48"/>
       <use x="63.623047" xlink:href="#DejaVuSans-46"/>
       <use x="95.410156" xlink:href="#DejaVuSans-48"/>
      </g>
     </g>
    </g>
    <g id="ytick_3">
     <g id="line2d_10">
      <g>
       <use style="stroke:#000000;stroke-width:0.8;" x="54" xlink:href="#m0b98dd94bf" y="122.799089"/>
      </g>
     </g>
     <g id="text_11">
      <!-- 0.1 -->
      <g transform="translate(31.096875 126.598308)scale(0.1 -0.1)">
       <use xlink:href="#DejaVuSans-48"/>
       <use x="63.623047" xlink:href="#DejaVuSans-46"/>
       <use x="95.410156" xlink:href="#DejaVuSans-49"/>
      </g>
     </g>
    </g>
    <g id="ytick_4">
     <g id="line2d_11">
      <g>
       <use style="stroke:#000000;stroke-width:0.8;" x="54" xlink:href="#m0b98dd94bf" y="78.577747"/>
      </g>
     </g>
     <g id="text_12">
      <!-- 0.2 -->
      <g transform="translate(31.096875 82.376966)scale(0.1 -0.1)">
       <defs>
        <path d="M 19.1875 8.296875 
L 53.609375 8.296875 
L 53.609375 0 
L 7.328125 0 
L 7.328125 8.296875 
Q 12.9375 14.109375 22.625 23.890625 
Q 32.328125 33.6875 34.8125 36.53125 
Q 39.546875 41.84375 41.421875 45.53125 
Q 43.3125 49.21875 43.3125 52.78125 
Q 43.3125 58.59375 39.234375 62.25 
Q 35.15625 65.921875 28.609375 65.921875 
Q 23.96875 65.921875 18.8125 64.3125 
Q 13.671875 62.703125 7.8125 59.421875 
L 7.8125 69.390625 
Q 13.765625 71.78125 18.9375 73 
Q 24.125 74.21875 28.421875 74.21875 
Q 39.75 74.21875 46.484375 68.546875 
Q 53.21875 62.890625 53.21875 53.421875 
Q 53.21875 48.921875 51.53125 44.890625 
Q 49.859375 40.875 45.40625 35.40625 
Q 44.1875 33.984375 37.640625 27.21875 
Q 31.109375 20.453125 19.1875 8.296875 
z
" id="DejaVuSans-50"/>
       </defs>
       <use xlink:href="#DejaVuSans-48"/>
       <use x="63.623047" xlink:href="#DejaVuSans-46"/>
       <use x="95.410156" xlink:href="#DejaVuSans-50"/>
      </g>
     </g>
    </g>
    <g id="text_13">
     <!-- DiffDens -->
     <g transform="translate(16.6375 164.739375)rotate(-90)scale(0.1 -0.1)">
      <defs>
       <path d="M 19.671875 64.796875 
L 19.671875 8.109375 
L 31.59375 8.109375 
Q 46.6875 8.109375 53.6875 14.9375 
Q 60.6875 21.78125 60.6875 36.53125 
Q 60.6875 51.171875 53.6875 57.984375 
Q 46.6875 64.796875 31.59375 64.796875 
z
M 9.8125 72.90625 
L 30.078125 72.90625 
Q 51.265625 72.90625 61.171875 64.09375 
Q 71.09375 55.28125 71.09375 36.53125 
Q 71.09375 17.671875 61.125 8.828125 
Q 51.171875 0 30.078125 0 
L 9.8125 0 
z
" id="DejaVuSans-68"/>
       <path d="M 9.421875 54.6875 
L 18.40625 54.6875 
L 18.40625 0 
L 9.421875 0 
z
M 9.421875 75.984375 
L 18.40625 75.984375 
L 18.40625 64.59375 
L 9.421875 64.59375 
z
" id="DejaVuSans-105"/>
       <path d="M 37.109375 75.984375 
L 37.109375 68.5 
L 28.515625 68.5 
Q 23.6875 68.5 21.796875 66.546875 
Q 19.921875 64.59375 19.921875 59.515625 
L 19.921875 54.6875 
L 34.71875 54.6875 
L 34.71875 47.703125 
L 19.921875 47.703125 
L 19.921875 0 
L 10.890625 0 
L 10.890625 47.703125 
L 2.296875 47.703125 
L 2.296875 54.6875 
L 10.890625 54.6875 
L 10.890625 58.5 
Q 10.890625 67.625 15.140625 71.796875 
Q 19.390625 75.984375 28.609375 75.984375 
z
" id="DejaVuSans-102"/>
       <path d="M 56.203125 29.59375 
L 56.203125 25.203125 
L 14.890625 25.203125 
Q 15.484375 15.921875 20.484375 11.0625 
Q 25.484375 6.203125 34.421875 6.203125 
Q 39.59375 6.203125 44.453125 7.46875 
Q 49.3125 8.734375 54.109375 11.28125 
L 54.109375 2.78125 
Q 49.265625 0.734375 44.1875 -0.34375 
Q 39.109375 -1.421875 33.890625 -1.421875 
Q 20.796875 -1.421875 13.15625 6.1875 
Q 5.515625 13.8125 5.515625 26.8125 
Q 5.515625 40.234375 12.765625 48.109375 
Q 20.015625 56 32.328125 56 
Q 43.359375 56 49.78125 48.890625 
Q 56.203125 41.796875 56.203125 29.59375 
z
M 47.21875 32.234375 
Q 47.125 39.59375 43.09375 43.984375 
Q 39.0625 48.390625 32.421875 48.390625 
Q 24.90625 48.390625 20.390625 44.140625 
Q 15.875 39.890625 15.1875 32.171875 
z
" id="DejaVuSans-101"/>
       <path d="M 54.890625 33.015625 
L 54.890625 0 
L 45.90625 0 
L 45.90625 32.71875 
Q 45.90625 40.484375 42.875 44.328125 
Q 39.84375 48.1875 33.796875 48.1875 
Q 26.515625 48.1875 22.3125 43.546875 
Q 18.109375 38.921875 18.109375 30.90625 
L 18.109375 0 
L 9.078125 0 
L 9.078125 54.6875 
L 18.109375 54.6875 
L 18.109375 46.1875 
Q 21.34375 51.125 25.703125 53.5625 
Q 30.078125 56 35.796875 56 
Q 45.21875 56 50.046875 50.171875 
Q 54.890625 44.34375 54.890625 33.015625 
z
" id="DejaVuSans-110"/>
       <path d="M 44.28125 53.078125 
L 44.28125 44.578125 
Q 40.484375 46.53125 36.375 47.5 
Q 32.28125 48.484375 27.875 48.484375 
Q 21.1875 48.484375 17.84375 46.4375 
Q 14.5 44.390625 14.5 40.28125 
Q 14.5 37.15625 16.890625 35.375 
Q 19.28125 33.59375 26.515625 31.984375 
L 29.59375 31.296875 
Q 39.15625 29.25 43.1875 25.515625 
Q 47.21875 21.78125 47.21875 15.09375 
Q 47.21875 7.46875 41.1875 3.015625 
Q 35.15625 -1.421875 24.609375 -1.421875 
Q 20.21875 -1.421875 15.453125 -0.5625 
Q 10.6875 0.296875 5.421875 2 
L 5.421875 11.28125 
Q 10.40625 8.6875 15.234375 7.390625 
Q 20.0625 6.109375 24.8125 6.109375 
Q 31.15625 6.109375 34.5625 8.28125 
Q 37.984375 10.453125 37.984375 14.40625 
Q 37.984375 18.0625 35.515625 20.015625 
Q 33.0625 21.96875 24.703125 23.78125 
L 21.578125 24.515625 
Q 13.234375 26.265625 9.515625 29.90625 
Q 5.8125 33.546875 5.8125 39.890625 
Q 5.8125 47.609375 11.28125 51.796875 
Q 16.75 56 26.8125 56 
Q 31.78125 56 36.171875 55.265625 
Q 40.578125 54.546875 44.28125 53.078125 
z
" id="DejaVuSans-115"/>
      </defs>
      <use xlink:href="#DejaVuSans-68"/>
      <use x="77.001953" xlink:href="#DejaVuSans-105"/>
      <use x="104.785156" xlink:href="#DejaVuSans-102"/>
      <use x="139.990234" xlink:href="#DejaVuSans-102"/>
      <use x="175.195312" xlink:href="#DejaVuSans-68"/>
      <use x="252.197266" xlink:href="#DejaVuSans-101"/>
      <use x="313.720703" xlink:href="#DejaVuSans-110"/>
      <use x="377.099609" xlink:href="#DejaVuSans-115"/>
     </g>
    </g>
   </g>
   <g id="line2d_12">
    <path clip-path="url(#p81bb080fc3)" d="M 54 146.188107 
L 57.381818 145.900874 
L 60.763636 145.61364 
L 64.145455 145.326406 
L 67.527273 145.039172 
L 70.909091 144.751938 
L 74.290909 144.464704 
L 77.672727 144.17747 
L 81.054545 143.890237 
L 84.436364 143.603003 
L 87.818182 143.315769 
L 91.2 143.028535 
L 94.581818 142.741301 
L 97.963636 142.454067 
L 101.345455 142.166833 
L 104.727273 141.8796 
L 108.109091 141.592366 
L 111.490909 141.305132 
L 114.872727 141.017898 
L 118.254545 140.730664 
L 121.636364 140.44343 
L 125.018182 140.156196 
L 128.4 139.868963 
L 131.781818 139.581729 
L 135.163636 139.294495 
L 138.545455 139.007261 
L 141.927273 138.720027 
L 145.309091 138.432793 
L 148.690909 138.145559 
L 152.072727 137.858325 
L 155.454545 137.571092 
L 158.836364 137.283858 
L 162.218182 136.996624 
L 165.6 136.70939 
L 168.981818 136.422156 
L 172.363636 136.134922 
L 175.745455 135.847688 
L 179.127273 135.560455 
L 182.509091 135.273221 
L 185.890909 134.985987 
L 189.272727 134.698753 
L 192.654545 134.411519 
L 196.036364 134.124285 
L 199.418182 133.837051 
L 202.8 133.549818 
L 206.181818 133.262584 
L 209.563636 132.97535 
L 212.945455 132.688116 
L 216.327273 132.400882 
L 219.709091 132.113648 
L 223.090909 131.826414 
L 226.472727 131.539181 
L 229.854545 131.251947 
L 233.236364 130.964713 
L 236.618182 130.677479 
L 240 130.390245 
L 243.381818 130.103011 
L 246.763636 129.815777 
L 250.145455 129.528543 
L 253.527273 129.24131 
L 256.909091 128.954076 
L 260.290909 128.666842 
L 263.672727 128.379608 
L 267.054545 128.092374 
L 270.436364 127.80514 
L 273.818182 127.517906 
L 277.2 127.230673 
L 280.581818 126.943439 
L 283.963636 126.656205 
L 287.345455 126.368971 
L 290.727273 126.081737 
L 294.109091 125.794503 
L 297.490909 125.507269 
L 300.872727 125.220036 
L 304.254545 124.932802 
L 307.636364 124.645568 
L 311.018182 124.358334 
L 314.4 124.0711 
L 317.781818 123.783866 
L 321.163636 123.496632 
L 324.545455 123.209399 
L 327.927273 122.922165 
L 331.309091 122.634931 
L 334.690909 122.347697 
L 338.072727 122.060463 
L 341.454545 121.773229 
L 344.836364 121.485995 
L 348.218182 121.198761 
L 351.6 120.911528 
L 354.981818 120.624294 
L 358.363636 120.33706 
L 361.745455 120.049826 
L 365.127273 119.762592 
L 368.509091 119.475358 
L 371.890909 119.188124 
L 375.272727 118.900891 
L 378.654545 118.613657 
L 382.036364 118.326423 
L 385.418182 118.039189 
L 388.8 117.751955 
" style="fill:none;stroke:#d3772e;stroke-linecap:square;stroke-width:2.25;"/>
   </g>
   <g id="patch_3">
    <path d="M 54 252 
L 54 34.56 
" style="fill:none;stroke:#000000;stroke-linecap:square;stroke-linejoin:miter;stroke-width:0.8;"/>
   </g>
   <g id="patch_4">
    <path d="M 388.8 252 
L 388.8 34.56 
" style="fill:none;stroke:#000000;stroke-linecap:square;stroke-linejoin:miter;stroke-width:0.8;"/>
   </g>
   <g id="patch_5">
    <path d="M 54 252 
L 388.8 252 
" style="fill:none;stroke:#000000;stroke-linecap:square;stroke-linejoin:miter;stroke-width:0.8;"/>
   </g>
   <g id="patch_6">
    <path d="M 54 34.56 
L 388.8 34.56 
" style="fill:none;stroke:#000000;stroke-linecap:square;stroke-linejoin:miter;stroke-width:0.8;"/>
   </g>
  </g>
 </g>
 <defs>
  <clipPath id="p81bb080fc3">
   <rect height="217.44" width="334.8" x="54" y="34.56"/>
  </clipPath>
 </defs>
</svg>
