<?xml version="1.0" encoding="utf-8" standalone="no"?>
<!DOCTYPE svg PUBLIC "-//W3C//DTD SVG 1.1//EN"
  "http://www.w3.org/Graphics/SVG/1.1/DTD/svg11.dtd">
<!-- Created with matplotlib (https://matplotlib.org/) -->
<svg height="288pt" version="1.1" viewBox="0 0 432 288" width="432pt" xmlns="http://www.w3.org/2000/svg" xmlns:xlink="http://www.w3.org/1999/xlink">
 <metadata>
  <rdf:RDF xmlns:cc="http://creativecommons.org/ns#" xmlns:dc="http://purl.org/dc/elements/1.1/" xmlns:rdf="http://www.w3.org/1999/02/22-rdf-syntax-ns#">
   <cc:Work>
    <dc:type rdf:resource="http://purl.org/dc/dcmitype/StillImage"/>
    <dc:date>2021-04-15T19:50:35.258874</dc:date>
    <dc:format>image/svg+xml</dc:format>
    <dc:creator>
     <cc:Agent>
      <dc:title>Matplotlib v3.3.2, https://matplotlib.org/</dc:title>
     </cc:Agent>
    </dc:creator>
   </cc:Work>
  </rdf:RDF>
 </metadata>
 <defs>
  <style type="text/css">*{stroke-linecap:butt;stroke-linejoin:round;}</style>
 </defs>
 <g id="figure_1">
  <g id="patch_1">
   <path d="M 0 288 
L 432 288 
L 432 0 
L 0 0 
z
" style="fill:none;"/>
  </g>
  <g id="axes_1">
   <g id="patch_2">
    <path d="M 54 252 
L 388.8 252 
L 388.8 34.56 
L 54 34.56 
z
" style="fill:#ffffff;"/>
   </g>
   <g id="PathCollection_1">
    <defs>
     <path d="M 0 3 
C 0.795609 3 1.55874 2.683901 2.12132 2.12132 
C 2.683901 1.55874 3 0.795609 3 0 
C 3 -0.795609 2.683901 -1.55874 2.12132 -2.12132 
C 1.55874 -2.683901 0.795609 -3 0 -3 
C -0.795609 -3 -1.55874 -2.683901 -2.12132 -2.12132 
C -2.683901 -1.55874 -3 -0.795609 -3 0 
C -3 0.795609 -2.683901 1.55874 -2.12132 2.12132 
C -1.55874 2.683901 -0.795609 3 0 3 
z
" id="m9e11554e17" style="stroke:#d3772e;stroke-opacity:0.8;"/>
    </defs>
    <g clip-path="url(#p19c3c932be)">
     <use style="fill:#d3772e;fill-opacity:0.8;stroke:#d3772e;stroke-opacity:0.8;" x="101.828829" xlink:href="#m9e11554e17" y="165.424508"/>
     <use style="fill:#d3772e;fill-opacity:0.8;stroke:#d3772e;stroke-opacity:0.8;" x="373.342958" xlink:href="#m9e11554e17" y="177.953935"/>
     <use style="fill:#d3772e;fill-opacity:0.8;stroke:#d3772e;stroke-opacity:0.8;" x="150.471517" xlink:href="#m9e11554e17" y="209.39904"/>
     <use style="fill:#d3772e;fill-opacity:0.8;stroke:#d3772e;stroke-opacity:0.8;" x="312.844318" xlink:href="#m9e11554e17" y="177.953935"/>
     <use style="fill:#d3772e;fill-opacity:0.8;stroke:#d3772e;stroke-opacity:0.8;" x="102.290545" xlink:href="#m9e11554e17" y="176.55928"/>
     <use style="fill:#d3772e;fill-opacity:0.8;stroke:#d3772e;stroke-opacity:0.8;" x="336.82732" xlink:href="#m9e11554e17" y="177.953935"/>
     <use style="fill:#d3772e;fill-opacity:0.8;stroke:#d3772e;stroke-opacity:0.8;" x="264.180341" xlink:href="#m9e11554e17" y="177.953935"/>
     <use style="fill:#d3772e;fill-opacity:0.8;stroke:#d3772e;stroke-opacity:0.8;" x="247.050964" xlink:href="#m9e11554e17" y="177.953935"/>
     <use style="fill:#d3772e;fill-opacity:0.8;stroke:#d3772e;stroke-opacity:0.8;" x="210.839984" xlink:href="#m9e11554e17" y="163.067517"/>
     <use style="fill:#d3772e;fill-opacity:0.8;stroke:#d3772e;stroke-opacity:0.8;" x="262.09565" xlink:href="#m9e11554e17" y="44.443636"/>
     <use style="fill:#d3772e;fill-opacity:0.8;stroke:#d3772e;stroke-opacity:0.8;" x="174.436614" xlink:href="#m9e11554e17" y="159.827512"/>
     <use style="fill:#d3772e;fill-opacity:0.8;stroke:#d3772e;stroke-opacity:0.8;" x="124.710317" xlink:href="#m9e11554e17" y="144.116572"/>
     <use style="fill:#d3772e;fill-opacity:0.8;stroke:#d3772e;stroke-opacity:0.8;" x="388.8" xlink:href="#m9e11554e17" y="177.953935"/>
     <use style="fill:#d3772e;fill-opacity:0.8;stroke:#d3772e;stroke-opacity:0.8;" x="54" xlink:href="#m9e11554e17" y="170.995975"/>
     <use style="fill:#d3772e;fill-opacity:0.8;stroke:#d3772e;stroke-opacity:0.8;" x="171.742343" xlink:href="#m9e11554e17" y="173.817375"/>
     <use style="fill:#d3772e;fill-opacity:0.8;stroke:#d3772e;stroke-opacity:0.8;" x="341.29778" xlink:href="#m9e11554e17" y="177.953935"/>
     <use style="fill:#d3772e;fill-opacity:0.8;stroke:#d3772e;stroke-opacity:0.8;" x="210.965933" xlink:href="#m9e11554e17" y="121.226411"/>
     <use style="fill:#d3772e;fill-opacity:0.8;stroke:#d3772e;stroke-opacity:0.8;" x="260.109928" xlink:href="#m9e11554e17" y="177.953935"/>
     <use style="fill:#d3772e;fill-opacity:0.8;stroke:#d3772e;stroke-opacity:0.8;" x="131.081605" xlink:href="#m9e11554e17" y="101.795275"/>
     <use style="fill:#d3772e;fill-opacity:0.8;stroke:#d3772e;stroke-opacity:0.8;" x="315.696116" xlink:href="#m9e11554e17" y="242.116364"/>
     <use style="fill:#d3772e;fill-opacity:0.8;stroke:#d3772e;stroke-opacity:0.8;" x="78.11781" xlink:href="#m9e11554e17" y="165.736134"/>
     <use style="fill:#d3772e;fill-opacity:0.8;stroke:#d3772e;stroke-opacity:0.8;" x="238.370245" xlink:href="#m9e11554e17" y="205.412197"/>
     <use style="fill:#d3772e;fill-opacity:0.8;stroke:#d3772e;stroke-opacity:0.8;" x="218.081321" xlink:href="#m9e11554e17" y="177.953935"/>
     <use style="fill:#d3772e;fill-opacity:0.8;stroke:#d3772e;stroke-opacity:0.8;" x="210.884344" xlink:href="#m9e11554e17" y="191.120911"/>
     <use style="fill:#d3772e;fill-opacity:0.8;stroke:#d3772e;stroke-opacity:0.8;" x="248.390905" xlink:href="#m9e11554e17" y="206.004328"/>
    </g>
   </g>
   <g id="PolyCollection_1">
    <path clip-path="url(#p19c3c932be)" d="M 54 133.044329 
L 54 175.152569 
L 57.381818 175.254724 
L 60.763636 175.348629 
L 64.145455 175.321958 
L 67.527273 175.187045 
L 70.909091 175.121222 
L 74.290909 175.044388 
L 77.672727 175.186211 
L 81.054545 175.238919 
L 84.436364 175.385957 
L 87.818182 175.570087 
L 91.2 175.798465 
L 94.581818 176.028062 
L 97.963636 176.110319 
L 101.345455 176.293839 
L 104.727273 176.472366 
L 108.109091 176.621461 
L 111.490909 176.59924 
L 114.872727 176.591636 
L 118.254545 176.731419 
L 121.636364 176.871203 
L 125.018182 177.012172 
L 128.4 177.155748 
L 131.781818 177.38016 
L 135.163636 177.578652 
L 138.545455 177.689061 
L 141.927273 177.780185 
L 145.309091 177.863113 
L 148.690909 178.006892 
L 152.072727 178.167872 
L 155.454545 178.360576 
L 158.836364 178.475354 
L 162.218182 178.706678 
L 165.6 178.962504 
L 168.981818 179.090232 
L 172.363636 179.378296 
L 175.745455 179.502407 
L 179.127273 179.591 
L 182.509091 179.795207 
L 185.890909 180.0747 
L 189.272727 180.298304 
L 192.654545 180.636556 
L 196.036364 180.840224 
L 199.418182 181.097947 
L 202.8 181.39139 
L 206.181818 181.766205 
L 209.563636 182.046801 
L 212.945455 182.302129 
L 216.327273 182.65815 
L 219.709091 182.985695 
L 223.090909 183.302542 
L 226.472727 183.503679 
L 229.854545 183.689182 
L 233.236364 184.184327 
L 236.618182 184.68137 
L 240 185.325434 
L 243.381818 185.680287 
L 246.763636 186.113937 
L 250.145455 186.51085 
L 253.527273 186.808869 
L 256.909091 187.299635 
L 260.290909 187.970351 
L 263.672727 188.449718 
L 267.054545 188.804608 
L 270.436364 189.147121 
L 273.818182 189.500815 
L 277.2 190.265047 
L 280.581818 190.65539 
L 283.963636 190.997117 
L 287.345455 191.333269 
L 290.727273 191.651878 
L 294.109091 192.105007 
L 297.490909 192.559152 
L 300.872727 193.013297 
L 304.254545 193.466574 
L 307.636364 193.998712 
L 311.018182 194.375731 
L 314.4 194.936587 
L 317.781818 195.661396 
L 321.163636 196.203944 
L 324.545455 196.70912 
L 327.927273 197.213332 
L 331.309091 197.797356 
L 334.690909 198.323072 
L 338.072727 198.980464 
L 341.454545 199.568516 
L 344.836364 200.131681 
L 348.218182 200.620729 
L 351.6 201.131417 
L 354.981818 201.707931 
L 358.363636 202.282865 
L 361.745455 202.753733 
L 365.127273 203.368446 
L 368.509091 203.816829 
L 371.890909 204.437377 
L 375.272727 205.090951 
L 378.654545 205.658278 
L 382.036364 206.159832 
L 385.418182 206.661234 
L 388.8 207.162637 
L 388.8 152.367909 
L 388.8 152.367909 
L 385.418182 152.512965 
L 382.036364 152.670202 
L 378.654545 152.798365 
L 375.272727 152.940304 
L 371.890909 153.083544 
L 368.509091 153.227199 
L 365.127273 153.185552 
L 361.745455 153.307256 
L 358.363636 153.522134 
L 354.981818 153.603766 
L 351.6 153.681158 
L 348.218182 153.75855 
L 344.836364 153.835942 
L 341.454545 153.913334 
L 338.072727 153.974086 
L 334.690909 154.007226 
L 331.309091 154.040366 
L 327.927273 154.073505 
L 324.545455 154.106645 
L 321.163636 154.140261 
L 317.781818 154.284198 
L 314.4 154.442605 
L 311.018182 154.604043 
L 307.636364 154.765149 
L 304.254545 154.816287 
L 300.872727 154.860525 
L 297.490909 154.923755 
L 294.109091 154.98732 
L 290.727273 154.990956 
L 287.345455 155.092217 
L 283.963636 155.169562 
L 280.581818 155.163802 
L 277.2 155.160075 
L 273.818182 155.169988 
L 270.436364 154.990239 
L 267.054545 155.12225 
L 263.672727 154.975013 
L 260.290909 154.905618 
L 256.909091 154.997528 
L 253.527273 154.972198 
L 250.145455 154.969087 
L 246.763636 154.837278 
L 243.381818 154.699777 
L 240 154.648456 
L 236.618182 154.724977 
L 233.236364 154.939014 
L 229.854545 154.650985 
L 226.472727 154.398926 
L 223.090909 154.240055 
L 219.709091 154.167561 
L 216.327273 154.089887 
L 212.945455 153.580524 
L 209.563636 152.862647 
L 206.181818 152.783707 
L 202.8 152.919069 
L 199.418182 152.483235 
L 196.036364 152.275691 
L 192.654545 152.168144 
L 189.272727 151.746989 
L 185.890909 151.175608 
L 182.509091 150.902743 
L 179.127273 150.714797 
L 175.745455 150.498046 
L 172.363636 149.908657 
L 168.981818 149.90519 
L 165.6 149.503455 
L 162.218182 149.101721 
L 158.836364 148.596639 
L 155.454545 147.850066 
L 152.072727 147.137526 
L 148.690909 147.10099 
L 145.309091 146.485807 
L 141.927273 146.246224 
L 138.545455 145.746042 
L 135.163636 145.112459 
L 131.781818 144.734705 
L 128.4 144.601152 
L 125.018182 144.088157 
L 121.636364 143.305176 
L 118.254545 143.020612 
L 114.872727 142.598351 
L 111.490909 142.088632 
L 108.109091 141.512057 
L 104.727273 140.900832 
L 101.345455 140.314995 
L 97.963636 139.966374 
L 94.581818 139.480201 
L 91.2 138.858431 
L 87.818182 138.236868 
L 84.436364 137.619445 
L 81.054545 137.002022 
L 77.672727 136.489065 
L 74.290909 136.043687 
L 70.909091 135.511105 
L 67.527273 134.580678 
L 64.145455 134.191721 
L 60.763636 133.815023 
L 57.381818 133.433604 
L 54 133.044329 
z
" style="fill:#d3772e;fill-opacity:0.15;"/>
   </g>
   <g id="matplotlib.axis_1">
    <g id="xtick_1">
     <g id="line2d_1">
      <defs>
       <path d="M 0 0 
L 0 3.5 
" id="mf0f3021e02" style="stroke:#000000;stroke-width:0.8;"/>
      </defs>
      <g>
       <use style="stroke:#000000;stroke-width:0.8;" x="55.590423" xlink:href="#mf0f3021e02" y="252"/>
      </g>
     </g>
     <g id="text_1">
      <!-- 42 -->
      <g transform="translate(49.227923 266.598437)scale(0.1 -0.1)">
       <defs>
        <path d="M 37.796875 64.3125 
L 12.890625 25.390625 
L 37.796875 25.390625 
z
M 35.203125 72.90625 
L 47.609375 72.90625 
L 47.609375 25.390625 
L 58.015625 25.390625 
L 58.015625 17.1875 
L 47.609375 17.1875 
L 47.609375 0 
L 37.796875 0 
L 37.796875 17.1875 
L 4.890625 17.1875 
L 4.890625 26.703125 
z
" id="DejaVuSans-52"/>
        <path d="M 19.1875 8.296875 
L 53.609375 8.296875 
L 53.609375 0 
L 7.328125 0 
L 7.328125 8.296875 
Q 12.9375 14.109375 22.625 23.890625 
Q 32.328125 33.6875 34.8125 36.53125 
Q 39.546875 41.84375 41.421875 45.53125 
Q 43.3125 49.21875 43.3125 52.78125 
Q 43.3125 58.59375 39.234375 62.25 
Q 35.15625 65.921875 28.609375 65.921875 
Q 23.96875 65.921875 18.8125 64.3125 
Q 13.671875 62.703125 7.8125 59.421875 
L 7.8125 69.390625 
Q 13.765625 71.78125 18.9375 73 
Q 24.125 74.21875 28.421875 74.21875 
Q 39.75 74.21875 46.484375 68.546875 
Q 53.21875 62.890625 53.21875 53.421875 
Q 53.21875 48.921875 51.53125 44.890625 
Q 49.859375 40.875 45.40625 35.40625 
Q 44.1875 33.984375 37.640625 27.21875 
Q 31.109375 20.453125 19.1875 8.296875 
z
" id="DejaVuSans-50"/>
       </defs>
       <use xlink:href="#DejaVuSans-52"/>
       <use x="63.623047" xlink:href="#DejaVuSans-50"/>
      </g>
     </g>
    </g>
    <g id="xtick_2">
     <g id="line2d_2">
      <g>
       <use style="stroke:#000000;stroke-width:0.8;" x="102.615328" xlink:href="#mf0f3021e02" y="252"/>
      </g>
     </g>
     <g id="text_2">
      <!-- 44 -->
      <g transform="translate(96.252828 266.598437)scale(0.1 -0.1)">
       <use xlink:href="#DejaVuSans-52"/>
       <use x="63.623047" xlink:href="#DejaVuSans-52"/>
      </g>
     </g>
    </g>
    <g id="xtick_3">
     <g id="line2d_3">
      <g>
       <use style="stroke:#000000;stroke-width:0.8;" x="149.640234" xlink:href="#mf0f3021e02" y="252"/>
      </g>
     </g>
     <g id="text_3">
      <!-- 46 -->
      <g transform="translate(143.277734 266.598437)scale(0.1 -0.1)">
       <defs>
        <path d="M 33.015625 40.375 
Q 26.375 40.375 22.484375 35.828125 
Q 18.609375 31.296875 18.609375 23.390625 
Q 18.609375 15.53125 22.484375 10.953125 
Q 26.375 6.390625 33.015625 6.390625 
Q 39.65625 6.390625 43.53125 10.953125 
Q 47.40625 15.53125 47.40625 23.390625 
Q 47.40625 31.296875 43.53125 35.828125 
Q 39.65625 40.375 33.015625 40.375 
z
M 52.59375 71.296875 
L 52.59375 62.3125 
Q 48.875 64.0625 45.09375 64.984375 
Q 41.3125 65.921875 37.59375 65.921875 
Q 27.828125 65.921875 22.671875 59.328125 
Q 17.53125 52.734375 16.796875 39.40625 
Q 19.671875 43.65625 24.015625 45.921875 
Q 28.375 48.1875 33.59375 48.1875 
Q 44.578125 48.1875 50.953125 41.515625 
Q 57.328125 34.859375 57.328125 23.390625 
Q 57.328125 12.15625 50.6875 5.359375 
Q 44.046875 -1.421875 33.015625 -1.421875 
Q 20.359375 -1.421875 13.671875 8.265625 
Q 6.984375 17.96875 6.984375 36.375 
Q 6.984375 53.65625 15.1875 63.9375 
Q 23.390625 74.21875 37.203125 74.21875 
Q 40.921875 74.21875 44.703125 73.484375 
Q 48.484375 72.75 52.59375 71.296875 
z
" id="DejaVuSans-54"/>
       </defs>
       <use xlink:href="#DejaVuSans-52"/>
       <use x="63.623047" xlink:href="#DejaVuSans-54"/>
      </g>
     </g>
    </g>
    <g id="xtick_4">
     <g id="line2d_4">
      <g>
       <use style="stroke:#000000;stroke-width:0.8;" x="196.665139" xlink:href="#mf0f3021e02" y="252"/>
      </g>
     </g>
     <g id="text_4">
      <!-- 48 -->
      <g transform="translate(190.302639 266.598437)scale(0.1 -0.1)">
       <defs>
        <path d="M 31.78125 34.625 
Q 24.75 34.625 20.71875 30.859375 
Q 16.703125 27.09375 16.703125 20.515625 
Q 16.703125 13.921875 20.71875 10.15625 
Q 24.75 6.390625 31.78125 6.390625 
Q 38.8125 6.390625 42.859375 10.171875 
Q 46.921875 13.96875 46.921875 20.515625 
Q 46.921875 27.09375 42.890625 30.859375 
Q 38.875 34.625 31.78125 34.625 
z
M 21.921875 38.8125 
Q 15.578125 40.375 12.03125 44.71875 
Q 8.5 49.078125 8.5 55.328125 
Q 8.5 64.0625 14.71875 69.140625 
Q 20.953125 74.21875 31.78125 74.21875 
Q 42.671875 74.21875 48.875 69.140625 
Q 55.078125 64.0625 55.078125 55.328125 
Q 55.078125 49.078125 51.53125 44.71875 
Q 48 40.375 41.703125 38.8125 
Q 48.828125 37.15625 52.796875 32.3125 
Q 56.78125 27.484375 56.78125 20.515625 
Q 56.78125 9.90625 50.3125 4.234375 
Q 43.84375 -1.421875 31.78125 -1.421875 
Q 19.734375 -1.421875 13.25 4.234375 
Q 6.78125 9.90625 6.78125 20.515625 
Q 6.78125 27.484375 10.78125 32.3125 
Q 14.796875 37.15625 21.921875 38.8125 
z
M 18.3125 54.390625 
Q 18.3125 48.734375 21.84375 45.5625 
Q 25.390625 42.390625 31.78125 42.390625 
Q 38.140625 42.390625 41.71875 45.5625 
Q 45.3125 48.734375 45.3125 54.390625 
Q 45.3125 60.0625 41.71875 63.234375 
Q 38.140625 66.40625 31.78125 66.40625 
Q 25.390625 66.40625 21.84375 63.234375 
Q 18.3125 60.0625 18.3125 54.390625 
z
" id="DejaVuSans-56"/>
       </defs>
       <use xlink:href="#DejaVuSans-52"/>
       <use x="63.623047" xlink:href="#DejaVuSans-56"/>
      </g>
     </g>
    </g>
    <g id="xtick_5">
     <g id="line2d_5">
      <g>
       <use style="stroke:#000000;stroke-width:0.8;" x="243.690045" xlink:href="#mf0f3021e02" y="252"/>
      </g>
     </g>
     <g id="text_5">
      <!-- 50 -->
      <g transform="translate(237.327545 266.598437)scale(0.1 -0.1)">
       <defs>
        <path d="M 10.796875 72.90625 
L 49.515625 72.90625 
L 49.515625 64.59375 
L 19.828125 64.59375 
L 19.828125 46.734375 
Q 21.96875 47.46875 24.109375 47.828125 
Q 26.265625 48.1875 28.421875 48.1875 
Q 40.625 48.1875 47.75 41.5 
Q 54.890625 34.8125 54.890625 23.390625 
Q 54.890625 11.625 47.5625 5.09375 
Q 40.234375 -1.421875 26.90625 -1.421875 
Q 22.3125 -1.421875 17.546875 -0.640625 
Q 12.796875 0.140625 7.71875 1.703125 
L 7.71875 11.625 
Q 12.109375 9.234375 16.796875 8.0625 
Q 21.484375 6.890625 26.703125 6.890625 
Q 35.15625 6.890625 40.078125 11.328125 
Q 45.015625 15.765625 45.015625 23.390625 
Q 45.015625 31 40.078125 35.4375 
Q 35.15625 39.890625 26.703125 39.890625 
Q 22.75 39.890625 18.8125 39.015625 
Q 14.890625 38.140625 10.796875 36.28125 
z
" id="DejaVuSans-53"/>
        <path d="M 31.78125 66.40625 
Q 24.171875 66.40625 20.328125 58.90625 
Q 16.5 51.421875 16.5 36.375 
Q 16.5 21.390625 20.328125 13.890625 
Q 24.171875 6.390625 31.78125 6.390625 
Q 39.453125 6.390625 43.28125 13.890625 
Q 47.125 21.390625 47.125 36.375 
Q 47.125 51.421875 43.28125 58.90625 
Q 39.453125 66.40625 31.78125 66.40625 
z
M 31.78125 74.21875 
Q 44.046875 74.21875 50.515625 64.515625 
Q 56.984375 54.828125 56.984375 36.375 
Q 56.984375 17.96875 50.515625 8.265625 
Q 44.046875 -1.421875 31.78125 -1.421875 
Q 19.53125 -1.421875 13.0625 8.265625 
Q 6.59375 17.96875 6.59375 36.375 
Q 6.59375 54.828125 13.0625 64.515625 
Q 19.53125 74.21875 31.78125 74.21875 
z
" id="DejaVuSans-48"/>
       </defs>
       <use xlink:href="#DejaVuSans-53"/>
       <use x="63.623047" xlink:href="#DejaVuSans-48"/>
      </g>
     </g>
    </g>
    <g id="xtick_6">
     <g id="line2d_6">
      <g>
       <use style="stroke:#000000;stroke-width:0.8;" x="290.714951" xlink:href="#mf0f3021e02" y="252"/>
      </g>
     </g>
     <g id="text_6">
      <!-- 52 -->
      <g transform="translate(284.352451 266.598437)scale(0.1 -0.1)">
       <use xlink:href="#DejaVuSans-53"/>
       <use x="63.623047" xlink:href="#DejaVuSans-50"/>
      </g>
     </g>
    </g>
    <g id="xtick_7">
     <g id="line2d_7">
      <g>
       <use style="stroke:#000000;stroke-width:0.8;" x="337.739856" xlink:href="#mf0f3021e02" y="252"/>
      </g>
     </g>
     <g id="text_7">
      <!-- 54 -->
      <g transform="translate(331.377356 266.598437)scale(0.1 -0.1)">
       <use xlink:href="#DejaVuSans-53"/>
       <use x="63.623047" xlink:href="#DejaVuSans-52"/>
      </g>
     </g>
    </g>
    <g id="xtick_8">
     <g id="line2d_8">
      <g>
       <use style="stroke:#000000;stroke-width:0.8;" x="384.764762" xlink:href="#mf0f3021e02" y="252"/>
      </g>
     </g>
     <g id="text_8">
      <!-- 56 -->
      <g transform="translate(378.402262 266.598437)scale(0.1 -0.1)">
       <use xlink:href="#DejaVuSans-53"/>
       <use x="63.623047" xlink:href="#DejaVuSans-54"/>
      </g>
     </g>
    </g>
    <g id="text_9">
     <!-- GC -->
     <g transform="translate(214.034375 280.276563)scale(0.1 -0.1)">
      <defs>
       <path d="M 59.515625 10.40625 
L 59.515625 29.984375 
L 43.40625 29.984375 
L 43.40625 38.09375 
L 69.28125 38.09375 
L 69.28125 6.78125 
Q 63.578125 2.734375 56.6875 0.65625 
Q 49.8125 -1.421875 42 -1.421875 
Q 24.90625 -1.421875 15.25 8.5625 
Q 5.609375 18.5625 5.609375 36.375 
Q 5.609375 54.25 15.25 64.234375 
Q 24.90625 74.21875 42 74.21875 
Q 49.125 74.21875 55.546875 72.453125 
Q 61.96875 70.703125 67.390625 67.28125 
L 67.390625 56.78125 
Q 61.921875 61.421875 55.765625 63.765625 
Q 49.609375 66.109375 42.828125 66.109375 
Q 29.4375 66.109375 22.71875 58.640625 
Q 16.015625 51.171875 16.015625 36.375 
Q 16.015625 21.625 22.71875 14.15625 
Q 29.4375 6.6875 42.828125 6.6875 
Q 48.046875 6.6875 52.140625 7.59375 
Q 56.25 8.5 59.515625 10.40625 
z
" id="DejaVuSans-71"/>
       <path d="M 64.40625 67.28125 
L 64.40625 56.890625 
Q 59.421875 61.53125 53.78125 63.8125 
Q 48.140625 66.109375 41.796875 66.109375 
Q 29.296875 66.109375 22.65625 58.46875 
Q 16.015625 50.828125 16.015625 36.375 
Q 16.015625 21.96875 22.65625 14.328125 
Q 29.296875 6.6875 41.796875 6.6875 
Q 48.140625 6.6875 53.78125 8.984375 
Q 59.421875 11.28125 64.40625 15.921875 
L 64.40625 5.609375 
Q 59.234375 2.09375 53.4375 0.328125 
Q 47.65625 -1.421875 41.21875 -1.421875 
Q 24.65625 -1.421875 15.125 8.703125 
Q 5.609375 18.84375 5.609375 36.375 
Q 5.609375 53.953125 15.125 64.078125 
Q 24.65625 74.21875 41.21875 74.21875 
Q 47.75 74.21875 53.53125 72.484375 
Q 59.328125 70.75 64.40625 67.28125 
z
" id="DejaVuSans-67"/>
      </defs>
      <use xlink:href="#DejaVuSans-71"/>
      <use x="77.490234" xlink:href="#DejaVuSans-67"/>
     </g>
    </g>
   </g>
   <g id="matplotlib.axis_2">
    <g id="ytick_1">
     <g id="line2d_9">
      <defs>
       <path d="M 0 0 
L -3.5 0 
" id="m47b61b47f3" style="stroke:#000000;stroke-width:0.8;"/>
      </defs>
      <g>
       <use style="stroke:#000000;stroke-width:0.8;" x="54" xlink:href="#m47b61b47f3" y="250.76995"/>
      </g>
     </g>
     <g id="text_10">
      <!-- −0.06 -->
      <g transform="translate(16.354687 254.569169)scale(0.1 -0.1)">
       <defs>
        <path d="M 10.59375 35.5 
L 73.1875 35.5 
L 73.1875 27.203125 
L 10.59375 27.203125 
z
" id="DejaVuSans-8722"/>
        <path d="M 10.6875 12.40625 
L 21 12.40625 
L 21 0 
L 10.6875 0 
z
" id="DejaVuSans-46"/>
       </defs>
       <use xlink:href="#DejaVuSans-8722"/>
       <use x="83.789062" xlink:href="#DejaVuSans-48"/>
       <use x="147.412109" xlink:href="#DejaVuSans-46"/>
       <use x="179.199219" xlink:href="#DejaVuSans-48"/>
       <use x="242.822266" xlink:href="#DejaVuSans-54"/>
      </g>
     </g>
    </g>
    <g id="ytick_2">
     <g id="line2d_10">
      <g>
       <use style="stroke:#000000;stroke-width:0.8;" x="54" xlink:href="#m47b61b47f3" y="226.497945"/>
      </g>
     </g>
     <g id="text_11">
      <!-- −0.04 -->
      <g transform="translate(16.354687 230.297164)scale(0.1 -0.1)">
       <use xlink:href="#DejaVuSans-8722"/>
       <use x="83.789062" xlink:href="#DejaVuSans-48"/>
       <use x="147.412109" xlink:href="#DejaVuSans-46"/>
       <use x="179.199219" xlink:href="#DejaVuSans-48"/>
       <use x="242.822266" xlink:href="#DejaVuSans-52"/>
      </g>
     </g>
    </g>
    <g id="ytick_3">
     <g id="line2d_11">
      <g>
       <use style="stroke:#000000;stroke-width:0.8;" x="54" xlink:href="#m47b61b47f3" y="202.22594"/>
      </g>
     </g>
     <g id="text_12">
      <!-- −0.02 -->
      <g transform="translate(16.354687 206.025159)scale(0.1 -0.1)">
       <use xlink:href="#DejaVuSans-8722"/>
       <use x="83.789062" xlink:href="#DejaVuSans-48"/>
       <use x="147.412109" xlink:href="#DejaVuSans-46"/>
       <use x="179.199219" xlink:href="#DejaVuSans-48"/>
       <use x="242.822266" xlink:href="#DejaVuSans-50"/>
      </g>
     </g>
    </g>
    <g id="ytick_4">
     <g id="line2d_12">
      <g>
       <use style="stroke:#000000;stroke-width:0.8;" x="54" xlink:href="#m47b61b47f3" y="177.953935"/>
      </g>
     </g>
     <g id="text_13">
      <!-- 0.00 -->
      <g transform="translate(24.734375 181.753153)scale(0.1 -0.1)">
       <use xlink:href="#DejaVuSans-48"/>
       <use x="63.623047" xlink:href="#DejaVuSans-46"/>
       <use x="95.410156" xlink:href="#DejaVuSans-48"/>
       <use x="159.033203" xlink:href="#DejaVuSans-48"/>
      </g>
     </g>
    </g>
    <g id="ytick_5">
     <g id="line2d_13">
      <g>
       <use style="stroke:#000000;stroke-width:0.8;" x="54" xlink:href="#m47b61b47f3" y="153.681929"/>
      </g>
     </g>
     <g id="text_14">
      <!-- 0.02 -->
      <g transform="translate(24.734375 157.481148)scale(0.1 -0.1)">
       <use xlink:href="#DejaVuSans-48"/>
       <use x="63.623047" xlink:href="#DejaVuSans-46"/>
       <use x="95.410156" xlink:href="#DejaVuSans-48"/>
       <use x="159.033203" xlink:href="#DejaVuSans-50"/>
      </g>
     </g>
    </g>
    <g id="ytick_6">
     <g id="line2d_14">
      <g>
       <use style="stroke:#000000;stroke-width:0.8;" x="54" xlink:href="#m47b61b47f3" y="129.409924"/>
      </g>
     </g>
     <g id="text_15">
      <!-- 0.04 -->
      <g transform="translate(24.734375 133.209143)scale(0.1 -0.1)">
       <use xlink:href="#DejaVuSans-48"/>
       <use x="63.623047" xlink:href="#DejaVuSans-46"/>
       <use x="95.410156" xlink:href="#DejaVuSans-48"/>
       <use x="159.033203" xlink:href="#DejaVuSans-52"/>
      </g>
     </g>
    </g>
    <g id="ytick_7">
     <g id="line2d_15">
      <g>
       <use style="stroke:#000000;stroke-width:0.8;" x="54" xlink:href="#m47b61b47f3" y="105.137919"/>
      </g>
     </g>
     <g id="text_16">
      <!-- 0.06 -->
      <g transform="translate(24.734375 108.937137)scale(0.1 -0.1)">
       <use xlink:href="#DejaVuSans-48"/>
       <use x="63.623047" xlink:href="#DejaVuSans-46"/>
       <use x="95.410156" xlink:href="#DejaVuSans-48"/>
       <use x="159.033203" xlink:href="#DejaVuSans-54"/>
      </g>
     </g>
    </g>
    <g id="ytick_8">
     <g id="line2d_16">
      <g>
       <use style="stroke:#000000;stroke-width:0.8;" x="54" xlink:href="#m47b61b47f3" y="80.865913"/>
      </g>
     </g>
     <g id="text_17">
      <!-- 0.08 -->
      <g transform="translate(24.734375 84.665132)scale(0.1 -0.1)">
       <use xlink:href="#DejaVuSans-48"/>
       <use x="63.623047" xlink:href="#DejaVuSans-46"/>
       <use x="95.410156" xlink:href="#DejaVuSans-48"/>
       <use x="159.033203" xlink:href="#DejaVuSans-56"/>
      </g>
     </g>
    </g>
    <g id="ytick_9">
     <g id="line2d_17">
      <g>
       <use style="stroke:#000000;stroke-width:0.8;" x="54" xlink:href="#m47b61b47f3" y="56.593908"/>
      </g>
     </g>
     <g id="text_18">
      <!-- 0.10 -->
      <g transform="translate(24.734375 60.393127)scale(0.1 -0.1)">
       <defs>
        <path d="M 12.40625 8.296875 
L 28.515625 8.296875 
L 28.515625 63.921875 
L 10.984375 60.40625 
L 10.984375 69.390625 
L 28.421875 72.90625 
L 38.28125 72.90625 
L 38.28125 8.296875 
L 54.390625 8.296875 
L 54.390625 0 
L 12.40625 0 
z
" id="DejaVuSans-49"/>
       </defs>
       <use xlink:href="#DejaVuSans-48"/>
       <use x="63.623047" xlink:href="#DejaVuSans-46"/>
       <use x="95.410156" xlink:href="#DejaVuSans-49"/>
       <use x="159.033203" xlink:href="#DejaVuSans-48"/>
      </g>
     </g>
    </g>
    <g id="text_19">
     <!-- DiffDens -->
     <g transform="translate(10.275 164.739375)rotate(-90)scale(0.1 -0.1)">
      <defs>
       <path d="M 19.671875 64.796875 
L 19.671875 8.109375 
L 31.59375 8.109375 
Q 46.6875 8.109375 53.6875 14.9375 
Q 60.6875 21.78125 60.6875 36.53125 
Q 60.6875 51.171875 53.6875 57.984375 
Q 46.6875 64.796875 31.59375 64.796875 
z
M 9.8125 72.90625 
L 30.078125 72.90625 
Q 51.265625 72.90625 61.171875 64.09375 
Q 71.09375 55.28125 71.09375 36.53125 
Q 71.09375 17.671875 61.125 8.828125 
Q 51.171875 0 30.078125 0 
L 9.8125 0 
z
" id="DejaVuSans-68"/>
       <path d="M 9.421875 54.6875 
L 18.40625 54.6875 
L 18.40625 0 
L 9.421875 0 
z
M 9.421875 75.984375 
L 18.40625 75.984375 
L 18.40625 64.59375 
L 9.421875 64.59375 
z
" id="DejaVuSans-105"/>
       <path d="M 37.109375 75.984375 
L 37.109375 68.5 
L 28.515625 68.5 
Q 23.6875 68.5 21.796875 66.546875 
Q 19.921875 64.59375 19.921875 59.515625 
L 19.921875 54.6875 
L 34.71875 54.6875 
L 34.71875 47.703125 
L 19.921875 47.703125 
L 19.921875 0 
L 10.890625 0 
L 10.890625 47.703125 
L 2.296875 47.703125 
L 2.296875 54.6875 
L 10.890625 54.6875 
L 10.890625 58.5 
Q 10.890625 67.625 15.140625 71.796875 
Q 19.390625 75.984375 28.609375 75.984375 
z
" id="DejaVuSans-102"/>
       <path d="M 56.203125 29.59375 
L 56.203125 25.203125 
L 14.890625 25.203125 
Q 15.484375 15.921875 20.484375 11.0625 
Q 25.484375 6.203125 34.421875 6.203125 
Q 39.59375 6.203125 44.453125 7.46875 
Q 49.3125 8.734375 54.109375 11.28125 
L 54.109375 2.78125 
Q 49.265625 0.734375 44.1875 -0.34375 
Q 39.109375 -1.421875 33.890625 -1.421875 
Q 20.796875 -1.421875 13.15625 6.1875 
Q 5.515625 13.8125 5.515625 26.8125 
Q 5.515625 40.234375 12.765625 48.109375 
Q 20.015625 56 32.328125 56 
Q 43.359375 56 49.78125 48.890625 
Q 56.203125 41.796875 56.203125 29.59375 
z
M 47.21875 32.234375 
Q 47.125 39.59375 43.09375 43.984375 
Q 39.0625 48.390625 32.421875 48.390625 
Q 24.90625 48.390625 20.390625 44.140625 
Q 15.875 39.890625 15.1875 32.171875 
z
" id="DejaVuSans-101"/>
       <path d="M 54.890625 33.015625 
L 54.890625 0 
L 45.90625 0 
L 45.90625 32.71875 
Q 45.90625 40.484375 42.875 44.328125 
Q 39.84375 48.1875 33.796875 48.1875 
Q 26.515625 48.1875 22.3125 43.546875 
Q 18.109375 38.921875 18.109375 30.90625 
L 18.109375 0 
L 9.078125 0 
L 9.078125 54.6875 
L 18.109375 54.6875 
L 18.109375 46.1875 
Q 21.34375 51.125 25.703125 53.5625 
Q 30.078125 56 35.796875 56 
Q 45.21875 56 50.046875 50.171875 
Q 54.890625 44.34375 54.890625 33.015625 
z
" id="DejaVuSans-110"/>
       <path d="M 44.28125 53.078125 
L 44.28125 44.578125 
Q 40.484375 46.53125 36.375 47.5 
Q 32.28125 48.484375 27.875 48.484375 
Q 21.1875 48.484375 17.84375 46.4375 
Q 14.5 44.390625 14.5 40.28125 
Q 14.5 37.15625 16.890625 35.375 
Q 19.28125 33.59375 26.515625 31.984375 
L 29.59375 31.296875 
Q 39.15625 29.25 43.1875 25.515625 
Q 47.21875 21.78125 47.21875 15.09375 
Q 47.21875 7.46875 41.1875 3.015625 
Q 35.15625 -1.421875 24.609375 -1.421875 
Q 20.21875 -1.421875 15.453125 -0.5625 
Q 10.6875 0.296875 5.421875 2 
L 5.421875 11.28125 
Q 10.40625 8.6875 15.234375 7.390625 
Q 20.0625 6.109375 24.8125 6.109375 
Q 31.15625 6.109375 34.5625 8.28125 
Q 37.984375 10.453125 37.984375 14.40625 
Q 37.984375 18.0625 35.515625 20.015625 
Q 33.0625 21.96875 24.703125 23.78125 
L 21.578125 24.515625 
Q 13.234375 26.265625 9.515625 29.90625 
Q 5.8125 33.546875 5.8125 39.890625 
Q 5.8125 47.609375 11.28125 51.796875 
Q 16.75 56 26.8125 56 
Q 31.78125 56 36.171875 55.265625 
Q 40.578125 54.546875 44.28125 53.078125 
z
" id="DejaVuSans-115"/>
      </defs>
      <use xlink:href="#DejaVuSans-68"/>
      <use x="77.001953" xlink:href="#DejaVuSans-105"/>
      <use x="104.785156" xlink:href="#DejaVuSans-102"/>
      <use x="139.990234" xlink:href="#DejaVuSans-102"/>
      <use x="175.195312" xlink:href="#DejaVuSans-68"/>
      <use x="252.197266" xlink:href="#DejaVuSans-101"/>
      <use x="313.720703" xlink:href="#DejaVuSans-110"/>
      <use x="377.099609" xlink:href="#DejaVuSans-115"/>
     </g>
    </g>
   </g>
   <g id="line2d_18">
    <path clip-path="url(#p19c3c932be)" d="M 54 156.844104 
L 57.381818 157.104346 
L 60.763636 157.364588 
L 64.145455 157.62483 
L 67.527273 157.885071 
L 70.909091 158.145313 
L 74.290909 158.405555 
L 77.672727 158.665797 
L 81.054545 158.926039 
L 84.436364 159.186281 
L 87.818182 159.446523 
L 91.2 159.706764 
L 94.581818 159.967006 
L 97.963636 160.227248 
L 101.345455 160.48749 
L 104.727273 160.747732 
L 108.109091 161.007974 
L 111.490909 161.268216 
L 114.872727 161.528457 
L 118.254545 161.788699 
L 121.636364 162.048941 
L 125.018182 162.309183 
L 128.4 162.569425 
L 131.781818 162.829667 
L 135.163636 163.089909 
L 138.545455 163.35015 
L 141.927273 163.610392 
L 145.309091 163.870634 
L 148.690909 164.130876 
L 152.072727 164.391118 
L 155.454545 164.65136 
L 158.836364 164.911602 
L 162.218182 165.171843 
L 165.6 165.432085 
L 168.981818 165.692327 
L 172.363636 165.952569 
L 175.745455 166.212811 
L 179.127273 166.473053 
L 182.509091 166.733295 
L 185.890909 166.993536 
L 189.272727 167.253778 
L 192.654545 167.51402 
L 196.036364 167.774262 
L 199.418182 168.034504 
L 202.8 168.294746 
L 206.181818 168.554988 
L 209.563636 168.815229 
L 212.945455 169.075471 
L 216.327273 169.335713 
L 219.709091 169.595955 
L 223.090909 169.856197 
L 226.472727 170.116439 
L 229.854545 170.376681 
L 233.236364 170.636922 
L 236.618182 170.897164 
L 240 171.157406 
L 243.381818 171.417648 
L 246.763636 171.67789 
L 250.145455 171.938132 
L 253.527273 172.198374 
L 256.909091 172.458615 
L 260.290909 172.718857 
L 263.672727 172.979099 
L 267.054545 173.239341 
L 270.436364 173.499583 
L 273.818182 173.759825 
L 277.2 174.020067 
L 280.581818 174.280308 
L 283.963636 174.54055 
L 287.345455 174.800792 
L 290.727273 175.061034 
L 294.109091 175.321276 
L 297.490909 175.581518 
L 300.872727 175.84176 
L 304.254545 176.102001 
L 307.636364 176.362243 
L 311.018182 176.622485 
L 314.4 176.882727 
L 317.781818 177.142969 
L 321.163636 177.403211 
L 324.545455 177.663453 
L 327.927273 177.923694 
L 331.309091 178.183936 
L 334.690909 178.444178 
L 338.072727 178.70442 
L 341.454545 178.964662 
L 344.836364 179.224904 
L 348.218182 179.485146 
L 351.6 179.745388 
L 354.981818 180.005629 
L 358.363636 180.265871 
L 361.745455 180.526113 
L 365.127273 180.786355 
L 368.509091 181.046597 
L 371.890909 181.306839 
L 375.272727 181.567081 
L 378.654545 181.827322 
L 382.036364 182.087564 
L 385.418182 182.347806 
L 388.8 182.608048 
" style="fill:none;stroke:#d3772e;stroke-linecap:square;stroke-width:2.25;"/>
   </g>
   <g id="patch_3">
    <path d="M 54 252 
L 54 34.56 
" style="fill:none;stroke:#000000;stroke-linecap:square;stroke-linejoin:miter;stroke-width:0.8;"/>
   </g>
   <g id="patch_4">
    <path d="M 388.8 252 
L 388.8 34.56 
" style="fill:none;stroke:#000000;stroke-linecap:square;stroke-linejoin:miter;stroke-width:0.8;"/>
   </g>
   <g id="patch_5">
    <path d="M 54 252 
L 388.8 252 
" style="fill:none;stroke:#000000;stroke-linecap:square;stroke-linejoin:miter;stroke-width:0.8;"/>
   </g>
   <g id="patch_6">
    <path d="M 54 34.56 
L 388.8 34.56 
" style="fill:none;stroke:#000000;stroke-linecap:square;stroke-linejoin:miter;stroke-width:0.8;"/>
   </g>
  </g>
 </g>
 <defs>
  <clipPath id="p19c3c932be">
   <rect height="217.44" width="334.8" x="54" y="34.56"/>
  </clipPath>
 </defs>
</svg>
